<svg xmlns="http://www.w3.org/2000/svg" width="317" height="147" fill="none" viewBox="0 0 317 147"><g id="Г‘ВЃГђВїГ‘ВЂГђВ°ГђВ№Г‘В‚=1"><g id="default"><g id="1"><g id="Г‘ВЃ"><path id="Г‘ВЃ_2" fill="#92D6FF" d="M93.091 115.734s49.817 2.05 74.33 0c0 0 2.642-73.608-31.251-87.945-5.71-2.415-15.194 0-15.194 0z"/><path id="c" fill="#92D6FF" d="M205.57 97.59c0 16.543-13.909 29.955-31.065 29.955s-31.066-13.412-31.066-29.955 13.909-46.082 31.066-46.082S205.57 81.043 205.57 97.59"/><g id="Г‘ВЃ_3"><path id="Г‘ВЃ_4" fill="#352ECB" d="M113.697 19.924a10.8 10.8 0 0 1 8.471-.9 24.2 24.2 0 0 1 5.948 2.729 12 12 0 0 1 2.872 2.633 5.74 5.74 0 0 1 .874 3.4 28 28 0 0 1-1.671 7.1l-24.4 72.299a40 40 0 0 1-1.707 4.413 11 11 0 0 1-2.394 3.023q-3 2.89-11.308.088-8.05-2.718-8.856-6.748a10.9 10.9 0 0 1-.028-3.985q.566-2.441 1.4-4.804L98.536 52.83l-2.213.987q-6.68 2.23-10.444.958-3.764-1.27-6.321-7.193-2.554-5.922-1.373-9.427t7.257-6.082l27.772-12.027z"/></g></g><g id="Г‘ВЃ_5"><path id="Г‘ВЃ_6" fill="#80B3FF" d="M105.786 105.255a22.24 22.24 0 0 0-22.235 22h44.469a22.24 22.24 0 0 0-22.234-22"/><g id="Г‘ВЃ_7"><path id="Г‘ВЃ_8" fill="#02928E" fill-rule="evenodd" d="M244.22 102.757a21.471 21.471 0 0 0-15.605 5.479 42.033 42.033 0 0 0-81.226-4.914 37.52 37.52 0 0 0-30.738 21.759h-2.988a21.913 21.913 0 0 0-21.917 21.917H261.67a28.42 28.42 0 0 0 7.017-18.211c.011-15.204-10.698-25.549-24.467-26.03" clip-rule="evenodd"/><g id="Г‘ВЃ_9" fill="#02928E"><path id="Г‘ВЃ_10" d="M229.084 115.072s29.306.906 23.742-30.172c-31.073-2.91-23.742 30.172-23.742 30.172"/><path id="Г‘ВЃ_11" d="M227.129 114.308s21.417-20.024-4.445-38.134c-24.085 19.847 4.445 38.134 4.445 38.134"/></g><path id="Г‘ВЃ_12" fill="#00AE8C" d="M229.933 111.195a5.718 5.718 0 1 0 0-11.436 5.718 5.718 0 0 0 0 11.436"/><path id="Г‘ВЃ_13" fill="#00AE8C" d="M180.217 100.958a5.718 5.718 0 1 0 0-11.435 5.718 5.718 0 0 0 0 11.435"/><path id="Г‘ВЃ_14" fill="#00AE8C" d="M153.189 127.22a5.718 5.718 0 1 0 0-11.436 5.718 5.718 0 0 0 0 11.436"/><path id="Г‘ВЃ_15" fill="#00AE8C" d="M205.05 137.382a5.718 5.718 0 1 0 0-11.436 5.718 5.718 0 0 0 0 11.436"/><path id="Г‘ВЃ_16" fill="#00AE8C" d="M116.297 131.664a5.718 5.718 0 1 0 0-11.436 5.718 5.718 0 0 0 0 11.436"/></g></g></g></g><g id="success"><g id="1_2"><g id="Г‘ВЃ_17"><path id="Г‘ВЃ_18" fill="#92D6FF" d="M93.091 115.734s49.817 2.05 74.33 0c0 0 2.642-73.608-31.251-87.945-5.71-2.415-15.194 0-15.194 0z"/><path id="c_2" fill="#92D6FF" d="M205.57 97.59c0 16.543-13.909 29.955-31.065 29.955s-31.066-13.412-31.066-29.955 13.909-46.082 31.066-46.082S205.57 81.043 205.57 97.59"/><g id="Г‘ВЃ_19"><path id="Г‘ВЃ_20" fill="#352ECB" d="M113.697 19.924a10.8 10.8 0 0 1 8.471-.9 24.2 24.2 0 0 1 5.948 2.729 12 12 0 0 1 2.872 2.633 5.74 5.74 0 0 1 .874 3.4 28 28 0 0 1-1.671 7.1l-24.4 72.299a40 40 0 0 1-1.707 4.413 11 11 0 0 1-2.394 3.023q-3 2.89-11.308.088-8.05-2.718-8.856-6.748a10.9 10.9 0 0 1-.028-3.985q.566-2.441 1.4-4.804L98.536 52.83l-2.213.987q-6.68 2.23-10.444.958-3.764-1.27-6.321-7.193-2.554-5.922-1.373-9.427t7.257-6.082l27.772-12.027z"/></g></g><g id="Г‘ВЃ_21"><path id="Г‘ВЃ_22" fill="#80B3FF" d="M105.786 105.255a22.24 22.24 0 0 0-22.235 22h44.469a22.24 22.24 0 0 0-22.234-22"/><g id="Г‘ВЃ_23"><path id="Г‘ВЃ_24" fill="#02928E" fill-rule="evenodd" d="M244.22 102.757a21.471 21.471 0 0 0-15.605 5.479 42.033 42.033 0 0 0-81.226-4.914 37.52 37.52 0 0 0-30.738 21.759h-2.988a21.913 21.913 0 0 0-21.917 21.917H261.67a28.42 28.42 0 0 0 7.017-18.211c.011-15.204-10.698-25.549-24.467-26.03" clip-rule="evenodd"/><g id="Г‘ВЃ_25" fill="#02928E"><path id="Г‘ВЃ_26" d="M229.084 115.072s29.306.906 23.742-30.172c-31.073-2.91-23.742 30.172-23.742 30.172"/><path id="Г‘ВЃ_27" d="M227.129 114.308s21.417-20.024-4.445-38.134c-24.085 19.847 4.445 38.134 4.445 38.134"/></g><path id="Г‘ВЃ_28" fill="#00AE8C" d="M229.933 111.195a5.718 5.718 0 1 0 0-11.436 5.718 5.718 0 0 0 0 11.436"/><path id="Г‘ВЃ_29" fill="#00AE8C" d="M180.217 100.958a5.718 5.718 0 1 0 0-11.435 5.718 5.718 0 0 0 0 11.435"/><path id="Г‘ВЃ_30" fill="#00AE8C" d="M153.189 127.22a5.718 5.718 0 1 0 0-11.436 5.718 5.718 0 0 0 0 11.436"/><path id="Г‘ВЃ_31" fill="#00AE8C" d="M205.05 137.382a5.718 5.718 0 1 0 0-11.436 5.718 5.718 0 0 0 0 11.436"/><path id="Г‘ВЃ_32" fill="#00AE8C" d="M116.297 131.664a5.718 5.718 0 1 0 0-11.436 5.718 5.718 0 0 0 0 11.436"/></g></g></g></g></g></svg>