<svg xmlns="http://www.w3.org/2000/svg" width="317" height="147" fill="none" viewBox="0 0 317 147"><g id="脩聛脨驴脩聙脨掳脨鹿脩聜=3"><g id="default"><g id="3"><g id="脨赂"><path id="脩聛" fill="#02928E" d="M116.187 138.689c-23.985 7.114-105.181 5.634-101.835-8.693 3.323-14.226 9.977-42.67 19.468-67.431l39.553-12.22 25.993 14.487-1.006 22.75 27.566.38 18.12 22.65-10.917 16.432z"/><path id="脩聛_2" fill="#077" d="M26.591 138.689c-.013-2.233 9.126-56.02 32.99-47.7 17.975 6.27 20.842 51.855 20.842 51.855-39.153.841-53.832-4.155-53.832-4.155"/></g><g id="脩聛_3"><g id="脩聛_4"><path id="脩聛_5" fill="#42E9C9" d="M131.83 81.314a51.2 51.2 0 0 0-24.014 1.506l-.381-.328q7.332-6.089 6.555-13.607-.777-7.52-9.479-14.991a43.5 43.5 0 0 0-24.694-10.347 57.94 57.94 0 0 0-28.833 4.841 45.7 45.7 0 0 0-14.5 9.306 9.26 9.26 0 0 0-.214 12.733 9.26 9.26 0 0 0 3.884 2.522 15.7 15.7 0 0 0 16.834-4.337q.294-.333.6-.646a24 24 0 0 1 7.87-5.339q13.336-5.719 23.882 3.336 6.862 5.89 4.654 10.476-2.207 4.586-13.107 9.26a4.915 4.915 0 0 0-1.264 8.244l3.2 2.746a12.43 12.43 0 0 0 12.993 1.993q11.8-5.06 19.916-5.025a22.1 22.1 0 0 1 14.661 5.654q7.3 6.273 5.928 11.116t-11.188 9.051a62.4 62.4 0 0 1-14.669 4.082l-2.079.334a6.14 6.14 0 0 0-4.936 4.393 6.15 6.15 0 0 0 .031 3.443 6.15 6.15 0 0 0 1.879 2.884 17 17 0 0 0 13.253 3.935 90.5 90.5 0 0 0 24.2-6.615q18.21-7.81 20.558-18.426t-11.058-22.124a43.67 43.67 0 0 0-20.482-10.07"/></g></g></g></g><g id="success"><g id="3_2"><g id="脨赂_2"><path id="脩聛_6" fill="#02928E" d="M116.187 138.689c-23.985 7.114-105.181 5.634-101.835-8.693 3.323-14.226 9.977-42.67 19.468-67.431l39.553-12.22 25.993 14.487-1.006 22.75 27.566.38 18.12 22.65-10.917 16.432z"/><path id="脩聛_7" fill="#077" d="M26.591 138.689c-.013-2.233 9.126-56.02 32.99-47.7 17.975 6.27 20.842 51.855 20.842 51.855-39.153.841-53.832-4.155-53.832-4.155"/></g><g id="脩聛_8"><g id="脩聛_9"><path id="脩聛_10" fill="#42E9C9" d="M131.83 81.314a51.2 51.2 0 0 0-24.014 1.506l-.381-.328q7.332-6.089 6.555-13.607-.777-7.52-9.479-14.991a43.5 43.5 0 0 0-24.694-10.347 57.94 57.94 0 0 0-28.833 4.841 45.7 45.7 0 0 0-14.5 9.306 9.26 9.26 0 0 0-.214 12.733 9.26 9.26 0 0 0 3.884 2.522 15.7 15.7 0 0 0 16.834-4.337q.294-.333.6-.646a24 24 0 0 1 7.87-5.339q13.336-5.719 23.882 3.336 6.862 5.89 4.654 10.476-2.207 4.586-13.107 9.26a4.915 4.915 0 0 0-1.264 8.244l3.2 2.746a12.43 12.43 0 0 0 12.993 1.993q11.8-5.06 19.916-5.025a22.1 22.1 0 0 1 14.661 5.654q7.3 6.273 5.928 11.116t-11.188 9.051a62.4 62.4 0 0 1-14.669 4.082l-2.079.334a6.14 6.14 0 0 0-4.936 4.393 6.15 6.15 0 0 0 .031 3.443 6.15 6.15 0 0 0 1.879 2.884 17 17 0 0 0 13.253 3.935 90.5 90.5 0 0 0 24.2-6.615q18.21-7.81 20.558-18.426t-11.058-22.124a43.67 43.67 0 0 0-20.482-10.07"/></g></g></g></g></g></svg>