<svg xmlns="http://www.w3.org/2000/svg" width="308" height="147" fill="none" viewBox="0 0 308 147"><g id="спрайт=5_верный"><g id="default"><g id="5"><path id="с" fill="#4B5DDC" d="M174.125 38.255s39.074 42.21 52.627 83.753c-64.6 14.527-117.48 10.988-117.48 10.988s40.273-23.1 35.379-40.038-39.53-10.608-39.53-10.608l17.318-39.116z"/><path id="с_2" fill="#02928E" d="M168.052 133.376c-4.586-35.667 1.835-43.226 12-42.1 8.215.913 9.412 20.638 9.412 20.638 6.4-31.18 10.144-42.99 25.5-38.443 10.549 3.123 5.051 31.756 5.051 31.756 14.752-13.2 22.9-3.884 15.757 11.391-5.022 10.733-16.941 16.755-16.941 16.755z"/><g id="с_3" fill="#B278FF"><path id="с_4" d="m94.289 86.685 5.8 3.3c.308.176.672.23 1.018.152q3.114-.7 7.693-1.32a67 67 0 0 1 8.888-.673q21.607 0 16.133 14.17-5.748 14.877-26.618 14.878a60 60 0 0 1-14.018-1.7 49 49 0 0 1-10.5-3.663 1.4 1.4 0 0 0-.57-.142 1.42 1.42 0 0 0-1.07.422c-.139.141-.247.31-.317.495l-5.571 14.422a1.423 1.423 0 0 0 .672 1.79q9.062 4.471 25.966 4.471 20.721 0 35.127-8.464a46.8 46.8 0 0 0 20.475-24.176q5.127-13.274-1.179-20.905-6.306-7.63-21.942-7.63a64 64 0 0 0-11.482.9 1.437 1.437 0 0 1-1.517-2.054l7.468-15.1a1.43 1.43 0 0 1 1.287-.8h36.619a1.43 1.43 0 0 0 1.338-.917l5.382-13.932a1.436 1.436 0 0 0-1.339-1.951h-55.477a1.44 1.44 0 0 0-1.3.822L93.698 84.83a1.436 1.436 0 0 0 .591 1.855"/><path id="с_5" d="M149.934 31.41A13.64 13.64 0 0 0 136.3 44.898h27.27a13.635 13.635 0 0 0-13.636-13.488"/></g><path id="с_6" fill="#92D6FF" d="M158.341 124.274a14.327 14.327 0 0 0-14.32 14.167h28.64a14.32 14.32 0 0 0-14.32-14.167"/><path id="x" fill="#02928E" d="M91.749 128.026a43 43 0 0 0-6.555.5c1.9-4.119 1.988-9.756-3.378-16.965-6 2.322-8.821 5.591-9.857 9.014a21.65 21.65 0 0 0-9.823-3.66c-3.577 8.033-1.7 13.138 1.7 16.369a14.275 14.275 0 0 0-17.949 13.686h74.675c-.181-10.478-13.004-18.944-28.813-18.944"/></g></g><g id="success"><g id="5_2"><path id="с_7" fill="#00AE8C" d="M174.125 38.255s39.074 42.21 52.627 83.753c-64.6 14.527-117.48 10.988-117.48 10.988s40.273-23.1 35.379-40.038-39.53-10.608-39.53-10.608l17.318-39.116z"/><path id="с_8" fill="#02928E" d="M168.052 133.376c-4.586-35.667 1.835-43.226 12-42.1 8.215.913 9.412 20.638 9.412 20.638 6.4-31.18 10.144-42.99 25.5-38.443 10.549 3.123 5.051 31.756 5.051 31.756 14.752-13.2 22.9-3.884 15.757 11.391-5.022 10.733-16.941 16.755-16.941 16.755z"/><path id="с_9" fill="#93CBF6" d="M158.341 124.274a14.327 14.327 0 0 0-14.32 14.167h28.64a14.32 14.32 0 0 0-14.32-14.167"/><g id="с_10"><path id="с_11" fill="#02928E" d="M76.333 138.653s6.917-18.58-14.2-21.734c-8.582 19.279 14.2 21.734 14.2 21.734"/></g><path id="с_12" fill="#02928E" d="M91.749 128.026c-15.811 0-28.633 8.466-28.809 18.949h57.616c-.175-10.483-12.998-18.949-28.807-18.949"/><path id="с_13" fill="#02928E" d="M60.203 132.808a14.32 14.32 0 0 0-14.321 14.167h28.64a14.32 14.32 0 0 0-14.319-14.167"/><path id="с_14" fill="#02928E" d="M91.749 128.026a43 43 0 0 0-6.555.5c1.9-4.119 1.988-9.756-3.378-16.965-6 2.322-8.821 5.591-9.857 9.014a21.65 21.65 0 0 0-9.823-3.66c-3.577 8.033-1.7 13.138 1.7 16.369a14.275 14.275 0 0 0-17.949 13.686h74.675c-.181-10.478-13.004-18.944-28.813-18.944"/><g id="с_15" fill="#FBFF5F"><path id="с_16" d="m94.289 86.685 5.8 3.3c.308.176.672.23 1.018.152q3.114-.7 7.693-1.32a67 67 0 0 1 8.888-.673q21.607 0 16.133 14.17-5.748 14.877-26.618 14.878a60 60 0 0 1-14.018-1.7 49 49 0 0 1-10.5-3.663 1.4 1.4 0 0 0-.57-.142 1.42 1.42 0 0 0-1.07.422c-.139.141-.247.31-.317.495l-5.571 14.422a1.423 1.423 0 0 0 .672 1.79q9.062 4.471 25.966 4.471 20.721 0 35.127-8.464a46.8 46.8 0 0 0 20.475-24.176q5.127-13.274-1.179-20.905-6.306-7.63-21.942-7.63a64 64 0 0 0-11.482.9 1.437 1.437 0 0 1-1.517-2.054l7.468-15.1a1.43 1.43 0 0 1 1.287-.8h36.619a1.43 1.43 0 0 0 1.338-.917l5.382-13.932a1.436 1.436 0 0 0-1.339-1.951h-55.477a1.44 1.44 0 0 0-1.3.822L93.698 84.83a1.436 1.436 0 0 0 .591 1.855"/><path id="с_17" d="M149.934 31.41A13.64 13.64 0 0 0 136.3 44.898h27.27a13.635 13.635 0 0 0-13.636-13.488"/></g></g><g id="bl" fill="#fff"><path id="c" d="M184.896 66.856c-5.291-6.355-1.33-25.41 3.153-23.89 4.834 1.637 5.913 9.549 5.913 9.549s8.971-2.724 10.179.456c1.981 5.21-16.928 16.666-19.245 13.885"/><path id="c_2" d="M200.308 37.24c4.043-.944 6.183-4.999 5.086-8.14-1.114-3.249-5.492-5.093-8.414-3.386-2.364 1.38-3.031 4.686-2.153 7.2a6.74 6.74 0 0 0 2.134 2.931 5.72 5.72 0 0 0 3.342 1.4z"/><path id="c_3" d="M75.547 68.342c3.225 2.615 7.744 1.82 9.553-.975 1.886-2.872.656-7.462-2.482-8.723-2.54-1.023-5.56.477-7.006 2.711a6.74 6.74 0 0 0-1.008 3.483 5.73 5.73 0 0 0 .942 3.5z"/><path id="c_4" d="M100.035 37.958c-6.434 2.01-19.831-6.754-17.337-9.636 2.69-3.107 9.063-1.5 9.063-1.5s.584-7.524 3.376-7.456c4.575.11 7.714 17.712 4.898 18.592"/><path id="c_5" d="M175.711 27.793c-4.177-5.016-1.05-20.057 2.488-18.858 3.816 1.293 4.668 7.538 4.668 7.538s7.081-2.15 8.035.36c1.568 4.113-13.363 13.155-15.191 10.96"/></g></g></g></svg>