<svg xmlns="http://www.w3.org/2000/svg" width="317" height="147" fill="none" viewBox="0 0 317 147"><g id="спрайт=6"><g id="default"><g id="6"><path id="f" fill="#92D6FF" d="M195.03 130.23c-7.171-9.053-49.735-9.893-55.268-.431s20.776 16.879 38.2 14.133c10.778-1.699 22.697-6.6 17.068-13.702"/><path id="f_2" fill="#92D6FF" d="M186.33 75.39C167.772 33.656 31.604 35.78 9.196 81.268s58.361 76.75 115.609 61.288c35.425-9.564 76.078-34.422 61.525-67.164"/><g id="с" fill="#F3811C"><path id="с_2" d="M163.459 76.575q-5.061-10.326-26.384-14.04c-15.812-2.754-31.954-1.214-45.6 5.112q10.846-11.4 21.649-16.732a69.7 69.7 0 0 1 24.474-6.644q13.671-1.304 30.969 1.708c5.057.881 11.632 3.127 18.621 4.2a7.06 7.06 0 0 0 7.417-3.814l6.059-12.228a144.6 144.6 0 0 0-20.469-4.716q-39.818-6.935-71.876 3.76Q76.261 43.88 51.508 72.896q-11.58 13.572-12.667 24.442-1.087 10.869 7.745 18.166 8.832 7.3 26.457 10.367 25.458 4.433 47.606-2.191 22.147-6.626 35.493-22.269 12.376-14.508 7.317-24.835m-56.65 31.1a39.2 39.2 0 0 1-20.331 1.566q-10.443-1.82-12.567-8.486-2.123-6.668 4.666-14.623 4.62-5.415 15.334-8.235a48.7 48.7 0 0 1 20.941-1.037q10.881 1.9 12.758 6.945 1.876 5.046-4.227 12.2a38.9 38.9 0 0 1-16.574 11.673z"/><path id="с_3" d="M205.688 46.413c11.377-1.889 19.768-8.43 18.742-14.61s-11.081-9.66-22.458-7.77c-11.377 1.889-19.768 8.43-18.742 14.61s11.081 9.659 22.458 7.77"/><path id="с_4" d="M116.665 131.69c7.403-1.229 12.862-5.484 12.195-9.505-.668-4.021-7.21-6.284-14.612-5.055s-12.863 5.485-12.195 9.506 7.209 6.284 14.612 5.054"/><path id="с_5" d="M127.283 92.65c5.169-.86 8.98-3.834 8.513-6.641s-5.036-4.387-10.205-3.528c-5.168.86-8.98 3.833-8.513 6.641s5.036 4.387 10.205 3.528"/><path id="с_6" d="M54.442 98.664c11.269-1.875 19.579-8.356 18.56-14.477-1.017-6.12-10.978-9.564-22.247-7.69-11.269 1.875-19.579 8.357-18.56 14.478 1.017 6.12 10.978 9.563 22.247 7.689"/><path id="с_7" d="M162.997 96.23c7.403-1.229 12.863-5.484 12.195-9.505s-7.21-6.284-14.612-5.055-12.862 5.485-12.195 9.506c.668 4.02 7.21 6.284 14.612 5.055"/><path id="с_8" d="M159.079 101.668c4.93-.818 8.565-3.652 8.121-6.33-.445-2.678-4.802-4.185-9.731-3.367-4.93.819-8.565 3.653-8.121 6.33.445 2.679 4.801 4.186 9.731 3.367"/><path id="с_9" d="M181.544 35.749c5.688-.945 9.884-4.215 9.371-7.305s-5.54-4.828-11.229-3.884-9.884 4.215-9.371 7.305 5.54 4.829 11.229 3.884"/></g></g></g><g id="success"><g id="6_2"><path id="f_3" fill="#92D6FF" d="M195.03 130.23c-7.171-9.053-49.735-9.893-55.268-.431s20.776 16.879 38.2 14.133c10.778-1.699 22.697-6.6 17.068-13.702"/><path id="f_4" fill="#92D6FF" d="M186.33 75.39C167.772 33.656 31.604 35.78 9.196 81.268s58.361 76.75 115.609 61.288c35.425-9.564 76.078-34.422 61.525-67.164"/><g id="с_10" fill="#F3811C"><path id="с_11" d="M163.459 76.575q-5.061-10.326-26.384-14.04c-15.812-2.754-31.954-1.214-45.6 5.112q10.846-11.4 21.649-16.732a69.7 69.7 0 0 1 24.474-6.644q13.671-1.304 30.969 1.708c5.057.881 11.632 3.127 18.621 4.2a7.06 7.06 0 0 0 7.417-3.814l6.059-12.228a144.6 144.6 0 0 0-20.469-4.716q-39.818-6.935-71.876 3.76Q76.261 43.88 51.508 72.896q-11.58 13.572-12.667 24.442-1.087 10.869 7.745 18.166 8.832 7.3 26.457 10.367 25.458 4.433 47.606-2.191 22.147-6.626 35.493-22.269 12.376-14.508 7.317-24.835m-56.65 31.1a39.2 39.2 0 0 1-20.331 1.566q-10.443-1.82-12.567-8.486-2.123-6.668 4.666-14.623 4.62-5.415 15.334-8.235a48.7 48.7 0 0 1 20.941-1.037q10.881 1.9 12.758 6.945 1.876 5.046-4.227 12.2a38.9 38.9 0 0 1-16.574 11.673z"/><path id="с_12" d="M205.688 46.413c11.377-1.889 19.768-8.43 18.742-14.61s-11.081-9.66-22.458-7.77c-11.377 1.889-19.768 8.43-18.742 14.61s11.081 9.659 22.458 7.77"/><path id="с_13" d="M116.665 131.69c7.403-1.229 12.862-5.484 12.195-9.505-.668-4.021-7.21-6.284-14.612-5.055s-12.863 5.485-12.195 9.506 7.209 6.284 14.612 5.054"/><path id="с_14" d="M127.283 92.65c5.169-.86 8.98-3.834 8.513-6.641s-5.036-4.387-10.205-3.528c-5.168.86-8.98 3.833-8.513 6.641s5.036 4.387 10.205 3.528"/><path id="с_15" d="M54.442 98.664c11.269-1.875 19.579-8.356 18.56-14.477-1.017-6.12-10.978-9.564-22.247-7.69-11.269 1.875-19.579 8.357-18.56 14.478 1.017 6.12 10.978 9.563 22.247 7.689"/><path id="с_16" d="M162.997 96.23c7.403-1.229 12.863-5.484 12.195-9.505s-7.21-6.284-14.612-5.055-12.862 5.485-12.195 9.506c.668 4.02 7.21 6.284 14.612 5.055"/><path id="с_17" d="M159.079 101.668c4.93-.818 8.565-3.652 8.121-6.33-.445-2.678-4.802-4.185-9.731-3.367-4.93.819-8.565 3.653-8.121 6.33.445 2.679 4.801 4.186 9.731 3.367"/><path id="с_18" d="M181.544 35.749c5.688-.945 9.884-4.215 9.371-7.305s-5.54-4.828-11.229-3.884-9.884 4.215-9.371 7.305 5.54 4.829 11.229 3.884"/></g></g></g></g></svg>