<svg xmlns="http://www.w3.org/2000/svg" width="317" height="147" fill="none" viewBox="0 0 317 147"><g id="Г‘ВЃГђВїГ‘ВЂГђВ°ГђВ№Г‘В‚=7_ГђВІГђВµГ‘ВЂГђВЅГ‘В‹ГђВ№"><g id="default"><path id="Vector" fill="#009870" d="M303.21 138c65.44-178.99-168.02-178.9-236.54 0z"/><path id="Vector_2" fill="#077" d="M198.31 138c-.68-47.77-34.98-86.26-77.21-86.26S44.57 90.23 43.89 138z"/><path id="Vector_3" fill="#077" d="M167.06 83.77c5.898 0 10.68-4.781 10.68-10.68 0-5.898-4.782-10.68-10.68-10.68s-10.68 4.782-10.68 10.68c0 5.899 4.782 10.68 10.68 10.68"/><g id="default_2"><g id="7"><g id="7_2"><g id="ГѓВ‘Г‚ВЃ_4"><g id="ГѓВ‘Г‚ВЃ_5"><path id="ГѓВ‘Г‚ВЃ_6" fill="#FFF6A9" d="M257.49 24.45c7.24 0 11.48 1.97 12.72 5.89.62 1.66.93 4.55.93 8.69s-1.34 9.28-4.03 15.43c-2.77 6.31-6.02 12.4-9.7 18.23q-5.67 9-11.4 18.15c-9.1 14.79-13.65 26.68-13.65 35.68.04 1.69-.06 3.37-.31 5.04-.27 1.23-.8 2.4-1.55 3.41a6.38 6.38 0 0 1-4.11 2.4c-5.19.83-10.48.83-15.67 0-.82-.12-1.6-.4-2.3-.83-.71-.42-1.32-.99-1.81-1.65a8.6 8.6 0 0 1-1.47-3.49c-.19-1.73-.27-3.46-.23-5.2a67.5 67.5 0 0 1 3.41-20.71c2.07-6.6 4.82-12.97 8.22-19 3.2-5.59 6.41-10.73 9.62-15.43s5.95-8.74 8.22-12.1 3.41-5.71 3.41-7.06h-35.36c-4.14 0-7.14-.52-9-1.55a7.65 7.65 0 0 1-2.31-1.88 7.5 7.5 0 0 1-1.41-2.62 32.8 32.8 0 0 1 0-15.51c.2-.83.57-1.62 1.07-2.31.51-.69 1.14-1.28 1.88-1.72q3.255-1.86 9-1.86h55.84z"/></g><path id="ГѓВ‘Г‚ВЃ_7" fill="#FFF6A9" d="m260.82 95.21-56.25.29a6.06 6.06 0 0 1-6.26-5.06c-.44-3.76-.49-7.55-.13-11.31a6.054 6.054 0 0 1 6.18-5.13l56.22-.29c1.52-.07 3.01.44 4.18 1.42s1.92 2.37 2.11 3.88c.3 3.57.35 7.16.16 10.75a6.05 6.05 0 0 1-6.21 5.45"/></g></g><g id="ГѓВ‘Г‚ВЃ_17"><g id="ГѓВ‘Г‚ВЃ_18"><g id="ГѓВ‘Г‚ВЃ_20" fill="#11BF9D"><path id="ГѓВ‘Г‚ВЃ_21" d="M127.99 114.071s23.86-17.04.6-38.39c-26.48 16.51-.6 38.39-.6 38.39"/><path id="ГѓВ‘Г‚ВЃ_22" d="M123.23 111.661s-.33-29.32-31.14-22.45c-1.6 31.17 31.14 22.45 31.14 22.45"/></g></g></g></g></g><path id="Vector_4" fill="#11BF9D" fill-rule="evenodd" d="M221.38 138c-3.12-16.72-17.78-29.37-35.4-29.37s-32.28 12.66-35.4 29.37h70.8" clip-rule="evenodd"/><path id="Vector_5" fill="#11BF9D" fill-rule="evenodd" d="M181.55 138c-4.27-25.42-24.36-44.67-48.51-44.67S88.81 112.58 84.53 138z" clip-rule="evenodd"/><path id="Vector_6" fill="#009870" d="M299.04 58.77c9.477 0 17.16-7.683 17.16-17.16s-7.683-17.16-17.16-17.16-17.16 7.683-17.16 17.16 7.683 17.16 17.16 17.16"/><path id="Vector_7" fill="#009870" d="M288.31 34.69c5.898 0 10.68-4.781 10.68-10.68 0-5.898-4.782-10.68-10.68-10.68s-10.68 4.782-10.68 10.68 4.782 10.68 10.68 10.68"/><g id="ГѓВ‘Г‚ВЃ_17_2"><g id="ГѓВ‘Г‚ВЃ_18_2"><g id="ГѓВ‘Г‚ВЃ_20_2" fill="#00AE8C"><path id="ГѓВ‘Г‚ВЃ_21_2" d="M272.45 111.11s-3.02 23.65 22.57 21.57c4.78-24.92-22.57-21.57-22.57-21.57"/><path id="ГѓВ‘Г‚ВЃ_22_2" d="M306.84 102.83s-10.93-21.19-30.83-4.96c10.29 23.2 30.96 4.9 30.83 4.96"/></g></g></g></g><g id="success"><g id="ГѓВ‘Г‚ВЃ_23"><g id="ГѓВ‘Г‚ВЃ_24"><path id="ГѓВ‘Г‚ВЃ_25" fill="#42C2D1" d="M89.99 54.36c1.59-6.28 5.51-10.45 12.26-12.07l.12.76 4.39-.67.19 1.21 3.26-.5q.6.495 1.05 1.14c4.36 6.4 4.73 13.13.06 20.28a16.43 16.43 0 0 1-4.98-7.85 19.45 19.45 0 0 1-7.23 5.64c-.93-2.93-1.02-6.07-.26-9.05a19.65 19.65 0 0 1-8.86 1.12z"/><path id="ГѓВ‘Г‚ВЃ_26" fill="#42C2D1" d="M160.35 41.87a16.4 16.4 0 0 1-8.84 1.93c1.56 2.58 2.49 5.49 2.74 8.49-7.52-.46-12.84-4.54-15.38-13.18a5.914 5.914 0 0 1 1.47-5.83c5.48-5.47 12.02-7.09 19.92-3.83a16.37 16.37 0 0 1-6.79 6.35c2.75 1.44 5.11 3.52 6.89 6.06z"/><g id="ГѓВ‘Г‚ВЃ_27"><path id="ГѓВ‘Г‚ВЃ_28" fill="#42C2D1" d="M87.4 26.029c.27-2.4 2.12-4.45 4.65-3.93 2.47.53 4.07 3.07 6.66 3.29 5.19.44 4.06 9.06-1.36 8.83-5.44-.3-10.6-2.72-9.95-8.18z"/><path id="ГѓВ‘Г‚ВЃ_29" fill="#42C2D1" d="M151.99 8.73c-1.32-2.04-3.85-3.05-5.89-1.45-1.99 1.52-2.3 4.57-4.55 5.88-4.48 2.75.41 9.9 5.2 7.27 4.72-2.61 8.31-7.1 5.24-11.7"/><path id="ГѓВ‘Г‚ВЃ_30" fill="#42C2D1" d="M95.3 40.75c-3.43-12.55 6.44-26.18 22.04-30.44s31.02 2.47 34.45 15.02-6.44 26.18-22.04 30.43-31.02-2.47-34.45-15.02z"/><path id="ГѓВ‘Г‚ВЃ_31" fill="#2484BB" d="M125.83 41.009a9.459 9.459 0 0 1-8.29-1.72 1 1 0 0 1-.27-.3c-.07-.12-.11-.25-.13-.38s0-.27.03-.4q.06-.195.18-.36c.08-.11.19-.2.31-.26a.9.9 0 0 1 .38-.12 1.041 1.041 0 0 1 .76.23 7.4 7.4 0 0 0 6.5 1.36 7.14 7.14 0 0 0 3-1.62c.86-.77 1.52-1.73 1.94-2.81.1-.25.3-.45.55-.56s.53-.11.78 0c.25.1.45.3.56.55s.11.53 0 .78a9.419 9.419 0 0 1-6.32 5.64z"/><path id="ГѓВ‘Г‚ВЃ_32" fill="#fff" d="M139.03 29.77a7.9 7.9 0 0 1-4.62-.15 8 8 0 0 1-3.76-2.69 7.955 7.955 0 0 1-.58-8.83 7.9 7.9 0 0 1 3.37-3.16c1.41-.7 3-.96 4.56-.76a7.9 7.9 0 0 1 4.21 1.91 7.93 7.93 0 0 1 2.44 3.92c.55 2.04.26 4.22-.79 6.05a7.96 7.96 0 0 1-4.83 3.72z"/><path id="ГѓВ‘Г‚ВЃ_33" fill="#3A2058" d="M140.85 27.909c-.74.2-1.53.17-2.25-.07-.73-.25-1.37-.7-1.83-1.31a3.85 3.85 0 0 1-.79-2.11 3.882 3.882 0 0 1 4.37-4.1 3.884 3.884 0 0 1 2.86 5.78c-.51.89-1.36 1.54-2.35 1.81z"/><path id="ГѓВ‘Г‚ВЃ_34" fill="#2484BB" d="M136.02 11.759c-1.35.12-2.66.5-3.86 1.12s-2.26 1.48-3.13 2.52c-1.3 1.57-2.11 3.48-2.33 5.51a10.34 10.34 0 0 0 5.31 10.15c1.79.98 3.82 1.4 5.85 1.22 1.03-.08 2.03-.32 2.98-.73 2.26-.95 4.12-2.67 5.23-4.86s1.4-4.71.81-7.09a10.31 10.31 0 0 0-10.87-7.83zm2.88 17.55a7.57 7.57 0 0 1-4.37-.12 7.5 7.5 0 0 1-3.56-2.53 7.525 7.525 0 0 1 2.58-11.34 7.46 7.46 0 0 1 4.31-.73c1.48.19 2.86.81 3.99 1.78a7.6 7.6 0 0 1 2.33 3.7c.27.95.34 1.95.22 2.93s-.44 1.93-.93 2.79-1.15 1.61-1.93 2.22c-.78.6-1.68 1.05-2.63 1.3z"/><path id="ГѓВ‘Г‚ВЃ_35" fill="#fff" d="M136.5 24.84c-.38.1-.78.09-1.15-.04s-.69-.36-.93-.67-.38-.68-.4-1.07c-.03-.39.06-.78.26-1.12.19-.34.49-.61.84-.79a2 2 0 0 1 1.13-.19c.39.05.75.22 1.04.47.29.26.5.6.61.97.07.25.09.51.05.77-.03.26-.12.51-.25.73s-.3.42-.51.58-.44.27-.69.34z"/><path id="ГѓВ‘Г‚ВЃ_36" fill="#fff" d="M108.64 39.49c-1.6.43-3.29.38-4.86-.16a8.45 8.45 0 0 1-3.95-2.83 8.38 8.38 0 0 1-.62-9.29 8.39 8.39 0 0 1 8.35-4.13c1.64.22 3.18.91 4.43 2a8.35 8.35 0 0 1 2.57 4.13c.29 1.06.36 2.17.22 3.26s-.5 2.14-1.05 3.1c-.55.95-1.28 1.79-2.15 2.46s-1.87 1.16-2.93 1.45z"/><path id="ГѓВ‘Г‚ВЃ_37" fill="#3A2058" d="M110.41 37.43c-.78.21-1.61.18-2.37-.08-.77-.26-1.44-.74-1.93-1.38s-.78-1.41-.84-2.22c-.05-.81.13-1.61.54-2.31.4-.7 1.01-1.27 1.73-1.62a4.077 4.077 0 0 1 4.5.59c.61.53 1.04 1.23 1.25 2.01a4.07 4.07 0 0 1-1.45 4.3c-.43.33-.91.57-1.43.71"/><path id="ГѓВ‘Г‚ВЃ_38" fill="#2484BB" d="M116.23 26.8c-.84-1.82-2.18-3.37-3.85-4.47a10.75 10.75 0 0 0-5.63-1.79c-2.01-.06-3.99.43-5.73 1.43s-3.17 2.46-4.13 4.22-1.41 3.76-1.3 5.76.77 3.94 1.92 5.58a10.83 10.83 0 0 0 4.56 3.75c1.84.8 3.86 1.08 5.85.8 1.09-.14 2.15-.45 3.14-.91 2.58-1.23 4.57-3.43 5.53-6.12.97-2.69.83-5.65-.37-8.24zm-7.71 12.23c-1.51.41-3.12.37-4.6-.13a7.94 7.94 0 0 1-3.76-2.66 7.94 7.94 0 0 1-.62-8.79 8.04 8.04 0 0 1 3.34-3.17c1.4-.7 2.98-.97 4.54-.77s3.02.85 4.21 1.88a7.96 7.96 0 0 1 2.45 3.9c.55 2.03.27 4.19-.77 6.02a7.93 7.93 0 0 1-4.79 3.73z"/><path id="ГѓВ‘Г‚ВЃ_39" fill="#fff" d="M106.62 33.02c-.38.1-.78.09-1.15-.04s-.69-.36-.93-.67-.38-.68-.4-1.07c-.03-.39.07-.78.26-1.12a2 2 0 0 1 1.97-.97c.39.05.75.21 1.04.47s.51.6.61.97c.07.25.09.51.05.77-.03.26-.12.5-.25.73-.13.22-.3.42-.51.58s-.44.27-.69.34z"/><path id="ГѓВ‘Г‚ВЃ_40" fill="#3A2058" d="M120.03 32.98c-.3-1.09.96-2.38 2.81-2.88s3.59-.03 3.89 1.06-.96 2.38-2.81 2.88-3.59.03-3.89-1.06"/></g></g><path id="ГѓВ‘Г‚ВЃ_41" fill="#2484BB" d="M113.2 2.25a14.7 14.7 0 0 1 6.34 5.01c.9-2.54 2.38-4.83 4.32-6.7 1.69 2.13 2.7 4.86 2.9 7.68.71 9.93-11.74 15.34-18.36 7.91-1.65-1.86-2.94-4.18-3.71-6.81 2.79-.44 5.65-.06 8.23 1.1-.56-2.71-.46-5.52.29-8.19z"/></g><path id="Vector_8" fill="#009870" d="M303.21 138c65.44-178.99-168.02-178.9-236.54 0z"/><path id="Vector_9" fill="#077" d="M198.31 137.999c-.68-47.77-34.98-86.26-77.21-86.26S44.57 90.23 43.89 138z"/><g id="default_3"><g id="7_3"><g id="ГѓВ‘Г‚ВЃ_17_3"><g id="ГѓВ‘Г‚ВЃ_18_3"><g id="ГѓВ‘Г‚ВЃ_20_3" fill="#11BF9D"><path id="ГѓВ‘Г‚ВЃ_21_3" d="M117.82 115.53s13.97-25.78-16.3-34.76c-16.56 26.45 16.3 34.76 16.3 34.76"/><path id="ГѓВ‘Г‚ВЃ_22_3" d="M112.5 115.46s-13.15-26.2-37.84-6.52c12.23 28.71 37.84 6.52 37.84 6.52"/></g></g></g><g id="ГѓВ‘Г‚ВЃ_17_4"><g id="ГѓВ‘Г‚ВЃ_18_4"><g id="ГѓВ‘Г‚ВЃ_20_4" fill="#00AE8C"><path id="ГѓВ‘Г‚ВЃ_21_4" d="M272.45 111.109s-3.02 23.65 22.57 21.57c4.78-24.92-22.57-21.57-22.57-21.57"/><path id="ГѓВ‘Г‚ВЃ_22_4" d="M306.84 102.829s-10.93-21.19-30.83-4.96c10.29 23.2 30.96 4.9 30.83 4.96"/></g></g></g></g></g><path id="Vector_10" fill="#11BF9D" fill-rule="evenodd" d="M221.38 138c-3.12-16.72-17.78-29.37-35.4-29.37s-32.28 12.66-35.4 29.37h70.8" clip-rule="evenodd"/><path id="Vector_11" fill="#11BF9D" fill-rule="evenodd" d="M181.55 137.999c-4.27-25.42-24.36-44.67-48.51-44.67S88.81 112.58 84.53 138z" clip-rule="evenodd"/><path id="Vector_12" fill="#009870" d="M299.04 58.77c9.477 0 17.16-7.684 17.16-17.16 0-9.478-7.683-17.16-17.16-17.16s-17.16 7.682-17.16 17.16c0 9.476 7.683 17.16 17.16 17.16"/><path id="Vector_13" fill="#009870" d="M288.31 34.69c5.898 0 10.68-4.782 10.68-10.68 0-5.9-4.782-10.68-10.68-10.68s-10.68 4.78-10.68 10.68c0 5.897 4.782 10.68 10.68 10.68"/><path id="Vector_14" fill="#077" d="M167.06 83.77c5.898 0 10.68-4.782 10.68-10.68 0-5.9-4.782-10.68-10.68-10.68s-10.68 4.78-10.68 10.68c0 5.898 4.782 10.68 10.68 10.68"/><g id="7_2_2"><g id="ГѓВ‘Г‚ВЃ_4_2"><g id="ГѓВ‘Г‚ВЃ_5_2"><path id="ГѓВ‘Г‚ВЃ_6_2" fill="#FF7DFF" d="M257.49 24.45c7.24 0 11.48 1.97 12.72 5.89.62 1.66.93 4.55.93 8.69s-1.34 9.28-4.03 15.43c-2.77 6.31-6.02 12.4-9.7 18.23q-5.67 9-11.4 18.15c-9.1 14.789-13.65 26.679-13.65 35.679.04 1.69-.06 3.37-.31 5.04-.27 1.23-.8 2.4-1.55 3.41a6.38 6.38 0 0 1-4.11 2.4c-5.19.83-10.48.83-15.67 0-.82-.12-1.6-.4-2.3-.83-.71-.42-1.32-.99-1.81-1.65a8.6 8.6 0 0 1-1.47-3.49c-.19-1.73-.27-3.46-.23-5.2a67.5 67.5 0 0 1 3.41-20.71c2.07-6.6 4.82-12.97 8.22-19 3.2-5.59 6.41-10.73 9.62-15.43s5.95-8.74 8.22-12.1 3.41-5.71 3.41-7.06h-35.36c-4.14 0-7.14-.52-9-1.55a7.65 7.65 0 0 1-2.31-1.88 7.5 7.5 0 0 1-1.41-2.62 32.8 32.8 0 0 1 0-15.51c.2-.83.57-1.62 1.07-2.31.51-.69 1.14-1.28 1.88-1.72q3.255-1.86 9-1.86h55.84z"/></g><path id="ГѓВ‘Г‚ВЃ_7_2" fill="#FF7DFF" d="m260.82 95.21-56.25.29a6.06 6.06 0 0 1-6.26-5.06c-.44-3.76-.49-7.55-.13-11.31a6.054 6.054 0 0 1 6.18-5.13l56.22-.29c1.52-.07 3.01.44 4.18 1.42s1.92 2.37 2.11 3.88c.3 3.57.35 7.16.16 10.75a6.05 6.05 0 0 1-6.21 5.45"/></g></g><path id="c" fill="#FFBAFB" d="M260.22 35.17c-7.92-3.98-14.69 17.7-6.22 20.57s14.11-16.61 6.22-20.57"/><path id="Vector_15" fill="#FFBAFB" d="M250.25 60.21c-2.98-.09-5.67 2.35-5.7 5.34-.02 2.68 2.11 4.93 4.63 5.34 2.91.48 6.03-1.55 6.41-4.63.38-3.13-2.23-5.96-5.34-6.05"/><g id="bl" fill="#fff"><path id="c 2" d="M275.82 72.66c-5.29-6.35-1.33-25.41 3.15-23.89 4.83 1.64 5.91 9.55 5.91 9.55s8.97-2.72 10.18.46c1.98 5.21-16.93 16.67-19.24 13.88"/><path id="c 3" d="M295.44 39.27c4.04-.95 6.18-5 5.09-8.14-1.12-3.25-5.49-5.09-8.42-3.38-2.36 1.38-3.03 4.69-2.15 7.2a6.77 6.77 0 0 0 2.13 2.93c.93.82 2.11 1.31 3.34 1.4z"/><path id="c 4" d="M185.43 65.71c3.22 2.61 7.74 1.82 9.55-.97 1.89-2.87.66-7.46-2.48-8.72-2.54-1.02-5.56.48-7.01 2.71-.65 1.05-1 2.25-1.01 3.48-.07 1.24.26 2.47.94 3.5z"/><path id="c 5" d="M181.92 52.93c-6.43 2.01-19.83-6.75-17.34-9.64 2.69-3.11 9.06-1.5 9.06-1.5s.58-7.52 3.38-7.46c4.58.11 7.72 17.71 4.9 18.59z"/><path id="c 6" d="M281.81 22.72c-4.18-5.02-1.05-20.06 2.49-18.86 3.82 1.29 4.67 7.54 4.67 7.54s7.08-2.15 8.04.36c1.56 4.12-13.36 13.16-15.19 10.96z"/></g><g id="ГѓВђГ‚Вє" fill="#6BE5EC"><path id="ГѓВ‘Г‚ВЃ_58" d="M100.32 60.22c3.15 0 5.7-2.55 5.7-5.7s-2.55-5.7-5.7-5.7-5.7 2.55-5.7 5.7 2.55 5.7 5.7 5.7"/><path id="ГѓВ‘Г‚ВЃ_59" d="M153.49 34.44c3.15 0 5.7-2.55 5.7-5.7s-2.55-5.7-5.7-5.7-5.7 2.55-5.7 5.7 2.55 5.7 5.7 5.7"/></g></g></g></svg>