<svg xmlns="http://www.w3.org/2000/svg" width="206" height="290" fill="none" viewBox="0 0 206 290"><g id="сard 2, chunk 10"><g id="default"><path id="Vector" fill="#6F4BDD" d="M206.004.001H.129v289.8h205.875z"/><g id="flag2"><path id="Vector 7" fill="#0D0923" d="M205.879.201H.004v289.8h205.875z"/><path id="Vector 8" fill="#FFFEE6" d="M65.358 21.542C59.145 15.93 32.895 18.834.004 27.838v235.599c29.812 7.563 54.7 10.186 65.354 6.296 36.186-13.237 19.51-230.565 0-248.19"/><path id="Vector 9" fill="#0D0923" d="M88.816 237.36a23.57 23.57 0 0 0 16.667-40.234 23.572 23.572 0 0 0-40.238 16.665 23.57 23.57 0 0 0 23.57 23.569"/><path id="Vector 10" fill="#FFFEE6" d="M65.41 125.215c-9.901-.137-18.01 7.076-18.01 16.023v7.725c0 8.949 8.113 16.164 18.017 16.023l140.462-1.847v-36.125z"/><path id="Vector 11" fill="#FFFEE6" d="m128.061 43.686 2.74 212.884c.14 10.862 10.235 19.447 22.244 18.917l.31-.014c11.405-.499 20.322-9.071 20.174-19.386L170.48 43.215c-.169-11.75-11.893-20.597-24.724-18.65-10.309 1.564-17.816 9.679-17.695 19.121"/><path id="Vector 12" fill="#0D0923" d="M12.575 107.506A39.56 39.56 0 0 0 .004 78.889v57.234a39.56 39.56 0 0 0 12.571-28.617"/><path id="Vector 13" fill="#0D0923" d="M90.061 61.701C66.731 74.764 35.327 84.286.004 89.162v24.006c39.446-5.097 76.12-15.69 103.923-31.255z"/></g></g><g id="success"><g id="f2" opacity=".01"><path id="Vector 8_2" fill="#fff" d="M65.398 21.362c-6.217-5.617-32.483-2.71-65.394 6.3v235.762c29.83 7.568 54.733 10.193 65.394 6.3 36.206-13.246 19.52-230.724 0-248.362"/><path id="Vector 9_2" fill="#0D0923" d="M88.87 237.328a23.584 23.584 0 1 0 .001-47.169 23.584 23.584 0 0 0 0 47.169"/><path id="Vector 10_2" fill="#fff" d="M65.449 125.102c-9.907-.137-18.02 7.081-18.02 16.034v7.731c0 8.955 8.117 16.175 18.027 16.034l140.548-1.852v-36.143z"/><path id="Vector 11_2" fill="#fff" d="m128.139 43.52 2.742 213.029c.14 10.869 10.241 19.46 22.257 18.93l.31-.014c11.412-.5 20.335-9.078 20.187-19.4l-3.051-213.016c-.169-11.758-11.9-20.611-24.739-18.663-10.313 1.563-17.827 9.686-17.706 19.135"/><path id="Vector 12_2" fill="#fff" d="M12.583 107.384A39.59 39.59 0 0 0 .003 78.748v57.274a39.6 39.6 0 0 0 12.58-28.637z"/><path id="Vector 13_2" fill="#0D0923" d="M90.116 61.549C66.77 74.62 35.349 84.149.004 89.029v24.02c39.47-5.1 76.166-15.7 103.986-31.276z"/></g></g></g></svg>