<svg xmlns="http://www.w3.org/2000/svg" width="206" height="290" fill="none" viewBox="0 0 206 290"><g id="сard 2, chunk 8"><g id="default"><path id="Vector" fill="#6F4BDD" d="M206.006 0h-206v290h206z"/><g id="flag4"><path id="Vector 19" fill="#0D0923" d="M206.006 0h-206v290h206z"/><path id="Vector 20" fill="#FFFEE6" d="M148.272 43.722c-21.085-12-108.357 31.416-148.266 61.14v80.667c39.909 31.373 127.181 81.109 148.266 69.114C177.254 238.155 92.422 154.289 86.478 145c5.944-9.288 90.776-84.79 61.794-101.278"/><path id="Vector 21" fill="#FFFEE6" d="M131.606 215.057a30.32 30.32 0 0 1-29.771-24.375 30.319 30.319 0 0 1 54.935-22.799 30.32 30.32 0 0 1-25.164 47.174m0-50.572a20.307 20.307 0 0 0-17.942 29.869 20.31 20.31 0 0 0 34.8 1.729 20.305 20.305 0 0 0-2.521-25.649 20.3 20.3 0 0 0-14.337-5.949"/><path id="Vector 22" fill="#0D0923" d="M36.916 104.625c12.608 0 22.829-9.235 22.829-20.626s-10.221-20.626-22.83-20.626c-12.607 0-22.827 9.235-22.827 20.627s10.218 20.625 22.828 20.625"/></g></g><g id="success"><g id="f4" opacity=".01"><path id="Vector 20_2" fill="#fff" d="M148.272 43.724c-21.085-12-108.357 31.416-148.266 61.14v80.667c39.909 31.373 127.181 81.114 148.266 69.114 28.982-16.488-55.85-100.354-61.794-109.643 5.944-9.288 90.776-84.79 61.794-101.278"/><path id="Vector 21_2" fill="#fff" d="M131.606 215.059a30.32 30.32 0 0 1-29.771-24.375 30.32 30.32 0 0 1 18.109-33.949 30.32 30.32 0 1 1 11.662 58.324m0-50.572a20.307 20.307 0 0 0-17.942 29.869 20.31 20.31 0 0 0 34.8 1.729 20.305 20.305 0 0 0-2.521-25.649 20.3 20.3 0 0 0-14.337-5.949"/><path id="Vector 22_2" fill="#0D0923" d="M36.916 104.627c12.608 0 22.829-9.235 22.829-20.626s-10.221-20.626-22.83-20.626c-12.607 0-22.827 9.235-22.827 20.626s10.22 20.626 22.828 20.626"/></g></g></g></svg>