<svg xmlns="http://www.w3.org/2000/svg" width="206" height="290" fill="none" viewBox="0 0 206 290"><g id="сard 2, chunk 9"><g id="default"><path id="Vector" fill="#6F4BDD" d="M206 .001H0v289.8h206z"/><g id="flag1"><path id="Vector_2" fill="#0D0923" d="M206 .201H0v289.8h206z"/><path id="Vector 2" fill="#FFFEE6" d="M34.725 145.635c0 53.185 99.791 99.68 171.275 117.802V27.835c-70.422 19.258-171.275 66.43-171.275 117.8"/><path id="Vector 3" fill="#0D0923" d="M172.318 65.735c-25.55 0-46.262 18.701-46.262 41.772s20.712 41.771 46.262 41.771A48.56 48.56 0 0 0 206 136.123V78.888a48.57 48.57 0 0 0-33.682-13.153"/><path id="Vector 4" fill="#0D0923" d="M182.911 91.645c-44.021 3.412-88.36-.35-124.856-10.592l-7.817 22.708c31.05 8.714 65.921 12.91 100.8 12.91a431 431 0 0 0 54.966-3.497v-24.01a392 392 0 0 1-23.093 2.481"/><path id="Vector 5" fill="#0D0923" d="M23.1 164.987c100.116-4.54 123.081 48.807 123.081 48.807-68.144-14.976-102.119 32.437-102.119 32.437s-75.497-98.545-20.962-81.244"/><path id="Vector 6" fill="#FFFEE6" d="M100.222 169.177c0 12.461-6.957 25.335-15.54 25.335s-15.538-12.874-15.538-25.335 6.956-22.564 15.539-22.564c8.581 0 15.539 10.102 15.539 22.564"/></g></g><g id="success"><g id="r1" opacity=".01"><path id="Vector 2_2" fill="#fff" d="M34.726 145.54c0 53.222 99.791 99.749 171.275 117.884V27.658C135.576 46.93 34.726 94.134 34.726 145.54"/><path id="Vector 3_2" fill="#0D0923" d="M172.319 65.586c-25.55 0-46.262 18.714-46.262 41.8s20.712 41.8 46.262 41.8a48.54 48.54 0 0 0 33.682-13.162V78.749a48.55 48.55 0 0 0-33.682-13.163"/><path id="Vector 4_2" fill="#0D0923" d="M182.911 91.513c-44.021 3.414-88.36-.35-124.856-10.6l-7.817 22.724c31.05 8.72 65.921 12.919 100.8 12.919a431 431 0 0 0 54.966-3.5V89.029a392 392 0 0 1-23.093 2.484"/><path id="Vector 5_2" fill="#0D0923" d="M23.097 164.903c54.531 17.31 115.925 6.335 115.925 6.335-14.194 46.831-94.96 74.972-94.96 74.972s-75.497-98.617-20.965-81.307"/><path id="Vector 6_2" fill="#fff" d="M100.223 169.099c0 12.47-6.957 25.353-15.54 25.353s-15.538-12.883-15.538-25.353 6.957-22.579 15.539-22.579 15.539 10.109 15.539 22.579"/></g></g></g></svg>