<svg xmlns="http://www.w3.org/2000/svg" width="206" height="290" fill="none" viewBox="0 0 206 290"><g id="сard 2, chunk 11"><g id="default"><path id="Vector" fill="#6F4BDD" d="M206.004.001h-206v290h206z"/><g id="flag3"><path id="Vector 14" fill="#0D0923" d="M206.004.001h-206v290h206z"/><path id="Vector 15" fill="#FFFEE6" d="M156.942 128.919.004 126.901v36.15l156.945-2.065c9.692-.137 17.469-7.275 17.469-16.033s-7.781-15.9-17.476-16.034"/><path id="Vector 16" fill="#FFFEE6" d="M8.258 62.624 12.08 228.15c.243 10.5 10.123 18.7 21.721 18.02l3.838-.223c10.741-.626 19.1-8.68 19.1-18.4V63.01c0-9.4-7.817-17.29-18.152-18.33l-7.66-.77C18.662 42.675 8.003 51.478 8.257 62.624"/><path id="Vector 17" fill="#FFFEE6" d="m88.188 85.464 2.828 119.861c.267 11.315 11.646 19.745 23.979 17.765l5.973-.959c9.85-1.581 16.979-9.379 16.838-18.417l-1.833-117.737c-.137-8.792-7.124-16.274-16.693-17.875l-6.968-1.166c-12.723-2.129-24.4 6.84-24.124 18.528"/><path id="Vector 18" fill="#FFFEE6" d="M191.619 117.08a39.515 39.515 0 0 0 0 55.841 145 145 0 0 0 14.385 12.608v-80.667a120.3 120.3 0 0 0-14.385 12.218"/></g></g><g id="success"><g id="f3" fill="#fff" opacity=".01"><path id="Vector 15_2" d="M156.942 128.918.004 126.904v36.146l156.945-2.065c9.692-.137 17.469-7.275 17.469-16.033s-7.781-15.9-17.476-16.034"/><path id="Vector 16_2" d="M8.257 62.623 12.08 228.15c.242 10.5 10.122 18.7 21.72 18.02l3.839-.223c10.74-.626 19.1-8.68 19.1-18.4V63.01c0-9.4-7.818-17.29-18.152-18.33l-7.661-.77C18.662 42.675 8 51.478 8.256 62.623"/><path id="Vector 17_2" d="m88.188 85.463 2.828 119.861c.267 11.315 11.646 19.745 23.979 17.765l5.973-.959c9.85-1.581 16.979-9.379 16.838-18.417l-1.833-117.737c-.137-8.792-7.124-16.274-16.693-17.875l-6.968-1.166c-12.723-2.129-24.4 6.84-24.124 18.528"/><path id="Vector 18_2" d="M191.619 117.079a39.515 39.515 0 0 0 0 55.841 145 145 0 0 0 14.385 12.608v-80.667a120.3 120.3 0 0 0-14.385 12.218"/></g></g></g></svg>