<svg width="1900" height="1600" viewBox="0 0 1900 1600" fill="none" xmlns="http://www.w3.org/2000/svg"><g id="карточка=5, генерация=5"><g id="default"><path id="Vector" d="M786.074 887.157h-7.695a2.458 2.458 0 0 1-2.451-2.451 2.458 2.458 0 0 1 2.451-2.451h7.695a2.458 2.458 0 0 1 2.451 2.451 2.458 2.458 0 0 1-2.451 2.451Zm-20.072 0h-6.188a2.458 2.458 0 0 1-2.451-2.451 2.458 2.458 0 0 1 2.451-2.451h6.188a2.458 2.458 0 0 1 2.451 2.451 2.458 2.458 0 0 1-2.451 2.451Zm-18.564 0h-6.188a2.458 2.458 0 0 1-2.451-2.451 2.458 2.458 0 0 1 2.451-2.451h6.188a2.458 2.458 0 0 1 2.451 2.451 2.458 2.458 0 0 1-2.451 2.451Zm-18.565 0h-6.188a2.458 2.458 0 0 1-2.451-2.451 2.458 2.458 0 0 1 2.451-2.451h6.188a2.458 2.458 0 0 1 2.451 2.451 2.458 2.458 0 0 1-2.451 2.451Zm-18.564 0h-6.189a2.457 2.457 0 0 1-2.45-2.451 2.457 2.457 0 0 1 2.45-2.451h6.189a2.457 2.457 0 0 1 2.45 2.451 2.457 2.457 0 0 1-2.45 2.451Zm-18.565 0h-6.188a2.458 2.458 0 0 1-2.451-2.451 2.458 2.458 0 0 1 2.451-2.451h6.188a2.458 2.458 0 0 1 2.451 2.451 2.458 2.458 0 0 1-2.451 2.451Zm-18.565 0h-6.188a2.458 2.458 0 0 1-2.451-2.451 2.458 2.458 0 0 1 2.451-2.451h6.188a2.458 2.458 0 0 1 2.451 2.451 2.458 2.458 0 0 1-2.451 2.451Zm-18.037-1.899c-.65 0-1.299-.258-1.777-.76a8.567 8.567 0 0 1-2.365-5.906v-1.532a2.458 2.458 0 0 1 2.451-2.451 2.458 2.458 0 0 1 2.451 2.451v1.532c0 .943.355 1.85 1.017 2.536.931.98.894 2.537-.086 3.468a2.436 2.436 0 0 1-1.691.674v-.012Zm135.552-7.059a2.457 2.457 0 0 1-2.451-2.45v-6.189a2.458 2.458 0 0 1 2.451-2.45 2.458 2.458 0 0 1 2.451 2.45v6.189a2.457 2.457 0 0 1-2.451 2.45ZM653.451 867.11a2.458 2.458 0 0 1-2.451-2.451v-6.188a2.458 2.458 0 0 1 2.451-2.451 2.458 2.458 0 0 1 2.451 2.451v6.188a2.458 2.458 0 0 1-2.451 2.451Zm137.243-7.475a2.458 2.458 0 0 1-2.451-2.451v-6.188a2.458 2.458 0 0 1 2.451-2.451 2.458 2.458 0 0 1 2.451 2.451v6.188a2.458 2.458 0 0 1-2.451 2.451Zm-137.243-11.09a2.458 2.458 0 0 1-2.451-2.451v-6.188a2.458 2.458 0 0 1 2.451-2.451 2.458 2.458 0 0 1 2.451 2.451v6.188a2.458 2.458 0 0 1-2.451 2.451Zm137.243-7.475a2.458 2.458 0 0 1-2.451-2.451v-6.188a2.458 2.458 0 0 1 2.451-2.451 2.458 2.458 0 0 1 2.451 2.451v6.188a2.458 2.458 0 0 1-2.451 2.451Zm-137.243-11.09a2.457 2.457 0 0 1-2.451-2.45v-6.189a2.458 2.458 0 0 1 2.451-2.45 2.458 2.458 0 0 1 2.451 2.45v6.189a2.457 2.457 0 0 1-2.451 2.45Zm137.243-7.474a2.458 2.458 0 0 1-2.451-2.451v-6.188a2.458 2.458 0 0 1 2.451-2.451 2.458 2.458 0 0 1 2.451 2.451v6.188a2.458 2.458 0 0 1-2.451 2.451Zm-137.243-11.09a2.458 2.458 0 0 1-2.451-2.451v-6.188a2.458 2.458 0 0 1 2.451-2.451 2.458 2.458 0 0 1 2.451 2.451v6.188a2.458 2.458 0 0 1-2.451 2.451Zm137.243-7.475a2.458 2.458 0 0 1-2.451-2.451v-6.188a2.458 2.458 0 0 1 2.451-2.451 2.458 2.458 0 0 1 2.451 2.451v6.188a2.458 2.458 0 0 1-2.451 2.451Zm-137.243-11.09a2.458 2.458 0 0 1-2.451-2.45v-6.189a2.457 2.457 0 0 1 2.451-2.45 2.457 2.457 0 0 1 2.451 2.45v6.189a2.458 2.458 0 0 1-2.451 2.45Zm137.243-7.475a2.457 2.457 0 0 1-2.451-2.45v-6.188a2.458 2.458 0 0 1 2.451-2.451 2.458 2.458 0 0 1 2.451 2.451v6.188a2.457 2.457 0 0 1-2.451 2.45Zm-137.243-11.089a2.458 2.458 0 0 1-2.451-2.451v-6.188a2.458 2.458 0 0 1 2.451-2.451 2.458 2.458 0 0 1 2.451 2.451v6.188a2.458 2.458 0 0 1-2.451 2.451Zm137.243-7.475a2.458 2.458 0 0 1-2.451-2.451v-6.188a2.458 2.458 0 0 1 2.451-2.451 2.458 2.458 0 0 1 2.451 2.451v6.188a2.458 2.458 0 0 1-2.451 2.451Zm-137.231-11.09h-.122c-1.348-.061-2.39-1.213-2.329-2.573a8.527 8.527 0 0 1 4.375-7.058 2.44 2.44 0 0 1 3.333.943 2.442 2.442 0 0 1-.944 3.333 3.645 3.645 0 0 0-1.874 3.027 2.451 2.451 0 0 1-2.451 2.328h.012Zm132.918-5.551c-.246 0-.478-.037-.723-.11a3.629 3.629 0 0 0-1.091-.159h-4.35a2.458 2.458 0 0 1-2.451-2.451 2.458 2.458 0 0 1 2.451-2.451h4.35c.858 0 1.716.123 2.537.38a2.446 2.446 0 0 1 1.617 3.063 2.448 2.448 0 0 1-2.34 1.728Zm-18.541-.269h-6.188a2.458 2.458 0 0 1-2.451-2.451 2.458 2.458 0 0 1 2.451-2.451h6.188a2.458 2.458 0 0 1 2.451 2.451 2.458 2.458 0 0 1-2.451 2.451Zm-18.564 0h-6.188a2.458 2.458 0 0 1-2.451-2.451 2.458 2.458 0 0 1 2.451-2.451h6.188a2.458 2.458 0 0 1 2.451 2.451 2.458 2.458 0 0 1-2.451 2.451Zm-18.565 0h-6.188a2.458 2.458 0 0 1-2.451-2.451 2.458 2.458 0 0 1 2.451-2.451h6.188a2.458 2.458 0 0 1 2.451 2.451 2.458 2.458 0 0 1-2.451 2.451Zm-18.564 0h-6.189a2.458 2.458 0 0 1-2.45-2.451 2.458 2.458 0 0 1 2.45-2.451h6.189a2.458 2.458 0 0 1 2.451 2.451 2.458 2.458 0 0 1-2.451 2.451Zm-18.565 0h-6.188a2.458 2.458 0 0 1-2.451-2.451 2.458 2.458 0 0 1 2.451-2.451h6.188a2.458 2.458 0 0 1 2.451 2.451 2.458 2.458 0 0 1-2.451 2.451Zm-18.564 0h-6.189a2.457 2.457 0 0 1-2.45-2.451 2.457 2.457 0 0 1 2.45-2.451h6.189a2.458 2.458 0 0 1 2.45 2.451 2.458 2.458 0 0 1-2.45 2.451Z" fill="#EAF2FE"/><path id="Vector_2" d="M1014.19 887.157h-7.69a2.456 2.456 0 0 1-2.45-2.451c0-1.348 1.1-2.451 2.45-2.451h7.69c1.35 0 2.45 1.103 2.45 2.451s-1.1 2.451-2.45 2.451Zm-20.07 0h-6.188a2.458 2.458 0 0 1-2.451-2.451 2.458 2.458 0 0 1 2.451-2.451h6.188a2.458 2.458 0 0 1 2.451 2.451 2.458 2.458 0 0 1-2.451 2.451Zm-18.565 0h-6.188a2.458 2.458 0 0 1-2.451-2.451 2.458 2.458 0 0 1 2.451-2.451h6.188a2.458 2.458 0 0 1 2.451 2.451 2.458 2.458 0 0 1-2.451 2.451Zm-18.564 0h-6.188a2.458 2.458 0 0 1-2.451-2.451 2.458 2.458 0 0 1 2.451-2.451h6.188a2.458 2.458 0 0 1 2.451 2.451 2.458 2.458 0 0 1-2.451 2.451Zm-18.565 0h-6.188a2.458 2.458 0 0 1-2.451-2.451 2.458 2.458 0 0 1 2.451-2.451h6.188a2.458 2.458 0 0 1 2.451 2.451 2.458 2.458 0 0 1-2.451 2.451Zm-18.564 0h-6.189a2.458 2.458 0 0 1-2.45-2.451 2.458 2.458 0 0 1 2.45-2.451h6.189a2.457 2.457 0 0 1 2.45 2.451 2.457 2.457 0 0 1-2.45 2.451Zm-18.565 0h-6.188a2.458 2.458 0 0 1-2.451-2.451 2.458 2.458 0 0 1 2.451-2.451h6.188a2.458 2.458 0 0 1 2.451 2.451 2.458 2.458 0 0 1-2.451 2.451Zm-18.038-1.899a2.451 2.451 0 0 1-1.776-.76 8.562 8.562 0 0 1-2.365-5.906v-1.532a2.458 2.458 0 0 1 2.45-2.451 2.458 2.458 0 0 1 2.451 2.451v1.532c0 .943.356 1.85 1.017 2.536.932.98.895 2.537-.086 3.468a2.432 2.432 0 0 1-1.691.674v-.012Zm135.551-7.059a2.455 2.455 0 0 1-2.45-2.45v-6.189c0-1.347 1.1-2.45 2.45-2.45s2.45 1.103 2.45 2.45v6.189c0 1.348-1.1 2.45-2.45 2.45ZM881.568 867.11a2.458 2.458 0 0 1-2.45-2.451v-6.188a2.458 2.458 0 0 1 2.45-2.451 2.458 2.458 0 0 1 2.451 2.451v6.188a2.458 2.458 0 0 1-2.451 2.451Zm137.242-7.475a2.456 2.456 0 0 1-2.45-2.451v-6.188c0-1.348 1.1-2.451 2.45-2.451s2.45 1.103 2.45 2.451v6.188c0 1.348-1.1 2.451-2.45 2.451Zm-137.242-11.09a2.458 2.458 0 0 1-2.45-2.451v-6.188a2.458 2.458 0 0 1 2.45-2.451 2.458 2.458 0 0 1 2.451 2.451v6.188a2.458 2.458 0 0 1-2.451 2.451Zm137.242-7.475a2.456 2.456 0 0 1-2.45-2.451v-6.188c0-1.348 1.1-2.451 2.45-2.451s2.45 1.103 2.45 2.451v6.188c0 1.348-1.1 2.451-2.45 2.451Zm-137.242-11.09a2.457 2.457 0 0 1-2.45-2.45v-6.189a2.458 2.458 0 0 1 2.45-2.45 2.458 2.458 0 0 1 2.451 2.45v6.189a2.457 2.457 0 0 1-2.451 2.45Zm137.242-7.474a2.456 2.456 0 0 1-2.45-2.451v-6.188c0-1.348 1.1-2.451 2.45-2.451s2.45 1.103 2.45 2.451v6.188c0 1.348-1.1 2.451-2.45 2.451Zm-137.242-11.09a2.458 2.458 0 0 1-2.45-2.451v-6.188a2.458 2.458 0 0 1 2.45-2.451 2.458 2.458 0 0 1 2.451 2.451v6.188a2.458 2.458 0 0 1-2.451 2.451Zm137.242-7.475a2.456 2.456 0 0 1-2.45-2.451v-6.188c0-1.348 1.1-2.451 2.45-2.451s2.45 1.103 2.45 2.451v6.188c0 1.348-1.1 2.451-2.45 2.451Zm-137.242-11.09a2.458 2.458 0 0 1-2.45-2.45v-6.189a2.457 2.457 0 0 1 2.45-2.45 2.457 2.457 0 0 1 2.451 2.45v6.189a2.458 2.458 0 0 1-2.451 2.45Zm137.242-7.475a2.455 2.455 0 0 1-2.45-2.45v-6.188c0-1.348 1.1-2.451 2.45-2.451s2.45 1.103 2.45 2.451v6.188c0 1.348-1.1 2.45-2.45 2.45Zm-137.242-11.089a2.458 2.458 0 0 1-2.45-2.451v-6.188a2.458 2.458 0 0 1 2.45-2.451 2.458 2.458 0 0 1 2.451 2.451v6.188a2.458 2.458 0 0 1-2.451 2.451Zm137.242-7.475a2.456 2.456 0 0 1-2.45-2.451v-6.188c0-1.348 1.1-2.451 2.45-2.451s2.45 1.103 2.45 2.451v6.188c0 1.348-1.1 2.451-2.45 2.451Zm-137.229-11.09h-.123c-1.348-.061-2.389-1.213-2.328-2.573a8.527 8.527 0 0 1 4.375-7.058 2.443 2.443 0 0 1 3.333.943 2.443 2.443 0 0 1-.944 3.333 3.646 3.646 0 0 0-1.875 3.027 2.45 2.45 0 0 1-2.451 2.328h.013Zm132.919-5.551c-.25 0-.48-.037-.72-.11-.36-.11-.72-.159-1.1-.159h-4.35a2.463 2.463 0 0 1-2.45-2.451 2.463 2.463 0 0 1 2.45-2.451h4.35c.86 0 1.72.123 2.54.38a2.449 2.449 0 0 1-.72 4.791Zm-18.542-.269h-6.188a2.458 2.458 0 0 1-2.451-2.451A2.458 2.458 0 0 1 989.77 745h6.188a2.458 2.458 0 0 1 2.451 2.451 2.458 2.458 0 0 1-2.451 2.451Zm-18.564 0h-6.189a2.457 2.457 0 0 1-2.45-2.451 2.457 2.457 0 0 1 2.45-2.451h6.189a2.458 2.458 0 0 1 2.45 2.451 2.458 2.458 0 0 1-2.45 2.451Zm-18.565 0h-6.188a2.458 2.458 0 0 1-2.451-2.451 2.458 2.458 0 0 1 2.451-2.451h6.188a2.458 2.458 0 0 1 2.451 2.451 2.458 2.458 0 0 1-2.451 2.451Zm-18.565 0h-6.188a2.458 2.458 0 0 1-2.451-2.451 2.458 2.458 0 0 1 2.451-2.451h6.188a2.458 2.458 0 0 1 2.451 2.451 2.458 2.458 0 0 1-2.451 2.451Zm-18.564 0h-6.188a2.458 2.458 0 0 1-2.451-2.451 2.458 2.458 0 0 1 2.451-2.451h6.188a2.458 2.458 0 0 1 2.451 2.451 2.458 2.458 0 0 1-2.451 2.451Zm-18.565 0h-6.188a2.458 2.458 0 0 1-2.451-2.451 2.458 2.458 0 0 1 2.451-2.451h6.188a2.458 2.458 0 0 1 2.451 2.451 2.458 2.458 0 0 1-2.451 2.451Z" fill="#EAF2FE"/><path id="Vector_3" d="M1242.31 887.157h-7.7a2.463 2.463 0 0 1-2.45-2.451 2.463 2.463 0 0 1 2.45-2.451h7.7c1.35 0 2.45 1.103 2.45 2.451s-1.1 2.451-2.45 2.451Zm-20.07 0h-6.19a2.456 2.456 0 0 1-2.45-2.451c0-1.348 1.1-2.451 2.45-2.451h6.19c1.35 0 2.45 1.103 2.45 2.451s-1.1 2.451-2.45 2.451Zm-18.57 0h-6.19a2.463 2.463 0 0 1-2.45-2.451 2.463 2.463 0 0 1 2.45-2.451h6.19c1.35 0 2.45 1.103 2.45 2.451s-1.1 2.451-2.45 2.451Zm-18.56 0h-6.19a2.456 2.456 0 0 1-2.45-2.451c0-1.348 1.1-2.451 2.45-2.451h6.19c1.35 0 2.45 1.103 2.45 2.451s-1.1 2.451-2.45 2.451Zm-18.57 0h-6.18a2.456 2.456 0 0 1-2.45-2.451c0-1.348 1.1-2.451 2.45-2.451h6.18c1.35 0 2.45 1.103 2.45 2.451s-1.1 2.451-2.45 2.451Zm-18.56 0h-6.19a2.456 2.456 0 0 1-2.45-2.451c0-1.348 1.1-2.451 2.45-2.451h6.19c1.35 0 2.45 1.103 2.45 2.451s-1.1 2.451-2.45 2.451Zm-18.57 0h-6.18a2.456 2.456 0 0 1-2.45-2.451c0-1.348 1.1-2.451 2.45-2.451h6.18c1.35 0 2.46 1.103 2.46 2.451a2.465 2.465 0 0 1-2.46 2.451Zm-18.03-1.899c-.65 0-1.3-.258-1.78-.76a8.558 8.558 0 0 1-2.36-5.906v-1.532c0-1.348 1.1-2.451 2.45-2.451 1.34 0 2.45 1.103 2.45 2.451v1.532c0 .943.35 1.85 1.01 2.536a2.449 2.449 0 0 1-1.77 4.142v-.012Zm135.55-7.059a2.455 2.455 0 0 1-2.45-2.45v-6.189c0-1.347 1.1-2.45 2.45-2.45s2.45 1.103 2.45 2.45v6.189c0 1.348-1.1 2.45-2.45 2.45Zm-137.24-11.089a2.456 2.456 0 0 1-2.45-2.451v-6.188c0-1.348 1.1-2.451 2.45-2.451 1.34 0 2.45 1.103 2.45 2.451v6.188a2.463 2.463 0 0 1-2.45 2.451Zm137.24-7.475a2.456 2.456 0 0 1-2.45-2.451v-6.188c0-1.348 1.1-2.451 2.45-2.451s2.45 1.103 2.45 2.451v6.188c0 1.348-1.1 2.451-2.45 2.451Zm-137.24-11.09a2.456 2.456 0 0 1-2.45-2.451v-6.188c0-1.348 1.1-2.451 2.45-2.451 1.34 0 2.45 1.103 2.45 2.451v6.188a2.463 2.463 0 0 1-2.45 2.451Zm137.24-7.475a2.456 2.456 0 0 1-2.45-2.451v-6.188c0-1.348 1.1-2.451 2.45-2.451s2.45 1.103 2.45 2.451v6.188c0 1.348-1.1 2.451-2.45 2.451Zm-137.24-11.09a2.455 2.455 0 0 1-2.45-2.45v-6.189c0-1.347 1.1-2.45 2.45-2.45 1.34 0 2.45 1.103 2.45 2.45v6.189c0 1.348-1.11 2.45-2.45 2.45Zm137.24-7.474a2.456 2.456 0 0 1-2.45-2.451v-6.188c0-1.348 1.1-2.451 2.45-2.451s2.45 1.103 2.45 2.451v6.188c0 1.348-1.1 2.451-2.45 2.451Zm-137.24-11.09a2.456 2.456 0 0 1-2.45-2.451v-6.188c0-1.348 1.1-2.451 2.45-2.451 1.34 0 2.45 1.103 2.45 2.451v6.188a2.463 2.463 0 0 1-2.45 2.451Zm137.24-7.475a2.456 2.456 0 0 1-2.45-2.451v-6.188c0-1.348 1.1-2.451 2.45-2.451s2.45 1.103 2.45 2.451v6.188c0 1.348-1.1 2.451-2.45 2.451Zm-137.24-11.09a2.456 2.456 0 0 1-2.45-2.45v-6.189c0-1.348 1.1-2.45 2.45-2.45 1.34 0 2.45 1.102 2.45 2.45v6.189c0 1.347-1.11 2.45-2.45 2.45Zm137.24-7.475a2.455 2.455 0 0 1-2.45-2.45v-6.188c0-1.348 1.1-2.451 2.45-2.451s2.45 1.103 2.45 2.451v6.188c0 1.348-1.1 2.45-2.45 2.45Zm-137.24-11.089a2.456 2.456 0 0 1-2.45-2.451v-6.188c0-1.348 1.1-2.451 2.45-2.451 1.34 0 2.45 1.103 2.45 2.451v6.188a2.463 2.463 0 0 1-2.45 2.451Zm137.24-7.475a2.456 2.456 0 0 1-2.45-2.451v-6.188c0-1.348 1.1-2.451 2.45-2.451s2.45 1.103 2.45 2.451v6.188c0 1.348-1.1 2.451-2.45 2.451Zm-137.23-11.09h-.12c-1.35-.061-2.39-1.213-2.33-2.573a8.502 8.502 0 0 1 4.37-7.058 2.45 2.45 0 1 1 2.39 4.276 3.65 3.65 0 0 0-1.87 3.027 2.448 2.448 0 0 1-2.45 2.328h.01Zm132.92-5.551c-.25 0-.48-.037-.73-.11-.35-.11-.71-.159-1.09-.159h-4.35a2.456 2.456 0 0 1-2.45-2.451c0-1.348 1.1-2.451 2.45-2.451h4.35c.86 0 1.72.123 2.54.38a2.449 2.449 0 0 1-.72 4.791Zm-18.54-.269h-6.19a2.456 2.456 0 0 1-2.45-2.451c0-1.348 1.1-2.451 2.45-2.451h6.19c1.34 0 2.45 1.103 2.45 2.451a2.463 2.463 0 0 1-2.45 2.451Zm-18.57 0h-6.19a2.463 2.463 0 0 1-2.45-2.451 2.463 2.463 0 0 1 2.45-2.451h6.19c1.35 0 2.45 1.103 2.45 2.451s-1.1 2.451-2.45 2.451Zm-18.56 0h-6.19a2.456 2.456 0 0 1-2.45-2.451c0-1.348 1.1-2.451 2.45-2.451h6.19c1.34 0 2.45 1.103 2.45 2.451a2.463 2.463 0 0 1-2.45 2.451Zm-18.57 0h-6.19a2.463 2.463 0 0 1-2.45-2.451 2.463 2.463 0 0 1 2.45-2.451h6.19c1.35 0 2.45 1.103 2.45 2.451s-1.1 2.451-2.45 2.451Zm-18.56 0h-6.19a2.456 2.456 0 0 1-2.45-2.451c0-1.348 1.1-2.451 2.45-2.451h6.19c1.35 0 2.45 1.103 2.45 2.451s-1.1 2.451-2.45 2.451Zm-18.57 0h-6.19a2.463 2.463 0 0 1-2.45-2.451 2.463 2.463 0 0 1 2.45-2.451h6.19c1.35 0 2.45 1.103 2.45 2.451s-1.1 2.451-2.45 2.451Z" fill="#EAF2FE"/><path id="Vector_4" d="M706.682 801.062a5.51 5.51 0 0 1-3.235-7.095l9.337-25.035a5.527 5.527 0 0 1 7.095-3.247 5.527 5.527 0 0 1 3.247 7.095l-9.337 25.035a5.51 5.51 0 0 1-7.095 3.235l-.012.012Z" fill="#575FE1"/><path id="Vector_5" d="M946.183 879.058c-2.647 0-5.294-.221-7.916-.687-14.19-2.487-26.873-11.935-33.122-24.679-1.336-2.732-.208-6.041 2.524-7.377 2.733-1.335 6.041-.208 7.377 2.525 4.718 9.631 14.349 16.787 25.12 18.662 10.563 1.851 22.241-1.47 30.488-8.675 8.198-7.157 12.952-18.075 12.413-28.491-.551-10.685-6.727-20.831-15.722-25.855-9.067-5.061-21.162-4.608-29.409 1.103a5.5 5.5 0 0 1-6.519-.184 5.507 5.507 0 0 1-1.777-6.274l11.262-30.194a5.526 5.526 0 0 1 7.095-3.247 5.527 5.527 0 0 1 3.247 7.095l-6.777 18.16c9.387-2.157 19.656-.882 28.258 3.921 12.229 6.826 20.611 20.526 21.358 34.912.723 13.932-5.318 27.902-16.175 37.374-8.822 7.695-20.255 11.911-31.725 11.911Z" fill="#575FE1"/><path id="Vector_6" d="M1174.3 879.057c-2.65 0-5.29-.221-7.92-.686-14.19-2.488-26.87-11.936-33.12-24.68-1.33-2.732-.21-6.041 2.53-7.376 2.73-1.336 6.04-.209 7.37 2.524 4.72 9.631 14.35 16.788 25.12 18.663 10.55 1.838 22.24-1.471 30.49-8.676 8.2-7.156 12.95-18.075 12.41-28.49-.55-10.686-6.72-20.832-15.72-25.856-9.06-5.061-21.15-4.607-29.41 1.103a5.5 5.5 0 0 1-6.52-.184 5.51 5.51 0 0 1-1.77-6.274l11.26-30.193c2.45-6.569 6-10.735 10.88-12.744 6.04-2.488 13.57-1.483 23.65 3.161 7.43 3.419 13.21 3.247 19.35-.6a5.518 5.518 0 0 1 7.6 1.74 5.523 5.523 0 0 1-1.74 7.597c-9.29 5.821-19.05 6.237-29.82 1.274-6.81-3.137-11.94-4.166-14.82-2.977-1.2.49-2.99 1.691-4.76 6.396l-6.77 18.16c9.38-2.156 19.65-.882 28.25 3.922 12.23 6.825 20.61 20.525 21.36 34.911.72 13.933-5.32 27.902-16.17 37.374-8.83 7.696-20.26 11.911-31.73 11.911Z" fill="#575FE1"/><path id="Vector_7" d="M718.555 777.007c-4.999 0-9.067-4.068-9.067-9.068s4.068-9.068 9.067-9.068c5 0 9.068 4.068 9.068 9.068s-4.068 9.068-9.068 9.068Zm0-15.673a6.621 6.621 0 0 0-6.617 6.617 6.62 6.62 0 0 0 6.617 6.617 6.621 6.621 0 0 0 6.618-6.617 6.622 6.622 0 0 0-6.618-6.617Z" fill="#2F2F45"/><path id="Vector_8" d="M946.931 777.007c-5 0-9.068-4.068-9.068-9.068s4.068-9.068 9.068-9.068c4.999 0 9.067 4.068 9.067 9.068s-4.068 9.068-9.067 9.068Zm0-15.673a6.622 6.622 0 0 0-6.618 6.617 6.621 6.621 0 0 0 6.618 6.617 6.62 6.62 0 0 0 6.617-6.617 6.621 6.621 0 0 0-6.617-6.617Z" fill="#2F2F45"/><path id="Vector_9" d="M1175.49 777.007c-5 0-9.07-4.068-9.07-9.068s4.07-9.068 9.07-9.068 9.07 4.068 9.07 9.068-4.07 9.068-9.07 9.068Zm0-15.673c-3.65 0-6.62 2.966-6.62 6.617a6.624 6.624 0 0 0 6.62 6.617c3.65 0 6.62-2.965 6.62-6.617 0-3.651-2.97-6.617-6.62-6.617Z" fill="#2F2F45"/><g id="Group" fill="#2F2F45"><path id="Vector_10" d="M717.514 811.073a1.23 1.23 0 0 1-1.152-1.642l6.605-18.724a1.228 1.228 0 0 1 2.316.821l-6.605 18.724a1.233 1.233 0 0 1-1.152.821h-.012Z"/><path id="Vector_11" d="M717.097 812.237c-.134 0-.269-.024-.404-.073a1.29 1.29 0 0 1-.735-.699l-1.887-4.754a1.239 1.239 0 0 1 .686-1.593 1.23 1.23 0 0 1 1.593.686l1.372 3.455 3.235-1.825a1.225 1.225 0 0 1 1.667.465 1.225 1.225 0 0 1-.466 1.667l-4.46 2.512c-.184.11-.392.159-.601.159Z"/></g><g id="Group_2" fill="#2F2F45"><path id="Vector_12" d="M976.658 831.598c.086.613.123.981.123 1.054a1.214 1.214 0 0 1-1.14 1.299 1.223 1.223 0 0 1-1.311-1.139c0-.098-.747-9.338-8.308-17.095a1.209 1.209 0 0 1 .024-1.727 1.21 1.21 0 0 1 1.728.024c6.764 6.924 8.468 14.778 8.884 17.584Z"/><path id="Vector_13" d="M979.685 829.773a1.21 1.21 0 0 1-.233.919l-3.075 4.08a1.226 1.226 0 0 1-1.851.135l-3.639-3.603a1.22 1.22 0 0 1 0-1.727 1.209 1.209 0 0 1 1.728 0l2.634 2.61 2.23-2.966a1.23 1.23 0 0 1 1.716-.245c.269.196.429.49.478.797h.012Z"/></g><g id="Group_3" fill="#2F2F45"><path id="Vector_14" d="M1215.49 781.223c.61-.074.96-.147 1.04-.16a1.22 1.22 0 0 0 .95-1.446 1.215 1.215 0 0 0-1.44-.955c-.1.024-9.21 1.776-18.69-3.456a1.232 1.232 0 0 0-1.67.478c-.33.588-.11 1.336.48 1.666 8.48 4.669 16.51 4.228 19.31 3.873h.02Z"/><path id="Vector_15" d="M1214.53 784.628a1.2 1.2 0 0 0 .82-.465l3.11-4.056c.22-.282.3-.638.24-.993a1.276 1.276 0 0 0-.59-.821l-4.44-2.549a1.212 1.212 0 0 0-1.66.454c-.33.588-.14 1.335.45 1.666l3.22 1.85-2.26 2.941a1.22 1.22 0 0 0 .22 1.716c.27.208.58.282.89.245v.012Z"/></g></g><g id="success"><path id="Vector_16" d="M786.074 887.157h-7.695a2.458 2.458 0 0 1-2.451-2.451 2.458 2.458 0 0 1 2.451-2.451h7.695a2.458 2.458 0 0 1 2.451 2.451 2.458 2.458 0 0 1-2.451 2.451Zm-20.072 0h-6.188a2.458 2.458 0 0 1-2.451-2.451 2.458 2.458 0 0 1 2.451-2.451h6.188a2.458 2.458 0 0 1 2.451 2.451 2.458 2.458 0 0 1-2.451 2.451Zm-18.564 0h-6.188a2.458 2.458 0 0 1-2.451-2.451 2.458 2.458 0 0 1 2.451-2.451h6.188a2.458 2.458 0 0 1 2.451 2.451 2.458 2.458 0 0 1-2.451 2.451Zm-18.565 0h-6.188a2.458 2.458 0 0 1-2.451-2.451 2.458 2.458 0 0 1 2.451-2.451h6.188a2.458 2.458 0 0 1 2.451 2.451 2.458 2.458 0 0 1-2.451 2.451Zm-18.564 0h-6.189a2.457 2.457 0 0 1-2.45-2.451 2.457 2.457 0 0 1 2.45-2.451h6.189a2.457 2.457 0 0 1 2.45 2.451 2.457 2.457 0 0 1-2.45 2.451Zm-18.565 0h-6.188a2.458 2.458 0 0 1-2.451-2.451 2.458 2.458 0 0 1 2.451-2.451h6.188a2.458 2.458 0 0 1 2.451 2.451 2.458 2.458 0 0 1-2.451 2.451Zm-18.565 0h-6.188a2.458 2.458 0 0 1-2.451-2.451 2.458 2.458 0 0 1 2.451-2.451h6.188a2.458 2.458 0 0 1 2.451 2.451 2.458 2.458 0 0 1-2.451 2.451Zm-18.037-1.899c-.65 0-1.299-.258-1.777-.76a8.567 8.567 0 0 1-2.365-5.906v-1.532a2.458 2.458 0 0 1 2.451-2.451 2.458 2.458 0 0 1 2.451 2.451v1.532c0 .943.355 1.85 1.017 2.536.931.98.894 2.537-.086 3.468a2.434 2.434 0 0 1-1.691.674v-.012Zm135.552-7.059a2.457 2.457 0 0 1-2.451-2.45v-6.189a2.457 2.457 0 0 1 2.451-2.45 2.457 2.457 0 0 1 2.451 2.45v6.189a2.457 2.457 0 0 1-2.451 2.45ZM653.451 867.11a2.458 2.458 0 0 1-2.451-2.451v-6.188a2.458 2.458 0 0 1 2.451-2.451 2.458 2.458 0 0 1 2.451 2.451v6.188a2.458 2.458 0 0 1-2.451 2.451Zm137.243-7.475a2.458 2.458 0 0 1-2.451-2.451v-6.188a2.458 2.458 0 0 1 2.451-2.451 2.458 2.458 0 0 1 2.451 2.451v6.188a2.458 2.458 0 0 1-2.451 2.451Zm-137.243-11.09a2.458 2.458 0 0 1-2.451-2.451v-6.188a2.458 2.458 0 0 1 2.451-2.451 2.458 2.458 0 0 1 2.451 2.451v6.188a2.458 2.458 0 0 1-2.451 2.451Zm137.243-7.475a2.458 2.458 0 0 1-2.451-2.451v-6.188a2.458 2.458 0 0 1 2.451-2.451 2.458 2.458 0 0 1 2.451 2.451v6.188a2.458 2.458 0 0 1-2.451 2.451Zm-137.243-11.09a2.457 2.457 0 0 1-2.451-2.45v-6.189a2.458 2.458 0 0 1 2.451-2.45 2.458 2.458 0 0 1 2.451 2.45v6.189a2.457 2.457 0 0 1-2.451 2.45Zm137.243-7.474a2.458 2.458 0 0 1-2.451-2.451v-6.188a2.458 2.458 0 0 1 2.451-2.451 2.458 2.458 0 0 1 2.451 2.451v6.188a2.458 2.458 0 0 1-2.451 2.451Zm-137.243-11.09a2.458 2.458 0 0 1-2.451-2.451v-6.188a2.458 2.458 0 0 1 2.451-2.451 2.458 2.458 0 0 1 2.451 2.451v6.188a2.458 2.458 0 0 1-2.451 2.451Zm137.243-7.475a2.458 2.458 0 0 1-2.451-2.451v-6.188a2.458 2.458 0 0 1 2.451-2.451 2.458 2.458 0 0 1 2.451 2.451v6.188a2.458 2.458 0 0 1-2.451 2.451Zm-137.243-11.09a2.458 2.458 0 0 1-2.451-2.45v-6.189a2.457 2.457 0 0 1 2.451-2.45 2.457 2.457 0 0 1 2.451 2.45v6.189a2.458 2.458 0 0 1-2.451 2.45Zm137.243-7.475a2.457 2.457 0 0 1-2.451-2.45v-6.188a2.458 2.458 0 0 1 2.451-2.451 2.458 2.458 0 0 1 2.451 2.451v6.188a2.457 2.457 0 0 1-2.451 2.45Zm-137.243-11.089a2.458 2.458 0 0 1-2.451-2.451v-6.188a2.458 2.458 0 0 1 2.451-2.451 2.458 2.458 0 0 1 2.451 2.451v6.188a2.458 2.458 0 0 1-2.451 2.451Zm137.243-7.475a2.458 2.458 0 0 1-2.451-2.451v-6.188a2.458 2.458 0 0 1 2.451-2.451 2.458 2.458 0 0 1 2.451 2.451v6.188a2.458 2.458 0 0 1-2.451 2.451Zm-137.231-11.09h-.122c-1.348-.061-2.39-1.213-2.329-2.573a8.527 8.527 0 0 1 4.375-7.058 2.44 2.44 0 0 1 3.333.943 2.442 2.442 0 0 1-.944 3.333 3.645 3.645 0 0 0-1.874 3.027 2.451 2.451 0 0 1-2.451 2.328h.012Zm132.918-5.551c-.246 0-.478-.037-.723-.11a3.629 3.629 0 0 0-1.091-.159h-4.35a2.458 2.458 0 0 1-2.451-2.451 2.458 2.458 0 0 1 2.451-2.451h4.35c.858 0 1.716.123 2.537.38a2.446 2.446 0 0 1 1.617 3.063 2.448 2.448 0 0 1-2.34 1.728Zm-18.541-.269h-6.188a2.458 2.458 0 0 1-2.451-2.451 2.458 2.458 0 0 1 2.451-2.451h6.188a2.458 2.458 0 0 1 2.451 2.451 2.458 2.458 0 0 1-2.451 2.451Zm-18.564 0h-6.188a2.458 2.458 0 0 1-2.451-2.451 2.458 2.458 0 0 1 2.451-2.451h6.188a2.458 2.458 0 0 1 2.451 2.451 2.458 2.458 0 0 1-2.451 2.451Zm-18.565 0h-6.188a2.458 2.458 0 0 1-2.451-2.451 2.458 2.458 0 0 1 2.451-2.451h6.188a2.458 2.458 0 0 1 2.451 2.451 2.458 2.458 0 0 1-2.451 2.451Zm-18.564 0h-6.189a2.458 2.458 0 0 1-2.45-2.451 2.458 2.458 0 0 1 2.45-2.451h6.189a2.458 2.458 0 0 1 2.451 2.451 2.458 2.458 0 0 1-2.451 2.451Zm-18.565 0h-6.188a2.458 2.458 0 0 1-2.451-2.451 2.458 2.458 0 0 1 2.451-2.451h6.188a2.458 2.458 0 0 1 2.451 2.451 2.458 2.458 0 0 1-2.451 2.451Zm-18.564 0h-6.189a2.457 2.457 0 0 1-2.45-2.451 2.457 2.457 0 0 1 2.45-2.451h6.189a2.458 2.458 0 0 1 2.45 2.451 2.458 2.458 0 0 1-2.45 2.451Z" fill="#EAF2FE"/><path id="Vector_17" d="M1014.19 887.157h-7.69a2.456 2.456 0 0 1-2.45-2.451c0-1.348 1.1-2.451 2.45-2.451h7.69c1.35 0 2.45 1.103 2.45 2.451s-1.1 2.451-2.45 2.451Zm-20.07 0h-6.188a2.458 2.458 0 0 1-2.451-2.451 2.458 2.458 0 0 1 2.451-2.451h6.188a2.458 2.458 0 0 1 2.451 2.451 2.458 2.458 0 0 1-2.451 2.451Zm-18.565 0h-6.188a2.458 2.458 0 0 1-2.451-2.451 2.458 2.458 0 0 1 2.451-2.451h6.188a2.458 2.458 0 0 1 2.451 2.451 2.458 2.458 0 0 1-2.451 2.451Zm-18.564 0h-6.188a2.458 2.458 0 0 1-2.451-2.451 2.458 2.458 0 0 1 2.451-2.451h6.188a2.458 2.458 0 0 1 2.451 2.451 2.458 2.458 0 0 1-2.451 2.451Zm-18.565 0h-6.188a2.458 2.458 0 0 1-2.451-2.451 2.458 2.458 0 0 1 2.451-2.451h6.188a2.458 2.458 0 0 1 2.451 2.451 2.458 2.458 0 0 1-2.451 2.451Zm-18.564 0h-6.189a2.458 2.458 0 0 1-2.45-2.451 2.458 2.458 0 0 1 2.45-2.451h6.189a2.457 2.457 0 0 1 2.45 2.451 2.457 2.457 0 0 1-2.45 2.451Zm-18.565 0h-6.188a2.458 2.458 0 0 1-2.451-2.451 2.458 2.458 0 0 1 2.451-2.451h6.188a2.458 2.458 0 0 1 2.451 2.451 2.458 2.458 0 0 1-2.451 2.451Zm-18.038-1.899a2.451 2.451 0 0 1-1.776-.76 8.562 8.562 0 0 1-2.365-5.906v-1.532a2.458 2.458 0 0 1 2.45-2.451 2.458 2.458 0 0 1 2.451 2.451v1.532c0 .943.356 1.85 1.017 2.536.932.98.895 2.537-.086 3.468a2.432 2.432 0 0 1-1.691.674v-.012Zm135.551-7.059a2.455 2.455 0 0 1-2.45-2.45v-6.189c0-1.348 1.1-2.45 2.45-2.45s2.45 1.102 2.45 2.45v6.189c0 1.348-1.1 2.45-2.45 2.45ZM881.568 867.11a2.458 2.458 0 0 1-2.45-2.451v-6.188a2.458 2.458 0 0 1 2.45-2.451 2.458 2.458 0 0 1 2.451 2.451v6.188a2.458 2.458 0 0 1-2.451 2.451Zm137.242-7.475a2.456 2.456 0 0 1-2.45-2.451v-6.188c0-1.348 1.1-2.451 2.45-2.451s2.45 1.103 2.45 2.451v6.188c0 1.348-1.1 2.451-2.45 2.451Zm-137.242-11.09a2.458 2.458 0 0 1-2.45-2.451v-6.188a2.458 2.458 0 0 1 2.45-2.451 2.458 2.458 0 0 1 2.451 2.451v6.188a2.458 2.458 0 0 1-2.451 2.451Zm137.242-7.475a2.456 2.456 0 0 1-2.45-2.451v-6.188c0-1.348 1.1-2.451 2.45-2.451s2.45 1.103 2.45 2.451v6.188c0 1.348-1.1 2.451-2.45 2.451Zm-137.242-11.09a2.457 2.457 0 0 1-2.45-2.45v-6.189a2.458 2.458 0 0 1 2.45-2.45 2.458 2.458 0 0 1 2.451 2.45v6.189a2.457 2.457 0 0 1-2.451 2.45Zm137.242-7.474a2.456 2.456 0 0 1-2.45-2.451v-6.188c0-1.348 1.1-2.451 2.45-2.451s2.45 1.103 2.45 2.451v6.188c0 1.348-1.1 2.451-2.45 2.451Zm-137.242-11.09a2.458 2.458 0 0 1-2.45-2.451v-6.188a2.458 2.458 0 0 1 2.45-2.451 2.458 2.458 0 0 1 2.451 2.451v6.188a2.458 2.458 0 0 1-2.451 2.451Zm137.242-7.475a2.456 2.456 0 0 1-2.45-2.451v-6.188c0-1.348 1.1-2.451 2.45-2.451s2.45 1.103 2.45 2.451v6.188c0 1.348-1.1 2.451-2.45 2.451Zm-137.242-11.09a2.458 2.458 0 0 1-2.45-2.45v-6.189a2.457 2.457 0 0 1 2.45-2.45 2.457 2.457 0 0 1 2.451 2.45v6.189a2.458 2.458 0 0 1-2.451 2.45Zm137.242-7.475a2.455 2.455 0 0 1-2.45-2.45v-6.188c0-1.348 1.1-2.451 2.45-2.451s2.45 1.103 2.45 2.451v6.188c0 1.348-1.1 2.45-2.45 2.45Zm-137.242-11.089a2.458 2.458 0 0 1-2.45-2.451v-6.188a2.458 2.458 0 0 1 2.45-2.451 2.458 2.458 0 0 1 2.451 2.451v6.188a2.458 2.458 0 0 1-2.451 2.451Zm137.242-7.475a2.456 2.456 0 0 1-2.45-2.451v-6.188c0-1.348 1.1-2.451 2.45-2.451s2.45 1.103 2.45 2.451v6.188c0 1.348-1.1 2.451-2.45 2.451Zm-137.229-11.09h-.123c-1.348-.061-2.389-1.213-2.328-2.573a8.527 8.527 0 0 1 4.375-7.058 2.443 2.443 0 0 1 3.333.943 2.443 2.443 0 0 1-.944 3.333 3.646 3.646 0 0 0-1.875 3.027 2.45 2.45 0 0 1-2.451 2.328h.013Zm132.919-5.551c-.25 0-.48-.037-.72-.11-.36-.11-.72-.159-1.1-.159h-4.35a2.463 2.463 0 0 1-2.45-2.451 2.463 2.463 0 0 1 2.45-2.451h4.35c.86 0 1.72.123 2.54.38a2.449 2.449 0 0 1-.72 4.791Zm-18.542-.269h-6.188a2.458 2.458 0 0 1-2.451-2.451A2.458 2.458 0 0 1 989.77 745h6.188a2.458 2.458 0 0 1 2.451 2.451 2.458 2.458 0 0 1-2.451 2.451Zm-18.565 0h-6.188a2.457 2.457 0 0 1-2.45-2.451 2.457 2.457 0 0 1 2.45-2.451h6.188a2.458 2.458 0 0 1 2.451 2.451 2.458 2.458 0 0 1-2.451 2.451Zm-18.564 0h-6.188a2.458 2.458 0 0 1-2.451-2.451 2.458 2.458 0 0 1 2.451-2.451h6.188a2.458 2.458 0 0 1 2.451 2.451 2.458 2.458 0 0 1-2.451 2.451Zm-18.565 0h-6.188a2.458 2.458 0 0 1-2.451-2.451 2.458 2.458 0 0 1 2.451-2.451h6.188a2.458 2.458 0 0 1 2.451 2.451 2.458 2.458 0 0 1-2.451 2.451Zm-18.564 0h-6.188a2.458 2.458 0 0 1-2.451-2.451 2.458 2.458 0 0 1 2.451-2.451h6.188a2.458 2.458 0 0 1 2.451 2.451 2.458 2.458 0 0 1-2.451 2.451Zm-18.565 0h-6.188a2.458 2.458 0 0 1-2.451-2.451 2.458 2.458 0 0 1 2.451-2.451h6.188a2.458 2.458 0 0 1 2.451 2.451 2.458 2.458 0 0 1-2.451 2.451Z" fill="#EAF2FE"/><path id="Vector_18" d="M1242.31 887.157h-7.7a2.463 2.463 0 0 1-2.45-2.451 2.463 2.463 0 0 1 2.45-2.451h7.7c1.35 0 2.45 1.103 2.45 2.451s-1.1 2.451-2.45 2.451Zm-20.07 0h-6.19a2.456 2.456 0 0 1-2.45-2.451c0-1.348 1.1-2.451 2.45-2.451h6.19c1.35 0 2.45 1.103 2.45 2.451s-1.1 2.451-2.45 2.451Zm-18.57 0h-6.19a2.463 2.463 0 0 1-2.45-2.451 2.463 2.463 0 0 1 2.45-2.451h6.19c1.35 0 2.45 1.103 2.45 2.451s-1.1 2.451-2.45 2.451Zm-18.56 0h-6.19a2.456 2.456 0 0 1-2.45-2.451c0-1.348 1.1-2.451 2.45-2.451h6.19c1.35 0 2.45 1.103 2.45 2.451s-1.1 2.451-2.45 2.451Zm-18.57 0h-6.18a2.456 2.456 0 0 1-2.45-2.451c0-1.348 1.1-2.451 2.45-2.451h6.18c1.35 0 2.45 1.103 2.45 2.451s-1.1 2.451-2.45 2.451Zm-18.56 0h-6.19a2.456 2.456 0 0 1-2.45-2.451c0-1.348 1.1-2.451 2.45-2.451h6.19c1.35 0 2.45 1.103 2.45 2.451s-1.1 2.451-2.45 2.451Zm-18.57 0h-6.18a2.456 2.456 0 0 1-2.45-2.451c0-1.348 1.1-2.451 2.45-2.451h6.18c1.35 0 2.46 1.103 2.46 2.451a2.465 2.465 0 0 1-2.46 2.451Zm-18.03-1.899c-.65 0-1.3-.258-1.78-.76a8.558 8.558 0 0 1-2.36-5.906v-1.532c0-1.348 1.1-2.451 2.45-2.451 1.34 0 2.45 1.103 2.45 2.451v1.532c0 .943.35 1.85 1.01 2.536a2.449 2.449 0 0 1-1.77 4.142v-.012Zm135.55-7.059a2.455 2.455 0 0 1-2.45-2.45v-6.189c0-1.348 1.1-2.45 2.45-2.45s2.45 1.102 2.45 2.45v6.189c0 1.348-1.1 2.45-2.45 2.45Zm-137.24-11.089a2.456 2.456 0 0 1-2.45-2.451v-6.188c0-1.348 1.1-2.451 2.45-2.451 1.34 0 2.45 1.103 2.45 2.451v6.188a2.463 2.463 0 0 1-2.45 2.451Zm137.24-7.475a2.456 2.456 0 0 1-2.45-2.451v-6.188c0-1.348 1.1-2.451 2.45-2.451s2.45 1.103 2.45 2.451v6.188c0 1.348-1.1 2.451-2.45 2.451Zm-137.24-11.09a2.456 2.456 0 0 1-2.45-2.451v-6.188c0-1.348 1.1-2.451 2.45-2.451 1.34 0 2.45 1.103 2.45 2.451v6.188a2.463 2.463 0 0 1-2.45 2.451Zm137.24-7.475a2.456 2.456 0 0 1-2.45-2.451v-6.188c0-1.348 1.1-2.451 2.45-2.451s2.45 1.103 2.45 2.451v6.188c0 1.348-1.1 2.451-2.45 2.451Zm-137.24-11.09a2.455 2.455 0 0 1-2.45-2.45v-6.189c0-1.347 1.1-2.45 2.45-2.45 1.34 0 2.45 1.103 2.45 2.45v6.189c0 1.348-1.11 2.45-2.45 2.45Zm137.24-7.474a2.456 2.456 0 0 1-2.45-2.451v-6.188c0-1.348 1.1-2.451 2.45-2.451s2.45 1.103 2.45 2.451v6.188c0 1.348-1.1 2.451-2.45 2.451Zm-137.24-11.09a2.456 2.456 0 0 1-2.45-2.451v-6.188c0-1.348 1.1-2.451 2.45-2.451 1.34 0 2.45 1.103 2.45 2.451v6.188a2.463 2.463 0 0 1-2.45 2.451Zm137.24-7.475a2.456 2.456 0 0 1-2.45-2.451v-6.188c0-1.348 1.1-2.451 2.45-2.451s2.45 1.103 2.45 2.451v6.188c0 1.348-1.1 2.451-2.45 2.451Zm-137.24-11.09a2.456 2.456 0 0 1-2.45-2.45v-6.189c0-1.348 1.1-2.45 2.45-2.45 1.34 0 2.45 1.102 2.45 2.45v6.189c0 1.347-1.11 2.45-2.45 2.45Zm137.24-7.475a2.455 2.455 0 0 1-2.45-2.45v-6.188c0-1.348 1.1-2.451 2.45-2.451s2.45 1.103 2.45 2.451v6.188c0 1.348-1.1 2.45-2.45 2.45Zm-137.24-11.089a2.456 2.456 0 0 1-2.45-2.451v-6.188c0-1.348 1.1-2.451 2.45-2.451 1.34 0 2.45 1.103 2.45 2.451v6.188a2.463 2.463 0 0 1-2.45 2.451Zm137.24-7.475a2.456 2.456 0 0 1-2.45-2.451v-6.188c0-1.348 1.1-2.451 2.45-2.451s2.45 1.103 2.45 2.451v6.188c0 1.348-1.1 2.451-2.45 2.451Zm-137.23-11.09h-.12c-1.35-.061-2.39-1.213-2.33-2.573a8.502 8.502 0 0 1 4.37-7.058 2.45 2.45 0 1 1 2.39 4.276 3.65 3.65 0 0 0-1.87 3.027 2.448 2.448 0 0 1-2.45 2.328h.01Zm132.92-5.551c-.25 0-.48-.037-.73-.11-.35-.11-.71-.159-1.09-.159h-4.35a2.456 2.456 0 0 1-2.45-2.451c0-1.348 1.1-2.451 2.45-2.451h4.35c.86 0 1.72.123 2.54.38a2.449 2.449 0 0 1-.72 4.791Zm-18.54-.269h-6.19a2.456 2.456 0 0 1-2.45-2.451c0-1.348 1.1-2.451 2.45-2.451h6.19c1.34 0 2.45 1.103 2.45 2.451a2.463 2.463 0 0 1-2.45 2.451Zm-18.57 0h-6.19a2.463 2.463 0 0 1-2.45-2.451 2.463 2.463 0 0 1 2.45-2.451h6.19c1.35 0 2.45 1.103 2.45 2.451s-1.1 2.451-2.45 2.451Zm-18.56 0h-6.19a2.456 2.456 0 0 1-2.45-2.451c0-1.348 1.1-2.451 2.45-2.451h6.19c1.34 0 2.45 1.103 2.45 2.451a2.463 2.463 0 0 1-2.45 2.451Zm-18.57 0h-6.19a2.463 2.463 0 0 1-2.45-2.451 2.463 2.463 0 0 1 2.45-2.451h6.19c1.35 0 2.45 1.103 2.45 2.451s-1.1 2.451-2.45 2.451Zm-18.56 0h-6.19a2.456 2.456 0 0 1-2.45-2.451c0-1.348 1.1-2.451 2.45-2.451h6.19c1.35 0 2.45 1.103 2.45 2.451s-1.1 2.451-2.45 2.451Zm-18.57 0h-6.19a2.463 2.463 0 0 1-2.45-2.451 2.463 2.463 0 0 1 2.45-2.451h6.19c1.35 0 2.45 1.103 2.45 2.451s-1.1 2.451-2.45 2.451Z" fill="#EAF2FE"/><path id="Vector_19" d="M706.682 801.062a5.51 5.51 0 0 1-3.235-7.095l9.337-25.035a5.527 5.527 0 0 1 7.095-3.247 5.527 5.527 0 0 1 3.247 7.095l-9.337 25.035a5.51 5.51 0 0 1-7.095 3.235l-.012.012Z" fill="#575FE1"/><path id="Vector_20" d="M946.183 879.058c-2.647 0-5.294-.221-7.916-.687-14.19-2.487-26.873-11.935-33.122-24.679-1.336-2.732-.208-6.041 2.524-7.377 2.733-1.335 6.041-.208 7.377 2.525 4.718 9.631 14.349 16.787 25.12 18.662 10.563 1.851 22.241-1.47 30.488-8.675 8.198-7.157 12.952-18.075 12.413-28.491-.551-10.685-6.727-20.831-15.722-25.855-9.067-5.061-21.162-4.608-29.409 1.103a5.5 5.5 0 0 1-6.519-.184 5.507 5.507 0 0 1-1.777-6.274l11.262-30.194a5.526 5.526 0 0 1 7.095-3.247 5.527 5.527 0 0 1 3.247 7.095l-6.777 18.16c9.387-2.157 19.656-.882 28.258 3.921 12.229 6.826 20.611 20.526 21.358 34.912.723 13.932-5.318 27.902-16.175 37.374-8.822 7.695-20.255 11.911-31.725 11.911Z" fill="#575FE1"/><path id="Vector_21" d="M1174.3 879.057c-2.65 0-5.29-.221-7.92-.686-14.19-2.488-26.87-11.936-33.12-24.68-1.33-2.732-.21-6.041 2.53-7.376 2.73-1.336 6.04-.209 7.37 2.524 4.72 9.631 14.35 16.788 25.12 18.663 10.55 1.838 22.24-1.471 30.49-8.676 8.2-7.156 12.95-18.075 12.41-28.49-.55-10.686-6.72-20.832-15.72-25.856-9.06-5.061-21.15-4.607-29.41 1.103a5.5 5.5 0 0 1-6.52-.184 5.51 5.51 0 0 1-1.77-6.274l11.26-30.193c2.45-6.569 6-10.735 10.88-12.744 6.04-2.488 13.57-1.483 23.65 3.161 7.43 3.419 13.21 3.247 19.35-.6a5.518 5.518 0 0 1 7.6 1.74 5.523 5.523 0 0 1-1.74 7.597c-9.29 5.821-19.05 6.237-29.82 1.274-6.81-3.137-11.94-4.166-14.82-2.977-1.2.49-2.99 1.691-4.76 6.396l-6.77 18.16c9.38-2.156 19.65-.882 28.25 3.922 12.23 6.825 20.61 20.525 21.36 34.911.72 13.933-5.32 27.902-16.17 37.374-8.83 7.696-20.26 11.911-31.73 11.911Z" fill="#575FE1"/><path id="Vector_22" d="M718.555 777.007c-4.999 0-9.067-4.068-9.067-9.068s4.068-9.068 9.067-9.068c5 0 9.068 4.068 9.068 9.068s-4.068 9.068-9.068 9.068Zm0-15.673a6.621 6.621 0 0 0-6.617 6.617 6.62 6.62 0 0 0 6.617 6.617 6.621 6.621 0 0 0 6.618-6.617 6.622 6.622 0 0 0-6.618-6.617Z" fill="#2F2F45"/><path id="Vector_23" d="M946.931 777.007c-5 0-9.068-4.068-9.068-9.068s4.068-9.068 9.068-9.068c4.999 0 9.067 4.068 9.067 9.068s-4.068 9.068-9.067 9.068Zm0-15.673a6.622 6.622 0 0 0-6.618 6.617 6.621 6.621 0 0 0 6.618 6.617 6.62 6.62 0 0 0 6.617-6.617 6.621 6.621 0 0 0-6.617-6.617Z" fill="#2F2F45"/><path id="Vector_24" d="M1175.49 777.007c-5 0-9.07-4.068-9.07-9.068s4.07-9.068 9.07-9.068 9.07 4.068 9.07 9.068-4.07 9.068-9.07 9.068Zm0-15.673c-3.65 0-6.62 2.966-6.62 6.617a6.624 6.624 0 0 0 6.62 6.617c3.65 0 6.62-2.965 6.62-6.617 0-3.651-2.97-6.617-6.62-6.617Z" fill="#2F2F45"/><g id="Group_4" fill="#2F2F45"><path id="Vector_25" d="M717.514 811.073a1.23 1.23 0 0 1-1.152-1.642l6.605-18.724a1.228 1.228 0 0 1 2.316.821l-6.605 18.724a1.233 1.233 0 0 1-1.152.821h-.012Z"/><path id="Vector_26" d="M717.097 812.237c-.134 0-.269-.024-.404-.073a1.29 1.29 0 0 1-.735-.699l-1.887-4.754a1.239 1.239 0 0 1 .686-1.593 1.23 1.23 0 0 1 1.593.686l1.372 3.455 3.235-1.825a1.225 1.225 0 0 1 1.667.465 1.225 1.225 0 0 1-.466 1.667l-4.46 2.512c-.184.11-.392.159-.601.159Z"/></g><g id="Group_5" fill="#2F2F45"><path id="Vector_27" d="M976.658 831.598c.086.613.123.981.123 1.054a1.214 1.214 0 0 1-1.14 1.299 1.223 1.223 0 0 1-1.311-1.139c0-.098-.747-9.338-8.308-17.095a1.209 1.209 0 0 1 .024-1.727 1.21 1.21 0 0 1 1.728.024c6.764 6.924 8.468 14.778 8.884 17.584Z"/><path id="Vector_28" d="M979.685 829.773a1.21 1.21 0 0 1-.233.919l-3.075 4.08a1.226 1.226 0 0 1-1.851.135l-3.639-3.603a1.22 1.22 0 0 1 0-1.727 1.209 1.209 0 0 1 1.728 0l2.634 2.61 2.23-2.966a1.23 1.23 0 0 1 1.716-.245c.269.196.429.49.478.797h.012Z"/></g><g id="Group_6" fill="#2F2F45"><path id="Vector_29" d="M1215.49 781.223c.61-.074.96-.147 1.04-.16a1.22 1.22 0 0 0 .95-1.446 1.215 1.215 0 0 0-1.44-.955c-.1.024-9.21 1.776-18.69-3.456a1.232 1.232 0 0 0-1.67.478c-.33.588-.11 1.336.48 1.666 8.48 4.669 16.51 4.228 19.31 3.873h.02Z"/><path id="Vector_30" d="M1214.53 784.628a1.2 1.2 0 0 0 .82-.465l3.11-4.056c.22-.282.3-.638.24-.993a1.276 1.276 0 0 0-.59-.821l-4.44-2.549a1.212 1.212 0 0 0-1.66.454c-.33.588-.14 1.335.45 1.666l3.22 1.85-2.26 2.941a1.22 1.22 0 0 0 .22 1.716c.27.208.58.282.89.245v.012Z"/></g></g></g></svg>