<svg width="1900" height="1600" viewBox="0 0 1900 1600" fill="none" xmlns="http://www.w3.org/2000/svg"><g id="карточка=5, генерация=9"><g id="default"><path id="Vector" d="M875.21 887.3h-7.703a2.46 2.46 0 0 1-2.453-2.453 2.46 2.46 0 0 1 2.453-2.453h7.703a2.46 2.46 0 0 1 2.453 2.453 2.46 2.46 0 0 1-2.453 2.453Zm-20.092 0h-6.194a2.46 2.46 0 0 1-2.454-2.453 2.46 2.46 0 0 1 2.454-2.453h6.194a2.46 2.46 0 0 1 2.453 2.453 2.46 2.46 0 0 1-2.453 2.453Zm-18.583 0h-6.195a2.46 2.46 0 0 1-2.453-2.453 2.46 2.46 0 0 1 2.453-2.453h6.195a2.46 2.46 0 0 1 2.453 2.453 2.46 2.46 0 0 1-2.453 2.453Zm-18.583 0h-6.195a2.46 2.46 0 0 1-2.453-2.453 2.46 2.46 0 0 1 2.453-2.453h6.195a2.46 2.46 0 0 1 2.453 2.453 2.46 2.46 0 0 1-2.453 2.453Zm-18.584 0h-6.194a2.46 2.46 0 0 1-2.453-2.453 2.46 2.46 0 0 1 2.453-2.453h6.194a2.46 2.46 0 0 1 2.454 2.453 2.46 2.46 0 0 1-2.454 2.453Zm-18.583 0h-6.194a2.46 2.46 0 0 1-2.454-2.453 2.46 2.46 0 0 1 2.454-2.453h6.194a2.46 2.46 0 0 1 2.453 2.453 2.46 2.46 0 0 1-2.453 2.453Zm-18.583 0h-6.195a2.46 2.46 0 0 1-2.453-2.453 2.46 2.46 0 0 1 2.453-2.453h6.195a2.46 2.46 0 0 1 2.453 2.453 2.46 2.46 0 0 1-2.453 2.453Zm-18.056-1.901c-.65 0-1.3-.258-1.779-.761a8.573 8.573 0 0 1-2.367-5.912v-1.533a2.46 2.46 0 0 1 2.453-2.454 2.46 2.46 0 0 1 2.453 2.454v1.533c0 .944.356 1.852 1.019 2.539a2.459 2.459 0 0 1-.086 3.471 2.437 2.437 0 0 1-1.693.675v-.012Zm135.689-7.066a2.46 2.46 0 0 1-2.454-2.453v-6.194a2.46 2.46 0 0 1 2.454-2.453 2.46 2.46 0 0 1 2.453 2.453v6.194a2.46 2.46 0 0 1-2.453 2.453Zm-137.382-11.1a2.46 2.46 0 0 1-2.453-2.454v-6.194a2.46 2.46 0 0 1 2.453-2.453 2.46 2.46 0 0 1 2.453 2.453v6.194a2.46 2.46 0 0 1-2.453 2.454Zm137.382-7.483a2.46 2.46 0 0 1-2.454-2.453v-6.194a2.46 2.46 0 0 1 2.454-2.454 2.46 2.46 0 0 1 2.453 2.454v6.194a2.46 2.46 0 0 1-2.453 2.453Zm-137.382-11.101a2.46 2.46 0 0 1-2.453-2.453v-6.194a2.46 2.46 0 0 1 2.453-2.454 2.46 2.46 0 0 1 2.453 2.454v6.194a2.46 2.46 0 0 1-2.453 2.453Zm137.382-7.482a2.46 2.46 0 0 1-2.454-2.453v-6.195a2.46 2.46 0 0 1 2.454-2.453 2.46 2.46 0 0 1 2.453 2.453v6.195a2.46 2.46 0 0 1-2.453 2.453Zm-137.382-11.101a2.46 2.46 0 0 1-2.453-2.453v-6.195a2.46 2.46 0 0 1 2.453-2.453 2.46 2.46 0 0 1 2.453 2.453v6.195a2.46 2.46 0 0 1-2.453 2.453Zm137.382-7.482a2.46 2.46 0 0 1-2.454-2.454v-6.194a2.46 2.46 0 0 1 2.454-2.453 2.46 2.46 0 0 1 2.453 2.453v6.194a2.46 2.46 0 0 1-2.453 2.454Zm-137.382-11.101A2.46 2.46 0 0 1 740 809.03v-6.195a2.46 2.46 0 0 1 2.453-2.453 2.46 2.46 0 0 1 2.453 2.453v6.195a2.46 2.46 0 0 1-2.453 2.453ZM879.835 804a2.46 2.46 0 0 1-2.454-2.453v-6.194a2.46 2.46 0 0 1 2.454-2.454 2.46 2.46 0 0 1 2.453 2.454v6.194a2.46 2.46 0 0 1-2.453 2.453Zm-137.382-11.101a2.46 2.46 0 0 1-2.453-2.453v-6.194a2.46 2.46 0 0 1 2.453-2.453 2.46 2.46 0 0 1 2.453 2.453v6.194a2.46 2.46 0 0 1-2.453 2.453Zm137.382-7.482a2.46 2.46 0 0 1-2.454-2.453v-6.195a2.46 2.46 0 0 1 2.454-2.453 2.46 2.46 0 0 1 2.453 2.453v6.195a2.46 2.46 0 0 1-2.453 2.453Zm-137.382-11.101a2.46 2.46 0 0 1-2.453-2.453v-6.194a2.46 2.46 0 0 1 2.453-2.454 2.46 2.46 0 0 1 2.453 2.454v6.194a2.46 2.46 0 0 1-2.453 2.453Zm137.382-7.482a2.46 2.46 0 0 1-2.454-2.453v-6.195a2.46 2.46 0 0 1 2.454-2.453 2.46 2.46 0 0 1 2.453 2.453v6.195a2.46 2.46 0 0 1-2.453 2.453Zm-137.369-11.101h-.123c-1.349-.061-2.392-1.214-2.331-2.576a8.537 8.537 0 0 1 4.379-7.065 2.445 2.445 0 0 1 3.337.944 2.446 2.446 0 0 1-.945 3.337 3.65 3.65 0 0 0-1.877 3.029 2.453 2.453 0 0 1-2.453 2.331h.013Zm133.051-5.557c-.246 0-.479-.036-.724-.11a3.631 3.631 0 0 0-1.092-.16h-4.354a2.46 2.46 0 0 1-2.453-2.453 2.46 2.46 0 0 1 2.453-2.453h4.354c.859 0 1.718.123 2.54.38a2.449 2.449 0 0 1 1.619 3.067 2.463 2.463 0 0 1-2.343 1.729Zm-18.559-.27h-6.194a2.46 2.46 0 0 1-2.454-2.453 2.46 2.46 0 0 1 2.454-2.453h6.194a2.46 2.46 0 0 1 2.453 2.453 2.46 2.46 0 0 1-2.453 2.453Zm-18.583 0h-6.195a2.46 2.46 0 0 1-2.453-2.453A2.46 2.46 0 0 1 832.18 745h6.195a2.46 2.46 0 0 1 2.453 2.453 2.46 2.46 0 0 1-2.453 2.453Zm-18.583 0h-6.195a2.46 2.46 0 0 1-2.453-2.453 2.46 2.46 0 0 1 2.453-2.453h6.195a2.46 2.46 0 0 1 2.453 2.453 2.46 2.46 0 0 1-2.453 2.453Zm-18.584 0h-6.194a2.46 2.46 0 0 1-2.453-2.453 2.46 2.46 0 0 1 2.453-2.453h6.194a2.46 2.46 0 0 1 2.454 2.453 2.46 2.46 0 0 1-2.454 2.453Zm-18.583 0h-6.194a2.46 2.46 0 0 1-2.454-2.453 2.46 2.46 0 0 1 2.454-2.453h6.194a2.46 2.46 0 0 1 2.453 2.453 2.46 2.46 0 0 1-2.453 2.453Zm-18.583 0h-6.195a2.46 2.46 0 0 1-2.453-2.453 2.46 2.46 0 0 1 2.453-2.453h6.195a2.46 2.46 0 0 1 2.453 2.453 2.46 2.46 0 0 1-2.453 2.453Z" fill="#EAF2FE"/><path id="Vector_2" d="M1153.92 887.3h-7.7a2.457 2.457 0 0 1-2.45-2.453c0-1.349 1.1-2.453 2.45-2.453h7.7c1.35 0 2.46 1.104 2.46 2.453a2.466 2.466 0 0 1-2.46 2.453Zm-20.09 0h-6.19a2.466 2.466 0 0 1-2.46-2.453 2.466 2.466 0 0 1 2.46-2.453h6.19c1.35 0 2.45 1.104 2.45 2.453 0 1.349-1.1 2.453-2.45 2.453Zm-18.58 0h-6.2a2.457 2.457 0 0 1-2.45-2.453c0-1.349 1.1-2.453 2.45-2.453h6.2c1.35 0 2.45 1.104 2.45 2.453 0 1.349-1.1 2.453-2.45 2.453Zm-18.59 0h-6.19a2.457 2.457 0 0 1-2.45-2.453c0-1.349 1.1-2.453 2.45-2.453h6.19c1.35 0 2.46 1.104 2.46 2.453a2.466 2.466 0 0 1-2.46 2.453Zm-18.58 0h-6.19a2.466 2.466 0 0 1-2.46-2.453 2.466 2.466 0 0 1 2.46-2.453h6.19c1.35 0 2.45 1.104 2.45 2.453 0 1.349-1.1 2.453-2.45 2.453Zm-18.58 0h-6.2a2.457 2.457 0 0 1-2.45-2.453c0-1.349 1.1-2.453 2.45-2.453h6.2c1.35 0 2.45 1.104 2.45 2.453 0 1.349-1.1 2.453-2.45 2.453Zm-18.59 0h-6.19a2.457 2.457 0 0 1-2.45-2.453c0-1.349 1.1-2.453 2.45-2.453h6.19c1.35 0 2.46 1.104 2.46 2.453a2.466 2.466 0 0 1-2.46 2.453Zm-18.05-1.901c-.65 0-1.3-.258-1.78-.761a8.58 8.58 0 0 1-2.37-5.912v-1.533c0-1.35 1.11-2.454 2.46-2.454 1.34 0 2.45 1.104 2.45 2.454v1.533c0 .944.35 1.852 1.02 2.539.93.981.89 2.539-.09 3.471-.48.454-1.08.675-1.69.675v-.012Zm135.69-7.066a2.466 2.466 0 0 1-2.46-2.453v-6.194a2.466 2.466 0 0 1 2.46-2.453c1.35 0 2.45 1.104 2.45 2.453v6.194c0 1.349-1.1 2.453-2.45 2.453Zm-137.38-11.1a2.466 2.466 0 0 1-2.46-2.454v-6.194a2.466 2.466 0 0 1 2.46-2.453c1.34 0 2.45 1.104 2.45 2.453v6.194c0 1.35-1.11 2.454-2.45 2.454Zm137.38-7.483a2.466 2.466 0 0 1-2.46-2.453v-6.194c0-1.35 1.11-2.454 2.46-2.454 1.35 0 2.45 1.104 2.45 2.454v6.194c0 1.349-1.1 2.453-2.45 2.453Zm-137.38-11.101a2.466 2.466 0 0 1-2.46-2.453v-6.194c0-1.35 1.11-2.454 2.46-2.454 1.34 0 2.45 1.104 2.45 2.454v6.194a2.464 2.464 0 0 1-2.45 2.453Zm137.38-7.482a2.466 2.466 0 0 1-2.46-2.453v-6.195a2.466 2.466 0 0 1 2.46-2.453c1.35 0 2.45 1.104 2.45 2.453v6.195c0 1.349-1.1 2.453-2.45 2.453Zm-137.38-11.101a2.466 2.466 0 0 1-2.46-2.453v-6.195a2.466 2.466 0 0 1 2.46-2.453c1.34 0 2.45 1.104 2.45 2.453v6.195a2.464 2.464 0 0 1-2.45 2.453Zm137.38-7.482a2.466 2.466 0 0 1-2.46-2.454v-6.194a2.466 2.466 0 0 1 2.46-2.453c1.35 0 2.45 1.104 2.45 2.453v6.194c0 1.35-1.1 2.454-2.45 2.454Zm-137.38-11.101a2.466 2.466 0 0 1-2.46-2.453v-6.195a2.466 2.466 0 0 1 2.46-2.453c1.34 0 2.45 1.104 2.45 2.453v6.195a2.464 2.464 0 0 1-2.45 2.453ZM1158.55 804a2.466 2.466 0 0 1-2.46-2.453v-6.194c0-1.35 1.11-2.454 2.46-2.454 1.35 0 2.45 1.104 2.45 2.454v6.194c0 1.349-1.1 2.453-2.45 2.453Zm-137.38-11.101a2.466 2.466 0 0 1-2.46-2.453v-6.194a2.466 2.466 0 0 1 2.46-2.453c1.34 0 2.45 1.104 2.45 2.453v6.194a2.464 2.464 0 0 1-2.45 2.453Zm137.38-7.482a2.466 2.466 0 0 1-2.46-2.453v-6.195a2.466 2.466 0 0 1 2.46-2.453c1.35 0 2.45 1.104 2.45 2.453v6.195c0 1.349-1.1 2.453-2.45 2.453Zm-137.38-11.101a2.466 2.466 0 0 1-2.46-2.453v-6.194c0-1.35 1.11-2.454 2.46-2.454 1.34 0 2.45 1.104 2.45 2.454v6.194a2.464 2.464 0 0 1-2.45 2.453Zm137.38-7.482a2.466 2.466 0 0 1-2.46-2.453v-6.195a2.466 2.466 0 0 1 2.46-2.453c1.35 0 2.45 1.104 2.45 2.453v6.195c0 1.349-1.1 2.453-2.45 2.453Zm-137.37-11.101h-.13c-1.34-.061-2.39-1.214-2.33-2.576a8.544 8.544 0 0 1 4.38-7.065 2.445 2.445 0 0 1 3.34.944 2.455 2.455 0 0 1-.94 3.337 3.64 3.64 0 0 0-1.88 3.029 2.45 2.45 0 0 1-2.45 2.331h.01Zm133.05-5.557c-.25 0-.48-.036-.72-.11-.36-.11-.72-.16-1.1-.16h-4.35a2.457 2.457 0 0 1-2.45-2.453c0-1.349 1.1-2.453 2.45-2.453h4.35c.86 0 1.72.123 2.54.38 1.3.405 2.03 1.779 1.62 3.067a2.45 2.45 0 0 1-2.34 1.729Zm-18.56-.27h-6.19a2.465 2.465 0 0 1-2.46-2.453 2.466 2.466 0 0 1 2.46-2.453h6.19c1.35 0 2.45 1.104 2.45 2.453 0 1.35-1.1 2.453-2.45 2.453Zm-18.58 0h-6.2a2.457 2.457 0 0 1-2.45-2.453c0-1.349 1.1-2.453 2.45-2.453h6.2c1.35 0 2.45 1.104 2.45 2.453 0 1.35-1.1 2.453-2.45 2.453Zm-18.59 0h-6.19a2.457 2.457 0 0 1-2.45-2.453c0-1.349 1.1-2.453 2.45-2.453h6.19c1.35 0 2.46 1.104 2.46 2.453 0 1.35-1.11 2.453-2.46 2.453Zm-18.58 0h-6.19a2.465 2.465 0 0 1-2.46-2.453 2.466 2.466 0 0 1 2.46-2.453h6.19c1.35 0 2.45 1.104 2.45 2.453 0 1.35-1.1 2.453-2.45 2.453Zm-18.58 0h-6.2a2.457 2.457 0 0 1-2.45-2.453c0-1.349 1.1-2.453 2.45-2.453h6.2c1.35 0 2.45 1.104 2.45 2.453 0 1.35-1.1 2.453-2.45 2.453Zm-18.59 0h-6.19a2.457 2.457 0 0 1-2.45-2.453c0-1.349 1.1-2.453 2.45-2.453h6.19c1.35 0 2.46 1.104 2.46 2.453 0 1.35-1.11 2.453-2.46 2.453Z" fill="#EAF2FE"/><path id="Vector_3" d="M816.21 843.239c-10.157 0-19.749-4.318-26.802-12.18-5.839-6.514-14.781-21.172-9.138-46.182 2.931-12.978 11.702-22.791 24.054-26.888 11.922-3.962 24.728-1.828 33.401 5.569 3.483 2.968 6.464 6.256 8.88 9.776 1.73 2.515 1.08 5.949-1.435 7.679-2.514 1.729-5.949 1.079-7.679-1.435-1.864-2.724-4.195-5.275-6.942-7.618-5.667-4.833-14.597-6.206-22.754-3.496-5.054 1.681-13.947 6.367-16.768 18.854-3.373 14.952-1.042 27.868 6.587 36.381 5.569 6.219 13.383 9.261 21.417 8.341 10.242-1.165 20.779-13.37 23.477-27.219a5.532 5.532 0 0 1 6.477-4.366 5.532 5.532 0 0 1 4.367 6.476c-3.619 18.534-18.142 34.382-33.07 36.075-1.374.16-2.735.233-4.085.233h.013Z" fill="#575FE1"/><path id="Vector_4" d="M1094.92 843.239c-10.15 0-19.75-4.318-26.8-12.18-5.84-6.514-14.78-21.172-9.14-46.182 2.93-12.978 11.7-22.779 24.06-26.888 11.92-3.962 24.73-1.828 33.4 5.569 14.7 12.548 19.94 30.187 14.39 48.39-5.12 16.743-18.21 29.513-31.82 31.07-1.38.16-2.74.233-4.1.233l.01-.012Zm.06-76.161c-2.79 0-5.66.454-8.45 1.374-5.05 1.681-13.94 6.366-16.77 18.853-3.38 14.953-1.04 27.869 6.59 36.382 5.57 6.219 13.38 9.261 21.42 8.353 9.08-1.03 18.75-11.052 22.51-23.318 2.47-8.108 4.34-23.674-10.99-36.762-3.73-3.189-8.9-4.869-14.31-4.869v-.013Z" fill="#575FE1"/><path id="Vector_5" d="M1084.33 876.284c-11.71 0-22.76-5.029-29.55-14.155a5.514 5.514 0 0 1 1.14-7.727 5.515 5.515 0 0 1 7.72 1.14c6.62 8.893 19.92 12.119 31.64 7.679 19.62-7.446 29.57-32.505 26.6-67.059-.25-3.042 1.99-5.716 5.03-5.974 3.03-.257 5.72 1.987 5.98 5.029 3.41 39.755-9.19 69.034-33.7 78.332-4.89 1.852-9.93 2.748-14.85 2.748l-.01-.013Z" fill="#575FE1"/><g id="Group" fill="#2F2F45"><path id="Vector_6" d="M800.253 782.412a32.866 32.866 0 0 1 8.574-8.906 1.222 1.222 0 0 1 1.705.295 1.22 1.22 0 0 1-.295 1.705c-8.856 6.256-11.272 15.222-11.285 15.308a1.23 1.23 0 0 1-1.496.883c-.65-.172-1.055-.834-.883-1.484.061-.233.969-3.655 3.68-7.801Z"/><path id="Vector_7" d="M794.377 786.582c.111-.172.282-.331.479-.429a1.217 1.217 0 0 1 1.643.552l1.656 3.324 3.079-2.098a1.234 1.234 0 0 1 1.705.319c.38.564.233 1.325-.319 1.705l-4.232 2.883a1.266 1.266 0 0 1-1.006.171 1.207 1.207 0 0 1-.785-.638l-2.293-4.587a1.22 1.22 0 0 1 .073-1.214v.012Z"/></g><path id="Vector_8" d="M843.931 788.95c-5.004 0-9.077-4.073-9.077-9.077 0-5.005 4.073-9.077 9.077-9.077 5.005 0 9.077 4.072 9.077 9.077 0 5.004-4.072 9.077-9.077 9.077Zm0-15.689a6.627 6.627 0 0 0-6.623 6.624 6.627 6.627 0 0 0 6.623 6.624 6.628 6.628 0 0 0 6.624-6.624 6.628 6.628 0 0 0-6.624-6.624Z" fill="#2F2F45"/><path id="Vector_9" d="M1122.73 788.95c-5.01 0-9.08-4.073-9.08-9.077 0-5.005 4.07-9.077 9.08-9.077 5 0 9.08 4.072 9.08 9.077 0 5.004-4.08 9.077-9.08 9.077Zm0-15.689a6.622 6.622 0 0 0-6.62 6.624 6.622 6.622 0 0 0 6.62 6.624c3.65 0 6.62-2.969 6.62-6.624a6.628 6.628 0 0 0-6.62-6.624Z" fill="#2F2F45"/><g id="Group_2" fill="#2F2F45"><path id="Vector_10" d="M830.034 817.236a32.756 32.756 0 0 1-9.261 8.182 1.233 1.233 0 0 1-1.681-.43 1.231 1.231 0 0 1 .43-1.68c9.334-5.52 12.45-14.266 12.487-14.352.22-.637.92-.981 1.557-.76.638.221.982.92.761 1.558-.074.233-1.251 3.557-4.293 7.482Z"/><path id="Vector_11" d="M836.229 813.556a1.14 1.14 0 0 1-.516.381 1.224 1.224 0 0 1-1.594-.675l-1.386-3.447-3.226 1.84a1.223 1.223 0 0 1-1.669-.454c-.331-.589-.122-1.349.454-1.668l4.453-2.539a1.252 1.252 0 0 1 1.006-.098c.331.11.601.368.736.699l1.913 4.747c.172.417.086.871-.171 1.214Z"/></g><g id="Group_3" fill="#2F2F45"><path id="Vector_12" d="M1071.78 854.169a32.898 32.898 0 0 0 11.4 4.747c.67.134 1.32-.295 1.45-.957a1.223 1.223 0 0 0-.95-1.448c-10.63-2.208-16.4-9.481-16.45-9.555a1.23 1.23 0 0 0-1.94 1.509c.15.196 2.34 2.968 6.47 5.691l.02.013Z"/><path id="Vector_13" d="M1064.72 852.685c.18.11.38.184.62.196.67.037 1.25-.478 1.28-1.153l.2-3.717 3.66.699c.66.123 1.31-.306 1.43-.969.12-.662-.32-1.312-.97-1.435l-5.03-.957c-.34-.061-.71.025-.98.234-.28.22-.45.551-.46.895l-.27 5.115c-.03.454.19.859.55 1.092h-.03Z"/></g></g><g id="success"><path id="Vector_14" d="M875.21 887.3h-7.703a2.46 2.46 0 0 1-2.453-2.453 2.46 2.46 0 0 1 2.453-2.453h7.703a2.46 2.46 0 0 1 2.453 2.453 2.46 2.46 0 0 1-2.453 2.453Zm-20.092 0h-6.194a2.46 2.46 0 0 1-2.454-2.453 2.46 2.46 0 0 1 2.454-2.453h6.194a2.46 2.46 0 0 1 2.453 2.453 2.46 2.46 0 0 1-2.453 2.453Zm-18.583 0h-6.195a2.46 2.46 0 0 1-2.453-2.453 2.46 2.46 0 0 1 2.453-2.453h6.195a2.46 2.46 0 0 1 2.453 2.453 2.46 2.46 0 0 1-2.453 2.453Zm-18.583 0h-6.195a2.46 2.46 0 0 1-2.453-2.453 2.46 2.46 0 0 1 2.453-2.453h6.195a2.46 2.46 0 0 1 2.453 2.453 2.46 2.46 0 0 1-2.453 2.453Zm-18.584 0h-6.194a2.46 2.46 0 0 1-2.453-2.453 2.46 2.46 0 0 1 2.453-2.453h6.194a2.46 2.46 0 0 1 2.454 2.453 2.46 2.46 0 0 1-2.454 2.453Zm-18.583 0h-6.194a2.46 2.46 0 0 1-2.454-2.453 2.46 2.46 0 0 1 2.454-2.453h6.194a2.46 2.46 0 0 1 2.453 2.453 2.46 2.46 0 0 1-2.453 2.453Zm-18.583 0h-6.195a2.46 2.46 0 0 1-2.453-2.453 2.46 2.46 0 0 1 2.453-2.453h6.195a2.46 2.46 0 0 1 2.453 2.453 2.46 2.46 0 0 1-2.453 2.453Zm-18.056-1.901c-.65 0-1.3-.258-1.779-.761a8.573 8.573 0 0 1-2.367-5.912v-1.533a2.46 2.46 0 0 1 2.453-2.454 2.46 2.46 0 0 1 2.453 2.454v1.533c0 .944.356 1.852 1.019 2.539a2.459 2.459 0 0 1-.086 3.471 2.437 2.437 0 0 1-1.693.675v-.012Zm135.689-7.066a2.46 2.46 0 0 1-2.454-2.453v-6.194a2.46 2.46 0 0 1 2.454-2.453 2.46 2.46 0 0 1 2.453 2.453v6.194a2.46 2.46 0 0 1-2.453 2.453Zm-137.382-11.1a2.46 2.46 0 0 1-2.453-2.454v-6.194a2.46 2.46 0 0 1 2.453-2.453 2.46 2.46 0 0 1 2.453 2.453v6.194a2.46 2.46 0 0 1-2.453 2.454Zm137.382-7.483a2.46 2.46 0 0 1-2.454-2.453v-6.194a2.46 2.46 0 0 1 2.454-2.454 2.46 2.46 0 0 1 2.453 2.454v6.194a2.46 2.46 0 0 1-2.453 2.453Zm-137.382-11.101a2.46 2.46 0 0 1-2.453-2.453v-6.194a2.46 2.46 0 0 1 2.453-2.454 2.46 2.46 0 0 1 2.453 2.454v6.194a2.46 2.46 0 0 1-2.453 2.453Zm137.382-7.482a2.46 2.46 0 0 1-2.454-2.453v-6.195a2.46 2.46 0 0 1 2.454-2.453 2.46 2.46 0 0 1 2.453 2.453v6.195a2.46 2.46 0 0 1-2.453 2.453Zm-137.382-11.101a2.46 2.46 0 0 1-2.453-2.453v-6.195a2.46 2.46 0 0 1 2.453-2.453 2.46 2.46 0 0 1 2.453 2.453v6.195a2.46 2.46 0 0 1-2.453 2.453Zm137.382-7.482a2.46 2.46 0 0 1-2.454-2.454v-6.194a2.46 2.46 0 0 1 2.454-2.453 2.46 2.46 0 0 1 2.453 2.453v6.194a2.46 2.46 0 0 1-2.453 2.454Zm-137.382-11.101A2.46 2.46 0 0 1 740 809.03v-6.195a2.46 2.46 0 0 1 2.453-2.453 2.46 2.46 0 0 1 2.453 2.453v6.195a2.46 2.46 0 0 1-2.453 2.453ZM879.835 804a2.46 2.46 0 0 1-2.454-2.453v-6.194a2.46 2.46 0 0 1 2.454-2.454 2.46 2.46 0 0 1 2.453 2.454v6.194a2.46 2.46 0 0 1-2.453 2.453Zm-137.382-11.101a2.46 2.46 0 0 1-2.453-2.453v-6.194a2.46 2.46 0 0 1 2.453-2.453 2.46 2.46 0 0 1 2.453 2.453v6.194a2.46 2.46 0 0 1-2.453 2.453Zm137.382-7.482a2.46 2.46 0 0 1-2.454-2.453v-6.195a2.46 2.46 0 0 1 2.454-2.453 2.46 2.46 0 0 1 2.453 2.453v6.195a2.46 2.46 0 0 1-2.453 2.453Zm-137.382-11.101a2.46 2.46 0 0 1-2.453-2.453v-6.194a2.46 2.46 0 0 1 2.453-2.454 2.46 2.46 0 0 1 2.453 2.454v6.194a2.46 2.46 0 0 1-2.453 2.453Zm137.382-7.482a2.46 2.46 0 0 1-2.454-2.453v-6.195a2.46 2.46 0 0 1 2.454-2.453 2.46 2.46 0 0 1 2.453 2.453v6.195a2.46 2.46 0 0 1-2.453 2.453Zm-137.369-11.101h-.123c-1.349-.061-2.392-1.214-2.331-2.576a8.537 8.537 0 0 1 4.379-7.065 2.445 2.445 0 0 1 3.337.944 2.446 2.446 0 0 1-.945 3.337 3.65 3.65 0 0 0-1.877 3.029 2.453 2.453 0 0 1-2.453 2.331h.013Zm133.051-5.557c-.246 0-.479-.036-.724-.11a3.631 3.631 0 0 0-1.092-.16h-4.354a2.46 2.46 0 0 1-2.453-2.453 2.46 2.46 0 0 1 2.453-2.453h4.354c.859 0 1.718.123 2.54.38a2.449 2.449 0 0 1 1.619 3.067 2.463 2.463 0 0 1-2.343 1.729Zm-18.559-.27h-6.194a2.46 2.46 0 0 1-2.454-2.453 2.46 2.46 0 0 1 2.454-2.453h6.194a2.46 2.46 0 0 1 2.453 2.453 2.46 2.46 0 0 1-2.453 2.453Zm-18.583 0h-6.195a2.46 2.46 0 0 1-2.453-2.453A2.46 2.46 0 0 1 832.18 745h6.195a2.46 2.46 0 0 1 2.453 2.453 2.46 2.46 0 0 1-2.453 2.453Zm-18.583 0h-6.195a2.46 2.46 0 0 1-2.453-2.453 2.46 2.46 0 0 1 2.453-2.453h6.195a2.46 2.46 0 0 1 2.453 2.453 2.46 2.46 0 0 1-2.453 2.453Zm-18.584 0h-6.194a2.46 2.46 0 0 1-2.453-2.453 2.46 2.46 0 0 1 2.453-2.453h6.194a2.46 2.46 0 0 1 2.454 2.453 2.46 2.46 0 0 1-2.454 2.453Zm-18.583 0h-6.194a2.46 2.46 0 0 1-2.454-2.453 2.46 2.46 0 0 1 2.454-2.453h6.194a2.46 2.46 0 0 1 2.453 2.453 2.46 2.46 0 0 1-2.453 2.453Zm-18.583 0h-6.195a2.46 2.46 0 0 1-2.453-2.453 2.46 2.46 0 0 1 2.453-2.453h6.195a2.46 2.46 0 0 1 2.453 2.453 2.46 2.46 0 0 1-2.453 2.453Z" fill="#EAF2FE"/><path id="Vector_15" d="M1153.92 887.3h-7.7a2.457 2.457 0 0 1-2.45-2.453c0-1.349 1.1-2.453 2.45-2.453h7.7c1.35 0 2.46 1.104 2.46 2.453a2.466 2.466 0 0 1-2.46 2.453Zm-20.09 0h-6.19a2.466 2.466 0 0 1-2.46-2.453 2.466 2.466 0 0 1 2.46-2.453h6.19c1.35 0 2.45 1.104 2.45 2.453 0 1.349-1.1 2.453-2.45 2.453Zm-18.58 0h-6.2a2.457 2.457 0 0 1-2.45-2.453c0-1.349 1.1-2.453 2.45-2.453h6.2c1.35 0 2.45 1.104 2.45 2.453 0 1.349-1.1 2.453-2.45 2.453Zm-18.59 0h-6.19a2.457 2.457 0 0 1-2.45-2.453c0-1.349 1.1-2.453 2.45-2.453h6.19c1.35 0 2.46 1.104 2.46 2.453a2.466 2.466 0 0 1-2.46 2.453Zm-18.58 0h-6.19a2.466 2.466 0 0 1-2.46-2.453 2.466 2.466 0 0 1 2.46-2.453h6.19c1.35 0 2.45 1.104 2.45 2.453 0 1.349-1.1 2.453-2.45 2.453Zm-18.58 0h-6.2a2.457 2.457 0 0 1-2.45-2.453c0-1.349 1.1-2.453 2.45-2.453h6.2c1.35 0 2.45 1.104 2.45 2.453 0 1.349-1.1 2.453-2.45 2.453Zm-18.59 0h-6.19a2.457 2.457 0 0 1-2.45-2.453c0-1.349 1.1-2.453 2.45-2.453h6.19c1.35 0 2.46 1.104 2.46 2.453a2.466 2.466 0 0 1-2.46 2.453Zm-18.05-1.901c-.65 0-1.3-.258-1.78-.761a8.58 8.58 0 0 1-2.37-5.912v-1.533c0-1.35 1.11-2.454 2.46-2.454 1.34 0 2.45 1.104 2.45 2.454v1.533c0 .944.35 1.852 1.02 2.539.93.981.89 2.539-.09 3.471-.48.454-1.08.675-1.69.675v-.012Zm135.69-7.066a2.466 2.466 0 0 1-2.46-2.453v-6.194a2.466 2.466 0 0 1 2.46-2.453c1.35 0 2.45 1.104 2.45 2.453v6.194c0 1.349-1.1 2.453-2.45 2.453Zm-137.38-11.1a2.466 2.466 0 0 1-2.46-2.454v-6.194a2.466 2.466 0 0 1 2.46-2.453c1.34 0 2.45 1.104 2.45 2.453v6.194c0 1.35-1.11 2.454-2.45 2.454Zm137.38-7.483a2.466 2.466 0 0 1-2.46-2.453v-6.194c0-1.35 1.11-2.454 2.46-2.454 1.35 0 2.45 1.104 2.45 2.454v6.194c0 1.349-1.1 2.453-2.45 2.453Zm-137.38-11.101a2.466 2.466 0 0 1-2.46-2.453v-6.194c0-1.35 1.11-2.454 2.46-2.454 1.34 0 2.45 1.104 2.45 2.454v6.194a2.464 2.464 0 0 1-2.45 2.453Zm137.38-7.482a2.466 2.466 0 0 1-2.46-2.453v-6.195a2.466 2.466 0 0 1 2.46-2.453c1.35 0 2.45 1.104 2.45 2.453v6.195c0 1.349-1.1 2.453-2.45 2.453Zm-137.38-11.101a2.466 2.466 0 0 1-2.46-2.453v-6.195a2.466 2.466 0 0 1 2.46-2.453c1.34 0 2.45 1.104 2.45 2.453v6.195a2.464 2.464 0 0 1-2.45 2.453Zm137.38-7.482a2.466 2.466 0 0 1-2.46-2.454v-6.194a2.466 2.466 0 0 1 2.46-2.453c1.35 0 2.45 1.104 2.45 2.453v6.194c0 1.35-1.1 2.454-2.45 2.454Zm-137.38-11.101a2.466 2.466 0 0 1-2.46-2.453v-6.195a2.466 2.466 0 0 1 2.46-2.453c1.34 0 2.45 1.104 2.45 2.453v6.195a2.464 2.464 0 0 1-2.45 2.453ZM1158.55 804a2.466 2.466 0 0 1-2.46-2.453v-6.194c0-1.35 1.11-2.454 2.46-2.454 1.35 0 2.45 1.104 2.45 2.454v6.194c0 1.349-1.1 2.453-2.45 2.453Zm-137.38-11.101a2.466 2.466 0 0 1-2.46-2.453v-6.194a2.466 2.466 0 0 1 2.46-2.453c1.34 0 2.45 1.104 2.45 2.453v6.194a2.464 2.464 0 0 1-2.45 2.453Zm137.38-7.482a2.466 2.466 0 0 1-2.46-2.453v-6.195a2.466 2.466 0 0 1 2.46-2.453c1.35 0 2.45 1.104 2.45 2.453v6.195c0 1.349-1.1 2.453-2.45 2.453Zm-137.38-11.101a2.466 2.466 0 0 1-2.46-2.453v-6.194c0-1.35 1.11-2.454 2.46-2.454 1.34 0 2.45 1.104 2.45 2.454v6.194a2.464 2.464 0 0 1-2.45 2.453Zm137.38-7.482a2.466 2.466 0 0 1-2.46-2.453v-6.195a2.466 2.466 0 0 1 2.46-2.453c1.35 0 2.45 1.104 2.45 2.453v6.195c0 1.349-1.1 2.453-2.45 2.453Zm-137.37-11.101h-.13c-1.34-.061-2.39-1.214-2.33-2.576a8.544 8.544 0 0 1 4.38-7.065 2.445 2.445 0 0 1 3.34.944 2.455 2.455 0 0 1-.94 3.337 3.64 3.64 0 0 0-1.88 3.029 2.45 2.45 0 0 1-2.45 2.331h.01Zm133.05-5.557c-.25 0-.48-.036-.72-.11-.36-.11-.72-.16-1.1-.16h-4.35a2.457 2.457 0 0 1-2.45-2.453c0-1.349 1.1-2.453 2.45-2.453h4.35c.86 0 1.72.123 2.54.38 1.3.405 2.03 1.779 1.62 3.067a2.45 2.45 0 0 1-2.34 1.729Zm-18.56-.27h-6.19a2.465 2.465 0 0 1-2.46-2.453 2.466 2.466 0 0 1 2.46-2.453h6.19c1.35 0 2.45 1.104 2.45 2.453 0 1.35-1.1 2.453-2.45 2.453Zm-18.58 0h-6.2a2.457 2.457 0 0 1-2.45-2.453c0-1.349 1.1-2.453 2.45-2.453h6.2c1.35 0 2.45 1.104 2.45 2.453 0 1.35-1.1 2.453-2.45 2.453Zm-18.59 0h-6.19a2.457 2.457 0 0 1-2.45-2.453c0-1.349 1.1-2.453 2.45-2.453h6.19c1.35 0 2.46 1.104 2.46 2.453 0 1.35-1.11 2.453-2.46 2.453Zm-18.58 0h-6.19a2.465 2.465 0 0 1-2.46-2.453 2.466 2.466 0 0 1 2.46-2.453h6.19c1.35 0 2.45 1.104 2.45 2.453 0 1.35-1.1 2.453-2.45 2.453Zm-18.58 0h-6.2a2.457 2.457 0 0 1-2.45-2.453c0-1.349 1.1-2.453 2.45-2.453h6.2c1.35 0 2.45 1.104 2.45 2.453 0 1.35-1.1 2.453-2.45 2.453Zm-18.59 0h-6.19a2.457 2.457 0 0 1-2.45-2.453c0-1.349 1.1-2.453 2.45-2.453h6.19c1.35 0 2.46 1.104 2.46 2.453 0 1.35-1.11 2.453-2.46 2.453Z" fill="#EAF2FE"/><path id="Vector_16" d="M816.21 843.239c-10.157 0-19.749-4.318-26.802-12.18-5.839-6.514-14.781-21.172-9.138-46.182 2.931-12.978 11.702-22.791 24.054-26.888 11.922-3.962 24.728-1.828 33.401 5.569 3.483 2.968 6.464 6.256 8.88 9.776 1.73 2.515 1.08 5.949-1.435 7.679-2.514 1.729-5.949 1.079-7.679-1.435-1.864-2.724-4.195-5.275-6.942-7.618-5.667-4.833-14.597-6.206-22.754-3.496-5.054 1.681-13.947 6.367-16.768 18.854-3.373 14.952-1.042 27.868 6.587 36.381 5.569 6.219 13.383 9.261 21.417 8.341 10.242-1.165 20.779-13.37 23.477-27.219a5.532 5.532 0 0 1 6.477-4.366 5.532 5.532 0 0 1 4.367 6.476c-3.619 18.534-18.142 34.382-33.07 36.075-1.374.16-2.735.233-4.085.233h.013Z" fill="#575FE1"/><path id="Vector_17" d="M1094.92 843.239c-10.15 0-19.75-4.318-26.8-12.18-5.84-6.514-14.78-21.172-9.14-46.182 2.93-12.978 11.7-22.779 24.06-26.888 11.92-3.962 24.73-1.828 33.4 5.569 14.7 12.548 19.94 30.187 14.39 48.39-5.12 16.743-18.21 29.513-31.82 31.07-1.38.16-2.74.233-4.1.233l.01-.012Zm.06-76.161c-2.79 0-5.66.454-8.45 1.374-5.05 1.681-13.94 6.366-16.77 18.853-3.38 14.953-1.04 27.869 6.59 36.382 5.57 6.219 13.38 9.261 21.42 8.353 9.08-1.03 18.75-11.052 22.51-23.318 2.47-8.108 4.34-23.674-10.99-36.762-3.73-3.189-8.9-4.869-14.31-4.869v-.013Z" fill="#575FE1"/><path id="Vector_18" d="M1084.33 876.284c-11.71 0-22.76-5.029-29.55-14.155a5.514 5.514 0 0 1 1.14-7.727 5.515 5.515 0 0 1 7.72 1.14c6.62 8.893 19.92 12.119 31.64 7.679 19.62-7.446 29.57-32.505 26.6-67.059-.25-3.042 1.99-5.716 5.03-5.974 3.03-.257 5.72 1.987 5.98 5.029 3.41 39.755-9.19 69.034-33.7 78.332-4.89 1.852-9.93 2.748-14.85 2.748l-.01-.013Z" fill="#575FE1"/><g id="Group_4" fill="#2F2F45"><path id="Vector_19" d="M800.253 782.412a32.866 32.866 0 0 1 8.574-8.906 1.222 1.222 0 0 1 1.705.295 1.22 1.22 0 0 1-.295 1.705c-8.856 6.256-11.272 15.222-11.285 15.308a1.23 1.23 0 0 1-1.496.883c-.65-.172-1.055-.834-.883-1.484.061-.233.969-3.655 3.68-7.801Z"/><path id="Vector_20" d="M794.377 786.582c.111-.172.282-.331.479-.429a1.217 1.217 0 0 1 1.643.552l1.656 3.324 3.079-2.098a1.234 1.234 0 0 1 1.705.319c.38.564.233 1.325-.319 1.705l-4.232 2.883a1.266 1.266 0 0 1-1.006.171 1.207 1.207 0 0 1-.785-.638l-2.293-4.587a1.22 1.22 0 0 1 .073-1.214v.012Z"/></g><path id="Vector_21" d="M843.931 788.95c-5.004 0-9.077-4.073-9.077-9.077 0-5.005 4.073-9.077 9.077-9.077 5.005 0 9.077 4.072 9.077 9.077 0 5.004-4.072 9.077-9.077 9.077Zm0-15.689a6.627 6.627 0 0 0-6.623 6.624 6.627 6.627 0 0 0 6.623 6.624 6.628 6.628 0 0 0 6.624-6.624 6.628 6.628 0 0 0-6.624-6.624Z" fill="#2F2F45"/><path id="Vector_22" d="M1122.73 788.95c-5.01 0-9.08-4.073-9.08-9.077 0-5.005 4.07-9.077 9.08-9.077 5 0 9.08 4.072 9.08 9.077 0 5.004-4.08 9.077-9.08 9.077Zm0-15.689a6.622 6.622 0 0 0-6.62 6.624 6.622 6.622 0 0 0 6.62 6.624c3.65 0 6.62-2.969 6.62-6.624a6.628 6.628 0 0 0-6.62-6.624Z" fill="#2F2F45"/><g id="Group_5" fill="#2F2F45"><path id="Vector_23" d="M830.034 817.236a32.756 32.756 0 0 1-9.261 8.182 1.233 1.233 0 0 1-1.681-.43 1.231 1.231 0 0 1 .43-1.68c9.334-5.52 12.45-14.266 12.487-14.352.22-.637.92-.981 1.557-.76.638.221.982.92.761 1.558-.074.233-1.251 3.557-4.293 7.482Z"/><path id="Vector_24" d="M836.229 813.556a1.14 1.14 0 0 1-.516.381 1.224 1.224 0 0 1-1.594-.675l-1.386-3.447-3.226 1.84a1.223 1.223 0 0 1-1.669-.454c-.331-.589-.122-1.349.454-1.668l4.453-2.539a1.252 1.252 0 0 1 1.006-.098c.331.11.601.368.736.699l1.913 4.747c.172.417.086.871-.171 1.214Z"/></g><g id="Group_6" fill="#2F2F45"><path id="Vector_25" d="M1071.78 854.169a32.898 32.898 0 0 0 11.4 4.747c.67.134 1.32-.295 1.45-.957a1.223 1.223 0 0 0-.95-1.448c-10.63-2.208-16.4-9.481-16.45-9.555a1.23 1.23 0 0 0-1.94 1.509c.15.196 2.34 2.968 6.47 5.691l.02.013Z"/><path id="Vector_26" d="M1064.72 852.685c.18.11.38.184.62.196.67.037 1.25-.478 1.28-1.153l.2-3.717 3.66.699c.66.123 1.31-.306 1.43-.969.12-.662-.32-1.312-.97-1.435l-5.03-.957c-.34-.061-.71.025-.98.234-.28.22-.45.551-.46.895l-.27 5.115c-.03.454.19.859.55 1.092h-.03Z"/></g></g></g></svg>