<svg width="1900" height="1600" viewBox="0 0 1900 1600" fill="none" xmlns="http://www.w3.org/2000/svg"><g id="карточка=5, генерация=2"><g id="default"><path id="Vector" d="M671.208 887.298h-7.703a2.46 2.46 0 0 1-2.453-2.453 2.46 2.46 0 0 1 2.453-2.454h7.703a2.46 2.46 0 0 1 2.453 2.454 2.46 2.46 0 0 1-2.453 2.453Zm-20.092 0h-6.194a2.46 2.46 0 0 1-2.453-2.453 2.46 2.46 0 0 1 2.453-2.454h6.194a2.46 2.46 0 0 1 2.454 2.454 2.46 2.46 0 0 1-2.454 2.453Zm-18.583 0h-6.194a2.46 2.46 0 0 1-2.453-2.453 2.46 2.46 0 0 1 2.453-2.454h6.194a2.46 2.46 0 0 1 2.454 2.454 2.46 2.46 0 0 1-2.454 2.453Zm-18.583 0h-6.194a2.46 2.46 0 0 1-2.453-2.453 2.46 2.46 0 0 1 2.453-2.454h6.194a2.46 2.46 0 0 1 2.454 2.454 2.46 2.46 0 0 1-2.454 2.453Zm-18.583 0h-6.194a2.46 2.46 0 0 1-2.453-2.453 2.46 2.46 0 0 1 2.453-2.454h6.194a2.46 2.46 0 0 1 2.454 2.454 2.46 2.46 0 0 1-2.454 2.453Zm-18.583 0h-6.194a2.46 2.46 0 0 1-2.453-2.453 2.46 2.46 0 0 1 2.453-2.454h6.194a2.46 2.46 0 0 1 2.454 2.454 2.46 2.46 0 0 1-2.454 2.453Zm-18.583 0h-6.194a2.46 2.46 0 0 1-2.453-2.453 2.46 2.46 0 0 1 2.453-2.454h6.194a2.46 2.46 0 0 1 2.454 2.454 2.46 2.46 0 0 1-2.454 2.453Zm-18.055-1.901c-.65 0-1.3-.258-1.779-.761a8.573 8.573 0 0 1-2.367-5.912v-1.533a2.46 2.46 0 0 1 2.453-2.454 2.46 2.46 0 0 1 2.453 2.454v1.533c0 .944.356 1.852 1.018 2.539a2.458 2.458 0 0 1-.085 3.471 2.437 2.437 0 0 1-1.693.675v-.012Zm135.686-7.066a2.46 2.46 0 0 1-2.453-2.453v-6.194a2.46 2.46 0 0 1 2.453-2.453 2.46 2.46 0 0 1 2.454 2.453v6.194a2.46 2.46 0 0 1-2.454 2.453Zm-137.379-11.1a2.46 2.46 0 0 1-2.453-2.453v-6.195a2.46 2.46 0 0 1 2.453-2.453 2.46 2.46 0 0 1 2.453 2.453v6.195a2.46 2.46 0 0 1-2.453 2.453Zm137.379-7.483a2.46 2.46 0 0 1-2.453-2.453v-6.194a2.46 2.46 0 0 1 2.453-2.453 2.46 2.46 0 0 1 2.454 2.453v6.194a2.46 2.46 0 0 1-2.454 2.453Zm-137.379-11.1a2.46 2.46 0 0 1-2.453-2.454V840a2.46 2.46 0 0 1 2.453-2.453 2.46 2.46 0 0 1 2.453 2.453v6.194a2.46 2.46 0 0 1-2.453 2.454Zm137.379-7.483a2.46 2.46 0 0 1-2.453-2.453v-6.194a2.46 2.46 0 0 1 2.453-2.453 2.46 2.46 0 0 1 2.454 2.453v6.194a2.46 2.46 0 0 1-2.454 2.453Zm-137.379-11.1a2.46 2.46 0 0 1-2.453-2.453v-6.195a2.46 2.46 0 0 1 2.453-2.453 2.46 2.46 0 0 1 2.453 2.453v6.195a2.46 2.46 0 0 1-2.453 2.453Zm137.379-7.483a2.46 2.46 0 0 1-2.453-2.453v-6.194a2.46 2.46 0 0 1 2.453-2.453 2.46 2.46 0 0 1 2.454 2.453v6.194a2.46 2.46 0 0 1-2.454 2.453Zm-137.379-11.1a2.46 2.46 0 0 1-2.453-2.453v-6.195a2.46 2.46 0 0 1 2.453-2.453 2.46 2.46 0 0 1 2.453 2.453v6.195a2.46 2.46 0 0 1-2.453 2.453Zm137.379-7.483a2.46 2.46 0 0 1-2.453-2.453v-6.194a2.46 2.46 0 0 1 2.453-2.453 2.46 2.46 0 0 1 2.454 2.453v6.194a2.46 2.46 0 0 1-2.454 2.453Zm-137.379-11.1a2.46 2.46 0 0 1-2.453-2.453v-6.195a2.46 2.46 0 0 1 2.453-2.453 2.46 2.46 0 0 1 2.453 2.453v6.195a2.46 2.46 0 0 1-2.453 2.453Zm137.379-7.483a2.46 2.46 0 0 1-2.453-2.453v-6.194a2.46 2.46 0 0 1 2.453-2.453 2.46 2.46 0 0 1 2.454 2.453v6.194a2.46 2.46 0 0 1-2.454 2.453Zm-137.379-11.1a2.46 2.46 0 0 1-2.453-2.453v-6.195a2.46 2.46 0 0 1 2.453-2.453 2.46 2.46 0 0 1 2.453 2.453v6.195a2.46 2.46 0 0 1-2.453 2.453Zm137.379-7.483a2.46 2.46 0 0 1-2.453-2.453v-6.194a2.46 2.46 0 0 1 2.453-2.453 2.46 2.46 0 0 1 2.454 2.453v6.194a2.46 2.46 0 0 1-2.454 2.453Zm-137.367-11.1h-.122a2.458 2.458 0 0 1-2.331-2.576 8.537 8.537 0 0 1 4.379-7.065 2.445 2.445 0 0 1 3.337.944 2.446 2.446 0 0 1-.945 3.337 3.65 3.65 0 0 0-1.877 3.029 2.453 2.453 0 0 1-2.453 2.331h.012Zm133.05-5.557c-.246 0-.479-.037-.724-.11a3.6 3.6 0 0 0-1.092-.16h-4.354a2.46 2.46 0 0 1-2.453-2.453 2.46 2.46 0 0 1 2.453-2.453h4.354c.859 0 1.718.123 2.539.38a2.449 2.449 0 0 1 1.62 3.067 2.463 2.463 0 0 1-2.343 1.729Zm-18.559-.27h-6.194a2.46 2.46 0 0 1-2.453-2.453 2.46 2.46 0 0 1 2.453-2.453h6.194a2.46 2.46 0 0 1 2.453 2.453 2.46 2.46 0 0 1-2.453 2.453Zm-18.583 0h-6.194a2.46 2.46 0 0 1-2.453-2.453 2.46 2.46 0 0 1 2.453-2.453h6.194a2.46 2.46 0 0 1 2.454 2.453 2.46 2.46 0 0 1-2.454 2.453Zm-18.583 0h-6.194a2.46 2.46 0 0 1-2.453-2.453 2.46 2.46 0 0 1 2.453-2.453h6.194a2.46 2.46 0 0 1 2.453 2.453 2.46 2.46 0 0 1-2.453 2.453Zm-18.583 0h-6.194a2.46 2.46 0 0 1-2.453-2.453 2.46 2.46 0 0 1 2.453-2.453h6.194a2.46 2.46 0 0 1 2.454 2.453 2.46 2.46 0 0 1-2.454 2.453Zm-18.583 0h-6.194a2.46 2.46 0 0 1-2.453-2.453A2.46 2.46 0 0 1 572.43 745h6.194a2.46 2.46 0 0 1 2.454 2.453 2.46 2.46 0 0 1-2.454 2.453Zm-18.583 0h-6.194a2.46 2.46 0 0 1-2.453-2.453 2.46 2.46 0 0 1 2.453-2.453h6.194a2.46 2.46 0 0 1 2.454 2.453 2.46 2.46 0 0 1-2.454 2.453Z" fill="#EAF2FE"/><path id="Vector_2" d="M899.552 887.298h-7.703a2.46 2.46 0 0 1-2.453-2.453 2.46 2.46 0 0 1 2.453-2.454h7.703a2.46 2.46 0 0 1 2.453 2.454 2.46 2.46 0 0 1-2.453 2.453Zm-20.092 0h-6.194a2.46 2.46 0 0 1-2.453-2.453 2.46 2.46 0 0 1 2.453-2.454h6.194a2.46 2.46 0 0 1 2.453 2.454 2.46 2.46 0 0 1-2.453 2.453Zm-18.583 0h-6.194a2.46 2.46 0 0 1-2.453-2.453 2.46 2.46 0 0 1 2.453-2.454h6.194a2.46 2.46 0 0 1 2.453 2.454 2.46 2.46 0 0 1-2.453 2.453Zm-18.583 0H836.1a2.46 2.46 0 0 1-2.453-2.453 2.46 2.46 0 0 1 2.453-2.454h6.194a2.46 2.46 0 0 1 2.453 2.454 2.46 2.46 0 0 1-2.453 2.453Zm-18.583 0h-6.194a2.46 2.46 0 0 1-2.453-2.453 2.46 2.46 0 0 1 2.453-2.454h6.194a2.46 2.46 0 0 1 2.453 2.454 2.46 2.46 0 0 1-2.453 2.453Zm-18.583 0h-6.194a2.46 2.46 0 0 1-2.453-2.453 2.46 2.46 0 0 1 2.453-2.454h6.194a2.46 2.46 0 0 1 2.453 2.454 2.46 2.46 0 0 1-2.453 2.453Zm-18.583 0h-6.194a2.46 2.46 0 0 1-2.453-2.453 2.46 2.46 0 0 1 2.453-2.454h6.194a2.46 2.46 0 0 1 2.453 2.454 2.46 2.46 0 0 1-2.453 2.453Zm-18.055-1.901c-.65 0-1.301-.258-1.779-.761a8.573 8.573 0 0 1-2.367-5.912v-1.533a2.46 2.46 0 0 1 2.453-2.454 2.46 2.46 0 0 1 2.453 2.454v1.533c0 .944.356 1.852 1.018 2.539a2.458 2.458 0 0 1-.086 3.471 2.433 2.433 0 0 1-1.692.675v-.012Zm135.686-7.066a2.46 2.46 0 0 1-2.453-2.453v-6.194a2.46 2.46 0 0 1 2.453-2.453 2.46 2.46 0 0 1 2.453 2.453v6.194a2.46 2.46 0 0 1-2.453 2.453Zm-137.379-11.1a2.46 2.46 0 0 1-2.453-2.453v-6.195a2.46 2.46 0 0 1 2.453-2.453 2.46 2.46 0 0 1 2.453 2.453v6.195a2.46 2.46 0 0 1-2.453 2.453Zm137.379-7.483a2.46 2.46 0 0 1-2.453-2.453v-6.194a2.46 2.46 0 0 1 2.453-2.453 2.46 2.46 0 0 1 2.453 2.453v6.194a2.46 2.46 0 0 1-2.453 2.453Zm-137.379-11.1a2.46 2.46 0 0 1-2.453-2.454V840a2.46 2.46 0 0 1 2.453-2.453A2.46 2.46 0 0 1 769.25 840v6.194a2.46 2.46 0 0 1-2.453 2.454Zm137.379-7.483a2.46 2.46 0 0 1-2.453-2.453v-6.194a2.46 2.46 0 0 1 2.453-2.453 2.46 2.46 0 0 1 2.453 2.453v6.194a2.46 2.46 0 0 1-2.453 2.453Zm-137.379-11.1a2.46 2.46 0 0 1-2.453-2.453v-6.195a2.46 2.46 0 0 1 2.453-2.453 2.46 2.46 0 0 1 2.453 2.453v6.195a2.46 2.46 0 0 1-2.453 2.453Zm137.379-7.483a2.46 2.46 0 0 1-2.453-2.453v-6.194a2.46 2.46 0 0 1 2.453-2.453 2.46 2.46 0 0 1 2.453 2.453v6.194a2.46 2.46 0 0 1-2.453 2.453Zm-137.379-11.1a2.46 2.46 0 0 1-2.453-2.453v-6.195a2.46 2.46 0 0 1 2.453-2.453 2.46 2.46 0 0 1 2.453 2.453v6.195a2.46 2.46 0 0 1-2.453 2.453Zm137.379-7.483a2.46 2.46 0 0 1-2.453-2.453v-6.194a2.46 2.46 0 0 1 2.453-2.453 2.46 2.46 0 0 1 2.453 2.453v6.194a2.46 2.46 0 0 1-2.453 2.453Zm-137.379-11.1a2.46 2.46 0 0 1-2.453-2.453v-6.195a2.46 2.46 0 0 1 2.453-2.453 2.46 2.46 0 0 1 2.453 2.453v6.195a2.46 2.46 0 0 1-2.453 2.453Zm137.379-7.483a2.46 2.46 0 0 1-2.453-2.453v-6.194a2.46 2.46 0 0 1 2.453-2.453 2.46 2.46 0 0 1 2.453 2.453v6.194a2.46 2.46 0 0 1-2.453 2.453Zm-137.379-11.1a2.46 2.46 0 0 1-2.453-2.453v-6.195a2.46 2.46 0 0 1 2.453-2.453 2.46 2.46 0 0 1 2.453 2.453v6.195a2.46 2.46 0 0 1-2.453 2.453Zm137.379-7.483a2.46 2.46 0 0 1-2.453-2.453v-6.194a2.46 2.46 0 0 1 2.453-2.453 2.46 2.46 0 0 1 2.453 2.453v6.194a2.46 2.46 0 0 1-2.453 2.453Zm-137.367-11.1h-.122a2.457 2.457 0 0 1-2.331-2.576 8.537 8.537 0 0 1 4.379-7.065 2.44 2.44 0 0 1 3.336.944 2.445 2.445 0 0 1-.944 3.337 3.648 3.648 0 0 0-1.877 3.029 2.453 2.453 0 0 1-2.453 2.331h.012Zm133.05-5.557c-.246 0-.479-.037-.724-.11a3.605 3.605 0 0 0-1.092-.16h-4.354a2.46 2.46 0 0 1-2.453-2.453 2.46 2.46 0 0 1 2.453-2.453h4.354a8.51 8.51 0 0 1 2.539.38 2.448 2.448 0 0 1 1.619 3.067 2.45 2.45 0 0 1-2.342 1.729Zm-18.559-.27h-6.194a2.46 2.46 0 0 1-2.453-2.453 2.46 2.46 0 0 1 2.453-2.453h6.194a2.46 2.46 0 0 1 2.453 2.453 2.46 2.46 0 0 1-2.453 2.453Zm-18.583 0h-6.194a2.46 2.46 0 0 1-2.453-2.453 2.46 2.46 0 0 1 2.453-2.453h6.194a2.46 2.46 0 0 1 2.453 2.453 2.46 2.46 0 0 1-2.453 2.453Zm-18.583 0h-6.194a2.46 2.46 0 0 1-2.453-2.453A2.46 2.46 0 0 1 837.94 745h6.194a2.46 2.46 0 0 1 2.453 2.453 2.46 2.46 0 0 1-2.453 2.453Zm-18.583 0h-6.194a2.46 2.46 0 0 1-2.453-2.453 2.46 2.46 0 0 1 2.453-2.453h6.194a2.46 2.46 0 0 1 2.453 2.453 2.46 2.46 0 0 1-2.453 2.453Zm-18.583 0h-6.194a2.46 2.46 0 0 1-2.453-2.453 2.46 2.46 0 0 1 2.453-2.453h6.194a2.46 2.46 0 0 1 2.453 2.453 2.46 2.46 0 0 1-2.453 2.453Zm-18.583 0h-6.194a2.46 2.46 0 0 1-2.453-2.453 2.46 2.46 0 0 1 2.453-2.453h6.194a2.46 2.46 0 0 1 2.453 2.453 2.46 2.46 0 0 1-2.453 2.453Z" fill="#EAF2FE"/><path id="Vector_3" d="M1127.9 887.298h-7.71a2.457 2.457 0 0 1-2.45-2.453c0-1.35 1.1-2.454 2.45-2.454h7.71c1.34 0 2.45 1.104 2.45 2.454a2.464 2.464 0 0 1-2.45 2.453Zm-20.1 0h-6.19a2.457 2.457 0 0 1-2.45-2.453c0-1.35 1.1-2.454 2.45-2.454h6.19c1.35 0 2.46 1.104 2.46 2.454a2.466 2.466 0 0 1-2.46 2.453Zm-18.58 0h-6.19a2.466 2.466 0 0 1-2.46-2.453c0-1.35 1.11-2.454 2.46-2.454h6.19c1.35 0 2.45 1.104 2.45 2.454 0 1.349-1.1 2.453-2.45 2.453Zm-18.58 0h-6.2a2.457 2.457 0 0 1-2.45-2.453c0-1.35 1.1-2.454 2.45-2.454h6.2c1.35 0 2.45 1.104 2.45 2.454 0 1.349-1.1 2.453-2.45 2.453Zm-18.59 0h-6.19a2.457 2.457 0 0 1-2.45-2.453c0-1.35 1.1-2.454 2.45-2.454h6.19c1.35 0 2.46 1.104 2.46 2.454a2.466 2.466 0 0 1-2.46 2.453Zm-18.58 0h-6.19a2.466 2.466 0 0 1-2.46-2.453c0-1.35 1.11-2.454 2.46-2.454h6.19c1.35 0 2.45 1.104 2.45 2.454 0 1.349-1.1 2.453-2.45 2.453Zm-18.58 0h-6.2a2.457 2.457 0 0 1-2.45-2.453c0-1.35 1.1-2.454 2.45-2.454h6.2c1.35 0 2.45 1.104 2.45 2.454 0 1.349-1.1 2.453-2.45 2.453Zm-18.057-1.901c-.65 0-1.3-.258-1.779-.761a8.573 8.573 0 0 1-2.367-5.912v-1.533a2.46 2.46 0 0 1 2.453-2.454 2.46 2.46 0 0 1 2.453 2.454v1.533c0 .944.356 1.852 1.019 2.539a2.459 2.459 0 0 1-.086 3.471 2.437 2.437 0 0 1-1.693.675v-.012Zm135.687-7.066a2.457 2.457 0 0 1-2.45-2.453v-6.194c0-1.349 1.1-2.453 2.45-2.453s2.45 1.104 2.45 2.453v6.194c0 1.349-1.1 2.453-2.45 2.453Zm-137.38-11.1a2.46 2.46 0 0 1-2.453-2.453v-6.195a2.46 2.46 0 0 1 2.453-2.453 2.46 2.46 0 0 1 2.453 2.453v6.195a2.46 2.46 0 0 1-2.453 2.453Zm137.38-7.483a2.457 2.457 0 0 1-2.45-2.453v-6.194c0-1.349 1.1-2.453 2.45-2.453s2.45 1.104 2.45 2.453v6.194c0 1.349-1.1 2.453-2.45 2.453Zm-137.38-11.1a2.46 2.46 0 0 1-2.453-2.454V840a2.46 2.46 0 0 1 2.453-2.453 2.46 2.46 0 0 1 2.453 2.453v6.194a2.46 2.46 0 0 1-2.453 2.454Zm137.38-7.483a2.457 2.457 0 0 1-2.45-2.453v-6.194c0-1.349 1.1-2.453 2.45-2.453s2.45 1.104 2.45 2.453v6.194c0 1.35-1.1 2.453-2.45 2.453Zm-137.38-11.1a2.46 2.46 0 0 1-2.453-2.453v-6.195a2.46 2.46 0 0 1 2.453-2.453 2.46 2.46 0 0 1 2.453 2.453v6.195a2.46 2.46 0 0 1-2.453 2.453Zm137.38-7.483a2.457 2.457 0 0 1-2.45-2.453v-6.194c0-1.349 1.1-2.453 2.45-2.453s2.45 1.104 2.45 2.453v6.194c0 1.35-1.1 2.453-2.45 2.453Zm-137.38-11.1a2.46 2.46 0 0 1-2.453-2.453v-6.195a2.46 2.46 0 0 1 2.453-2.453 2.46 2.46 0 0 1 2.453 2.453v6.195a2.46 2.46 0 0 1-2.453 2.453Zm137.38-7.483a2.457 2.457 0 0 1-2.45-2.453v-6.194c0-1.349 1.1-2.453 2.45-2.453s2.45 1.104 2.45 2.453v6.194c0 1.35-1.1 2.453-2.45 2.453Zm-137.38-11.1a2.46 2.46 0 0 1-2.453-2.453v-6.195a2.46 2.46 0 0 1 2.453-2.453 2.46 2.46 0 0 1 2.453 2.453v6.195a2.46 2.46 0 0 1-2.453 2.453Zm137.38-7.483a2.457 2.457 0 0 1-2.45-2.453v-6.194c0-1.349 1.1-2.453 2.45-2.453s2.45 1.104 2.45 2.453v6.194c0 1.35-1.1 2.453-2.45 2.453Zm-137.38-11.1a2.46 2.46 0 0 1-2.453-2.453v-6.195a2.46 2.46 0 0 1 2.453-2.453 2.46 2.46 0 0 1 2.453 2.453v6.195a2.46 2.46 0 0 1-2.453 2.453Zm137.38-7.483a2.457 2.457 0 0 1-2.45-2.453v-6.194c0-1.349 1.1-2.453 2.45-2.453s2.45 1.104 2.45 2.453v6.194c0 1.35-1.1 2.453-2.45 2.453Zm-137.368-11.1h-.122a2.458 2.458 0 0 1-2.331-2.576 8.537 8.537 0 0 1 4.379-7.065 2.438 2.438 0 0 1 3.332.944 2.438 2.438 0 0 1-.94 3.337 3.65 3.65 0 0 0-1.877 3.029 2.453 2.453 0 0 1-2.453 2.331h.012Zm133.048-5.557c-.24 0-.48-.037-.72-.11a3.61 3.61 0 0 0-1.09-.16h-4.36a2.457 2.457 0 0 1-2.45-2.453c0-1.349 1.1-2.453 2.45-2.453h4.36c.85 0 1.71.123 2.54.38a2.44 2.44 0 0 1 1.61 3.067 2.459 2.459 0 0 1-2.34 1.729Zm-18.56-.27h-6.19a2.457 2.457 0 0 1-2.45-2.453c0-1.349 1.1-2.453 2.45-2.453h6.19c1.35 0 2.46 1.104 2.46 2.453a2.466 2.466 0 0 1-2.46 2.453Zm-18.58 0h-6.19a2.466 2.466 0 0 1-2.46-2.453 2.466 2.466 0 0 1 2.46-2.453h6.19c1.35 0 2.45 1.104 2.45 2.453 0 1.349-1.1 2.453-2.45 2.453Zm-18.58 0h-6.2a2.457 2.457 0 0 1-2.45-2.453c0-1.349 1.1-2.453 2.45-2.453h6.2c1.35 0 2.45 1.104 2.45 2.453 0 1.349-1.1 2.453-2.45 2.453Zm-18.59 0h-6.19a2.457 2.457 0 0 1-2.45-2.453c0-1.349 1.1-2.453 2.45-2.453h6.19c1.35 0 2.46 1.104 2.46 2.453a2.466 2.466 0 0 1-2.46 2.453Zm-18.58 0h-6.19a2.466 2.466 0 0 1-2.46-2.453 2.466 2.466 0 0 1 2.46-2.453h6.19c1.35 0 2.45 1.104 2.45 2.453 0 1.349-1.1 2.453-2.45 2.453Zm-18.58 0h-6.2a2.457 2.457 0 0 1-2.45-2.453c0-1.349 1.1-2.453 2.45-2.453h6.2c1.35 0 2.45 1.104 2.45 2.453 0 1.349-1.1 2.453-2.45 2.453Z" fill="#EAF2FE"/><path id="Vector_4" d="M1356.24 887.298h-7.7a2.466 2.466 0 0 1-2.46-2.453c0-1.35 1.11-2.454 2.46-2.454h7.7c1.35 0 2.45 1.104 2.45 2.454 0 1.349-1.1 2.453-2.45 2.453Zm-20.09 0h-6.2a2.457 2.457 0 0 1-2.45-2.453c0-1.35 1.1-2.454 2.45-2.454h6.2c1.35 0 2.45 1.104 2.45 2.454 0 1.349-1.1 2.453-2.45 2.453Zm-18.59 0h-6.19a2.457 2.457 0 0 1-2.45-2.453c0-1.35 1.1-2.454 2.45-2.454h6.19c1.35 0 2.46 1.104 2.46 2.454a2.466 2.466 0 0 1-2.46 2.453Zm-18.58 0h-6.19a2.466 2.466 0 0 1-2.46-2.453c0-1.35 1.11-2.454 2.46-2.454h6.19c1.35 0 2.45 1.104 2.45 2.454 0 1.349-1.1 2.453-2.45 2.453Zm-18.58 0h-6.2a2.457 2.457 0 0 1-2.45-2.453c0-1.35 1.1-2.454 2.45-2.454h6.2c1.35 0 2.45 1.104 2.45 2.454 0 1.349-1.1 2.453-2.45 2.453Zm-18.58 0h-6.2a2.457 2.457 0 0 1-2.45-2.453c0-1.35 1.1-2.454 2.45-2.454h6.2c1.34 0 2.45 1.104 2.45 2.454a2.464 2.464 0 0 1-2.45 2.453Zm-18.59 0h-6.19a2.466 2.466 0 0 1-2.46-2.453c0-1.35 1.11-2.454 2.46-2.454h6.19c1.35 0 2.46 1.104 2.46 2.454a2.466 2.466 0 0 1-2.46 2.453Zm-18.05-1.901c-.65 0-1.3-.258-1.78-.761a8.58 8.58 0 0 1-2.37-5.912v-1.533c0-1.35 1.1-2.454 2.45-2.454s2.46 1.104 2.46 2.454v1.533c0 .944.35 1.852 1.02 2.539.93.981.89 2.539-.09 3.471-.48.454-1.08.675-1.69.675v-.012Zm135.68-7.066a2.457 2.457 0 0 1-2.45-2.453v-6.194c0-1.349 1.1-2.453 2.45-2.453s2.46 1.104 2.46 2.453v6.194a2.466 2.466 0 0 1-2.46 2.453Zm-137.38-11.1a2.457 2.457 0 0 1-2.45-2.453v-6.195c0-1.349 1.1-2.453 2.45-2.453s2.46 1.104 2.46 2.453v6.195a2.466 2.466 0 0 1-2.46 2.453Zm137.38-7.483a2.457 2.457 0 0 1-2.45-2.453v-6.194c0-1.349 1.1-2.453 2.45-2.453s2.46 1.104 2.46 2.453v6.194a2.466 2.466 0 0 1-2.46 2.453Zm-137.38-11.1a2.457 2.457 0 0 1-2.45-2.454V840c0-1.349 1.1-2.453 2.45-2.453s2.46 1.104 2.46 2.453v6.194c0 1.35-1.11 2.454-2.46 2.454Zm137.38-7.483a2.457 2.457 0 0 1-2.45-2.453v-6.194c0-1.349 1.1-2.453 2.45-2.453s2.46 1.104 2.46 2.453v6.194c0 1.35-1.11 2.453-2.46 2.453Zm-137.38-11.1a2.457 2.457 0 0 1-2.45-2.453v-6.195c0-1.349 1.1-2.453 2.45-2.453s2.46 1.104 2.46 2.453v6.195a2.466 2.466 0 0 1-2.46 2.453Zm137.38-7.483a2.457 2.457 0 0 1-2.45-2.453v-6.194c0-1.349 1.1-2.453 2.45-2.453s2.46 1.104 2.46 2.453v6.194c0 1.35-1.11 2.453-2.46 2.453Zm-137.38-11.1a2.457 2.457 0 0 1-2.45-2.453v-6.195c0-1.349 1.1-2.453 2.45-2.453s2.46 1.104 2.46 2.453v6.195a2.466 2.466 0 0 1-2.46 2.453Zm137.38-7.483a2.457 2.457 0 0 1-2.45-2.453v-6.194c0-1.349 1.1-2.453 2.45-2.453s2.46 1.104 2.46 2.453v6.194c0 1.35-1.11 2.453-2.46 2.453Zm-137.38-11.1a2.457 2.457 0 0 1-2.45-2.453v-6.195c0-1.349 1.1-2.453 2.45-2.453s2.46 1.104 2.46 2.453v6.195a2.466 2.466 0 0 1-2.46 2.453Zm137.38-7.483a2.457 2.457 0 0 1-2.45-2.453v-6.194c0-1.349 1.1-2.453 2.45-2.453s2.46 1.104 2.46 2.453v6.194c0 1.35-1.11 2.453-2.46 2.453Zm-137.38-11.1a2.457 2.457 0 0 1-2.45-2.453v-6.195c0-1.349 1.1-2.453 2.45-2.453s2.46 1.104 2.46 2.453v6.195a2.466 2.466 0 0 1-2.46 2.453Zm137.38-7.483a2.457 2.457 0 0 1-2.45-2.453v-6.194c0-1.349 1.1-2.453 2.45-2.453s2.46 1.104 2.46 2.453v6.194c0 1.35-1.11 2.453-2.46 2.453Zm-137.36-11.1h-.13c-1.35-.062-2.39-1.215-2.33-2.576a8.544 8.544 0 0 1 4.38-7.065 2.445 2.445 0 0 1 3.34.944 2.45 2.45 0 0 1-.95 3.337 3.652 3.652 0 0 0-1.87 3.029c-.06 1.313-1.16 2.331-2.46 2.331h.02Zm133.05-5.557c-.25 0-.48-.037-.73-.11-.35-.111-.71-.16-1.09-.16h-4.35a2.466 2.466 0 0 1-2.46-2.453 2.466 2.466 0 0 1 2.46-2.453h4.35c.86 0 1.72.123 2.54.38a2.453 2.453 0 0 1-.72 4.796Zm-18.56-.27h-6.2a2.457 2.457 0 0 1-2.45-2.453c0-1.349 1.1-2.453 2.45-2.453h6.2c1.35 0 2.45 1.104 2.45 2.453 0 1.349-1.1 2.453-2.45 2.453Zm-18.59 0h-6.19a2.457 2.457 0 0 1-2.45-2.453c0-1.349 1.1-2.453 2.45-2.453h6.19c1.35 0 2.46 1.104 2.46 2.453a2.466 2.466 0 0 1-2.46 2.453Zm-18.58 0h-6.19a2.466 2.466 0 0 1-2.46-2.453 2.466 2.466 0 0 1 2.46-2.453h6.19c1.35 0 2.45 1.104 2.45 2.453 0 1.349-1.1 2.453-2.45 2.453Zm-18.58 0h-6.2a2.457 2.457 0 0 1-2.45-2.453c0-1.349 1.1-2.453 2.45-2.453h6.2c1.35 0 2.45 1.104 2.45 2.453 0 1.349-1.1 2.453-2.45 2.453Zm-18.58 0h-6.2a2.457 2.457 0 0 1-2.45-2.453c0-1.349 1.1-2.453 2.45-2.453h6.2c1.34 0 2.45 1.104 2.45 2.453a2.464 2.464 0 0 1-2.45 2.453Zm-18.59 0h-6.19a2.466 2.466 0 0 1-2.46-2.453 2.466 2.466 0 0 1 2.46-2.453h6.19c1.35 0 2.46 1.104 2.46 2.453a2.466 2.466 0 0 1-2.46 2.453Z" fill="#EAF2FE"/><path id="Vector_5" d="M584.205 793.574a5.53 5.53 0 0 1-1.766-.295c-2.895-.969-4.441-4.109-3.472-6.991 6.121-18.178 17.332-26.335 25.661-29.978 10.426-4.563 22.213-4.588 32.345-.049 2.785 1.238 4.036 4.513 2.785 7.286-1.239 2.784-4.514 4.023-7.286 2.784-7.299-3.263-15.836-3.238-23.416.086-6.28 2.747-14.793 9.052-19.626 23.391a5.527 5.527 0 0 1-5.225 3.766Z" fill="#575FE1"/><path id="Vector_6" d="M875.069 813.065a5.467 5.467 0 0 1-3.41-1.19c-2.392-1.889-2.809-5.36-.92-7.752.257-.331 6.869-9.261 3.189-23.317-2.601-9.924-11.702-16.584-23.183-16.977-11.554-.38-26.323 6.219-32.971 25.98a5.524 5.524 0 0 1-6.991 3.471 5.53 5.53 0 0 1-3.472-6.992c8.586-25.501 28.249-34.025 43.814-33.486 16.216.552 29.672 10.684 33.474 25.207 5.127 19.564-4.771 32.419-5.2 32.946a5.506 5.506 0 0 1-4.343 2.098l.013.012Z" fill="#575FE1"/><path id="Vector_7" d="M1015.7 879.643c-.33 0-.68-.037-1.02-.098a5.522 5.522 0 0 1-4.42-6.44c6.2-33.314 35.59-44.256 59.2-53.038 27.08-10.083 40.9-16.4 34.1-39.092-2.99-10.009-12.71-16.866-24.18-17.062-5.47-.098-23.8 1.509-32.02 25.894-.97 2.894-4.11 4.44-6.99 3.471-2.9-.969-4.44-4.109-3.48-6.992 8.43-25.022 27.54-33.67 42.68-33.412 16.3.282 30.18 10.303 34.56 24.937 4.54 15.185 1.98 26.923-7.86 35.902-8.16 7.458-20.21 11.935-32.97 16.694-23.17 8.623-47.14 17.541-52.19 44.71a5.513 5.513 0 0 1-5.42 4.514l.01.012Z" fill="#575FE1"/><path id="Vector_8" d="M1242.79 879.632a5.521 5.521 0 0 1-5.43-6.513c6.19-33.315 35.58-44.256 59.19-53.038 27.09-10.083 40.9-16.4 34.1-39.092-2.99-10.009-12.71-16.866-24.17-17.062-5.38-.086-23.81 1.496-32.03 25.893a5.519 5.519 0 0 1-6.99 3.472c-2.9-.969-4.44-4.11-3.47-6.992 8.42-25.023 27.55-33.67 42.67-33.413 16.3.283 30.19 10.304 34.57 24.937 4.53 15.185 1.97 26.924-7.87 35.903-8.15 7.458-20.21 11.935-32.97 16.694-18.81 7.004-38.15 14.204-47.46 31.192.67-.27 1.34-.515 2.04-.76 9.09-3.189 23.5-5.213 40.49 3.275 18.52 9.261 35.2-8.734 35.9-9.506 2.05-2.245 5.54-2.429 7.79-.381a5.512 5.512 0 0 1 .41 7.777c-7.84 8.709-28.18 22.422-49.04 11.984-25.54-12.769-43.22 3.434-43.95 4.134a5.546 5.546 0 0 1-3.8 1.508l.02-.012Z" fill="#575FE1"/><path id="Vector_9" d="M583.42 800.05c-5.004 0-9.077-4.072-9.077-9.077 0-5.004 4.073-9.077 9.077-9.077 5.005 0 9.077 4.073 9.077 9.077 0 5.005-4.072 9.077-9.077 9.077Zm0-15.688a6.628 6.628 0 0 0-6.624 6.624 6.627 6.627 0 0 0 6.624 6.623 6.627 6.627 0 0 0 6.624-6.623 6.628 6.628 0 0 0-6.624-6.624Z" fill="#2F2F45"/><path id="Vector_10" d="M812.206 800.05c-5.005 0-9.077-4.072-9.077-9.077 0-5.004 4.072-9.077 9.077-9.077 5.004 0 9.077 4.073 9.077 9.077 0 5.005-4.073 9.077-9.077 9.077Zm0-15.688a6.628 6.628 0 0 0-6.624 6.624 6.627 6.627 0 0 0 6.624 6.623 6.627 6.627 0 0 0 6.623-6.623 6.627 6.627 0 0 0-6.623-6.624Z" fill="#2F2F45"/><path id="Vector_11" d="M1041.67 800.05c-5.01 0-9.08-4.072-9.08-9.077 0-5.004 4.07-9.077 9.08-9.077 5 0 9.07 4.073 9.07 9.077 0 5.005-4.07 9.077-9.07 9.077Zm0-15.688c-3.65 0-6.63 2.968-6.63 6.624 0 3.655 2.97 6.623 6.63 6.623 3.65 0 6.62-2.968 6.62-6.623a6.627 6.627 0 0 0-6.62-6.624Z" fill="#2F2F45"/><path id="Vector_12" d="M1268.71 800.05c-5.01 0-9.08-4.072-9.08-9.077 0-5.004 4.07-9.077 9.08-9.077 5 0 9.08 4.073 9.08 9.077 0 5.005-4.08 9.077-9.08 9.077Zm0-15.688a6.621 6.621 0 0 0-6.62 6.624 6.62 6.62 0 0 0 6.62 6.623c3.65 0 6.62-2.968 6.62-6.623a6.627 6.627 0 0 0-6.62-6.624Z" fill="#2F2F45"/><g id="Group" fill="#2F2F45"><path id="Vector_13" d="M601.071 787.379c-.184 0-.355-.036-.527-.122a1.223 1.223 0 0 1-.577-1.632c5.103-10.622 14.07-14.682 14.438-14.854a1.23 1.23 0 0 1 1.619.626c.282.625 0 1.337-.626 1.619-.086.037-8.525 3.901-13.223 13.676-.208.442-.65.7-1.104.7v-.013Z"/><path id="Vector_14" d="M614.048 777.468c-.172 0-.343-.037-.515-.111a1.23 1.23 0 0 1-.601-1.631l1.558-3.373-3.558-1.08a1.213 1.213 0 0 1-.809-1.533c.208-.65.883-1.018 1.533-.809l4.894 1.496c.344.098.614.343.761.675a1.23 1.23 0 0 1 0 1.018l-2.147 4.649c-.208.453-.65.711-1.116.711v-.012Z"/></g><g id="Group_2" fill="#2F2F45"><path id="Vector_15" d="M857.503 810.097a1.2 1.2 0 0 1-.92-.417 1.224 1.224 0 0 1 .098-1.729c.074-.062 6.955-6.293 8.476-17.038a1.228 1.228 0 0 1 2.429.344c-1.656 11.664-8.966 18.251-9.273 18.521a1.215 1.215 0 0 1-.81.307v.012Z"/><path id="Vector_16" d="M856.375 810.759c-.344 0-.687-.147-.92-.404a1.27 1.27 0 0 1-.307-.969l.638-5.078a1.23 1.23 0 1 1 2.441.306l-.466 3.692 3.716-.036c.65-.037 1.227.539 1.239 1.214.012.674-.54 1.226-1.214 1.239l-5.127.061h-.013l.013-.025Z"/></g><g id="Group_3" fill="#2F2F45"><path id="Vector_17" d="M1035.34 870.04a1.232 1.232 0 0 1-1.17-1.607c.14-.393 3.3-9.715 13.37-15.835a1.215 1.215 0 0 1 1.68.404c.36.577.17 1.337-.4 1.681-9.31 5.654-12.28 14.412-12.32 14.498a1.23 1.23 0 0 1-1.16.846v.013Z"/><path id="Vector_18" d="M1035.16 871.34c-.13 0-.25-.025-.39-.062-.33-.11-.61-.368-.75-.687l-1.96-4.722c-.26-.626.04-1.349.66-1.607.63-.257 1.35.037 1.61.663l1.44 3.434 3.21-1.877a1.226 1.226 0 0 1 1.68.442c.34.589.15 1.337-.44 1.68l-4.42 2.588c-.18.111-.4.172-.61.172l-.03-.024Z"/></g><g id="Group_4" fill="#2F2F45"><path id="Vector_19" d="M1301.9 860.081c-.29 0-.59-.098-.82-.319-.07-.061-7.03-6.218-17.86-6.537a1.238 1.238 0 0 1-1.19-1.264c.02-.674.63-1.177 1.26-1.19 11.78.356 19.13 6.894 19.45 7.176.5.454.54 1.227.08 1.73-.24.269-.58.404-.91.404h-.01Z"/><path id="Vector_20" d="m1302.69 861.137-5.13-.074c-.68 0-1.22-.564-1.22-1.239 0-.675.56-1.214 1.23-1.214h.01l3.72.049-.45-3.692a1.206 1.206 0 0 1 1.06-1.362c.68-.098 1.29.393 1.36 1.067l.63 5.091c.05.355-.06.699-.31.969-.23.257-.56.405-.9.405Z"/></g><g id="Group_5" fill="#2F2F45"><path id="Vector_21" d="M1314.06 858.006c-.51 0-.97-.307-1.16-.797-.23-.638.09-1.337.73-1.57 10.18-3.754 14.81-11.788 14.86-11.874a1.227 1.227 0 0 1 2.14 1.202c-.21.356-5.1 8.893-16.16 12.978-.13.049-.28.073-.43.073l.02-.012Z"/><path id="Vector_22" d="M1331.01 849.359c-.58 0-1.08-.405-1.2-.981l-.75-3.643-3.51 1.226a1.223 1.223 0 1 1-.81-2.306l4.83-1.692c.33-.111.7-.086 1.01.098.31.171.53.478.6.822l1.03 5.016a1.222 1.222 0 0 1-1.2 1.472v-.012Z"/></g></g><g id="success"><path id="Vector_23" d="M671.208 887.298h-7.703a2.46 2.46 0 0 1-2.453-2.453 2.46 2.46 0 0 1 2.453-2.454h7.703a2.46 2.46 0 0 1 2.453 2.454 2.46 2.46 0 0 1-2.453 2.453Zm-20.092 0h-6.194a2.46 2.46 0 0 1-2.453-2.453 2.46 2.46 0 0 1 2.453-2.454h6.194a2.46 2.46 0 0 1 2.454 2.454 2.46 2.46 0 0 1-2.454 2.453Zm-18.583 0h-6.194a2.46 2.46 0 0 1-2.453-2.453 2.46 2.46 0 0 1 2.453-2.454h6.194a2.46 2.46 0 0 1 2.454 2.454 2.46 2.46 0 0 1-2.454 2.453Zm-18.583 0h-6.194a2.46 2.46 0 0 1-2.453-2.453 2.46 2.46 0 0 1 2.453-2.454h6.194a2.46 2.46 0 0 1 2.454 2.454 2.46 2.46 0 0 1-2.454 2.453Zm-18.583 0h-6.194a2.46 2.46 0 0 1-2.453-2.453 2.46 2.46 0 0 1 2.453-2.454h6.194a2.46 2.46 0 0 1 2.454 2.454 2.46 2.46 0 0 1-2.454 2.453Zm-18.583 0h-6.194a2.46 2.46 0 0 1-2.453-2.453 2.46 2.46 0 0 1 2.453-2.454h6.194a2.46 2.46 0 0 1 2.454 2.454 2.46 2.46 0 0 1-2.454 2.453Zm-18.583 0h-6.194a2.46 2.46 0 0 1-2.453-2.453 2.46 2.46 0 0 1 2.453-2.454h6.194a2.46 2.46 0 0 1 2.454 2.454 2.46 2.46 0 0 1-2.454 2.453Zm-18.055-1.901c-.65 0-1.3-.258-1.779-.761a8.573 8.573 0 0 1-2.367-5.912v-1.533a2.46 2.46 0 0 1 2.453-2.454 2.46 2.46 0 0 1 2.453 2.454v1.533c0 .944.356 1.852 1.018 2.539a2.458 2.458 0 0 1-.085 3.471 2.437 2.437 0 0 1-1.693.675v-.012Zm135.686-7.066a2.46 2.46 0 0 1-2.453-2.453v-6.194a2.46 2.46 0 0 1 2.453-2.453 2.46 2.46 0 0 1 2.454 2.453v6.194a2.46 2.46 0 0 1-2.454 2.453Zm-137.379-11.1a2.46 2.46 0 0 1-2.453-2.453v-6.195a2.46 2.46 0 0 1 2.453-2.453 2.46 2.46 0 0 1 2.453 2.453v6.195a2.46 2.46 0 0 1-2.453 2.453Zm137.379-7.483a2.46 2.46 0 0 1-2.453-2.453v-6.194a2.46 2.46 0 0 1 2.453-2.453 2.46 2.46 0 0 1 2.454 2.453v6.194a2.46 2.46 0 0 1-2.454 2.453Zm-137.379-11.1a2.46 2.46 0 0 1-2.453-2.454V840a2.46 2.46 0 0 1 2.453-2.453 2.46 2.46 0 0 1 2.453 2.453v6.194a2.46 2.46 0 0 1-2.453 2.454Zm137.379-7.483a2.46 2.46 0 0 1-2.453-2.453v-6.194a2.46 2.46 0 0 1 2.453-2.453 2.46 2.46 0 0 1 2.454 2.453v6.194a2.46 2.46 0 0 1-2.454 2.453Zm-137.379-11.1a2.46 2.46 0 0 1-2.453-2.453v-6.195a2.46 2.46 0 0 1 2.453-2.453 2.46 2.46 0 0 1 2.453 2.453v6.195a2.46 2.46 0 0 1-2.453 2.453Zm137.379-7.483a2.46 2.46 0 0 1-2.453-2.453v-6.194a2.46 2.46 0 0 1 2.453-2.453 2.46 2.46 0 0 1 2.454 2.453v6.194a2.46 2.46 0 0 1-2.454 2.453Zm-137.379-11.1a2.46 2.46 0 0 1-2.453-2.453v-6.195a2.46 2.46 0 0 1 2.453-2.453 2.46 2.46 0 0 1 2.453 2.453v6.195a2.46 2.46 0 0 1-2.453 2.453Zm137.379-7.483a2.46 2.46 0 0 1-2.453-2.453v-6.194a2.46 2.46 0 0 1 2.453-2.453 2.46 2.46 0 0 1 2.454 2.453v6.194a2.46 2.46 0 0 1-2.454 2.453Zm-137.379-11.1a2.46 2.46 0 0 1-2.453-2.453v-6.195a2.46 2.46 0 0 1 2.453-2.453 2.46 2.46 0 0 1 2.453 2.453v6.195a2.46 2.46 0 0 1-2.453 2.453Zm137.379-7.483a2.46 2.46 0 0 1-2.453-2.453v-6.194a2.46 2.46 0 0 1 2.453-2.453 2.46 2.46 0 0 1 2.454 2.453v6.194a2.46 2.46 0 0 1-2.454 2.453Zm-137.379-11.1a2.46 2.46 0 0 1-2.453-2.453v-6.195a2.46 2.46 0 0 1 2.453-2.453 2.46 2.46 0 0 1 2.453 2.453v6.195a2.46 2.46 0 0 1-2.453 2.453Zm137.379-7.483a2.46 2.46 0 0 1-2.453-2.453v-6.194a2.46 2.46 0 0 1 2.453-2.453 2.46 2.46 0 0 1 2.454 2.453v6.194a2.46 2.46 0 0 1-2.454 2.453Zm-137.367-11.1h-.122a2.458 2.458 0 0 1-2.331-2.576 8.537 8.537 0 0 1 4.379-7.065 2.445 2.445 0 0 1 3.337.944 2.446 2.446 0 0 1-.945 3.337 3.65 3.65 0 0 0-1.877 3.029 2.453 2.453 0 0 1-2.453 2.331h.012Zm133.05-5.557c-.246 0-.479-.037-.724-.11a3.6 3.6 0 0 0-1.092-.16h-4.354a2.46 2.46 0 0 1-2.453-2.453 2.46 2.46 0 0 1 2.453-2.453h4.354c.859 0 1.718.123 2.539.38a2.449 2.449 0 0 1 1.62 3.067 2.463 2.463 0 0 1-2.343 1.729Zm-18.559-.27h-6.194a2.46 2.46 0 0 1-2.453-2.453 2.46 2.46 0 0 1 2.453-2.453h6.194a2.46 2.46 0 0 1 2.453 2.453 2.46 2.46 0 0 1-2.453 2.453Zm-18.583 0h-6.194a2.46 2.46 0 0 1-2.453-2.453 2.46 2.46 0 0 1 2.453-2.453h6.194a2.46 2.46 0 0 1 2.454 2.453 2.46 2.46 0 0 1-2.454 2.453Zm-18.583 0h-6.194a2.46 2.46 0 0 1-2.453-2.453 2.46 2.46 0 0 1 2.453-2.453h6.194a2.46 2.46 0 0 1 2.453 2.453 2.46 2.46 0 0 1-2.453 2.453Zm-18.583 0h-6.194a2.46 2.46 0 0 1-2.453-2.453 2.46 2.46 0 0 1 2.453-2.453h6.194a2.46 2.46 0 0 1 2.454 2.453 2.46 2.46 0 0 1-2.454 2.453Zm-18.583 0h-6.194a2.46 2.46 0 0 1-2.453-2.453A2.46 2.46 0 0 1 572.43 745h6.194a2.46 2.46 0 0 1 2.454 2.453 2.46 2.46 0 0 1-2.454 2.453Zm-18.583 0h-6.194a2.46 2.46 0 0 1-2.453-2.453 2.46 2.46 0 0 1 2.453-2.453h6.194a2.46 2.46 0 0 1 2.454 2.453 2.46 2.46 0 0 1-2.454 2.453Z" fill="#EAF2FE"/><path id="Vector_24" d="M899.552 887.298h-7.703a2.46 2.46 0 0 1-2.453-2.453 2.46 2.46 0 0 1 2.453-2.454h7.703a2.46 2.46 0 0 1 2.453 2.454 2.46 2.46 0 0 1-2.453 2.453Zm-20.092 0h-6.194a2.46 2.46 0 0 1-2.453-2.453 2.46 2.46 0 0 1 2.453-2.454h6.194a2.46 2.46 0 0 1 2.453 2.454 2.46 2.46 0 0 1-2.453 2.453Zm-18.583 0h-6.194a2.46 2.46 0 0 1-2.453-2.453 2.46 2.46 0 0 1 2.453-2.454h6.194a2.46 2.46 0 0 1 2.453 2.454 2.46 2.46 0 0 1-2.453 2.453Zm-18.583 0H836.1a2.46 2.46 0 0 1-2.453-2.453 2.46 2.46 0 0 1 2.453-2.454h6.194a2.46 2.46 0 0 1 2.453 2.454 2.46 2.46 0 0 1-2.453 2.453Zm-18.583 0h-6.194a2.46 2.46 0 0 1-2.453-2.453 2.46 2.46 0 0 1 2.453-2.454h6.194a2.46 2.46 0 0 1 2.453 2.454 2.46 2.46 0 0 1-2.453 2.453Zm-18.583 0h-6.194a2.46 2.46 0 0 1-2.453-2.453 2.46 2.46 0 0 1 2.453-2.454h6.194a2.46 2.46 0 0 1 2.453 2.454 2.46 2.46 0 0 1-2.453 2.453Zm-18.583 0h-6.194a2.46 2.46 0 0 1-2.453-2.453 2.46 2.46 0 0 1 2.453-2.454h6.194a2.46 2.46 0 0 1 2.453 2.454 2.46 2.46 0 0 1-2.453 2.453Zm-18.055-1.901c-.65 0-1.301-.258-1.779-.761a8.573 8.573 0 0 1-2.367-5.912v-1.533a2.46 2.46 0 0 1 2.453-2.454 2.46 2.46 0 0 1 2.453 2.454v1.533c0 .944.356 1.852 1.018 2.539a2.458 2.458 0 0 1-.086 3.471 2.433 2.433 0 0 1-1.692.675v-.012Zm135.686-7.066a2.46 2.46 0 0 1-2.453-2.453v-6.194a2.46 2.46 0 0 1 2.453-2.453 2.46 2.46 0 0 1 2.453 2.453v6.194a2.46 2.46 0 0 1-2.453 2.453Zm-137.379-11.1a2.46 2.46 0 0 1-2.453-2.453v-6.195a2.46 2.46 0 0 1 2.453-2.453 2.46 2.46 0 0 1 2.453 2.453v6.195a2.46 2.46 0 0 1-2.453 2.453Zm137.379-7.483a2.46 2.46 0 0 1-2.453-2.453v-6.194a2.46 2.46 0 0 1 2.453-2.453 2.46 2.46 0 0 1 2.453 2.453v6.194a2.46 2.46 0 0 1-2.453 2.453Zm-137.379-11.1a2.46 2.46 0 0 1-2.453-2.454V840a2.46 2.46 0 0 1 2.453-2.453A2.46 2.46 0 0 1 769.25 840v6.194a2.46 2.46 0 0 1-2.453 2.454Zm137.379-7.483a2.46 2.46 0 0 1-2.453-2.453v-6.194a2.46 2.46 0 0 1 2.453-2.453 2.46 2.46 0 0 1 2.453 2.453v6.194a2.46 2.46 0 0 1-2.453 2.453Zm-137.379-11.1a2.46 2.46 0 0 1-2.453-2.453v-6.195a2.46 2.46 0 0 1 2.453-2.453 2.46 2.46 0 0 1 2.453 2.453v6.195a2.46 2.46 0 0 1-2.453 2.453Zm137.379-7.483a2.46 2.46 0 0 1-2.453-2.453v-6.194a2.46 2.46 0 0 1 2.453-2.453 2.46 2.46 0 0 1 2.453 2.453v6.194a2.46 2.46 0 0 1-2.453 2.453Zm-137.379-11.1a2.46 2.46 0 0 1-2.453-2.453v-6.195a2.46 2.46 0 0 1 2.453-2.453 2.46 2.46 0 0 1 2.453 2.453v6.195a2.46 2.46 0 0 1-2.453 2.453Zm137.379-7.483a2.46 2.46 0 0 1-2.453-2.453v-6.194a2.46 2.46 0 0 1 2.453-2.453 2.46 2.46 0 0 1 2.453 2.453v6.194a2.46 2.46 0 0 1-2.453 2.453Zm-137.379-11.1a2.46 2.46 0 0 1-2.453-2.453v-6.195a2.46 2.46 0 0 1 2.453-2.453 2.46 2.46 0 0 1 2.453 2.453v6.195a2.46 2.46 0 0 1-2.453 2.453Zm137.379-7.483a2.46 2.46 0 0 1-2.453-2.453v-6.194a2.46 2.46 0 0 1 2.453-2.453 2.46 2.46 0 0 1 2.453 2.453v6.194a2.46 2.46 0 0 1-2.453 2.453Zm-137.379-11.1a2.46 2.46 0 0 1-2.453-2.453v-6.195a2.46 2.46 0 0 1 2.453-2.453 2.46 2.46 0 0 1 2.453 2.453v6.195a2.46 2.46 0 0 1-2.453 2.453Zm137.379-7.483a2.46 2.46 0 0 1-2.453-2.453v-6.194a2.46 2.46 0 0 1 2.453-2.453 2.46 2.46 0 0 1 2.453 2.453v6.194a2.46 2.46 0 0 1-2.453 2.453Zm-137.367-11.1h-.122a2.457 2.457 0 0 1-2.331-2.576 8.537 8.537 0 0 1 4.379-7.065 2.44 2.44 0 0 1 3.336.944 2.445 2.445 0 0 1-.944 3.337 3.648 3.648 0 0 0-1.877 3.029 2.453 2.453 0 0 1-2.453 2.331h.012Zm133.05-5.557c-.246 0-.479-.037-.724-.11a3.605 3.605 0 0 0-1.092-.16h-4.354a2.46 2.46 0 0 1-2.453-2.453 2.46 2.46 0 0 1 2.453-2.453h4.354a8.51 8.51 0 0 1 2.539.38 2.448 2.448 0 0 1 1.619 3.067 2.45 2.45 0 0 1-2.342 1.729Zm-18.559-.27h-6.194a2.46 2.46 0 0 1-2.453-2.453 2.46 2.46 0 0 1 2.453-2.453h6.194a2.46 2.46 0 0 1 2.453 2.453 2.46 2.46 0 0 1-2.453 2.453Zm-18.583 0h-6.194a2.46 2.46 0 0 1-2.453-2.453 2.46 2.46 0 0 1 2.453-2.453h6.194a2.46 2.46 0 0 1 2.453 2.453 2.46 2.46 0 0 1-2.453 2.453Zm-18.583 0h-6.194a2.46 2.46 0 0 1-2.453-2.453A2.46 2.46 0 0 1 837.94 745h6.194a2.46 2.46 0 0 1 2.453 2.453 2.46 2.46 0 0 1-2.453 2.453Zm-18.583 0h-6.194a2.46 2.46 0 0 1-2.453-2.453 2.46 2.46 0 0 1 2.453-2.453h6.194a2.46 2.46 0 0 1 2.453 2.453 2.46 2.46 0 0 1-2.453 2.453Zm-18.583 0h-6.194a2.46 2.46 0 0 1-2.453-2.453 2.46 2.46 0 0 1 2.453-2.453h6.194a2.46 2.46 0 0 1 2.453 2.453 2.46 2.46 0 0 1-2.453 2.453Zm-18.583 0h-6.194a2.46 2.46 0 0 1-2.453-2.453 2.46 2.46 0 0 1 2.453-2.453h6.194a2.46 2.46 0 0 1 2.453 2.453 2.46 2.46 0 0 1-2.453 2.453Z" fill="#EAF2FE"/><path id="Vector_25" d="M1127.9 887.298h-7.71a2.457 2.457 0 0 1-2.45-2.453c0-1.35 1.1-2.454 2.45-2.454h7.71c1.34 0 2.45 1.104 2.45 2.454a2.464 2.464 0 0 1-2.45 2.453Zm-20.1 0h-6.19a2.457 2.457 0 0 1-2.45-2.453c0-1.35 1.1-2.454 2.45-2.454h6.19c1.35 0 2.46 1.104 2.46 2.454a2.466 2.466 0 0 1-2.46 2.453Zm-18.58 0h-6.19a2.466 2.466 0 0 1-2.46-2.453c0-1.35 1.11-2.454 2.46-2.454h6.19c1.35 0 2.45 1.104 2.45 2.454 0 1.349-1.1 2.453-2.45 2.453Zm-18.58 0h-6.2a2.457 2.457 0 0 1-2.45-2.453c0-1.35 1.1-2.454 2.45-2.454h6.2c1.35 0 2.45 1.104 2.45 2.454 0 1.349-1.1 2.453-2.45 2.453Zm-18.59 0h-6.19a2.457 2.457 0 0 1-2.45-2.453c0-1.35 1.1-2.454 2.45-2.454h6.19c1.35 0 2.46 1.104 2.46 2.454a2.466 2.466 0 0 1-2.46 2.453Zm-18.58 0h-6.19a2.466 2.466 0 0 1-2.46-2.453c0-1.35 1.11-2.454 2.46-2.454h6.19c1.35 0 2.45 1.104 2.45 2.454 0 1.349-1.1 2.453-2.45 2.453Zm-18.58 0h-6.2a2.457 2.457 0 0 1-2.45-2.453c0-1.35 1.1-2.454 2.45-2.454h6.2c1.35 0 2.45 1.104 2.45 2.454 0 1.349-1.1 2.453-2.45 2.453Zm-18.057-1.901c-.65 0-1.3-.258-1.779-.761a8.573 8.573 0 0 1-2.367-5.912v-1.533a2.46 2.46 0 0 1 2.453-2.454 2.46 2.46 0 0 1 2.453 2.454v1.533c0 .944.356 1.852 1.019 2.539a2.459 2.459 0 0 1-.086 3.471 2.437 2.437 0 0 1-1.693.675v-.012Zm135.687-7.066a2.457 2.457 0 0 1-2.45-2.453v-6.194c0-1.349 1.1-2.453 2.45-2.453s2.45 1.104 2.45 2.453v6.194c0 1.349-1.1 2.453-2.45 2.453Zm-137.38-11.1a2.46 2.46 0 0 1-2.453-2.453v-6.195a2.46 2.46 0 0 1 2.453-2.453 2.46 2.46 0 0 1 2.453 2.453v6.195a2.46 2.46 0 0 1-2.453 2.453Zm137.38-7.483a2.457 2.457 0 0 1-2.45-2.453v-6.194c0-1.349 1.1-2.453 2.45-2.453s2.45 1.104 2.45 2.453v6.194c0 1.349-1.1 2.453-2.45 2.453Zm-137.38-11.1a2.46 2.46 0 0 1-2.453-2.454V840a2.46 2.46 0 0 1 2.453-2.453 2.46 2.46 0 0 1 2.453 2.453v6.194a2.46 2.46 0 0 1-2.453 2.454Zm137.38-7.483a2.457 2.457 0 0 1-2.45-2.453v-6.194c0-1.349 1.1-2.453 2.45-2.453s2.45 1.104 2.45 2.453v6.194c0 1.35-1.1 2.453-2.45 2.453Zm-137.38-11.1a2.46 2.46 0 0 1-2.453-2.453v-6.195a2.46 2.46 0 0 1 2.453-2.453 2.46 2.46 0 0 1 2.453 2.453v6.195a2.46 2.46 0 0 1-2.453 2.453Zm137.38-7.483a2.457 2.457 0 0 1-2.45-2.453v-6.194c0-1.349 1.1-2.453 2.45-2.453s2.45 1.104 2.45 2.453v6.194c0 1.349-1.1 2.453-2.45 2.453Zm-137.38-11.1a2.46 2.46 0 0 1-2.453-2.453v-6.195a2.46 2.46 0 0 1 2.453-2.453 2.46 2.46 0 0 1 2.453 2.453v6.195a2.46 2.46 0 0 1-2.453 2.453Zm137.38-7.483a2.457 2.457 0 0 1-2.45-2.453v-6.194c0-1.349 1.1-2.453 2.45-2.453s2.45 1.104 2.45 2.453v6.194c0 1.35-1.1 2.453-2.45 2.453Zm-137.38-11.1a2.46 2.46 0 0 1-2.453-2.453v-6.195a2.46 2.46 0 0 1 2.453-2.453 2.46 2.46 0 0 1 2.453 2.453v6.195a2.46 2.46 0 0 1-2.453 2.453Zm137.38-7.483a2.457 2.457 0 0 1-2.45-2.453v-6.194c0-1.349 1.1-2.453 2.45-2.453s2.45 1.104 2.45 2.453v6.194c0 1.35-1.1 2.453-2.45 2.453Zm-137.38-11.1a2.46 2.46 0 0 1-2.453-2.453v-6.195a2.46 2.46 0 0 1 2.453-2.453 2.46 2.46 0 0 1 2.453 2.453v6.195a2.46 2.46 0 0 1-2.453 2.453Zm137.38-7.483a2.457 2.457 0 0 1-2.45-2.453v-6.194c0-1.349 1.1-2.453 2.45-2.453s2.45 1.104 2.45 2.453v6.194c0 1.35-1.1 2.453-2.45 2.453Zm-137.368-11.1h-.122a2.458 2.458 0 0 1-2.331-2.576 8.537 8.537 0 0 1 4.379-7.065 2.438 2.438 0 0 1 3.332.944 2.438 2.438 0 0 1-.94 3.337 3.65 3.65 0 0 0-1.877 3.029 2.453 2.453 0 0 1-2.453 2.331h.012Zm133.048-5.557c-.24 0-.48-.037-.72-.11a3.61 3.61 0 0 0-1.09-.16h-4.36a2.457 2.457 0 0 1-2.45-2.453c0-1.349 1.1-2.453 2.45-2.453h4.36c.85 0 1.71.123 2.54.38a2.44 2.44 0 0 1 1.61 3.067 2.459 2.459 0 0 1-2.34 1.729Zm-18.56-.27h-6.19a2.457 2.457 0 0 1-2.45-2.453c0-1.349 1.1-2.453 2.45-2.453h6.19c1.35 0 2.46 1.104 2.46 2.453a2.466 2.466 0 0 1-2.46 2.453Zm-18.58 0h-6.19a2.466 2.466 0 0 1-2.46-2.453 2.466 2.466 0 0 1 2.46-2.453h6.19c1.35 0 2.45 1.104 2.45 2.453 0 1.349-1.1 2.453-2.45 2.453Zm-18.58 0h-6.2a2.457 2.457 0 0 1-2.45-2.453c0-1.349 1.1-2.453 2.45-2.453h6.2c1.35 0 2.45 1.104 2.45 2.453 0 1.349-1.1 2.453-2.45 2.453Zm-18.59 0h-6.19a2.457 2.457 0 0 1-2.45-2.453c0-1.349 1.1-2.453 2.45-2.453h6.19c1.35 0 2.46 1.104 2.46 2.453a2.466 2.466 0 0 1-2.46 2.453Zm-18.58 0h-6.19a2.466 2.466 0 0 1-2.46-2.453 2.466 2.466 0 0 1 2.46-2.453h6.19c1.35 0 2.45 1.104 2.45 2.453 0 1.349-1.1 2.453-2.45 2.453Zm-18.58 0h-6.2a2.457 2.457 0 0 1-2.45-2.453c0-1.349 1.1-2.453 2.45-2.453h6.2c1.35 0 2.45 1.104 2.45 2.453 0 1.349-1.1 2.453-2.45 2.453Z" fill="#EAF2FE"/><path id="Vector_26" d="M1356.24 887.298h-7.7a2.466 2.466 0 0 1-2.46-2.453c0-1.35 1.11-2.454 2.46-2.454h7.7c1.35 0 2.45 1.104 2.45 2.454 0 1.349-1.1 2.453-2.45 2.453Zm-20.09 0h-6.2a2.457 2.457 0 0 1-2.45-2.453c0-1.35 1.1-2.454 2.45-2.454h6.2c1.35 0 2.45 1.104 2.45 2.454 0 1.349-1.1 2.453-2.45 2.453Zm-18.59 0h-6.19a2.457 2.457 0 0 1-2.45-2.453c0-1.35 1.1-2.454 2.45-2.454h6.19c1.35 0 2.46 1.104 2.46 2.454a2.466 2.466 0 0 1-2.46 2.453Zm-18.58 0h-6.19a2.466 2.466 0 0 1-2.46-2.453c0-1.35 1.11-2.454 2.46-2.454h6.19c1.35 0 2.45 1.104 2.45 2.454 0 1.349-1.1 2.453-2.45 2.453Zm-18.58 0h-6.2a2.457 2.457 0 0 1-2.45-2.453c0-1.35 1.1-2.454 2.45-2.454h6.2c1.35 0 2.45 1.104 2.45 2.454 0 1.349-1.1 2.453-2.45 2.453Zm-18.58 0h-6.2a2.457 2.457 0 0 1-2.45-2.453c0-1.35 1.1-2.454 2.45-2.454h6.2c1.34 0 2.45 1.104 2.45 2.454a2.464 2.464 0 0 1-2.45 2.453Zm-18.59 0h-6.19a2.466 2.466 0 0 1-2.46-2.453c0-1.35 1.11-2.454 2.46-2.454h6.19c1.35 0 2.46 1.104 2.46 2.454a2.466 2.466 0 0 1-2.46 2.453Zm-18.05-1.901c-.65 0-1.3-.258-1.78-.761a8.58 8.58 0 0 1-2.37-5.912v-1.533c0-1.35 1.1-2.454 2.45-2.454s2.46 1.104 2.46 2.454v1.533c0 .944.35 1.852 1.02 2.539.93.981.89 2.539-.09 3.471-.48.454-1.08.675-1.69.675v-.012Zm135.68-7.066a2.457 2.457 0 0 1-2.45-2.453v-6.194c0-1.349 1.1-2.453 2.45-2.453s2.46 1.104 2.46 2.453v6.194a2.466 2.466 0 0 1-2.46 2.453Zm-137.38-11.1a2.457 2.457 0 0 1-2.45-2.453v-6.195c0-1.349 1.1-2.453 2.45-2.453s2.46 1.104 2.46 2.453v6.195a2.466 2.466 0 0 1-2.46 2.453Zm137.38-7.483a2.457 2.457 0 0 1-2.45-2.453v-6.194c0-1.349 1.1-2.453 2.45-2.453s2.46 1.104 2.46 2.453v6.194a2.466 2.466 0 0 1-2.46 2.453Zm-137.38-11.1a2.457 2.457 0 0 1-2.45-2.454V840c0-1.349 1.1-2.453 2.45-2.453s2.46 1.104 2.46 2.453v6.194c0 1.35-1.11 2.454-2.46 2.454Zm137.38-7.483a2.457 2.457 0 0 1-2.45-2.453v-6.194c0-1.349 1.1-2.453 2.45-2.453s2.46 1.104 2.46 2.453v6.194c0 1.35-1.11 2.453-2.46 2.453Zm-137.38-11.1a2.457 2.457 0 0 1-2.45-2.453v-6.195c0-1.349 1.1-2.453 2.45-2.453s2.46 1.104 2.46 2.453v6.195a2.466 2.466 0 0 1-2.46 2.453Zm137.38-7.483a2.457 2.457 0 0 1-2.45-2.453v-6.194c0-1.349 1.1-2.453 2.45-2.453s2.46 1.104 2.46 2.453v6.194a2.466 2.466 0 0 1-2.46 2.453Zm-137.38-11.1a2.457 2.457 0 0 1-2.45-2.453v-6.195c0-1.349 1.1-2.453 2.45-2.453s2.46 1.104 2.46 2.453v6.195a2.466 2.466 0 0 1-2.46 2.453Zm137.38-7.483a2.457 2.457 0 0 1-2.45-2.453v-6.194c0-1.349 1.1-2.453 2.45-2.453s2.46 1.104 2.46 2.453v6.194c0 1.35-1.11 2.453-2.46 2.453Zm-137.38-11.1a2.457 2.457 0 0 1-2.45-2.453v-6.195c0-1.349 1.1-2.453 2.45-2.453s2.46 1.104 2.46 2.453v6.195a2.466 2.466 0 0 1-2.46 2.453Zm137.38-7.483a2.457 2.457 0 0 1-2.45-2.453v-6.194c0-1.349 1.1-2.453 2.45-2.453s2.46 1.104 2.46 2.453v6.194c0 1.35-1.11 2.453-2.46 2.453Zm-137.38-11.1a2.457 2.457 0 0 1-2.45-2.453v-6.195c0-1.349 1.1-2.453 2.45-2.453s2.46 1.104 2.46 2.453v6.195a2.466 2.466 0 0 1-2.46 2.453Zm137.38-7.483a2.457 2.457 0 0 1-2.45-2.453v-6.194c0-1.349 1.1-2.453 2.45-2.453s2.46 1.104 2.46 2.453v6.194c0 1.35-1.11 2.453-2.46 2.453Zm-137.36-11.1h-.13c-1.35-.062-2.39-1.215-2.33-2.576a8.544 8.544 0 0 1 4.38-7.065 2.445 2.445 0 0 1 3.34.944 2.45 2.45 0 0 1-.95 3.337 3.652 3.652 0 0 0-1.87 3.029c-.06 1.313-1.16 2.331-2.46 2.331h.02Zm133.05-5.557c-.25 0-.48-.037-.73-.11-.35-.111-.71-.16-1.09-.16h-4.35a2.466 2.466 0 0 1-2.46-2.453 2.466 2.466 0 0 1 2.46-2.453h4.35c.86 0 1.72.123 2.54.38a2.453 2.453 0 0 1-.72 4.796Zm-18.56-.27h-6.2a2.457 2.457 0 0 1-2.45-2.453c0-1.349 1.1-2.453 2.45-2.453h6.2c1.35 0 2.45 1.104 2.45 2.453 0 1.349-1.1 2.453-2.45 2.453Zm-18.59 0h-6.19a2.457 2.457 0 0 1-2.45-2.453c0-1.349 1.1-2.453 2.45-2.453h6.19c1.35 0 2.46 1.104 2.46 2.453a2.466 2.466 0 0 1-2.46 2.453Zm-18.58 0h-6.19a2.466 2.466 0 0 1-2.46-2.453 2.466 2.466 0 0 1 2.46-2.453h6.19c1.35 0 2.45 1.104 2.45 2.453 0 1.349-1.1 2.453-2.45 2.453Zm-18.58 0h-6.2a2.457 2.457 0 0 1-2.45-2.453c0-1.349 1.1-2.453 2.45-2.453h6.2c1.35 0 2.45 1.104 2.45 2.453 0 1.349-1.1 2.453-2.45 2.453Zm-18.58 0h-6.2a2.457 2.457 0 0 1-2.45-2.453c0-1.349 1.1-2.453 2.45-2.453h6.2c1.34 0 2.45 1.104 2.45 2.453a2.464 2.464 0 0 1-2.45 2.453Zm-18.59 0h-6.19a2.466 2.466 0 0 1-2.46-2.453 2.466 2.466 0 0 1 2.46-2.453h6.19c1.35 0 2.46 1.104 2.46 2.453a2.466 2.466 0 0 1-2.46 2.453Z" fill="#EAF2FE"/><path id="Vector_27" d="M584.205 793.574a5.53 5.53 0 0 1-1.766-.295c-2.895-.969-4.441-4.109-3.472-6.991 6.121-18.178 17.332-26.335 25.661-29.978 10.426-4.563 22.213-4.588 32.345-.049 2.785 1.238 4.036 4.513 2.785 7.286-1.239 2.784-4.514 4.023-7.286 2.784-7.299-3.263-15.836-3.238-23.416.086-6.28 2.747-14.793 9.052-19.626 23.391a5.527 5.527 0 0 1-5.225 3.766Z" fill="#575FE1"/><path id="Vector_28" d="M875.069 813.065a5.467 5.467 0 0 1-3.41-1.19c-2.392-1.889-2.809-5.36-.92-7.752.257-.331 6.869-9.261 3.189-23.317-2.601-9.924-11.702-16.584-23.183-16.977-11.554-.38-26.323 6.219-32.971 25.98a5.524 5.524 0 0 1-6.991 3.471 5.53 5.53 0 0 1-3.472-6.992c8.586-25.501 28.249-34.025 43.814-33.486 16.216.552 29.672 10.684 33.474 25.207 5.127 19.564-4.771 32.419-5.2 32.946a5.506 5.506 0 0 1-4.343 2.098l.013.012Z" fill="#575FE1"/><path id="Vector_29" d="M1015.7 879.643c-.33 0-.68-.037-1.02-.098a5.522 5.522 0 0 1-4.42-6.44c6.2-33.314 35.59-44.256 59.2-53.038 27.08-10.083 40.9-16.4 34.1-39.092-2.99-10.009-12.71-16.866-24.18-17.062-5.47-.098-23.8 1.509-32.02 25.894-.97 2.894-4.11 4.44-6.99 3.471-2.9-.969-4.44-4.109-3.48-6.992 8.43-25.022 27.54-33.67 42.68-33.412 16.3.282 30.18 10.303 34.56 24.937 4.54 15.185 1.98 26.923-7.86 35.902-8.16 7.458-20.21 11.935-32.97 16.694-23.17 8.623-47.14 17.541-52.19 44.71a5.513 5.513 0 0 1-5.42 4.514l.01.012Z" fill="#575FE1"/><path id="Vector_30" d="M1242.79 879.632a5.521 5.521 0 0 1-5.43-6.513c6.19-33.315 35.58-44.256 59.19-53.038 27.09-10.083 40.9-16.4 34.1-39.092-2.99-10.009-12.71-16.866-24.17-17.062-5.38-.086-23.81 1.496-32.03 25.893a5.519 5.519 0 0 1-6.99 3.472c-2.9-.969-4.44-4.11-3.47-6.992 8.42-25.023 27.55-33.67 42.67-33.413 16.3.283 30.19 10.304 34.57 24.937 4.53 15.185 1.97 26.924-7.87 35.903-8.15 7.458-20.21 11.935-32.97 16.694-18.81 7.004-38.15 14.204-47.46 31.192.67-.27 1.34-.515 2.04-.76 9.09-3.189 23.5-5.213 40.49 3.275 18.52 9.261 35.2-8.734 35.9-9.506 2.05-2.245 5.54-2.429 7.79-.381a5.512 5.512 0 0 1 .41 7.777c-7.84 8.709-28.18 22.422-49.04 11.984-25.54-12.769-43.22 3.434-43.95 4.134a5.546 5.546 0 0 1-3.8 1.508l.02-.012Z" fill="#575FE1"/><path id="Vector_31" d="M583.42 800.05c-5.004 0-9.077-4.072-9.077-9.077 0-5.004 4.073-9.077 9.077-9.077 5.005 0 9.077 4.073 9.077 9.077 0 5.005-4.072 9.077-9.077 9.077Zm0-15.688a6.628 6.628 0 0 0-6.624 6.624 6.627 6.627 0 0 0 6.624 6.623 6.627 6.627 0 0 0 6.624-6.623 6.628 6.628 0 0 0-6.624-6.624Z" fill="#2F2F45"/><path id="Vector_32" d="M812.206 800.05c-5.005 0-9.077-4.072-9.077-9.077 0-5.004 4.072-9.077 9.077-9.077 5.004 0 9.077 4.073 9.077 9.077 0 5.005-4.073 9.077-9.077 9.077Zm0-15.688a6.628 6.628 0 0 0-6.624 6.624 6.627 6.627 0 0 0 6.624 6.623 6.627 6.627 0 0 0 6.623-6.623 6.627 6.627 0 0 0-6.623-6.624Z" fill="#2F2F45"/><path id="Vector_33" d="M1041.67 800.05c-5.01 0-9.08-4.072-9.08-9.077 0-5.004 4.07-9.077 9.08-9.077 5 0 9.07 4.073 9.07 9.077 0 5.005-4.07 9.077-9.07 9.077Zm0-15.688c-3.65 0-6.63 2.968-6.63 6.624 0 3.655 2.97 6.623 6.63 6.623 3.65 0 6.62-2.968 6.62-6.623a6.627 6.627 0 0 0-6.62-6.624Z" fill="#2F2F45"/><path id="Vector_34" d="M1268.71 800.05c-5.01 0-9.08-4.072-9.08-9.077 0-5.004 4.07-9.077 9.08-9.077 5 0 9.08 4.073 9.08 9.077 0 5.005-4.08 9.077-9.08 9.077Zm0-15.688a6.621 6.621 0 0 0-6.62 6.624 6.62 6.62 0 0 0 6.62 6.623c3.65 0 6.62-2.968 6.62-6.623a6.627 6.627 0 0 0-6.62-6.624Z" fill="#2F2F45"/><g id="Group_6" fill="#2F2F45"><path id="Vector_35" d="M601.071 787.379c-.184 0-.355-.036-.527-.122a1.223 1.223 0 0 1-.577-1.632c5.103-10.622 14.07-14.682 14.438-14.854a1.23 1.23 0 0 1 1.619.626c.282.625 0 1.337-.626 1.619-.086.037-8.525 3.901-13.223 13.676-.208.442-.65.7-1.104.7v-.013Z"/><path id="Vector_36" d="M614.048 777.468c-.172 0-.343-.037-.515-.111a1.23 1.23 0 0 1-.601-1.631l1.558-3.373-3.558-1.08a1.213 1.213 0 0 1-.809-1.533c.208-.65.883-1.018 1.533-.809l4.894 1.496c.344.098.614.343.761.675a1.23 1.23 0 0 1 0 1.018l-2.147 4.649c-.208.453-.65.711-1.116.711v-.012Z"/></g><g id="Group_7" fill="#2F2F45"><path id="Vector_37" d="M857.503 810.097a1.2 1.2 0 0 1-.92-.417 1.224 1.224 0 0 1 .098-1.729c.074-.062 6.955-6.293 8.476-17.038a1.228 1.228 0 0 1 2.429.344c-1.656 11.664-8.966 18.251-9.273 18.521a1.215 1.215 0 0 1-.81.307v.012Z"/><path id="Vector_38" d="M856.375 810.759c-.344 0-.687-.147-.92-.404a1.27 1.27 0 0 1-.307-.969l.638-5.078a1.23 1.23 0 1 1 2.441.306l-.466 3.692 3.716-.036c.65-.037 1.227.539 1.239 1.214.012.674-.54 1.226-1.214 1.239l-5.127.061h-.013l.013-.025Z"/></g><g id="Group_8" fill="#2F2F45"><path id="Vector_39" d="M1035.34 870.04a1.232 1.232 0 0 1-1.17-1.607c.14-.393 3.3-9.715 13.37-15.835a1.215 1.215 0 0 1 1.68.404c.36.577.17 1.337-.4 1.681-9.31 5.654-12.28 14.412-12.32 14.498a1.23 1.23 0 0 1-1.16.846v.013Z"/><path id="Vector_40" d="M1035.16 871.34c-.13 0-.25-.025-.39-.062-.33-.11-.61-.368-.75-.687l-1.96-4.722c-.26-.626.04-1.349.66-1.607.63-.257 1.35.037 1.61.663l1.44 3.434 3.21-1.877a1.226 1.226 0 0 1 1.68.442c.34.589.15 1.337-.44 1.68l-4.42 2.588c-.18.111-.4.172-.61.172l-.03-.024Z"/></g><g id="Group_9" fill="#2F2F45"><path id="Vector_41" d="M1301.9 860.081c-.29 0-.59-.098-.82-.319-.07-.061-7.03-6.218-17.86-6.537a1.238 1.238 0 0 1-1.19-1.264c.02-.674.63-1.177 1.26-1.19 11.78.356 19.13 6.894 19.45 7.176.5.454.54 1.227.08 1.73-.24.269-.58.404-.91.404h-.01Z"/><path id="Vector_42" d="m1302.69 861.137-5.13-.074c-.68 0-1.22-.564-1.22-1.239 0-.675.56-1.214 1.23-1.214h.01l3.72.049-.45-3.692a1.206 1.206 0 0 1 1.06-1.362c.68-.098 1.29.393 1.36 1.067l.63 5.091c.05.355-.06.699-.31.969-.23.257-.56.405-.9.405Z"/></g><g id="Group_10" fill="#2F2F45"><path id="Vector_43" d="M1314.06 858.006c-.51 0-.97-.307-1.16-.797-.23-.638.09-1.337.73-1.57 10.18-3.754 14.81-11.788 14.86-11.874a1.227 1.227 0 0 1 2.14 1.202c-.21.356-5.1 8.893-16.16 12.978-.13.049-.28.073-.43.073l.02-.012Z"/><path id="Vector_44" d="M1331.01 849.359c-.58 0-1.08-.405-1.2-.981l-.75-3.643-3.51 1.226a1.223 1.223 0 1 1-.81-2.306l4.83-1.692c.33-.111.7-.086 1.01.098.31.171.53.478.6.822l1.03 5.016a1.222 1.222 0 0 1-1.2 1.472v-.012Z"/></g></g></g></svg>