<svg width="1900" height="1600" viewBox="0 0 1900 1600" fill="none" xmlns="http://www.w3.org/2000/svg"><g id="карточка=5, генерация=7"><g id="default"><path id="Vector" d="M786.074 887.157h-7.695a2.458 2.458 0 0 1-2.451-2.451 2.458 2.458 0 0 1 2.451-2.451h7.695a2.458 2.458 0 0 1 2.451 2.451 2.458 2.458 0 0 1-2.451 2.451Zm-20.072 0h-6.188a2.458 2.458 0 0 1-2.451-2.451 2.458 2.458 0 0 1 2.451-2.451h6.188a2.458 2.458 0 0 1 2.451 2.451 2.458 2.458 0 0 1-2.451 2.451Zm-18.564 0h-6.188a2.458 2.458 0 0 1-2.451-2.451 2.458 2.458 0 0 1 2.451-2.451h6.188a2.458 2.458 0 0 1 2.451 2.451 2.458 2.458 0 0 1-2.451 2.451Zm-18.565 0h-6.188a2.458 2.458 0 0 1-2.451-2.451 2.458 2.458 0 0 1 2.451-2.451h6.188a2.458 2.458 0 0 1 2.451 2.451 2.458 2.458 0 0 1-2.451 2.451Zm-18.564 0h-6.189a2.457 2.457 0 0 1-2.45-2.451 2.457 2.457 0 0 1 2.45-2.451h6.189a2.457 2.457 0 0 1 2.45 2.451 2.457 2.457 0 0 1-2.45 2.451Zm-18.565 0h-6.188a2.458 2.458 0 0 1-2.451-2.451 2.458 2.458 0 0 1 2.451-2.451h6.188a2.458 2.458 0 0 1 2.451 2.451 2.458 2.458 0 0 1-2.451 2.451Zm-18.565 0h-6.188a2.458 2.458 0 0 1-2.451-2.451 2.458 2.458 0 0 1 2.451-2.451h6.188a2.458 2.458 0 0 1 2.451 2.451 2.458 2.458 0 0 1-2.451 2.451Zm-18.037-1.899c-.65 0-1.299-.258-1.777-.76a8.568 8.568 0 0 1-2.365-5.907v-1.531a2.458 2.458 0 0 1 2.451-2.451 2.458 2.458 0 0 1 2.451 2.451v1.531c0 .944.355 1.851 1.017 2.537.931.98.894 2.537-.086 3.468a2.436 2.436 0 0 1-1.691.674v-.012Zm135.552-7.059a2.458 2.458 0 0 1-2.451-2.45v-6.189a2.457 2.457 0 0 1 2.451-2.45 2.457 2.457 0 0 1 2.451 2.45v6.189a2.458 2.458 0 0 1-2.451 2.45ZM653.451 867.11a2.458 2.458 0 0 1-2.451-2.451v-6.188a2.458 2.458 0 0 1 2.451-2.451 2.458 2.458 0 0 1 2.451 2.451v6.188a2.458 2.458 0 0 1-2.451 2.451Zm137.243-7.475a2.458 2.458 0 0 1-2.451-2.451v-6.188a2.458 2.458 0 0 1 2.451-2.451 2.458 2.458 0 0 1 2.451 2.451v6.188a2.458 2.458 0 0 1-2.451 2.451Zm-137.243-11.09a2.458 2.458 0 0 1-2.451-2.451v-6.188a2.458 2.458 0 0 1 2.451-2.451 2.458 2.458 0 0 1 2.451 2.451v6.188a2.458 2.458 0 0 1-2.451 2.451Zm137.243-7.475a2.458 2.458 0 0 1-2.451-2.451v-6.188a2.458 2.458 0 0 1 2.451-2.451 2.458 2.458 0 0 1 2.451 2.451v6.188a2.458 2.458 0 0 1-2.451 2.451Zm-137.243-11.09a2.457 2.457 0 0 1-2.451-2.45v-6.189a2.458 2.458 0 0 1 2.451-2.45 2.458 2.458 0 0 1 2.451 2.45v6.189a2.457 2.457 0 0 1-2.451 2.45Zm137.243-7.474a2.458 2.458 0 0 1-2.451-2.451v-6.188a2.458 2.458 0 0 1 2.451-2.451 2.458 2.458 0 0 1 2.451 2.451v6.188a2.458 2.458 0 0 1-2.451 2.451Zm-137.243-11.09a2.458 2.458 0 0 1-2.451-2.451v-6.188a2.458 2.458 0 0 1 2.451-2.451 2.458 2.458 0 0 1 2.451 2.451v6.188a2.458 2.458 0 0 1-2.451 2.451Zm137.243-7.475a2.458 2.458 0 0 1-2.451-2.451v-6.188a2.458 2.458 0 0 1 2.451-2.451 2.458 2.458 0 0 1 2.451 2.451v6.188a2.458 2.458 0 0 1-2.451 2.451Zm-137.243-11.09A2.458 2.458 0 0 1 651 790.4v-6.188a2.457 2.457 0 0 1 2.451-2.45 2.457 2.457 0 0 1 2.451 2.45v6.188a2.458 2.458 0 0 1-2.451 2.451Zm137.243-7.475a2.457 2.457 0 0 1-2.451-2.45v-6.189a2.458 2.458 0 0 1 2.451-2.45 2.458 2.458 0 0 1 2.451 2.45v6.189a2.457 2.457 0 0 1-2.451 2.45Zm-137.243-11.089a2.458 2.458 0 0 1-2.451-2.451v-6.188a2.458 2.458 0 0 1 2.451-2.451 2.458 2.458 0 0 1 2.451 2.451v6.188a2.458 2.458 0 0 1-2.451 2.451Zm137.243-7.475a2.458 2.458 0 0 1-2.451-2.451v-6.188a2.458 2.458 0 0 1 2.451-2.451 2.458 2.458 0 0 1 2.451 2.451v6.188a2.458 2.458 0 0 1-2.451 2.451Zm-137.231-11.09h-.122c-1.348-.061-2.39-1.213-2.329-2.573a8.527 8.527 0 0 1 4.375-7.058 2.44 2.44 0 0 1 3.333.943 2.442 2.442 0 0 1-.944 3.333 3.645 3.645 0 0 0-1.874 3.027 2.451 2.451 0 0 1-2.451 2.328h.012Zm132.918-5.551c-.246 0-.478-.037-.723-.11a3.629 3.629 0 0 0-1.091-.159h-4.35a2.458 2.458 0 0 1-2.451-2.451 2.458 2.458 0 0 1 2.451-2.451h4.35c.858 0 1.716.123 2.537.38a2.446 2.446 0 0 1 1.617 3.063 2.448 2.448 0 0 1-2.34 1.728Zm-18.541-.269h-6.188a2.458 2.458 0 0 1-2.451-2.451 2.458 2.458 0 0 1 2.451-2.451h6.188a2.458 2.458 0 0 1 2.451 2.451 2.458 2.458 0 0 1-2.451 2.451Zm-18.564 0h-6.188a2.458 2.458 0 0 1-2.451-2.451 2.458 2.458 0 0 1 2.451-2.451h6.188a2.458 2.458 0 0 1 2.451 2.451 2.458 2.458 0 0 1-2.451 2.451Zm-18.565 0h-6.188a2.458 2.458 0 0 1-2.451-2.451 2.458 2.458 0 0 1 2.451-2.451h6.188a2.458 2.458 0 0 1 2.451 2.451 2.458 2.458 0 0 1-2.451 2.451Zm-18.564 0h-6.189a2.458 2.458 0 0 1-2.45-2.451 2.458 2.458 0 0 1 2.45-2.451h6.189a2.458 2.458 0 0 1 2.451 2.451 2.458 2.458 0 0 1-2.451 2.451Zm-18.565 0h-6.188a2.458 2.458 0 0 1-2.451-2.451 2.458 2.458 0 0 1 2.451-2.451h6.188a2.458 2.458 0 0 1 2.451 2.451 2.458 2.458 0 0 1-2.451 2.451Zm-18.564 0h-6.189a2.457 2.457 0 0 1-2.45-2.451 2.457 2.457 0 0 1 2.45-2.451h6.189a2.458 2.458 0 0 1 2.45 2.451 2.458 2.458 0 0 1-2.45 2.451Z" fill="#EAF2FE"/><path id="Vector_2" d="M1014.19 887.157h-7.69a2.456 2.456 0 0 1-2.45-2.451c0-1.348 1.1-2.451 2.45-2.451h7.69c1.35 0 2.45 1.103 2.45 2.451s-1.1 2.451-2.45 2.451Zm-20.07 0h-6.188a2.458 2.458 0 0 1-2.451-2.451 2.458 2.458 0 0 1 2.451-2.451h6.188a2.458 2.458 0 0 1 2.451 2.451 2.458 2.458 0 0 1-2.451 2.451Zm-18.565 0h-6.188a2.458 2.458 0 0 1-2.451-2.451 2.458 2.458 0 0 1 2.451-2.451h6.188a2.458 2.458 0 0 1 2.451 2.451 2.458 2.458 0 0 1-2.451 2.451Zm-18.564 0h-6.188a2.458 2.458 0 0 1-2.451-2.451 2.458 2.458 0 0 1 2.451-2.451h6.188a2.458 2.458 0 0 1 2.451 2.451 2.458 2.458 0 0 1-2.451 2.451Zm-18.565 0h-6.188a2.458 2.458 0 0 1-2.451-2.451 2.458 2.458 0 0 1 2.451-2.451h6.188a2.458 2.458 0 0 1 2.451 2.451 2.458 2.458 0 0 1-2.451 2.451Zm-18.564 0h-6.189a2.458 2.458 0 0 1-2.45-2.451 2.458 2.458 0 0 1 2.45-2.451h6.189a2.457 2.457 0 0 1 2.45 2.451 2.457 2.457 0 0 1-2.45 2.451Zm-18.565 0h-6.188a2.458 2.458 0 0 1-2.451-2.451 2.458 2.458 0 0 1 2.451-2.451h6.188a2.458 2.458 0 0 1 2.451 2.451 2.458 2.458 0 0 1-2.451 2.451Zm-18.038-1.899a2.451 2.451 0 0 1-1.776-.76 8.563 8.563 0 0 1-2.365-5.907v-1.531a2.458 2.458 0 0 1 2.45-2.451 2.458 2.458 0 0 1 2.451 2.451v1.531c0 .944.356 1.851 1.017 2.537.932.98.895 2.537-.086 3.468a2.432 2.432 0 0 1-1.691.674v-.012Zm135.551-7.059a2.456 2.456 0 0 1-2.45-2.45v-6.189c0-1.348 1.1-2.45 2.45-2.45s2.45 1.102 2.45 2.45v6.189c0 1.347-1.1 2.45-2.45 2.45ZM881.568 867.11a2.458 2.458 0 0 1-2.45-2.451v-6.188a2.458 2.458 0 0 1 2.45-2.451 2.458 2.458 0 0 1 2.451 2.451v6.188a2.458 2.458 0 0 1-2.451 2.451Zm137.242-7.475a2.456 2.456 0 0 1-2.45-2.451v-6.188c0-1.348 1.1-2.451 2.45-2.451s2.45 1.103 2.45 2.451v6.188c0 1.348-1.1 2.451-2.45 2.451Zm-137.242-11.09a2.458 2.458 0 0 1-2.45-2.451v-6.188a2.458 2.458 0 0 1 2.45-2.451 2.458 2.458 0 0 1 2.451 2.451v6.188a2.458 2.458 0 0 1-2.451 2.451Zm137.242-7.475a2.456 2.456 0 0 1-2.45-2.451v-6.188c0-1.348 1.1-2.451 2.45-2.451s2.45 1.103 2.45 2.451v6.188c0 1.348-1.1 2.451-2.45 2.451Zm-137.242-11.09a2.457 2.457 0 0 1-2.45-2.45v-6.189a2.458 2.458 0 0 1 2.45-2.45 2.458 2.458 0 0 1 2.451 2.45v6.189a2.457 2.457 0 0 1-2.451 2.45Zm137.242-7.474a2.456 2.456 0 0 1-2.45-2.451v-6.188c0-1.348 1.1-2.451 2.45-2.451s2.45 1.103 2.45 2.451v6.188c0 1.348-1.1 2.451-2.45 2.451Zm-137.242-11.09a2.458 2.458 0 0 1-2.45-2.451v-6.188a2.458 2.458 0 0 1 2.45-2.451 2.458 2.458 0 0 1 2.451 2.451v6.188a2.458 2.458 0 0 1-2.451 2.451Zm137.242-7.475a2.456 2.456 0 0 1-2.45-2.451v-6.188c0-1.348 1.1-2.451 2.45-2.451s2.45 1.103 2.45 2.451v6.188c0 1.348-1.1 2.451-2.45 2.451Zm-137.242-11.09a2.458 2.458 0 0 1-2.45-2.451v-6.188a2.457 2.457 0 0 1 2.45-2.45 2.457 2.457 0 0 1 2.451 2.45v6.188a2.458 2.458 0 0 1-2.451 2.451Zm137.242-7.475a2.455 2.455 0 0 1-2.45-2.45v-6.189c0-1.347 1.1-2.45 2.45-2.45s2.45 1.103 2.45 2.45v6.189c0 1.348-1.1 2.45-2.45 2.45Zm-137.242-11.089a2.458 2.458 0 0 1-2.45-2.451v-6.188a2.458 2.458 0 0 1 2.45-2.451 2.458 2.458 0 0 1 2.451 2.451v6.188a2.458 2.458 0 0 1-2.451 2.451Zm137.242-7.475a2.456 2.456 0 0 1-2.45-2.451v-6.188c0-1.348 1.1-2.451 2.45-2.451s2.45 1.103 2.45 2.451v6.188c0 1.348-1.1 2.451-2.45 2.451Zm-137.229-11.09h-.123c-1.348-.061-2.389-1.213-2.328-2.573a8.528 8.528 0 0 1 4.374-7.058 2.444 2.444 0 0 1 3.334.943 2.443 2.443 0 0 1-.944 3.333 3.646 3.646 0 0 0-1.875 3.027 2.45 2.45 0 0 1-2.451 2.328h.013Zm132.919-5.551c-.25 0-.48-.037-.72-.11-.36-.11-.72-.159-1.1-.159h-4.35a2.463 2.463 0 0 1-2.45-2.451 2.463 2.463 0 0 1 2.45-2.451h4.35c.86 0 1.72.123 2.54.38a2.449 2.449 0 0 1-.72 4.791Zm-18.542-.269h-6.188a2.458 2.458 0 0 1-2.451-2.451A2.458 2.458 0 0 1 989.77 745h6.188a2.458 2.458 0 0 1 2.451 2.451 2.458 2.458 0 0 1-2.451 2.451Zm-18.565 0h-6.188a2.457 2.457 0 0 1-2.45-2.451 2.457 2.457 0 0 1 2.45-2.451h6.188a2.458 2.458 0 0 1 2.451 2.451 2.458 2.458 0 0 1-2.451 2.451Zm-18.564 0h-6.188a2.458 2.458 0 0 1-2.451-2.451 2.458 2.458 0 0 1 2.451-2.451h6.188a2.458 2.458 0 0 1 2.451 2.451 2.458 2.458 0 0 1-2.451 2.451Zm-18.565 0h-6.188a2.458 2.458 0 0 1-2.451-2.451 2.458 2.458 0 0 1 2.451-2.451h6.188a2.458 2.458 0 0 1 2.451 2.451 2.458 2.458 0 0 1-2.451 2.451Zm-18.564 0h-6.188a2.458 2.458 0 0 1-2.451-2.451 2.458 2.458 0 0 1 2.451-2.451h6.188a2.458 2.458 0 0 1 2.451 2.451 2.458 2.458 0 0 1-2.451 2.451Zm-18.565 0h-6.188a2.458 2.458 0 0 1-2.451-2.451 2.458 2.458 0 0 1 2.451-2.451h6.188a2.458 2.458 0 0 1 2.451 2.451 2.458 2.458 0 0 1-2.451 2.451Z" fill="#EAF2FE"/><path id="Vector_3" d="M1242.31 887.157h-7.7a2.463 2.463 0 0 1-2.45-2.451 2.463 2.463 0 0 1 2.45-2.451h7.7c1.35 0 2.45 1.103 2.45 2.451s-1.1 2.451-2.45 2.451Zm-20.07 0h-6.19a2.456 2.456 0 0 1-2.45-2.451c0-1.348 1.1-2.451 2.45-2.451h6.19c1.35 0 2.45 1.103 2.45 2.451s-1.1 2.451-2.45 2.451Zm-18.57 0h-6.19a2.463 2.463 0 0 1-2.45-2.451 2.463 2.463 0 0 1 2.45-2.451h6.19c1.35 0 2.45 1.103 2.45 2.451s-1.1 2.451-2.45 2.451Zm-18.56 0h-6.19a2.456 2.456 0 0 1-2.45-2.451c0-1.348 1.1-2.451 2.45-2.451h6.19c1.35 0 2.45 1.103 2.45 2.451s-1.1 2.451-2.45 2.451Zm-18.57 0h-6.18a2.465 2.465 0 0 1-2.46-2.451 2.465 2.465 0 0 1 2.46-2.451h6.18c1.35 0 2.45 1.103 2.45 2.451s-1.1 2.451-2.45 2.451Zm-18.56 0h-6.19a2.456 2.456 0 0 1-2.45-2.451c0-1.348 1.1-2.451 2.45-2.451h6.19c1.35 0 2.45 1.103 2.45 2.451s-1.1 2.451-2.45 2.451Zm-18.57 0h-6.18a2.456 2.456 0 0 1-2.45-2.451c0-1.348 1.1-2.451 2.45-2.451h6.18c1.35 0 2.46 1.103 2.46 2.451a2.465 2.465 0 0 1-2.46 2.451Zm-18.03-1.899c-.65 0-1.3-.258-1.78-.76a8.568 8.568 0 0 1-2.37-5.907v-1.531a2.465 2.465 0 0 1 2.46-2.451c1.34 0 2.45 1.103 2.45 2.451v1.531c0 .944.35 1.851 1.01 2.537.93.98.9 2.537-.08 3.468a2.44 2.44 0 0 1-1.69.674v-.012Zm135.55-7.059a2.456 2.456 0 0 1-2.45-2.45v-6.189c0-1.348 1.1-2.45 2.45-2.45s2.45 1.102 2.45 2.45v6.189c0 1.347-1.1 2.45-2.45 2.45Zm-137.24-11.089a2.465 2.465 0 0 1-2.46-2.451v-6.188a2.465 2.465 0 0 1 2.46-2.451c1.34 0 2.45 1.103 2.45 2.451v6.188a2.463 2.463 0 0 1-2.45 2.451Zm137.24-7.475a2.456 2.456 0 0 1-2.45-2.451v-6.188c0-1.348 1.1-2.451 2.45-2.451s2.45 1.103 2.45 2.451v6.188c0 1.348-1.1 2.451-2.45 2.451Zm-137.24-11.09a2.465 2.465 0 0 1-2.46-2.451v-6.188a2.465 2.465 0 0 1 2.46-2.451c1.34 0 2.45 1.103 2.45 2.451v6.188a2.463 2.463 0 0 1-2.45 2.451Zm137.24-7.475a2.456 2.456 0 0 1-2.45-2.451v-6.188c0-1.348 1.1-2.451 2.45-2.451s2.45 1.103 2.45 2.451v6.188c0 1.348-1.1 2.451-2.45 2.451Zm-137.24-11.09a2.464 2.464 0 0 1-2.46-2.45v-6.189c0-1.347 1.11-2.45 2.46-2.45 1.34 0 2.45 1.103 2.45 2.45v6.189c0 1.348-1.11 2.45-2.45 2.45Zm137.24-7.474a2.456 2.456 0 0 1-2.45-2.451v-6.188c0-1.348 1.1-2.451 2.45-2.451s2.45 1.103 2.45 2.451v6.188c0 1.348-1.1 2.451-2.45 2.451Zm-137.24-11.09a2.465 2.465 0 0 1-2.46-2.451v-6.188a2.465 2.465 0 0 1 2.46-2.451c1.34 0 2.45 1.103 2.45 2.451v6.188a2.463 2.463 0 0 1-2.45 2.451Zm137.24-7.475a2.456 2.456 0 0 1-2.45-2.451v-6.188c0-1.348 1.1-2.451 2.45-2.451s2.45 1.103 2.45 2.451v6.188c0 1.348-1.1 2.451-2.45 2.451Zm-137.24-11.09a2.465 2.465 0 0 1-2.46-2.451v-6.188c0-1.348 1.11-2.45 2.46-2.45 1.34 0 2.45 1.102 2.45 2.45v6.188a2.463 2.463 0 0 1-2.45 2.451Zm137.24-7.475a2.455 2.455 0 0 1-2.45-2.45v-6.189c0-1.347 1.1-2.45 2.45-2.45s2.45 1.103 2.45 2.45v6.189c0 1.348-1.1 2.45-2.45 2.45Zm-137.24-11.089a2.465 2.465 0 0 1-2.46-2.451v-6.188a2.465 2.465 0 0 1 2.46-2.451c1.34 0 2.45 1.103 2.45 2.451v6.188a2.463 2.463 0 0 1-2.45 2.451Zm137.24-7.475a2.456 2.456 0 0 1-2.45-2.451v-6.188c0-1.348 1.1-2.451 2.45-2.451s2.45 1.103 2.45 2.451v6.188c0 1.348-1.1 2.451-2.45 2.451Zm-137.23-11.09h-.12c-1.35-.061-2.39-1.213-2.33-2.573a8.502 8.502 0 0 1 4.37-7.058 2.436 2.436 0 0 1 3.33.943 2.433 2.433 0 0 1-.94 3.333 3.65 3.65 0 0 0-1.87 3.027c-.06 1.311-1.16 2.328-2.45 2.328h.01Zm132.92-5.551c-.25 0-.48-.037-.73-.11-.35-.11-.71-.159-1.09-.159h-4.35a2.456 2.456 0 0 1-2.45-2.451c0-1.348 1.1-2.451 2.45-2.451h4.35c.86 0 1.72.123 2.54.38a2.449 2.449 0 0 1-.72 4.791Zm-18.54-.269h-6.19a2.456 2.456 0 0 1-2.45-2.451c0-1.348 1.1-2.451 2.45-2.451h6.19c1.34 0 2.45 1.103 2.45 2.451a2.463 2.463 0 0 1-2.45 2.451Zm-18.57 0h-6.19a2.456 2.456 0 0 1-2.45-2.451c0-1.348 1.1-2.451 2.45-2.451h6.19c1.35 0 2.45 1.103 2.45 2.451s-1.1 2.451-2.45 2.451Zm-18.56 0h-6.19a2.456 2.456 0 0 1-2.45-2.451c0-1.348 1.1-2.451 2.45-2.451h6.19c1.34 0 2.45 1.103 2.45 2.451a2.463 2.463 0 0 1-2.45 2.451Zm-18.57 0h-6.19a2.463 2.463 0 0 1-2.45-2.451 2.463 2.463 0 0 1 2.45-2.451h6.19c1.35 0 2.45 1.103 2.45 2.451s-1.1 2.451-2.45 2.451Zm-18.56 0h-6.19a2.456 2.456 0 0 1-2.45-2.451c0-1.348 1.1-2.451 2.45-2.451h6.19c1.34 0 2.45 1.103 2.45 2.451a2.463 2.463 0 0 1-2.45 2.451Zm-18.57 0h-6.19a2.463 2.463 0 0 1-2.45-2.451 2.463 2.463 0 0 1 2.45-2.451h6.19c1.35 0 2.45 1.103 2.45 2.451s-1.1 2.451-2.45 2.451Z" fill="#EAF2FE"/><path id="Vector_4" d="M740.674 778.821c-6.152 0-12.928-1.421-19.962-5.281-12.511-6.875-23.062-5.992-31.333 2.597a5.503 5.503 0 0 1-7.793.148c-2.194-2.12-2.267-5.601-.147-7.794 11.641-12.107 27.902-13.785 44.591-4.62 19.031 10.453 35.867-3.504 36.566-4.105 2.316-1.96 5.796-1.691 7.769.613a5.508 5.508 0 0 1-.588 7.757c-.687.588-12.671 10.685-29.091 10.685h-.012Z" fill="#575FE1"/><path id="Vector_5" d="M682.921 783.991c-4.999 0-9.067-4.068-9.067-9.068 0-4.999 4.068-9.068 9.067-9.068 5 0 9.068 4.069 9.068 9.068 0 5-4.068 9.068-9.068 9.068Zm0-15.672a6.62 6.62 0 0 0-6.617 6.617 6.621 6.621 0 0 0 6.617 6.617 6.62 6.62 0 0 0 6.617-6.617 6.62 6.62 0 0 0-6.617-6.617Z" fill="#2F2F45"/><path id="Vector_6" d="M950.778 875.81a5.45 5.45 0 0 1-2.291-.503c-2.77-1.262-3.983-4.534-2.721-7.303l41.847-91.463c-8.896 2.966-20.831 4.044-33.649-2.99-12.511-6.874-23.062-5.992-31.333 2.598a5.502 5.502 0 0 1-7.793.147 5.502 5.502 0 0 1-.147-7.793c11.641-12.107 27.902-13.786 44.591-4.62 19.031 10.453 35.867-3.505 36.566-4.105a5.534 5.534 0 0 1 6.902-.196c2.06 1.556 2.77 4.338 1.69 6.678l-48.65 106.339a5.528 5.528 0 0 1-5.012 3.223v-.012Z" fill="#575FE1"/><path id="Vector_7" d="M916.198 783.991c-5 0-9.068-4.068-9.068-9.068 0-4.999 4.068-9.068 9.068-9.068 4.999 0 9.068 4.069 9.068 9.068 0 5-4.069 9.068-9.068 9.068Zm0-15.672a6.62 6.62 0 0 0-6.617 6.617 6.62 6.62 0 0 0 6.617 6.617 6.621 6.621 0 0 0 6.617-6.617 6.62 6.62 0 0 0-6.617-6.617Z" fill="#2F2F45"/><path id="Vector_8" d="M1178.9 875.81c-.78 0-1.55-.16-2.3-.503-2.77-1.262-3.98-4.534-2.72-7.303l41.85-91.463c-8.9 2.966-20.83 4.044-33.65-2.99-12.51-6.874-23.05-5.992-31.33 2.598a5.51 5.51 0 0 1-7.8.147 5.506 5.506 0 0 1-.14-7.793c11.65-12.107 27.9-13.786 44.59-4.62 19.03 10.453 35.87-3.505 36.56-4.105 1.98-1.667 4.85-1.752 6.9-.196 2.06 1.556 2.77 4.338 1.69 6.678l-48.64 106.339a5.527 5.527 0 0 1-5.01 3.223v-.012Z" fill="#575FE1"/><path id="Vector_9" d="M1206.91 839.783c-5.16 0-9.88-1.826-14.01-3.432-6.81-2.646-10.59-3.884-15.17-.747a5.505 5.505 0 0 1-7.66-1.446c-1.71-2.512-1.08-5.943 1.45-7.659 9.58-6.555 18.34-3.149 25.38-.428 6.96 2.695 11.15 4.056 16.27.563 2.51-1.715 5.94-1.066 7.66 1.458a5.515 5.515 0 0 1-1.46 7.659c-4.37 2.978-8.54 4.019-12.45 4.019l-.01.013Z" fill="#575FE1"/><path id="Vector_10" d="M1144.32 783.991c-5 0-9.07-4.068-9.07-9.068 0-4.999 4.07-9.068 9.07-9.068s9.06 4.069 9.06 9.068c0 5-4.06 9.068-9.06 9.068Zm0-15.672c-3.64 0-6.62 2.965-6.62 6.617a6.618 6.618 0 0 0 6.62 6.617c3.65 0 6.61-2.966 6.61-6.617a6.615 6.615 0 0 0-6.61-6.617Z" fill="#2F2F45"/><g id="Group" fill="#2F2F45"><path id="Vector_11" d="M982.503 838.228c-.159 0-.33-.037-.49-.098a1.217 1.217 0 0 1-.637-1.605l7.855-18.234a1.216 1.216 0 0 1 1.605-.637c.625.269.907.992.637 1.605l-7.854 18.234c-.197.465-.65.735-1.128.735h.012Z"/><path id="Vector_12" d="M982.013 839.368c-.159 0-.33-.037-.49-.098a1.219 1.219 0 0 1-.686-.747l-1.568-4.877a1.223 1.223 0 0 1 .796-1.544 1.224 1.224 0 0 1 1.544.796l1.14 3.541 3.345-1.605a1.216 1.216 0 0 1 1.63.576 1.214 1.214 0 0 1-.576 1.63l-4.62 2.206a1.156 1.156 0 0 1-.527.122h.012Z"/></g><g id="Group_2" fill="#2F2F45"><path id="Vector_13" d="M749.619 786.147c.589-.184.932-.331.993-.355.625-.257.919-.968.662-1.593a1.223 1.223 0 0 0-1.593-.674c-.086.037-8.701 3.468-19.006.11a1.232 1.232 0 0 0-1.544.784c-.208.65.147 1.336.784 1.544 9.203 3.003 16.996 1.066 19.704.184Z"/><path id="Vector_14" d="M749.325 789.676c.306-.098.564-.306.723-.612l2.304-4.571a1.232 1.232 0 0 0-.699-1.716l-4.84-1.666a1.226 1.226 0 0 0-1.556.76 1.226 1.226 0 0 0 .76 1.556l3.517 1.213-1.667 3.321a1.224 1.224 0 0 0 1.47 1.715h-.012Z"/></g><g id="Group_3" fill="#2F2F45"><path id="Vector_15" d="M1185.78 815.104c.62.049.98.11 1.06.123.66.11 1.11.735 1.01 1.409-.11.662-.73 1.127-1.39 1.017-.1-.012-9.27-1.385-18.53 4.227-.58.356-1.34.16-1.68-.416a1.204 1.204 0 0 1 .42-1.679c8.27-5.012 16.31-4.901 19.14-4.669l-.03-.012Z"/><path id="Vector_16" d="M1184.69 811.747c.32.025.63.172.83.429l3.29 3.921c.23.27.33.625.27.981a1.2 1.2 0 0 1-.57.845l-4.32 2.733c-.58.355-1.34.184-1.69-.38a1.23 1.23 0 0 1 .38-1.691l3.14-1.985-2.38-2.843a1.223 1.223 0 0 1 .16-1.728c.25-.221.57-.306.88-.282h.01Z"/></g></g><g id="success"><path id="Vector_17" d="M786.074 887.157h-7.695a2.458 2.458 0 0 1-2.451-2.451 2.458 2.458 0 0 1 2.451-2.451h7.695a2.458 2.458 0 0 1 2.451 2.451 2.458 2.458 0 0 1-2.451 2.451Zm-20.072 0h-6.188a2.458 2.458 0 0 1-2.451-2.451 2.458 2.458 0 0 1 2.451-2.451h6.188a2.458 2.458 0 0 1 2.451 2.451 2.458 2.458 0 0 1-2.451 2.451Zm-18.564 0h-6.188a2.458 2.458 0 0 1-2.451-2.451 2.458 2.458 0 0 1 2.451-2.451h6.188a2.458 2.458 0 0 1 2.451 2.451 2.458 2.458 0 0 1-2.451 2.451Zm-18.565 0h-6.188a2.458 2.458 0 0 1-2.451-2.451 2.458 2.458 0 0 1 2.451-2.451h6.188a2.458 2.458 0 0 1 2.451 2.451 2.458 2.458 0 0 1-2.451 2.451Zm-18.564 0h-6.189a2.457 2.457 0 0 1-2.45-2.451 2.457 2.457 0 0 1 2.45-2.451h6.189a2.457 2.457 0 0 1 2.45 2.451 2.457 2.457 0 0 1-2.45 2.451Zm-18.565 0h-6.188a2.458 2.458 0 0 1-2.451-2.451 2.458 2.458 0 0 1 2.451-2.451h6.188a2.458 2.458 0 0 1 2.451 2.451 2.458 2.458 0 0 1-2.451 2.451Zm-18.565 0h-6.188a2.458 2.458 0 0 1-2.451-2.451 2.458 2.458 0 0 1 2.451-2.451h6.188a2.458 2.458 0 0 1 2.451 2.451 2.458 2.458 0 0 1-2.451 2.451Zm-18.037-1.899c-.65 0-1.299-.258-1.777-.76a8.568 8.568 0 0 1-2.365-5.907v-1.531a2.458 2.458 0 0 1 2.451-2.451 2.458 2.458 0 0 1 2.451 2.451v1.531c0 .944.355 1.851 1.017 2.537.931.98.894 2.537-.086 3.468a2.436 2.436 0 0 1-1.691.674v-.012Zm135.552-7.059a2.458 2.458 0 0 1-2.451-2.45v-6.189a2.457 2.457 0 0 1 2.451-2.45 2.457 2.457 0 0 1 2.451 2.45v6.189a2.458 2.458 0 0 1-2.451 2.45ZM653.451 867.11a2.458 2.458 0 0 1-2.451-2.451v-6.188a2.458 2.458 0 0 1 2.451-2.451 2.458 2.458 0 0 1 2.451 2.451v6.188a2.458 2.458 0 0 1-2.451 2.451Zm137.243-7.475a2.458 2.458 0 0 1-2.451-2.451v-6.188a2.458 2.458 0 0 1 2.451-2.451 2.458 2.458 0 0 1 2.451 2.451v6.188a2.458 2.458 0 0 1-2.451 2.451Zm-137.243-11.09a2.458 2.458 0 0 1-2.451-2.451v-6.188a2.458 2.458 0 0 1 2.451-2.451 2.458 2.458 0 0 1 2.451 2.451v6.188a2.458 2.458 0 0 1-2.451 2.451Zm137.243-7.475a2.458 2.458 0 0 1-2.451-2.451v-6.188a2.458 2.458 0 0 1 2.451-2.451 2.458 2.458 0 0 1 2.451 2.451v6.188a2.458 2.458 0 0 1-2.451 2.451Zm-137.243-11.09a2.457 2.457 0 0 1-2.451-2.45v-6.189a2.458 2.458 0 0 1 2.451-2.45 2.458 2.458 0 0 1 2.451 2.45v6.189a2.457 2.457 0 0 1-2.451 2.45Zm137.243-7.474a2.458 2.458 0 0 1-2.451-2.451v-6.188a2.458 2.458 0 0 1 2.451-2.451 2.458 2.458 0 0 1 2.451 2.451v6.188a2.458 2.458 0 0 1-2.451 2.451Zm-137.243-11.09a2.458 2.458 0 0 1-2.451-2.451v-6.188a2.458 2.458 0 0 1 2.451-2.451 2.458 2.458 0 0 1 2.451 2.451v6.188a2.458 2.458 0 0 1-2.451 2.451Zm137.243-7.475a2.458 2.458 0 0 1-2.451-2.451v-6.188a2.458 2.458 0 0 1 2.451-2.451 2.458 2.458 0 0 1 2.451 2.451v6.188a2.458 2.458 0 0 1-2.451 2.451Zm-137.243-11.09A2.458 2.458 0 0 1 651 790.4v-6.188a2.457 2.457 0 0 1 2.451-2.45 2.457 2.457 0 0 1 2.451 2.45v6.188a2.458 2.458 0 0 1-2.451 2.451Zm137.243-7.475a2.457 2.457 0 0 1-2.451-2.45v-6.189a2.458 2.458 0 0 1 2.451-2.45 2.458 2.458 0 0 1 2.451 2.45v6.189a2.457 2.457 0 0 1-2.451 2.45Zm-137.243-11.089a2.458 2.458 0 0 1-2.451-2.451v-6.188a2.458 2.458 0 0 1 2.451-2.451 2.458 2.458 0 0 1 2.451 2.451v6.188a2.458 2.458 0 0 1-2.451 2.451Zm137.243-7.475a2.458 2.458 0 0 1-2.451-2.451v-6.188a2.458 2.458 0 0 1 2.451-2.451 2.458 2.458 0 0 1 2.451 2.451v6.188a2.458 2.458 0 0 1-2.451 2.451Zm-137.231-11.09h-.122c-1.348-.061-2.39-1.213-2.329-2.573a8.527 8.527 0 0 1 4.375-7.058 2.44 2.44 0 0 1 3.333.943 2.442 2.442 0 0 1-.944 3.333 3.645 3.645 0 0 0-1.874 3.027 2.451 2.451 0 0 1-2.451 2.328h.012Zm132.918-5.551c-.246 0-.478-.037-.723-.11a3.629 3.629 0 0 0-1.091-.159h-4.35a2.458 2.458 0 0 1-2.451-2.451 2.458 2.458 0 0 1 2.451-2.451h4.35c.858 0 1.716.123 2.537.38a2.446 2.446 0 0 1 1.617 3.063 2.448 2.448 0 0 1-2.34 1.728Zm-18.541-.269h-6.188a2.458 2.458 0 0 1-2.451-2.451 2.458 2.458 0 0 1 2.451-2.451h6.188a2.458 2.458 0 0 1 2.451 2.451 2.458 2.458 0 0 1-2.451 2.451Zm-18.564 0h-6.188a2.458 2.458 0 0 1-2.451-2.451 2.458 2.458 0 0 1 2.451-2.451h6.188a2.458 2.458 0 0 1 2.451 2.451 2.458 2.458 0 0 1-2.451 2.451Zm-18.565 0h-6.188a2.458 2.458 0 0 1-2.451-2.451 2.458 2.458 0 0 1 2.451-2.451h6.188a2.458 2.458 0 0 1 2.451 2.451 2.458 2.458 0 0 1-2.451 2.451Zm-18.564 0h-6.189a2.458 2.458 0 0 1-2.45-2.451 2.458 2.458 0 0 1 2.45-2.451h6.189a2.458 2.458 0 0 1 2.451 2.451 2.458 2.458 0 0 1-2.451 2.451Zm-18.565 0h-6.188a2.458 2.458 0 0 1-2.451-2.451 2.458 2.458 0 0 1 2.451-2.451h6.188a2.458 2.458 0 0 1 2.451 2.451 2.458 2.458 0 0 1-2.451 2.451Zm-18.564 0h-6.189a2.457 2.457 0 0 1-2.45-2.451 2.457 2.457 0 0 1 2.45-2.451h6.189a2.458 2.458 0 0 1 2.45 2.451 2.458 2.458 0 0 1-2.45 2.451Z" fill="#EAF2FE"/><path id="Vector_18" d="M1014.19 887.157h-7.69a2.456 2.456 0 0 1-2.45-2.451c0-1.348 1.1-2.451 2.45-2.451h7.69c1.35 0 2.45 1.103 2.45 2.451s-1.1 2.451-2.45 2.451Zm-20.07 0h-6.188a2.458 2.458 0 0 1-2.451-2.451 2.458 2.458 0 0 1 2.451-2.451h6.188a2.458 2.458 0 0 1 2.451 2.451 2.458 2.458 0 0 1-2.451 2.451Zm-18.565 0h-6.188a2.458 2.458 0 0 1-2.451-2.451 2.458 2.458 0 0 1 2.451-2.451h6.188a2.458 2.458 0 0 1 2.451 2.451 2.458 2.458 0 0 1-2.451 2.451Zm-18.564 0h-6.188a2.458 2.458 0 0 1-2.451-2.451 2.458 2.458 0 0 1 2.451-2.451h6.188a2.458 2.458 0 0 1 2.451 2.451 2.458 2.458 0 0 1-2.451 2.451Zm-18.565 0h-6.188a2.458 2.458 0 0 1-2.451-2.451 2.458 2.458 0 0 1 2.451-2.451h6.188a2.458 2.458 0 0 1 2.451 2.451 2.458 2.458 0 0 1-2.451 2.451Zm-18.564 0h-6.189a2.458 2.458 0 0 1-2.45-2.451 2.458 2.458 0 0 1 2.45-2.451h6.189a2.457 2.457 0 0 1 2.45 2.451 2.457 2.457 0 0 1-2.45 2.451Zm-18.565 0h-6.188a2.458 2.458 0 0 1-2.451-2.451 2.458 2.458 0 0 1 2.451-2.451h6.188a2.458 2.458 0 0 1 2.451 2.451 2.458 2.458 0 0 1-2.451 2.451Zm-18.038-1.899a2.451 2.451 0 0 1-1.776-.76 8.563 8.563 0 0 1-2.365-5.907v-1.531a2.458 2.458 0 0 1 2.45-2.451 2.458 2.458 0 0 1 2.451 2.451v1.531c0 .944.356 1.851 1.017 2.537.932.98.895 2.537-.086 3.468a2.432 2.432 0 0 1-1.691.674v-.012Zm135.551-7.059a2.456 2.456 0 0 1-2.45-2.45v-6.189c0-1.348 1.1-2.45 2.45-2.45s2.45 1.102 2.45 2.45v6.189c0 1.347-1.1 2.45-2.45 2.45ZM881.568 867.11a2.458 2.458 0 0 1-2.45-2.451v-6.188a2.458 2.458 0 0 1 2.45-2.451 2.458 2.458 0 0 1 2.451 2.451v6.188a2.458 2.458 0 0 1-2.451 2.451Zm137.242-7.475a2.456 2.456 0 0 1-2.45-2.451v-6.188c0-1.348 1.1-2.451 2.45-2.451s2.45 1.103 2.45 2.451v6.188c0 1.348-1.1 2.451-2.45 2.451Zm-137.242-11.09a2.458 2.458 0 0 1-2.45-2.451v-6.188a2.458 2.458 0 0 1 2.45-2.451 2.458 2.458 0 0 1 2.451 2.451v6.188a2.458 2.458 0 0 1-2.451 2.451Zm137.242-7.475a2.456 2.456 0 0 1-2.45-2.451v-6.188c0-1.348 1.1-2.451 2.45-2.451s2.45 1.103 2.45 2.451v6.188c0 1.348-1.1 2.451-2.45 2.451Zm-137.242-11.09a2.457 2.457 0 0 1-2.45-2.45v-6.189a2.458 2.458 0 0 1 2.45-2.45 2.458 2.458 0 0 1 2.451 2.45v6.189a2.457 2.457 0 0 1-2.451 2.45Zm137.242-7.474a2.456 2.456 0 0 1-2.45-2.451v-6.188c0-1.348 1.1-2.451 2.45-2.451s2.45 1.103 2.45 2.451v6.188c0 1.348-1.1 2.451-2.45 2.451Zm-137.242-11.09a2.458 2.458 0 0 1-2.45-2.451v-6.188a2.458 2.458 0 0 1 2.45-2.451 2.458 2.458 0 0 1 2.451 2.451v6.188a2.458 2.458 0 0 1-2.451 2.451Zm137.242-7.475a2.456 2.456 0 0 1-2.45-2.451v-6.188c0-1.348 1.1-2.451 2.45-2.451s2.45 1.103 2.45 2.451v6.188c0 1.348-1.1 2.451-2.45 2.451Zm-137.242-11.09a2.458 2.458 0 0 1-2.45-2.451v-6.188a2.457 2.457 0 0 1 2.45-2.45 2.457 2.457 0 0 1 2.451 2.45v6.188a2.458 2.458 0 0 1-2.451 2.451Zm137.242-7.475a2.455 2.455 0 0 1-2.45-2.45v-6.189c0-1.347 1.1-2.45 2.45-2.45s2.45 1.103 2.45 2.45v6.189c0 1.348-1.1 2.45-2.45 2.45Zm-137.242-11.089a2.458 2.458 0 0 1-2.45-2.451v-6.188a2.458 2.458 0 0 1 2.45-2.451 2.458 2.458 0 0 1 2.451 2.451v6.188a2.458 2.458 0 0 1-2.451 2.451Zm137.242-7.475a2.456 2.456 0 0 1-2.45-2.451v-6.188c0-1.348 1.1-2.451 2.45-2.451s2.45 1.103 2.45 2.451v6.188c0 1.348-1.1 2.451-2.45 2.451Zm-137.229-11.09h-.123c-1.348-.061-2.389-1.213-2.328-2.573a8.527 8.527 0 0 1 4.375-7.058 2.443 2.443 0 0 1 3.333.943 2.443 2.443 0 0 1-.944 3.333 3.646 3.646 0 0 0-1.875 3.027 2.45 2.45 0 0 1-2.451 2.328h.013Zm132.919-5.551c-.25 0-.48-.037-.72-.11-.36-.11-.72-.159-1.1-.159h-4.35a2.463 2.463 0 0 1-2.45-2.451 2.463 2.463 0 0 1 2.45-2.451h4.35c.86 0 1.72.123 2.54.38a2.449 2.449 0 0 1-.72 4.791Zm-18.542-.269h-6.188a2.458 2.458 0 0 1-2.451-2.451A2.458 2.458 0 0 1 989.77 745h6.188a2.458 2.458 0 0 1 2.451 2.451 2.458 2.458 0 0 1-2.451 2.451Zm-18.565 0h-6.188a2.457 2.457 0 0 1-2.45-2.451 2.457 2.457 0 0 1 2.45-2.451h6.188a2.458 2.458 0 0 1 2.451 2.451 2.458 2.458 0 0 1-2.451 2.451Zm-18.564 0h-6.188a2.458 2.458 0 0 1-2.451-2.451 2.458 2.458 0 0 1 2.451-2.451h6.188a2.458 2.458 0 0 1 2.451 2.451 2.458 2.458 0 0 1-2.451 2.451Zm-18.565 0h-6.188a2.458 2.458 0 0 1-2.451-2.451 2.458 2.458 0 0 1 2.451-2.451h6.188a2.458 2.458 0 0 1 2.451 2.451 2.458 2.458 0 0 1-2.451 2.451Zm-18.564 0h-6.188a2.458 2.458 0 0 1-2.451-2.451 2.458 2.458 0 0 1 2.451-2.451h6.188a2.458 2.458 0 0 1 2.451 2.451 2.458 2.458 0 0 1-2.451 2.451Zm-18.565 0h-6.188a2.458 2.458 0 0 1-2.451-2.451 2.458 2.458 0 0 1 2.451-2.451h6.188a2.458 2.458 0 0 1 2.451 2.451 2.458 2.458 0 0 1-2.451 2.451Z" fill="#EAF2FE"/><path id="Vector_19" d="M1242.31 887.157h-7.7a2.463 2.463 0 0 1-2.45-2.451 2.463 2.463 0 0 1 2.45-2.451h7.7c1.35 0 2.45 1.103 2.45 2.451s-1.1 2.451-2.45 2.451Zm-20.07 0h-6.19a2.456 2.456 0 0 1-2.45-2.451c0-1.348 1.1-2.451 2.45-2.451h6.19c1.35 0 2.45 1.103 2.45 2.451s-1.1 2.451-2.45 2.451Zm-18.57 0h-6.19a2.463 2.463 0 0 1-2.45-2.451 2.463 2.463 0 0 1 2.45-2.451h6.19c1.35 0 2.45 1.103 2.45 2.451s-1.1 2.451-2.45 2.451Zm-18.56 0h-6.19a2.456 2.456 0 0 1-2.45-2.451c0-1.348 1.1-2.451 2.45-2.451h6.19c1.35 0 2.45 1.103 2.45 2.451s-1.1 2.451-2.45 2.451Zm-18.57 0h-6.18a2.465 2.465 0 0 1-2.46-2.451 2.465 2.465 0 0 1 2.46-2.451h6.18c1.35 0 2.45 1.103 2.45 2.451s-1.1 2.451-2.45 2.451Zm-18.56 0h-6.19a2.456 2.456 0 0 1-2.45-2.451c0-1.348 1.1-2.451 2.45-2.451h6.19c1.35 0 2.45 1.103 2.45 2.451s-1.1 2.451-2.45 2.451Zm-18.57 0h-6.18a2.456 2.456 0 0 1-2.45-2.451c0-1.348 1.1-2.451 2.45-2.451h6.18c1.35 0 2.46 1.103 2.46 2.451a2.465 2.465 0 0 1-2.46 2.451Zm-18.03-1.899c-.65 0-1.3-.258-1.78-.76a8.568 8.568 0 0 1-2.37-5.907v-1.531a2.465 2.465 0 0 1 2.46-2.451c1.34 0 2.45 1.103 2.45 2.451v1.531c0 .944.35 1.851 1.01 2.537.93.98.9 2.537-.08 3.468a2.44 2.44 0 0 1-1.69.674v-.012Zm135.55-7.059a2.456 2.456 0 0 1-2.45-2.45v-6.189c0-1.348 1.1-2.45 2.45-2.45s2.45 1.102 2.45 2.45v6.189c0 1.347-1.1 2.45-2.45 2.45Zm-137.24-11.089a2.465 2.465 0 0 1-2.46-2.451v-6.188a2.465 2.465 0 0 1 2.46-2.451c1.34 0 2.45 1.103 2.45 2.451v6.188a2.463 2.463 0 0 1-2.45 2.451Zm137.24-7.475a2.456 2.456 0 0 1-2.45-2.451v-6.188c0-1.348 1.1-2.451 2.45-2.451s2.45 1.103 2.45 2.451v6.188c0 1.348-1.1 2.451-2.45 2.451Zm-137.24-11.09a2.465 2.465 0 0 1-2.46-2.451v-6.188a2.465 2.465 0 0 1 2.46-2.451c1.34 0 2.45 1.103 2.45 2.451v6.188a2.463 2.463 0 0 1-2.45 2.451Zm137.24-7.475a2.456 2.456 0 0 1-2.45-2.451v-6.188c0-1.348 1.1-2.451 2.45-2.451s2.45 1.103 2.45 2.451v6.188c0 1.348-1.1 2.451-2.45 2.451Zm-137.24-11.09a2.464 2.464 0 0 1-2.46-2.45v-6.189c0-1.347 1.11-2.45 2.46-2.45 1.34 0 2.45 1.103 2.45 2.45v6.189c0 1.348-1.11 2.45-2.45 2.45Zm137.24-7.474a2.456 2.456 0 0 1-2.45-2.451v-6.188c0-1.348 1.1-2.451 2.45-2.451s2.45 1.103 2.45 2.451v6.188c0 1.348-1.1 2.451-2.45 2.451Zm-137.24-11.09a2.465 2.465 0 0 1-2.46-2.451v-6.188a2.465 2.465 0 0 1 2.46-2.451c1.34 0 2.45 1.103 2.45 2.451v6.188a2.463 2.463 0 0 1-2.45 2.451Zm137.24-7.475a2.456 2.456 0 0 1-2.45-2.451v-6.188c0-1.348 1.1-2.451 2.45-2.451s2.45 1.103 2.45 2.451v6.188c0 1.348-1.1 2.451-2.45 2.451Zm-137.24-11.09a2.465 2.465 0 0 1-2.46-2.451v-6.188c0-1.348 1.11-2.45 2.46-2.45 1.34 0 2.45 1.102 2.45 2.45v6.188a2.463 2.463 0 0 1-2.45 2.451Zm137.24-7.475a2.455 2.455 0 0 1-2.45-2.45v-6.189c0-1.347 1.1-2.45 2.45-2.45s2.45 1.103 2.45 2.45v6.189c0 1.348-1.1 2.45-2.45 2.45Zm-137.24-11.089a2.465 2.465 0 0 1-2.46-2.451v-6.188a2.465 2.465 0 0 1 2.46-2.451c1.34 0 2.45 1.103 2.45 2.451v6.188a2.463 2.463 0 0 1-2.45 2.451Zm137.24-7.475a2.456 2.456 0 0 1-2.45-2.451v-6.188c0-1.348 1.1-2.451 2.45-2.451s2.45 1.103 2.45 2.451v6.188c0 1.348-1.1 2.451-2.45 2.451Zm-137.23-11.09h-.12c-1.35-.061-2.39-1.213-2.33-2.573a8.502 8.502 0 0 1 4.37-7.058 2.436 2.436 0 0 1 3.33.943 2.433 2.433 0 0 1-.94 3.333 3.65 3.65 0 0 0-1.87 3.027c-.06 1.311-1.16 2.328-2.45 2.328h.01Zm132.92-5.551c-.25 0-.48-.037-.73-.11-.35-.11-.71-.159-1.09-.159h-4.35a2.456 2.456 0 0 1-2.45-2.451c0-1.348 1.1-2.451 2.45-2.451h4.35c.86 0 1.72.123 2.54.38a2.449 2.449 0 0 1-.72 4.791Zm-18.54-.269h-6.19a2.456 2.456 0 0 1-2.45-2.451c0-1.348 1.1-2.451 2.45-2.451h6.19c1.34 0 2.45 1.103 2.45 2.451a2.463 2.463 0 0 1-2.45 2.451Zm-18.57 0h-6.19a2.456 2.456 0 0 1-2.45-2.451c0-1.348 1.1-2.451 2.45-2.451h6.19c1.35 0 2.45 1.103 2.45 2.451s-1.1 2.451-2.45 2.451Zm-18.56 0h-6.19a2.456 2.456 0 0 1-2.45-2.451c0-1.348 1.1-2.451 2.45-2.451h6.19c1.34 0 2.45 1.103 2.45 2.451a2.463 2.463 0 0 1-2.45 2.451Zm-18.57 0h-6.19a2.463 2.463 0 0 1-2.45-2.451 2.463 2.463 0 0 1 2.45-2.451h6.19c1.35 0 2.45 1.103 2.45 2.451s-1.1 2.451-2.45 2.451Zm-18.56 0h-6.19a2.456 2.456 0 0 1-2.45-2.451c0-1.348 1.1-2.451 2.45-2.451h6.19c1.34 0 2.45 1.103 2.45 2.451a2.463 2.463 0 0 1-2.45 2.451Zm-18.57 0h-6.19a2.463 2.463 0 0 1-2.45-2.451 2.463 2.463 0 0 1 2.45-2.451h6.19c1.35 0 2.45 1.103 2.45 2.451s-1.1 2.451-2.45 2.451Z" fill="#EAF2FE"/><path id="Vector_20" d="M740.674 778.821c-6.152 0-12.928-1.421-19.962-5.281-12.511-6.875-23.062-5.992-31.333 2.597a5.503 5.503 0 0 1-7.793.148c-2.194-2.12-2.267-5.601-.147-7.794 11.641-12.107 27.902-13.785 44.591-4.62 19.031 10.453 35.867-3.504 36.566-4.105 2.316-1.96 5.796-1.691 7.769.613a5.508 5.508 0 0 1-.588 7.757c-.687.588-12.671 10.685-29.091 10.685h-.012Z" fill="#575FE1"/><path id="Vector_21" d="M682.921 783.991c-4.999 0-9.067-4.068-9.067-9.068 0-4.999 4.068-9.068 9.067-9.068 5 0 9.068 4.069 9.068 9.068 0 5-4.068 9.068-9.068 9.068Zm0-15.672a6.62 6.62 0 0 0-6.617 6.617 6.621 6.621 0 0 0 6.617 6.617 6.62 6.62 0 0 0 6.617-6.617 6.62 6.62 0 0 0-6.617-6.617Z" fill="#2F2F45"/><path id="Vector_22" d="M950.778 875.81a5.45 5.45 0 0 1-2.291-.503c-2.77-1.262-3.983-4.534-2.721-7.303l41.847-91.463c-8.896 2.966-20.831 4.044-33.649-2.99-12.511-6.874-23.062-5.992-31.333 2.598a5.502 5.502 0 0 1-7.793.147 5.502 5.502 0 0 1-.147-7.793c11.641-12.107 27.902-13.786 44.591-4.62 19.031 10.453 35.867-3.505 36.566-4.105a5.534 5.534 0 0 1 6.902-.196c2.06 1.556 2.77 4.338 1.69 6.678l-48.65 106.339a5.528 5.528 0 0 1-5.012 3.223v-.012Z" fill="#575FE1"/><path id="Vector_23" d="M916.198 783.991c-5 0-9.068-4.068-9.068-9.068 0-4.999 4.068-9.068 9.068-9.068 4.999 0 9.068 4.069 9.068 9.068 0 5-4.069 9.068-9.068 9.068Zm0-15.672a6.62 6.62 0 0 0-6.617 6.617 6.62 6.62 0 0 0 6.617 6.617 6.621 6.621 0 0 0 6.617-6.617 6.62 6.62 0 0 0-6.617-6.617Z" fill="#2F2F45"/><path id="Vector_24" d="M1178.9 875.81c-.78 0-1.55-.16-2.3-.503-2.77-1.262-3.98-4.534-2.72-7.303l41.85-91.463c-8.9 2.966-20.83 4.044-33.65-2.99-12.51-6.874-23.05-5.992-31.33 2.598a5.51 5.51 0 0 1-7.8.147 5.506 5.506 0 0 1-.14-7.793c11.65-12.107 27.9-13.786 44.59-4.62 19.03 10.453 35.87-3.505 36.56-4.105 1.98-1.667 4.85-1.752 6.9-.196 2.06 1.556 2.77 4.338 1.69 6.678l-48.64 106.339a5.527 5.527 0 0 1-5.01 3.223v-.012Z" fill="#575FE1"/><path id="Vector_25" d="M1206.91 839.783c-5.16 0-9.88-1.826-14.01-3.432-6.81-2.646-10.59-3.884-15.17-.747a5.505 5.505 0 0 1-7.66-1.446c-1.71-2.512-1.08-5.943 1.45-7.659 9.58-6.555 18.34-3.149 25.38-.428 6.96 2.695 11.15 4.056 16.27.563 2.51-1.715 5.94-1.066 7.66 1.458a5.515 5.515 0 0 1-1.46 7.659c-4.37 2.978-8.54 4.019-12.45 4.019l-.01.013Z" fill="#575FE1"/><path id="Vector_26" d="M1144.32 783.991c-5 0-9.07-4.068-9.07-9.068 0-4.999 4.07-9.068 9.07-9.068s9.06 4.069 9.06 9.068c0 5-4.06 9.068-9.06 9.068Zm0-15.672c-3.64 0-6.62 2.965-6.62 6.617a6.618 6.618 0 0 0 6.62 6.617c3.65 0 6.61-2.966 6.61-6.617a6.615 6.615 0 0 0-6.61-6.617Z" fill="#2F2F45"/><g id="Group_4" fill="#2F2F45"><path id="Vector_27" d="M982.503 838.228c-.159 0-.33-.037-.49-.098a1.217 1.217 0 0 1-.637-1.605l7.855-18.234a1.216 1.216 0 0 1 1.605-.637c.625.269.907.992.637 1.605l-7.854 18.234c-.197.465-.65.735-1.128.735h.012Z"/><path id="Vector_28" d="M982.013 839.368c-.159 0-.33-.037-.49-.098a1.219 1.219 0 0 1-.686-.747l-1.568-4.877a1.223 1.223 0 0 1 .796-1.544 1.224 1.224 0 0 1 1.544.796l1.14 3.541 3.345-1.605a1.216 1.216 0 0 1 1.63.576 1.214 1.214 0 0 1-.576 1.63l-4.62 2.206a1.156 1.156 0 0 1-.527.122h.012Z"/></g><g id="Group_5" fill="#2F2F45"><path id="Vector_29" d="M749.619 786.147c.589-.184.932-.331.993-.355.625-.257.919-.968.662-1.593a1.223 1.223 0 0 0-1.593-.674c-.086.037-8.701 3.468-19.006.11a1.232 1.232 0 0 0-1.544.784c-.208.65.147 1.336.784 1.544 9.203 3.003 16.996 1.066 19.704.184Z"/><path id="Vector_30" d="M749.325 789.676c.306-.098.564-.306.723-.612l2.304-4.571a1.232 1.232 0 0 0-.699-1.716l-4.84-1.666a1.226 1.226 0 0 0-1.556.76 1.226 1.226 0 0 0 .76 1.556l3.517 1.213-1.667 3.321a1.224 1.224 0 0 0 1.47 1.715h-.012Z"/></g><g id="Group_6" fill="#2F2F45"><path id="Vector_31" d="M1185.78 815.104c.62.049.98.11 1.06.123.66.11 1.11.735 1.01 1.409-.11.662-.73 1.127-1.39 1.017-.1-.012-9.27-1.385-18.53 4.227-.58.356-1.34.16-1.68-.416a1.204 1.204 0 0 1 .42-1.679c8.27-5.012 16.31-4.901 19.14-4.669l-.03-.012Z"/><path id="Vector_32" d="M1184.69 811.747c.32.025.63.172.83.429l3.29 3.921c.23.27.33.625.27.981a1.2 1.2 0 0 1-.57.845l-4.32 2.733c-.58.355-1.34.184-1.69-.38a1.23 1.23 0 0 1 .38-1.691l3.14-1.985-2.38-2.843a1.223 1.223 0 0 1 .16-1.728c.25-.221.57-.306.88-.282h.01Z"/></g></g></g></svg>