<svg width="1900" height="1600" viewBox="0 0 1900 1600" fill="none" xmlns="http://www.w3.org/2000/svg"><g id="карточка=5, генерация=10"><g id="default"><path id="Vector" d="M875.21 887.3h-7.703a2.46 2.46 0 0 1-2.453-2.453 2.46 2.46 0 0 1 2.453-2.453h7.703a2.46 2.46 0 0 1 2.453 2.453 2.46 2.46 0 0 1-2.453 2.453Zm-20.092 0h-6.194a2.46 2.46 0 0 1-2.454-2.453 2.46 2.46 0 0 1 2.454-2.453h6.194a2.46 2.46 0 0 1 2.453 2.453 2.46 2.46 0 0 1-2.453 2.453Zm-18.583 0h-6.195a2.46 2.46 0 0 1-2.453-2.453 2.46 2.46 0 0 1 2.453-2.453h6.195a2.46 2.46 0 0 1 2.453 2.453 2.46 2.46 0 0 1-2.453 2.453Zm-18.583 0h-6.195a2.46 2.46 0 0 1-2.453-2.453 2.46 2.46 0 0 1 2.453-2.453h6.195a2.46 2.46 0 0 1 2.453 2.453 2.46 2.46 0 0 1-2.453 2.453Zm-18.584 0h-6.194a2.46 2.46 0 0 1-2.453-2.453 2.46 2.46 0 0 1 2.453-2.453h6.194a2.46 2.46 0 0 1 2.454 2.453 2.46 2.46 0 0 1-2.454 2.453Zm-18.583 0h-6.194a2.46 2.46 0 0 1-2.454-2.453 2.46 2.46 0 0 1 2.454-2.453h6.194a2.46 2.46 0 0 1 2.453 2.453 2.46 2.46 0 0 1-2.453 2.453Zm-18.583 0h-6.195a2.46 2.46 0 0 1-2.453-2.453 2.46 2.46 0 0 1 2.453-2.453h6.195a2.46 2.46 0 0 1 2.453 2.453 2.46 2.46 0 0 1-2.453 2.453Zm-18.056-1.901c-.65 0-1.3-.258-1.779-.761a8.573 8.573 0 0 1-2.367-5.912v-1.533a2.46 2.46 0 0 1 2.453-2.454 2.46 2.46 0 0 1 2.453 2.454v1.533c0 .944.356 1.852 1.019 2.539a2.459 2.459 0 0 1-.086 3.471 2.437 2.437 0 0 1-1.693.675v-.012Zm135.689-7.066a2.46 2.46 0 0 1-2.454-2.453v-6.194a2.46 2.46 0 0 1 2.454-2.453 2.46 2.46 0 0 1 2.453 2.453v6.194a2.46 2.46 0 0 1-2.453 2.453Zm-137.382-11.1a2.46 2.46 0 0 1-2.453-2.454v-6.194a2.46 2.46 0 0 1 2.453-2.453 2.46 2.46 0 0 1 2.453 2.453v6.194a2.46 2.46 0 0 1-2.453 2.454Zm137.382-7.483a2.46 2.46 0 0 1-2.454-2.453v-6.194a2.46 2.46 0 0 1 2.454-2.454 2.46 2.46 0 0 1 2.453 2.454v6.194a2.46 2.46 0 0 1-2.453 2.453Zm-137.382-11.101a2.46 2.46 0 0 1-2.453-2.453v-6.194a2.46 2.46 0 0 1 2.453-2.454 2.46 2.46 0 0 1 2.453 2.454v6.194a2.46 2.46 0 0 1-2.453 2.453Zm137.382-7.482a2.46 2.46 0 0 1-2.454-2.453v-6.195a2.46 2.46 0 0 1 2.454-2.453 2.46 2.46 0 0 1 2.453 2.453v6.195a2.46 2.46 0 0 1-2.453 2.453Zm-137.382-11.101a2.46 2.46 0 0 1-2.453-2.453v-6.195a2.46 2.46 0 0 1 2.453-2.453 2.46 2.46 0 0 1 2.453 2.453v6.195a2.46 2.46 0 0 1-2.453 2.453Zm137.382-7.482a2.46 2.46 0 0 1-2.454-2.454v-6.194a2.46 2.46 0 0 1 2.454-2.453 2.46 2.46 0 0 1 2.453 2.453v6.194a2.46 2.46 0 0 1-2.453 2.454Zm-137.382-11.101A2.46 2.46 0 0 1 740 809.03v-6.195a2.46 2.46 0 0 1 2.453-2.453 2.46 2.46 0 0 1 2.453 2.453v6.195a2.46 2.46 0 0 1-2.453 2.453ZM879.835 804a2.46 2.46 0 0 1-2.454-2.453v-6.194a2.46 2.46 0 0 1 2.454-2.454 2.46 2.46 0 0 1 2.453 2.454v6.194a2.46 2.46 0 0 1-2.453 2.453Zm-137.382-11.101a2.46 2.46 0 0 1-2.453-2.453v-6.194a2.46 2.46 0 0 1 2.453-2.453 2.46 2.46 0 0 1 2.453 2.453v6.194a2.46 2.46 0 0 1-2.453 2.453Zm137.382-7.482a2.46 2.46 0 0 1-2.454-2.453v-6.195a2.46 2.46 0 0 1 2.454-2.453 2.46 2.46 0 0 1 2.453 2.453v6.195a2.46 2.46 0 0 1-2.453 2.453Zm-137.382-11.101a2.46 2.46 0 0 1-2.453-2.453v-6.194a2.46 2.46 0 0 1 2.453-2.454 2.46 2.46 0 0 1 2.453 2.454v6.194a2.46 2.46 0 0 1-2.453 2.453Zm137.382-7.482a2.46 2.46 0 0 1-2.454-2.453v-6.195a2.46 2.46 0 0 1 2.454-2.453 2.46 2.46 0 0 1 2.453 2.453v6.195a2.46 2.46 0 0 1-2.453 2.453Zm-137.369-11.101h-.123c-1.349-.061-2.392-1.214-2.331-2.576a8.537 8.537 0 0 1 4.379-7.065 2.445 2.445 0 0 1 3.337.944 2.446 2.446 0 0 1-.945 3.337 3.65 3.65 0 0 0-1.877 3.029 2.453 2.453 0 0 1-2.453 2.331h.013Zm133.051-5.557c-.246 0-.479-.036-.724-.11a3.631 3.631 0 0 0-1.092-.16h-4.354a2.46 2.46 0 0 1-2.453-2.453 2.46 2.46 0 0 1 2.453-2.453h4.354c.859 0 1.718.123 2.54.38a2.449 2.449 0 0 1 1.619 3.067 2.463 2.463 0 0 1-2.343 1.729Zm-18.559-.27h-6.194a2.46 2.46 0 0 1-2.454-2.453 2.46 2.46 0 0 1 2.454-2.453h6.194a2.46 2.46 0 0 1 2.453 2.453 2.46 2.46 0 0 1-2.453 2.453Zm-18.583 0h-6.195a2.46 2.46 0 0 1-2.453-2.453A2.46 2.46 0 0 1 832.18 745h6.195a2.46 2.46 0 0 1 2.453 2.453 2.46 2.46 0 0 1-2.453 2.453Zm-18.583 0h-6.195a2.46 2.46 0 0 1-2.453-2.453 2.46 2.46 0 0 1 2.453-2.453h6.195a2.46 2.46 0 0 1 2.453 2.453 2.46 2.46 0 0 1-2.453 2.453Zm-18.584 0h-6.194a2.46 2.46 0 0 1-2.453-2.453 2.46 2.46 0 0 1 2.453-2.453h6.194a2.46 2.46 0 0 1 2.454 2.453 2.46 2.46 0 0 1-2.454 2.453Zm-18.583 0h-6.194a2.46 2.46 0 0 1-2.454-2.453 2.46 2.46 0 0 1 2.454-2.453h6.194a2.46 2.46 0 0 1 2.453 2.453 2.46 2.46 0 0 1-2.453 2.453Zm-18.583 0h-6.195a2.46 2.46 0 0 1-2.453-2.453 2.46 2.46 0 0 1 2.453-2.453h6.195a2.46 2.46 0 0 1 2.453 2.453 2.46 2.46 0 0 1-2.453 2.453Z" fill="#EAF2FE"/><path id="Vector_2" d="M1153.92 887.3h-7.7a2.457 2.457 0 0 1-2.45-2.453c0-1.349 1.1-2.453 2.45-2.453h7.7c1.35 0 2.46 1.104 2.46 2.453a2.466 2.466 0 0 1-2.46 2.453Zm-20.09 0h-6.19a2.466 2.466 0 0 1-2.46-2.453 2.466 2.466 0 0 1 2.46-2.453h6.19c1.35 0 2.45 1.104 2.45 2.453 0 1.349-1.1 2.453-2.45 2.453Zm-18.58 0h-6.2a2.457 2.457 0 0 1-2.45-2.453c0-1.349 1.1-2.453 2.45-2.453h6.2c1.35 0 2.45 1.104 2.45 2.453 0 1.349-1.1 2.453-2.45 2.453Zm-18.59 0h-6.19a2.457 2.457 0 0 1-2.45-2.453c0-1.349 1.1-2.453 2.45-2.453h6.19c1.35 0 2.46 1.104 2.46 2.453a2.466 2.466 0 0 1-2.46 2.453Zm-18.58 0h-6.19a2.466 2.466 0 0 1-2.46-2.453 2.466 2.466 0 0 1 2.46-2.453h6.19c1.35 0 2.45 1.104 2.45 2.453 0 1.349-1.1 2.453-2.45 2.453Zm-18.58 0h-6.2a2.457 2.457 0 0 1-2.45-2.453c0-1.349 1.1-2.453 2.45-2.453h6.2c1.35 0 2.45 1.104 2.45 2.453 0 1.349-1.1 2.453-2.45 2.453Zm-18.59 0h-6.19a2.457 2.457 0 0 1-2.45-2.453c0-1.349 1.1-2.453 2.45-2.453h6.19c1.35 0 2.46 1.104 2.46 2.453a2.466 2.466 0 0 1-2.46 2.453Zm-18.05-1.901c-.65 0-1.3-.258-1.78-.761a8.58 8.58 0 0 1-2.37-5.912v-1.533c0-1.35 1.11-2.454 2.46-2.454 1.34 0 2.45 1.104 2.45 2.454v1.533c0 .944.35 1.852 1.02 2.539.93.981.89 2.539-.09 3.471-.48.454-1.08.675-1.69.675v-.012Zm135.69-7.066a2.466 2.466 0 0 1-2.46-2.453v-6.194a2.466 2.466 0 0 1 2.46-2.453c1.35 0 2.45 1.104 2.45 2.453v6.194c0 1.349-1.1 2.453-2.45 2.453Zm-137.38-11.1a2.466 2.466 0 0 1-2.46-2.454v-6.194a2.466 2.466 0 0 1 2.46-2.453c1.34 0 2.45 1.104 2.45 2.453v6.194c0 1.35-1.11 2.454-2.45 2.454Zm137.38-7.483a2.466 2.466 0 0 1-2.46-2.453v-6.194c0-1.35 1.11-2.454 2.46-2.454 1.35 0 2.45 1.104 2.45 2.454v6.194c0 1.349-1.1 2.453-2.45 2.453Zm-137.38-11.101a2.466 2.466 0 0 1-2.46-2.453v-6.194c0-1.35 1.11-2.454 2.46-2.454 1.34 0 2.45 1.104 2.45 2.454v6.194a2.464 2.464 0 0 1-2.45 2.453Zm137.38-7.482a2.466 2.466 0 0 1-2.46-2.453v-6.195a2.466 2.466 0 0 1 2.46-2.453c1.35 0 2.45 1.104 2.45 2.453v6.195c0 1.349-1.1 2.453-2.45 2.453Zm-137.38-11.101a2.466 2.466 0 0 1-2.46-2.453v-6.195a2.466 2.466 0 0 1 2.46-2.453c1.34 0 2.45 1.104 2.45 2.453v6.195a2.464 2.464 0 0 1-2.45 2.453Zm137.38-7.482a2.466 2.466 0 0 1-2.46-2.454v-6.194a2.466 2.466 0 0 1 2.46-2.453c1.35 0 2.45 1.104 2.45 2.453v6.194c0 1.35-1.1 2.454-2.45 2.454Zm-137.38-11.101a2.466 2.466 0 0 1-2.46-2.453v-6.195a2.466 2.466 0 0 1 2.46-2.453c1.34 0 2.45 1.104 2.45 2.453v6.195a2.464 2.464 0 0 1-2.45 2.453ZM1158.55 804a2.466 2.466 0 0 1-2.46-2.453v-6.194c0-1.35 1.11-2.454 2.46-2.454 1.35 0 2.45 1.104 2.45 2.454v6.194c0 1.349-1.1 2.453-2.45 2.453Zm-137.38-11.101a2.466 2.466 0 0 1-2.46-2.453v-6.194a2.466 2.466 0 0 1 2.46-2.453c1.34 0 2.45 1.104 2.45 2.453v6.194a2.464 2.464 0 0 1-2.45 2.453Zm137.38-7.482a2.466 2.466 0 0 1-2.46-2.453v-6.195a2.466 2.466 0 0 1 2.46-2.453c1.35 0 2.45 1.104 2.45 2.453v6.195c0 1.349-1.1 2.453-2.45 2.453Zm-137.38-11.101a2.466 2.466 0 0 1-2.46-2.453v-6.194c0-1.35 1.11-2.454 2.46-2.454 1.34 0 2.45 1.104 2.45 2.454v6.194a2.464 2.464 0 0 1-2.45 2.453Zm137.38-7.482a2.466 2.466 0 0 1-2.46-2.453v-6.195a2.466 2.466 0 0 1 2.46-2.453c1.35 0 2.45 1.104 2.45 2.453v6.195c0 1.349-1.1 2.453-2.45 2.453Zm-137.37-11.101h-.13c-1.34-.061-2.39-1.214-2.33-2.576a8.544 8.544 0 0 1 4.38-7.065 2.445 2.445 0 0 1 3.34.944 2.455 2.455 0 0 1-.94 3.337 3.64 3.64 0 0 0-1.88 3.029 2.45 2.45 0 0 1-2.45 2.331h.01Zm133.05-5.557c-.25 0-.48-.036-.72-.11-.36-.11-.72-.16-1.1-.16h-4.35a2.457 2.457 0 0 1-2.45-2.453c0-1.349 1.1-2.453 2.45-2.453h4.35c.86 0 1.72.123 2.54.38 1.3.405 2.03 1.779 1.62 3.067a2.45 2.45 0 0 1-2.34 1.729Zm-18.56-.27h-6.19a2.465 2.465 0 0 1-2.46-2.453 2.466 2.466 0 0 1 2.46-2.453h6.19c1.35 0 2.45 1.104 2.45 2.453 0 1.35-1.1 2.453-2.45 2.453Zm-18.58 0h-6.2a2.457 2.457 0 0 1-2.45-2.453c0-1.349 1.1-2.453 2.45-2.453h6.2c1.35 0 2.45 1.104 2.45 2.453 0 1.35-1.1 2.453-2.45 2.453Zm-18.59 0h-6.19a2.457 2.457 0 0 1-2.45-2.453c0-1.349 1.1-2.453 2.45-2.453h6.19c1.35 0 2.46 1.104 2.46 2.453 0 1.35-1.11 2.453-2.46 2.453Zm-18.58 0h-6.19a2.465 2.465 0 0 1-2.46-2.453 2.466 2.466 0 0 1 2.46-2.453h6.19c1.35 0 2.45 1.104 2.45 2.453 0 1.35-1.1 2.453-2.45 2.453Zm-18.58 0h-6.2a2.457 2.457 0 0 1-2.45-2.453c0-1.349 1.1-2.453 2.45-2.453h6.2c1.35 0 2.45 1.104 2.45 2.453 0 1.35-1.1 2.453-2.45 2.453Zm-18.59 0h-6.19a2.457 2.457 0 0 1-2.45-2.453c0-1.349 1.1-2.453 2.45-2.453h6.19c1.35 0 2.46 1.104 2.46 2.453 0 1.35-1.11 2.453-2.46 2.453Z" fill="#EAF2FE"/><g id="Group" fill="#2F2F45"><path id="Vector_3" d="M797.848 789.109a33.154 33.154 0 0 1 7.985-9.444 1.228 1.228 0 0 1 1.73.184c.429.527.343 1.3-.184 1.729-8.439 6.808-10.255 15.922-10.279 16.007a1.243 1.243 0 0 1-1.435.982 1.23 1.23 0 0 1-.981-1.435c.049-.246.723-3.705 3.164-8.023Z"/><path id="Vector_4" d="M792.254 793.647c.099-.184.258-.343.454-.454a1.226 1.226 0 0 1 1.681.442l1.877 3.214 2.931-2.282c.54-.417 1.3-.319 1.717.209a1.225 1.225 0 0 1-.208 1.717l-4.036 3.152a1.181 1.181 0 0 1-.981.233 1.196 1.196 0 0 1-.822-.588l-2.576-4.428a1.193 1.193 0 0 1 0-1.227l-.037.012Z"/></g><path id="Vector_5" d="M776.406 824.092c-.196 0-.392 0-.601-.036a5.516 5.516 0 0 1-4.894-6.084c2.453-22.877 13.873-50.598 38.553-59.761 27.942-10.377 40.196 6.55 44.17 14.314a5.532 5.532 0 0 1-2.392 7.434 5.53 5.53 0 0 1-7.433-2.392c-5.802-11.334-16.069-14.352-30.506-8.991-19.945 7.408-29.304 30.984-31.414 50.585a5.52 5.52 0 0 1-5.483 4.931Z" fill="#575FE1"/><path id="Vector_6" d="M849.905 786.925c-5.005 0-9.077-4.072-9.077-9.077 0-5.004 4.072-9.077 9.077-9.077s9.077 4.073 9.077 9.077c0 5.005-4.072 9.077-9.077 9.077Zm0-15.688a6.628 6.628 0 0 0-6.624 6.624 6.627 6.627 0 0 0 6.624 6.623 6.627 6.627 0 0 0 6.624-6.623 6.628 6.628 0 0 0-6.624-6.624Z" fill="#2F2F45"/><path id="Vector_7" d="M1077.74 877.328c-12.4 0-22.4-8.562-27.59-24.189-9.63-28.973-.39-81.595 35.46-94.916 18.35-6.808 29.81-1.632 36.2 3.913 12.38 10.745 16.83 32.358 11.59 56.412-4.91 22.545-19.81 49.469-46.94 57.467-3.01.883-5.93 1.325-8.72 1.325v-.012Zm11.71-108.752c-28.8 10.696-37.21 55.86-28.82 81.079 3.1 9.322 9.55 19.626 22.71 15.762 22.51-6.624 35.05-29.77 39.28-49.224 4.24-19.491 1-37.866-8.05-45.728-6.01-5.214-14.46-5.851-25.12-1.902v.013Z" fill="#575FE1"/><path id="Vector_8" d="M1126.05 786.925c-5 0-9.07-4.072-9.07-9.077 0-5.004 4.07-9.077 9.07-9.077 5.01 0 9.08 4.073 9.08 9.077 0 5.005-4.07 9.077-9.08 9.077Zm0-15.688a6.627 6.627 0 0 0-6.62 6.624 6.627 6.627 0 0 0 6.62 6.623c3.66 0 6.63-2.968 6.63-6.623a6.63 6.63 0 0 0-6.63-6.624Z" fill="#2F2F45"/><g id="Group_2" fill="#2F2F45"><path id="Vector_9" d="M1073.8 789.109a33.128 33.128 0 0 1 7.98-9.444c.53-.43 1.3-.344 1.73.184.43.527.35 1.3-.18 1.729-8.44 6.808-10.25 15.922-10.28 16.007a1.237 1.237 0 0 1-1.43.982 1.232 1.232 0 0 1-.99-1.435c.05-.246.73-3.705 3.17-8.023Z"/><path id="Vector_10" d="M1068.19 793.647c.1-.184.26-.343.46-.454a1.226 1.226 0 0 1 1.68.442l1.88 3.214 2.93-2.282c.54-.417 1.3-.319 1.71.209.42.539.32 1.312-.2 1.717l-4.04 3.152a1.18 1.18 0 0 1-.98.233 1.194 1.194 0 0 1-.82-.588l-2.58-4.428a1.2 1.2 0 0 1 0-1.227l-.04.012Z"/></g><g id="Group_3" fill="#2F2F45"><path id="Vector_11" d="M1108.37 838.1a33.334 33.334 0 0 1-7.99 9.445 1.23 1.23 0 0 1-1.73-.184c-.43-.528-.34-1.3.18-1.73 8.44-6.807 10.26-15.921 10.28-16.007a1.25 1.25 0 0 1 1.44-.981c.66.122 1.1.76.98 1.435-.05.245-.72 3.704-3.16 8.022Z"/><path id="Vector_12" d="M1113.96 833.562c-.1.184-.26.343-.46.454-.58.343-1.33.147-1.68-.442l-1.87-3.214-2.93 2.282a1.23 1.23 0 0 1-1.72-.209 1.22 1.22 0 0 1 .21-1.717l4.03-3.152c.28-.221.64-.307.98-.234.35.062.65.283.83.589l2.57 4.428a1.2 1.2 0 0 1 0 1.227l.04-.012Z"/></g></g><g id="success"><path id="Vector_13" d="M875.21 887.3h-7.703a2.46 2.46 0 0 1-2.453-2.453 2.46 2.46 0 0 1 2.453-2.453h7.703a2.46 2.46 0 0 1 2.453 2.453 2.46 2.46 0 0 1-2.453 2.453Zm-20.092 0h-6.194a2.46 2.46 0 0 1-2.454-2.453 2.46 2.46 0 0 1 2.454-2.453h6.194a2.46 2.46 0 0 1 2.453 2.453 2.46 2.46 0 0 1-2.453 2.453Zm-18.583 0h-6.195a2.46 2.46 0 0 1-2.453-2.453 2.46 2.46 0 0 1 2.453-2.453h6.195a2.46 2.46 0 0 1 2.453 2.453 2.46 2.46 0 0 1-2.453 2.453Zm-18.583 0h-6.195a2.46 2.46 0 0 1-2.453-2.453 2.46 2.46 0 0 1 2.453-2.453h6.195a2.46 2.46 0 0 1 2.453 2.453 2.46 2.46 0 0 1-2.453 2.453Zm-18.584 0h-6.194a2.46 2.46 0 0 1-2.453-2.453 2.46 2.46 0 0 1 2.453-2.453h6.194a2.46 2.46 0 0 1 2.454 2.453 2.46 2.46 0 0 1-2.454 2.453Zm-18.583 0h-6.194a2.46 2.46 0 0 1-2.454-2.453 2.46 2.46 0 0 1 2.454-2.453h6.194a2.46 2.46 0 0 1 2.453 2.453 2.46 2.46 0 0 1-2.453 2.453Zm-18.583 0h-6.195a2.46 2.46 0 0 1-2.453-2.453 2.46 2.46 0 0 1 2.453-2.453h6.195a2.46 2.46 0 0 1 2.453 2.453 2.46 2.46 0 0 1-2.453 2.453Zm-18.056-1.901c-.65 0-1.3-.258-1.779-.761a8.573 8.573 0 0 1-2.367-5.912v-1.533a2.46 2.46 0 0 1 2.453-2.454 2.46 2.46 0 0 1 2.453 2.454v1.533c0 .944.356 1.852 1.019 2.539a2.459 2.459 0 0 1-.086 3.471 2.437 2.437 0 0 1-1.693.675v-.012Zm135.689-7.066a2.46 2.46 0 0 1-2.454-2.453v-6.194a2.46 2.46 0 0 1 2.454-2.453 2.46 2.46 0 0 1 2.453 2.453v6.194a2.46 2.46 0 0 1-2.453 2.453Zm-137.382-11.1a2.46 2.46 0 0 1-2.453-2.454v-6.194a2.46 2.46 0 0 1 2.453-2.453 2.46 2.46 0 0 1 2.453 2.453v6.194a2.46 2.46 0 0 1-2.453 2.454Zm137.382-7.483a2.46 2.46 0 0 1-2.454-2.453v-6.194a2.46 2.46 0 0 1 2.454-2.454 2.46 2.46 0 0 1 2.453 2.454v6.194a2.46 2.46 0 0 1-2.453 2.453Zm-137.382-11.101a2.46 2.46 0 0 1-2.453-2.453v-6.194a2.46 2.46 0 0 1 2.453-2.454 2.46 2.46 0 0 1 2.453 2.454v6.194a2.46 2.46 0 0 1-2.453 2.453Zm137.382-7.482a2.46 2.46 0 0 1-2.454-2.453v-6.195a2.46 2.46 0 0 1 2.454-2.453 2.46 2.46 0 0 1 2.453 2.453v6.195a2.46 2.46 0 0 1-2.453 2.453Zm-137.382-11.101a2.46 2.46 0 0 1-2.453-2.453v-6.195a2.46 2.46 0 0 1 2.453-2.453 2.46 2.46 0 0 1 2.453 2.453v6.195a2.46 2.46 0 0 1-2.453 2.453Zm137.382-7.482a2.46 2.46 0 0 1-2.454-2.454v-6.194a2.46 2.46 0 0 1 2.454-2.453 2.46 2.46 0 0 1 2.453 2.453v6.194a2.46 2.46 0 0 1-2.453 2.454Zm-137.382-11.101A2.46 2.46 0 0 1 740 809.03v-6.195a2.46 2.46 0 0 1 2.453-2.453 2.46 2.46 0 0 1 2.453 2.453v6.195a2.46 2.46 0 0 1-2.453 2.453ZM879.835 804a2.46 2.46 0 0 1-2.454-2.453v-6.194a2.46 2.46 0 0 1 2.454-2.454 2.46 2.46 0 0 1 2.453 2.454v6.194a2.46 2.46 0 0 1-2.453 2.453Zm-137.382-11.101a2.46 2.46 0 0 1-2.453-2.453v-6.194a2.46 2.46 0 0 1 2.453-2.453 2.46 2.46 0 0 1 2.453 2.453v6.194a2.46 2.46 0 0 1-2.453 2.453Zm137.382-7.482a2.46 2.46 0 0 1-2.454-2.453v-6.195a2.46 2.46 0 0 1 2.454-2.453 2.46 2.46 0 0 1 2.453 2.453v6.195a2.46 2.46 0 0 1-2.453 2.453Zm-137.382-11.101a2.46 2.46 0 0 1-2.453-2.453v-6.194a2.46 2.46 0 0 1 2.453-2.454 2.46 2.46 0 0 1 2.453 2.454v6.194a2.46 2.46 0 0 1-2.453 2.453Zm137.382-7.482a2.46 2.46 0 0 1-2.454-2.453v-6.195a2.46 2.46 0 0 1 2.454-2.453 2.46 2.46 0 0 1 2.453 2.453v6.195a2.46 2.46 0 0 1-2.453 2.453Zm-137.369-11.101h-.123c-1.349-.061-2.392-1.214-2.331-2.576a8.537 8.537 0 0 1 4.379-7.065 2.445 2.445 0 0 1 3.337.944 2.446 2.446 0 0 1-.945 3.337 3.65 3.65 0 0 0-1.877 3.029 2.453 2.453 0 0 1-2.453 2.331h.013Zm133.051-5.557c-.246 0-.479-.036-.724-.11a3.631 3.631 0 0 0-1.092-.16h-4.354a2.46 2.46 0 0 1-2.453-2.453 2.46 2.46 0 0 1 2.453-2.453h4.354c.859 0 1.718.123 2.54.38a2.449 2.449 0 0 1 1.619 3.067 2.463 2.463 0 0 1-2.343 1.729Zm-18.559-.27h-6.194a2.46 2.46 0 0 1-2.454-2.453 2.46 2.46 0 0 1 2.454-2.453h6.194a2.46 2.46 0 0 1 2.453 2.453 2.46 2.46 0 0 1-2.453 2.453Zm-18.583 0h-6.195a2.46 2.46 0 0 1-2.453-2.453A2.46 2.46 0 0 1 832.18 745h6.195a2.46 2.46 0 0 1 2.453 2.453 2.46 2.46 0 0 1-2.453 2.453Zm-18.583 0h-6.195a2.46 2.46 0 0 1-2.453-2.453 2.46 2.46 0 0 1 2.453-2.453h6.195a2.46 2.46 0 0 1 2.453 2.453 2.46 2.46 0 0 1-2.453 2.453Zm-18.584 0h-6.194a2.46 2.46 0 0 1-2.453-2.453 2.46 2.46 0 0 1 2.453-2.453h6.194a2.46 2.46 0 0 1 2.454 2.453 2.46 2.46 0 0 1-2.454 2.453Zm-18.583 0h-6.194a2.46 2.46 0 0 1-2.454-2.453 2.46 2.46 0 0 1 2.454-2.453h6.194a2.46 2.46 0 0 1 2.453 2.453 2.46 2.46 0 0 1-2.453 2.453Zm-18.583 0h-6.195a2.46 2.46 0 0 1-2.453-2.453 2.46 2.46 0 0 1 2.453-2.453h6.195a2.46 2.46 0 0 1 2.453 2.453 2.46 2.46 0 0 1-2.453 2.453Z" fill="#EAF2FE"/><path id="Vector_14" d="M1153.92 887.3h-7.7a2.457 2.457 0 0 1-2.45-2.453c0-1.349 1.1-2.453 2.45-2.453h7.7c1.35 0 2.46 1.104 2.46 2.453a2.466 2.466 0 0 1-2.46 2.453Zm-20.09 0h-6.19a2.466 2.466 0 0 1-2.46-2.453 2.466 2.466 0 0 1 2.46-2.453h6.19c1.35 0 2.45 1.104 2.45 2.453 0 1.349-1.1 2.453-2.45 2.453Zm-18.58 0h-6.2a2.457 2.457 0 0 1-2.45-2.453c0-1.349 1.1-2.453 2.45-2.453h6.2c1.35 0 2.45 1.104 2.45 2.453 0 1.349-1.1 2.453-2.45 2.453Zm-18.59 0h-6.19a2.457 2.457 0 0 1-2.45-2.453c0-1.349 1.1-2.453 2.45-2.453h6.19c1.35 0 2.46 1.104 2.46 2.453a2.466 2.466 0 0 1-2.46 2.453Zm-18.58 0h-6.19a2.466 2.466 0 0 1-2.46-2.453 2.466 2.466 0 0 1 2.46-2.453h6.19c1.35 0 2.45 1.104 2.45 2.453 0 1.349-1.1 2.453-2.45 2.453Zm-18.58 0h-6.2a2.457 2.457 0 0 1-2.45-2.453c0-1.349 1.1-2.453 2.45-2.453h6.2c1.35 0 2.45 1.104 2.45 2.453 0 1.349-1.1 2.453-2.45 2.453Zm-18.59 0h-6.19a2.457 2.457 0 0 1-2.45-2.453c0-1.349 1.1-2.453 2.45-2.453h6.19c1.35 0 2.46 1.104 2.46 2.453a2.466 2.466 0 0 1-2.46 2.453Zm-18.05-1.901c-.65 0-1.3-.258-1.78-.761a8.58 8.58 0 0 1-2.37-5.912v-1.533c0-1.35 1.11-2.454 2.46-2.454 1.34 0 2.45 1.104 2.45 2.454v1.533c0 .944.35 1.852 1.02 2.539.93.981.89 2.539-.09 3.471-.48.454-1.08.675-1.69.675v-.012Zm135.69-7.066a2.466 2.466 0 0 1-2.46-2.453v-6.194a2.466 2.466 0 0 1 2.46-2.453c1.35 0 2.45 1.104 2.45 2.453v6.194c0 1.349-1.1 2.453-2.45 2.453Zm-137.38-11.1a2.466 2.466 0 0 1-2.46-2.454v-6.194a2.466 2.466 0 0 1 2.46-2.453c1.34 0 2.45 1.104 2.45 2.453v6.194c0 1.35-1.11 2.454-2.45 2.454Zm137.38-7.483a2.466 2.466 0 0 1-2.46-2.453v-6.194c0-1.35 1.11-2.454 2.46-2.454 1.35 0 2.45 1.104 2.45 2.454v6.194c0 1.349-1.1 2.453-2.45 2.453Zm-137.38-11.101a2.466 2.466 0 0 1-2.46-2.453v-6.194c0-1.35 1.11-2.454 2.46-2.454 1.34 0 2.45 1.104 2.45 2.454v6.194a2.464 2.464 0 0 1-2.45 2.453Zm137.38-7.482a2.466 2.466 0 0 1-2.46-2.453v-6.195a2.466 2.466 0 0 1 2.46-2.453c1.35 0 2.45 1.104 2.45 2.453v6.195c0 1.349-1.1 2.453-2.45 2.453Zm-137.38-11.101a2.466 2.466 0 0 1-2.46-2.453v-6.195a2.466 2.466 0 0 1 2.46-2.453c1.34 0 2.45 1.104 2.45 2.453v6.195a2.464 2.464 0 0 1-2.45 2.453Zm137.38-7.482a2.466 2.466 0 0 1-2.46-2.454v-6.194a2.466 2.466 0 0 1 2.46-2.453c1.35 0 2.45 1.104 2.45 2.453v6.194c0 1.35-1.1 2.454-2.45 2.454Zm-137.38-11.101a2.466 2.466 0 0 1-2.46-2.453v-6.195a2.466 2.466 0 0 1 2.46-2.453c1.34 0 2.45 1.104 2.45 2.453v6.195a2.464 2.464 0 0 1-2.45 2.453ZM1158.55 804a2.466 2.466 0 0 1-2.46-2.453v-6.194c0-1.35 1.11-2.454 2.46-2.454 1.35 0 2.45 1.104 2.45 2.454v6.194c0 1.349-1.1 2.453-2.45 2.453Zm-137.38-11.101a2.466 2.466 0 0 1-2.46-2.453v-6.194a2.466 2.466 0 0 1 2.46-2.453c1.34 0 2.45 1.104 2.45 2.453v6.194a2.464 2.464 0 0 1-2.45 2.453Zm137.38-7.482a2.466 2.466 0 0 1-2.46-2.453v-6.195a2.466 2.466 0 0 1 2.46-2.453c1.35 0 2.45 1.104 2.45 2.453v6.195c0 1.349-1.1 2.453-2.45 2.453Zm-137.38-11.101a2.466 2.466 0 0 1-2.46-2.453v-6.194c0-1.35 1.11-2.454 2.46-2.454 1.34 0 2.45 1.104 2.45 2.454v6.194a2.464 2.464 0 0 1-2.45 2.453Zm137.38-7.482a2.466 2.466 0 0 1-2.46-2.453v-6.195a2.466 2.466 0 0 1 2.46-2.453c1.35 0 2.45 1.104 2.45 2.453v6.195c0 1.349-1.1 2.453-2.45 2.453Zm-137.37-11.101h-.13c-1.34-.061-2.39-1.214-2.33-2.576a8.544 8.544 0 0 1 4.38-7.065 2.445 2.445 0 0 1 3.34.944 2.455 2.455 0 0 1-.94 3.337 3.64 3.64 0 0 0-1.88 3.029 2.45 2.45 0 0 1-2.45 2.331h.01Zm133.05-5.557c-.25 0-.48-.036-.72-.11-.36-.11-.72-.16-1.1-.16h-4.35a2.457 2.457 0 0 1-2.45-2.453c0-1.349 1.1-2.453 2.45-2.453h4.35c.86 0 1.72.123 2.54.38 1.3.405 2.03 1.779 1.62 3.067a2.45 2.45 0 0 1-2.34 1.729Zm-18.56-.27h-6.19a2.465 2.465 0 0 1-2.46-2.453 2.466 2.466 0 0 1 2.46-2.453h6.19c1.35 0 2.45 1.104 2.45 2.453 0 1.35-1.1 2.453-2.45 2.453Zm-18.58 0h-6.2a2.457 2.457 0 0 1-2.45-2.453c0-1.349 1.1-2.453 2.45-2.453h6.2c1.35 0 2.45 1.104 2.45 2.453 0 1.35-1.1 2.453-2.45 2.453Zm-18.59 0h-6.19a2.457 2.457 0 0 1-2.45-2.453c0-1.349 1.1-2.453 2.45-2.453h6.19c1.35 0 2.46 1.104 2.46 2.453 0 1.35-1.11 2.453-2.46 2.453Zm-18.58 0h-6.19a2.465 2.465 0 0 1-2.46-2.453 2.466 2.466 0 0 1 2.46-2.453h6.19c1.35 0 2.45 1.104 2.45 2.453 0 1.35-1.1 2.453-2.45 2.453Zm-18.58 0h-6.2a2.457 2.457 0 0 1-2.45-2.453c0-1.349 1.1-2.453 2.45-2.453h6.2c1.35 0 2.45 1.104 2.45 2.453 0 1.35-1.1 2.453-2.45 2.453Zm-18.59 0h-6.19a2.457 2.457 0 0 1-2.45-2.453c0-1.349 1.1-2.453 2.45-2.453h6.19c1.35 0 2.46 1.104 2.46 2.453 0 1.35-1.11 2.453-2.46 2.453Z" fill="#EAF2FE"/><g id="Group_4" fill="#2F2F45"><path id="Vector_15" d="M797.848 789.109a33.154 33.154 0 0 1 7.985-9.444 1.228 1.228 0 0 1 1.73.184c.429.527.343 1.3-.184 1.729-8.439 6.808-10.255 15.922-10.279 16.007a1.243 1.243 0 0 1-1.435.982 1.23 1.23 0 0 1-.981-1.435c.049-.246.723-3.705 3.164-8.023Z"/><path id="Vector_16" d="M792.254 793.647c.099-.184.258-.343.454-.454a1.226 1.226 0 0 1 1.681.442l1.877 3.214 2.931-2.282c.54-.417 1.3-.319 1.717.209a1.225 1.225 0 0 1-.208 1.717l-4.036 3.152a1.181 1.181 0 0 1-.981.233 1.196 1.196 0 0 1-.822-.588l-2.576-4.428a1.193 1.193 0 0 1 0-1.227l-.037.012Z"/></g><path id="Vector_17" d="M776.406 824.092c-.196 0-.392 0-.601-.036a5.516 5.516 0 0 1-4.894-6.084c2.453-22.877 13.873-50.598 38.553-59.761 27.942-10.377 40.196 6.55 44.17 14.314a5.532 5.532 0 0 1-2.392 7.434 5.53 5.53 0 0 1-7.433-2.392c-5.802-11.334-16.069-14.352-30.506-8.991-19.945 7.408-29.304 30.984-31.414 50.585a5.52 5.52 0 0 1-5.483 4.931Z" fill="#575FE1"/><path id="Vector_18" d="M849.905 786.925c-5.005 0-9.077-4.072-9.077-9.077 0-5.004 4.072-9.077 9.077-9.077s9.077 4.073 9.077 9.077c0 5.005-4.072 9.077-9.077 9.077Zm0-15.688a6.628 6.628 0 0 0-6.624 6.624 6.627 6.627 0 0 0 6.624 6.623 6.627 6.627 0 0 0 6.624-6.623 6.628 6.628 0 0 0-6.624-6.624Z" fill="#2F2F45"/><path id="Vector_19" d="M1077.74 877.328c-12.4 0-22.4-8.562-27.59-24.189-9.63-28.973-.39-81.595 35.46-94.916 18.35-6.808 29.81-1.632 36.2 3.913 12.38 10.745 16.83 32.358 11.59 56.412-4.91 22.545-19.81 49.469-46.94 57.467-3.01.883-5.93 1.325-8.72 1.325v-.012Zm11.71-108.752c-28.8 10.696-37.21 55.86-28.82 81.079 3.1 9.322 9.55 19.626 22.71 15.762 22.51-6.624 35.05-29.77 39.28-49.224 4.24-19.491 1-37.866-8.05-45.728-6.01-5.214-14.46-5.851-25.12-1.902v.013Z" fill="#575FE1"/><path id="Vector_20" d="M1126.05 786.925c-5 0-9.07-4.072-9.07-9.077 0-5.004 4.07-9.077 9.07-9.077 5.01 0 9.08 4.073 9.08 9.077 0 5.005-4.07 9.077-9.08 9.077Zm0-15.688a6.627 6.627 0 0 0-6.62 6.624 6.627 6.627 0 0 0 6.62 6.623c3.66 0 6.63-2.968 6.63-6.623a6.63 6.63 0 0 0-6.63-6.624Z" fill="#2F2F45"/><g id="Group_5" fill="#2F2F45"><path id="Vector_21" d="M1073.8 789.109a33.128 33.128 0 0 1 7.98-9.444c.53-.43 1.3-.344 1.73.184.43.527.35 1.3-.18 1.729-8.44 6.808-10.25 15.922-10.28 16.007a1.237 1.237 0 0 1-1.43.982 1.232 1.232 0 0 1-.99-1.435c.05-.246.73-3.705 3.17-8.023Z"/><path id="Vector_22" d="M1068.19 793.647c.1-.184.26-.343.46-.454a1.226 1.226 0 0 1 1.68.442l1.88 3.214 2.93-2.282c.54-.417 1.3-.319 1.71.209.42.539.32 1.312-.2 1.717l-4.04 3.152a1.18 1.18 0 0 1-.98.233 1.194 1.194 0 0 1-.82-.588l-2.58-4.428a1.2 1.2 0 0 1 0-1.227l-.04.012Z"/></g><g id="Group_6" fill="#2F2F45"><path id="Vector_23" d="M1108.37 838.1a33.334 33.334 0 0 1-7.99 9.445 1.23 1.23 0 0 1-1.73-.184c-.43-.528-.34-1.3.18-1.73 8.44-6.807 10.26-15.921 10.28-16.007a1.25 1.25 0 0 1 1.44-.981c.66.122 1.1.76.98 1.435-.05.245-.72 3.704-3.16 8.022Z"/><path id="Vector_24" d="M1113.96 833.562c-.1.184-.26.343-.46.454-.58.343-1.33.147-1.68-.442l-1.87-3.214-2.93 2.282a1.23 1.23 0 0 1-1.72-.209 1.22 1.22 0 0 1 .21-1.717l4.03-3.152c.28-.221.64-.307.98-.234.35.062.65.283.83.589l2.57 4.428a1.2 1.2 0 0 1 0 1.227l.04-.012Z"/></g></g></g></svg>