<svg xmlns="http://www.w3.org/2000/svg" width="1900" height="1600" fill="none" viewBox="0 0 1900 1600"><g id="карточка=5, генерация=1"><g id="success"><g id="Group"><path id="Vector" fill="#EAF2FE" d="M865.232 899.099h-8.673a2.77 2.77 0 0 1-2.762-2.762 2.77 2.77 0 0 1 2.762-2.762h8.673a2.77 2.77 0 0 1 2.762 2.762 2.77 2.77 0 0 1-2.762 2.762m-22.621 0h-6.975a2.77 2.77 0 0 1-2.762-2.762 2.77 2.77 0 0 1 2.762-2.762h6.975a2.77 2.77 0 0 1 2.762 2.762 2.77 2.77 0 0 1-2.762 2.762m-20.923 0h-6.974a2.77 2.77 0 0 1-2.763-2.762 2.77 2.77 0 0 1 2.763-2.762h6.974a2.77 2.77 0 0 1 2.762 2.762 2.77 2.77 0 0 1-2.762 2.762m-20.923 0h-6.974a2.77 2.77 0 0 1-2.762-2.762 2.77 2.77 0 0 1 2.762-2.762h6.974a2.77 2.77 0 0 1 2.762 2.762 2.77 2.77 0 0 1-2.762 2.762m-20.923 0h-6.974a2.77 2.77 0 0 1-2.762-2.762 2.77 2.77 0 0 1 2.762-2.762h6.974a2.77 2.77 0 0 1 2.762 2.762 2.77 2.77 0 0 1-2.762 2.762m-20.922 0h-6.975a2.77 2.77 0 0 1-2.762-2.762 2.77 2.77 0 0 1 2.762-2.762h6.975a2.77 2.77 0 0 1 2.762 2.762 2.77 2.77 0 0 1-2.762 2.762m-20.923 0h-6.974a2.77 2.77 0 0 1-2.763-2.762 2.77 2.77 0 0 1 2.763-2.762h6.974a2.77 2.77 0 0 1 2.762 2.762 2.77 2.77 0 0 1-2.762 2.762m-20.329-2.141c-.732 0-1.464-.29-2.003-.856a9.65 9.65 0 0 1-2.665-6.657v-1.726a2.77 2.77 0 0 1 2.762-2.762 2.77 2.77 0 0 1 2.762 2.762v1.726c0 1.064.401 2.086 1.146 2.859a2.77 2.77 0 0 1-.096 3.909 2.74 2.74 0 0 1-1.906.759zm152.771-7.941a2.77 2.77 0 0 1-2.763-2.762v-6.974a2.77 2.77 0 0 1 2.763-2.762 2.77 2.77 0 0 1 2.762 2.762v6.974a2.77 2.77 0 0 1-2.762 2.762m-154.677-12.498a2.77 2.77 0 0 1-2.762-2.762v-6.974a2.77 2.77 0 0 1 2.762-2.762 2.77 2.77 0 0 1 2.762 2.762v6.974a2.77 2.77 0 0 1-2.762 2.762m154.677-8.424a2.77 2.77 0 0 1-2.763-2.762v-6.975a2.77 2.77 0 0 1 2.763-2.762 2.77 2.77 0 0 1 2.762 2.762v6.975a2.77 2.77 0 0 1-2.762 2.762m-154.677-12.499a2.77 2.77 0 0 1-2.762-2.762v-6.974a2.77 2.77 0 0 1 2.762-2.762 2.77 2.77 0 0 1 2.762 2.762v6.974a2.77 2.77 0 0 1-2.762 2.762m154.677-8.424a2.77 2.77 0 0 1-2.763-2.762v-6.974a2.77 2.77 0 0 1 2.763-2.763 2.77 2.77 0 0 1 2.762 2.763v6.974a2.77 2.77 0 0 1-2.762 2.762m-154.677-12.499a2.77 2.77 0 0 1-2.762-2.762v-6.974a2.77 2.77 0 0 1 2.762-2.762 2.77 2.77 0 0 1 2.762 2.762v6.974a2.77 2.77 0 0 1-2.762 2.762m154.677-8.424a2.77 2.77 0 0 1-2.763-2.762v-6.974a2.77 2.77 0 0 1 2.763-2.762 2.77 2.77 0 0 1 2.762 2.762v6.974a2.77 2.77 0 0 1-2.762 2.762m-154.677-12.498a2.77 2.77 0 0 1-2.762-2.762v-6.975a2.77 2.77 0 0 1 2.762-2.762 2.77 2.77 0 0 1 2.762 2.762v6.975a2.77 2.77 0 0 1-2.762 2.762m154.677-8.425a2.77 2.77 0 0 1-2.763-2.762v-6.974a2.77 2.77 0 0 1 2.763-2.762 2.77 2.77 0 0 1 2.762 2.762v6.974a2.77 2.77 0 0 1-2.762 2.762m-154.677-12.498a2.77 2.77 0 0 1-2.762-2.762v-6.974a2.77 2.77 0 0 1 2.762-2.762 2.77 2.77 0 0 1 2.762 2.762v6.974a2.77 2.77 0 0 1-2.762 2.762m154.677-8.424a2.77 2.77 0 0 1-2.763-2.762v-6.975a2.77 2.77 0 0 1 2.763-2.762 2.77 2.77 0 0 1 2.762 2.762v6.975a2.77 2.77 0 0 1-2.762 2.762m-154.677-12.499a2.77 2.77 0 0 1-2.762-2.762v-6.974a2.77 2.77 0 0 1 2.762-2.762 2.77 2.77 0 0 1 2.762 2.762v6.974a2.77 2.77 0 0 1-2.762 2.762m154.677-8.424a2.77 2.77 0 0 1-2.763-2.762v-6.974a2.77 2.77 0 0 1 2.763-2.762 2.77 2.77 0 0 1 2.762 2.762v6.974a2.77 2.77 0 0 1-2.762 2.762m-154.663-12.498h-.138c-1.519-.07-2.693-1.368-2.624-2.901a9.61 9.61 0 0 1 4.93-7.955 2.754 2.754 0 0 1 3.757 1.064 2.753 2.753 0 0 1-1.064 3.756 4.11 4.11 0 0 0-2.113 3.412 2.76 2.76 0 0 1-2.762 2.624zm149.801-6.257a2.8 2.8 0 0 1-.815-.124 4 4 0 0 0-1.229-.179h-4.902a2.77 2.77 0 0 1-2.762-2.762 2.77 2.77 0 0 1 2.762-2.763h4.902c.967 0 1.934.139 2.859.429a2.755 2.755 0 0 1 1.823 3.452 2.77 2.77 0 0 1-2.638 1.947m-20.895-.303h-6.974a2.77 2.77 0 0 1-2.762-2.762 2.77 2.77 0 0 1 2.762-2.763h6.974a2.77 2.77 0 0 1 2.762 2.763 2.77 2.77 0 0 1-2.762 2.762m-20.923 0h-6.974a2.77 2.77 0 0 1-2.762-2.762 2.77 2.77 0 0 1 2.762-2.763h6.974a2.77 2.77 0 0 1 2.762 2.763 2.77 2.77 0 0 1-2.762 2.762m-20.922 0h-6.975a2.77 2.77 0 0 1-2.762-2.762 2.77 2.77 0 0 1 2.762-2.763h6.975a2.77 2.77 0 0 1 2.762 2.763 2.77 2.77 0 0 1-2.762 2.762m-20.923 0h-6.974a2.77 2.77 0 0 1-2.762-2.762 2.77 2.77 0 0 1 2.762-2.763h6.974a2.77 2.77 0 0 1 2.762 2.763 2.77 2.77 0 0 1-2.762 2.762m-20.923 0h-6.974a2.77 2.77 0 0 1-2.762-2.762 2.77 2.77 0 0 1 2.762-2.763h6.974a2.77 2.77 0 0 1 2.762 2.763 2.77 2.77 0 0 1-2.762 2.762m-20.923 0h-6.974a2.77 2.77 0 0 1-2.762-2.762 2.77 2.77 0 0 1 2.762-2.763h6.974a2.77 2.77 0 0 1 2.762 2.763 2.77 2.77 0 0 1-2.762 2.762"/><path id="Vector_2" fill="#EAF2FE" d="M1179.03 899.099h-8.67a2.77 2.77 0 0 1-2.76-2.762 2.77 2.77 0 0 1 2.76-2.762h8.67c1.52 0 2.76 1.243 2.76 2.762a2.77 2.77 0 0 1-2.76 2.762m-22.62 0h-6.97a2.776 2.776 0 0 1-2.77-2.762 2.776 2.776 0 0 1 2.77-2.762h6.97c1.52 0 2.76 1.243 2.76 2.762a2.77 2.77 0 0 1-2.76 2.762m-20.92 0h-6.98a2.77 2.77 0 0 1-2.76-2.762 2.77 2.77 0 0 1 2.76-2.762h6.98c1.52 0 2.76 1.243 2.76 2.762a2.77 2.77 0 0 1-2.76 2.762m-20.93 0h-6.97a2.77 2.77 0 0 1-2.76-2.762 2.77 2.77 0 0 1 2.76-2.762h6.97c1.52 0 2.77 1.243 2.77 2.762a2.776 2.776 0 0 1-2.77 2.762m-20.92 0h-6.97a2.77 2.77 0 0 1-2.76-2.762 2.77 2.77 0 0 1 2.76-2.762h6.97c1.52 0 2.76 1.243 2.76 2.762a2.77 2.77 0 0 1-2.76 2.762m-20.92 0h-6.98a2.774 2.774 0 0 1-2.76-2.762 2.774 2.774 0 0 1 2.76-2.762h6.98c1.52 0 2.76 1.243 2.76 2.762a2.77 2.77 0 0 1-2.76 2.762m-20.92 0h-6.98a2.77 2.77 0 0 1-2.76-2.762 2.77 2.77 0 0 1 2.76-2.762h6.98c1.52 0 2.76 1.243 2.76 2.762a2.77 2.77 0 0 1-2.76 2.762m-20.33-2.141c-.73 0-1.47-.29-2.01-.856a9.66 9.66 0 0 1-2.66-6.657v-1.726a2.77 2.77 0 0 1 2.76-2.762c1.52 0 2.76 1.243 2.76 2.762v1.726c0 1.064.4 2.086 1.15 2.859a2.764 2.764 0 0 1-2 4.668zm152.77-7.941a2.77 2.77 0 0 1-2.76-2.762v-6.974a2.77 2.77 0 0 1 2.76-2.762c1.52 0 2.76 1.243 2.76 2.762v6.974a2.77 2.77 0 0 1-2.76 2.762m-154.68-12.498a2.77 2.77 0 0 1-2.76-2.762v-6.974a2.77 2.77 0 0 1 2.76-2.762c1.52 0 2.76 1.243 2.76 2.762v6.974a2.77 2.77 0 0 1-2.76 2.762m154.68-8.424a2.77 2.77 0 0 1-2.76-2.762v-6.975a2.77 2.77 0 0 1 2.76-2.762c1.52 0 2.76 1.243 2.76 2.762v6.975a2.77 2.77 0 0 1-2.76 2.762m-154.68-12.499a2.77 2.77 0 0 1-2.76-2.762v-6.974a2.77 2.77 0 0 1 2.76-2.762c1.52 0 2.76 1.243 2.76 2.762v6.974a2.77 2.77 0 0 1-2.76 2.762m154.68-8.424a2.77 2.77 0 0 1-2.76-2.762v-6.974c0-1.52 1.24-2.763 2.76-2.763s2.76 1.243 2.76 2.763v6.974a2.77 2.77 0 0 1-2.76 2.762m-154.68-12.499a2.767 2.767 0 0 1-2.76-2.762v-6.974a2.77 2.77 0 0 1 2.76-2.762c1.52 0 2.76 1.243 2.76 2.762v6.974c0 1.52-1.24 2.762-2.76 2.762m154.68-8.424a2.77 2.77 0 0 1-2.76-2.762v-6.974a2.77 2.77 0 0 1 2.76-2.762c1.52 0 2.76 1.243 2.76 2.762v6.974a2.77 2.77 0 0 1-2.76 2.762m-154.68-12.498a2.77 2.77 0 0 1-2.76-2.762v-6.975a2.77 2.77 0 0 1 2.76-2.762c1.52 0 2.76 1.243 2.76 2.762v6.975a2.77 2.77 0 0 1-2.76 2.762m154.68-8.425a2.77 2.77 0 0 1-2.76-2.762v-6.974a2.77 2.77 0 0 1 2.76-2.762c1.52 0 2.76 1.243 2.76 2.762v6.974a2.77 2.77 0 0 1-2.76 2.762m-154.68-12.498a2.77 2.77 0 0 1-2.76-2.762v-6.974a2.77 2.77 0 0 1 2.76-2.762c1.52 0 2.76 1.243 2.76 2.762v6.974a2.77 2.77 0 0 1-2.76 2.762m154.68-8.424a2.77 2.77 0 0 1-2.76-2.762v-6.975a2.77 2.77 0 0 1 2.76-2.762c1.52 0 2.76 1.243 2.76 2.762v6.975a2.77 2.77 0 0 1-2.76 2.762m-154.68-12.499a2.77 2.77 0 0 1-2.76-2.762v-6.974a2.77 2.77 0 0 1 2.76-2.762c1.52 0 2.76 1.243 2.76 2.762v6.974a2.77 2.77 0 0 1-2.76 2.762m154.68-8.424a2.77 2.77 0 0 1-2.76-2.762v-6.974c0-1.52 1.24-2.762 2.76-2.762s2.76 1.242 2.76 2.762v6.974a2.77 2.77 0 0 1-2.76 2.762m-154.66-12.498h-.14a2.77 2.77 0 0 1-2.63-2.901 9.64 9.64 0 0 1 4.93-7.955 2.755 2.755 0 0 1 3.76 1.064 2.747 2.747 0 0 1-1.06 3.756 4.11 4.11 0 0 0-2.12 3.412 2.757 2.757 0 0 1-2.76 2.624zm149.8-6.257c-.28 0-.54-.041-.82-.124-.4-.124-.8-.179-1.23-.179h-4.9a2.77 2.77 0 0 1-2.76-2.762c0-1.52 1.24-2.763 2.76-2.763h4.9c.97 0 1.94.139 2.86.429a2.745 2.745 0 0 1 1.82 3.452c-.35 1.188-1.46 1.947-2.63 1.947m-20.9-.303h-6.97a2.77 2.77 0 0 1-2.76-2.762c0-1.52 1.24-2.763 2.76-2.763h6.97c1.52 0 2.76 1.243 2.76 2.763a2.77 2.77 0 0 1-2.76 2.762m-20.92 0h-6.98a2.774 2.774 0 0 1-2.76-2.762c0-1.52 1.25-2.763 2.76-2.763h6.98c1.52 0 2.76 1.243 2.76 2.763a2.77 2.77 0 0 1-2.76 2.762m-20.92 0h-6.98a2.77 2.77 0 0 1-2.76-2.762c0-1.52 1.24-2.763 2.76-2.763h6.98c1.52 0 2.76 1.243 2.76 2.763a2.77 2.77 0 0 1-2.76 2.762m-20.93 0h-6.97a2.77 2.77 0 0 1-2.76-2.762c0-1.52 1.24-2.763 2.76-2.763h6.97c1.52 0 2.77 1.243 2.77 2.763a2.776 2.776 0 0 1-2.77 2.762m-20.92 0h-6.97a2.776 2.776 0 0 1-2.77-2.762c0-1.52 1.25-2.763 2.77-2.763h6.97c1.52 0 2.76 1.243 2.76 2.763a2.77 2.77 0 0 1-2.76 2.762m-20.92 0h-6.98a2.77 2.77 0 0 1-2.76-2.762c0-1.52 1.24-2.763 2.76-2.763h6.98c1.52 0 2.76 1.243 2.76 2.763a2.77 2.77 0 0 1-2.76 2.762"/><path id="Vector_3" fill="#575FE1" d="M798.045 801.141a6.2 6.2 0 0 1-5.718-3.77c-1.353-3.149.111-6.809 3.26-8.162.29-.124 28.725-12.581 48.709-37.992 2.127-2.693 6.035-3.163 8.728-1.05 2.693 2.127 3.163 6.035 1.05 8.728-22 27.98-52.3 41.183-53.571 41.735a6.2 6.2 0 0 1-2.444.511z"/><path id="Vector_4" fill="#575FE1" d="M1117.89 889.432c-.84 0-1.7-.166-2.51-.539a6.205 6.205 0 0 1-3.16-8.203c14.82-33.49 28.87-76.51 37.04-102.984-17.64 15.163-34.52 22.524-35.47 22.925a6.22 6.22 0 0 1-8.16-3.259 6.223 6.223 0 0 1 3.26-8.162c.4-.18 28.77-12.637 48.71-37.993a6.21 6.21 0 0 1 7.7-1.698 6.22 6.22 0 0 1 3.17 7.222c-.21.76-21.57 76.289-44.89 128.962-1.02 2.32-3.3 3.701-5.69 3.701z"/><path id="Vector_5" fill="#2F2F45" d="M793.101 806.349c-5.635 0-10.22-4.586-10.22-10.22s4.585-10.22 10.22-10.22c5.634 0 10.219 4.585 10.219 10.22 0 5.634-4.585 10.22-10.219 10.22m0-17.664a7.46 7.46 0 0 0-7.458 7.458 7.46 7.46 0 0 0 7.458 7.457 7.46 7.46 0 0 0 7.457-7.457 7.46 7.46 0 0 0-7.457-7.458"/><g id="Group_2" fill="#2F2F45"><path id="Vector_6" d="M803.734 777.152a1.36 1.36 0 0 1-1.132-.593 1.377 1.377 0 0 1 .345-1.92l18.354-12.802a1.377 1.377 0 0 1 1.92.345 1.377 1.377 0 0 1-.345 1.92l-18.354 12.802a1.36 1.36 0 0 1-.788.248"/><path id="Vector_7" d="M821.825 769.156c-.11 0-.221 0-.331-.042a1.38 1.38 0 0 1-1.008-1.671l1.008-4.06-4.157-.456a1.38 1.38 0 0 1-1.229-1.519 1.4 1.4 0 0 1 1.519-1.229l5.731.621c.401.042.76.263.981.58.235.332.304.732.207 1.119l-1.395 5.593a1.385 1.385 0 0 1-1.339 1.05z"/></g><path id="Vector_8" fill="#2F2F45" d="M1106.78 806.349c-5.64 0-10.22-4.586-10.22-10.22s4.58-10.22 10.22-10.22c5.63 0 10.22 4.585 10.22 10.22 0 5.634-4.59 10.22-10.22 10.22m0-17.664c-4.11 0-7.46 3.342-7.46 7.458a7.46 7.46 0 0 0 7.46 7.457c4.11 0 7.45-3.342 7.45-7.457s-3.34-7.458-7.45-7.458"/><g id="Group_3" fill="#2F2F45"><path id="Vector_9" d="M1117.41 777.152c-.44 0-.87-.207-1.13-.593a1.37 1.37 0 0 1 .34-1.92l18.36-12.802a1.376 1.376 0 0 1 1.92.345c.42.622.29 1.492-.35 1.92l-18.35 12.802c-.24.166-.51.248-.79.248"/><path id="Vector_10" d="M1135.52 769.156c-.12 0-.23 0-.34-.042-.74-.179-1.18-.939-1-1.671l1-4.06-4.15-.456c-.76-.083-1.32-.759-1.23-1.519.08-.76.77-1.298 1.52-1.229l5.73.621c.4.042.76.263.98.58.22.318.3.732.21 1.119l-1.4 5.593c-.15.622-.72 1.05-1.34 1.05z"/></g><g id="Group_4" fill="#2F2F45"><path id="Vector_11" d="M1143.7 861.604a1.3 1.3 0 0 1-.45-.083c-.72-.249-1.09-1.05-.84-1.768l7.48-21.088c.25-.719 1.05-1.092 1.77-.843s1.09 1.05.84 1.768l-7.48 21.088c-.21.567-.74.926-1.3.926z"/><path id="Vector_12" d="M1143.23 862.929a1.41 1.41 0 0 1-1.27-.87l-2.12-5.359c-.28-.704.07-1.505.77-1.795a1.4 1.4 0 0 1 1.8.773l1.54 3.895 3.65-2.044c.66-.373 1.5-.138 1.88.524a1.38 1.38 0 0 1-.53 1.879l-5.02 2.817c-.21.111-.45.18-.68.18z"/></g></g></g><g id="default"><g id="Group_5"><path id="Vector_13" fill="#EAF2FE" d="M865.232 899.099h-8.673a2.77 2.77 0 0 1-2.762-2.762 2.77 2.77 0 0 1 2.762-2.762h8.673a2.77 2.77 0 0 1 2.762 2.762 2.77 2.77 0 0 1-2.762 2.762m-22.621 0h-6.975a2.77 2.77 0 0 1-2.762-2.762 2.77 2.77 0 0 1 2.762-2.762h6.975a2.77 2.77 0 0 1 2.762 2.762 2.77 2.77 0 0 1-2.762 2.762m-20.923 0h-6.974a2.77 2.77 0 0 1-2.763-2.762 2.77 2.77 0 0 1 2.763-2.762h6.974a2.77 2.77 0 0 1 2.762 2.762 2.77 2.77 0 0 1-2.762 2.762m-20.923 0h-6.974a2.77 2.77 0 0 1-2.762-2.762 2.77 2.77 0 0 1 2.762-2.762h6.974a2.77 2.77 0 0 1 2.762 2.762 2.77 2.77 0 0 1-2.762 2.762m-20.923 0h-6.974a2.77 2.77 0 0 1-2.762-2.762 2.77 2.77 0 0 1 2.762-2.762h6.974a2.77 2.77 0 0 1 2.762 2.762 2.77 2.77 0 0 1-2.762 2.762m-20.922 0h-6.975a2.77 2.77 0 0 1-2.762-2.762 2.77 2.77 0 0 1 2.762-2.762h6.975a2.77 2.77 0 0 1 2.762 2.762 2.77 2.77 0 0 1-2.762 2.762m-20.923 0h-6.974a2.77 2.77 0 0 1-2.763-2.762 2.77 2.77 0 0 1 2.763-2.762h6.974a2.77 2.77 0 0 1 2.762 2.762 2.77 2.77 0 0 1-2.762 2.762m-20.329-2.141c-.732 0-1.464-.29-2.003-.856a9.65 9.65 0 0 1-2.665-6.657v-1.726a2.77 2.77 0 0 1 2.762-2.762 2.77 2.77 0 0 1 2.762 2.762v1.726c0 1.064.401 2.086 1.146 2.859a2.77 2.77 0 0 1-.096 3.909 2.74 2.74 0 0 1-1.906.759zm152.771-7.941a2.77 2.77 0 0 1-2.763-2.762v-6.974a2.77 2.77 0 0 1 2.763-2.762 2.77 2.77 0 0 1 2.762 2.762v6.974a2.77 2.77 0 0 1-2.762 2.762m-154.677-12.498a2.77 2.77 0 0 1-2.762-2.762v-6.974a2.77 2.77 0 0 1 2.762-2.762 2.77 2.77 0 0 1 2.762 2.762v6.974a2.77 2.77 0 0 1-2.762 2.762m154.677-8.424a2.77 2.77 0 0 1-2.763-2.762v-6.975a2.77 2.77 0 0 1 2.763-2.762 2.77 2.77 0 0 1 2.762 2.762v6.975a2.77 2.77 0 0 1-2.762 2.762m-154.677-12.499a2.77 2.77 0 0 1-2.762-2.762v-6.974a2.77 2.77 0 0 1 2.762-2.762 2.77 2.77 0 0 1 2.762 2.762v6.974a2.77 2.77 0 0 1-2.762 2.762m154.677-8.424a2.77 2.77 0 0 1-2.763-2.762v-6.974a2.77 2.77 0 0 1 2.763-2.763 2.77 2.77 0 0 1 2.762 2.763v6.974a2.77 2.77 0 0 1-2.762 2.762m-154.677-12.499a2.77 2.77 0 0 1-2.762-2.762v-6.974a2.77 2.77 0 0 1 2.762-2.762 2.77 2.77 0 0 1 2.762 2.762v6.974a2.77 2.77 0 0 1-2.762 2.762m154.677-8.424a2.77 2.77 0 0 1-2.763-2.762v-6.974a2.77 2.77 0 0 1 2.763-2.762 2.77 2.77 0 0 1 2.762 2.762v6.974a2.77 2.77 0 0 1-2.762 2.762m-154.677-12.498a2.77 2.77 0 0 1-2.762-2.762v-6.975a2.77 2.77 0 0 1 2.762-2.762 2.77 2.77 0 0 1 2.762 2.762v6.975a2.77 2.77 0 0 1-2.762 2.762m154.677-8.425a2.77 2.77 0 0 1-2.763-2.762v-6.974a2.77 2.77 0 0 1 2.763-2.762 2.77 2.77 0 0 1 2.762 2.762v6.974a2.77 2.77 0 0 1-2.762 2.762m-154.677-12.498a2.77 2.77 0 0 1-2.762-2.762v-6.974a2.77 2.77 0 0 1 2.762-2.762 2.77 2.77 0 0 1 2.762 2.762v6.974a2.77 2.77 0 0 1-2.762 2.762m154.677-8.424a2.77 2.77 0 0 1-2.763-2.762v-6.975a2.77 2.77 0 0 1 2.763-2.762 2.77 2.77 0 0 1 2.762 2.762v6.975a2.77 2.77 0 0 1-2.762 2.762m-154.677-12.499a2.77 2.77 0 0 1-2.762-2.762v-6.974a2.77 2.77 0 0 1 2.762-2.762 2.77 2.77 0 0 1 2.762 2.762v6.974a2.77 2.77 0 0 1-2.762 2.762m154.677-8.424a2.77 2.77 0 0 1-2.763-2.762v-6.974a2.77 2.77 0 0 1 2.763-2.762 2.77 2.77 0 0 1 2.762 2.762v6.974a2.77 2.77 0 0 1-2.762 2.762m-154.663-12.498h-.138c-1.519-.07-2.693-1.368-2.624-2.901a9.61 9.61 0 0 1 4.93-7.955 2.754 2.754 0 0 1 3.757 1.064 2.753 2.753 0 0 1-1.064 3.756 4.11 4.11 0 0 0-2.113 3.412 2.76 2.76 0 0 1-2.762 2.624zm149.801-6.257a2.8 2.8 0 0 1-.815-.124 4 4 0 0 0-1.229-.179h-4.902a2.77 2.77 0 0 1-2.762-2.762 2.77 2.77 0 0 1 2.762-2.763h4.902c.967 0 1.934.139 2.859.429a2.755 2.755 0 0 1 1.823 3.452 2.77 2.77 0 0 1-2.638 1.947m-20.895-.303h-6.974a2.77 2.77 0 0 1-2.762-2.762 2.77 2.77 0 0 1 2.762-2.763h6.974a2.77 2.77 0 0 1 2.762 2.763 2.77 2.77 0 0 1-2.762 2.762m-20.923 0h-6.974a2.77 2.77 0 0 1-2.762-2.762 2.77 2.77 0 0 1 2.762-2.763h6.974a2.77 2.77 0 0 1 2.762 2.763 2.77 2.77 0 0 1-2.762 2.762m-20.922 0h-6.975a2.77 2.77 0 0 1-2.762-2.762 2.77 2.77 0 0 1 2.762-2.763h6.975a2.77 2.77 0 0 1 2.762 2.763 2.77 2.77 0 0 1-2.762 2.762m-20.923 0h-6.974a2.77 2.77 0 0 1-2.762-2.762 2.77 2.77 0 0 1 2.762-2.763h6.974a2.77 2.77 0 0 1 2.762 2.763 2.77 2.77 0 0 1-2.762 2.762m-20.923 0h-6.974a2.77 2.77 0 0 1-2.762-2.762 2.77 2.77 0 0 1 2.762-2.763h6.974a2.77 2.77 0 0 1 2.762 2.763 2.77 2.77 0 0 1-2.762 2.762m-20.923 0h-6.974a2.77 2.77 0 0 1-2.762-2.762 2.77 2.77 0 0 1 2.762-2.763h6.974a2.77 2.77 0 0 1 2.762 2.763 2.77 2.77 0 0 1-2.762 2.762"/><path id="Vector_14" fill="#EAF2FE" d="M1179.03 899.099h-8.67a2.77 2.77 0 0 1-2.76-2.762 2.77 2.77 0 0 1 2.76-2.762h8.67c1.52 0 2.76 1.243 2.76 2.762a2.77 2.77 0 0 1-2.76 2.762m-22.62 0h-6.97a2.776 2.776 0 0 1-2.77-2.762 2.776 2.776 0 0 1 2.77-2.762h6.97c1.52 0 2.76 1.243 2.76 2.762a2.77 2.77 0 0 1-2.76 2.762m-20.92 0h-6.98a2.77 2.77 0 0 1-2.76-2.762 2.77 2.77 0 0 1 2.76-2.762h6.98c1.52 0 2.76 1.243 2.76 2.762a2.77 2.77 0 0 1-2.76 2.762m-20.93 0h-6.97a2.77 2.77 0 0 1-2.76-2.762 2.77 2.77 0 0 1 2.76-2.762h6.97c1.52 0 2.77 1.243 2.77 2.762a2.776 2.776 0 0 1-2.77 2.762m-20.92 0h-6.97a2.77 2.77 0 0 1-2.76-2.762 2.77 2.77 0 0 1 2.76-2.762h6.97c1.52 0 2.76 1.243 2.76 2.762a2.77 2.77 0 0 1-2.76 2.762m-20.92 0h-6.98a2.774 2.774 0 0 1-2.76-2.762 2.774 2.774 0 0 1 2.76-2.762h6.98c1.52 0 2.76 1.243 2.76 2.762a2.77 2.77 0 0 1-2.76 2.762m-20.92 0h-6.98a2.77 2.77 0 0 1-2.76-2.762 2.77 2.77 0 0 1 2.76-2.762h6.98c1.52 0 2.76 1.243 2.76 2.762a2.77 2.77 0 0 1-2.76 2.762m-20.33-2.141c-.73 0-1.47-.29-2.01-.856a9.66 9.66 0 0 1-2.66-6.657v-1.726a2.77 2.77 0 0 1 2.76-2.762c1.52 0 2.76 1.243 2.76 2.762v1.726c0 1.064.4 2.086 1.15 2.859a2.764 2.764 0 0 1-2 4.668zm152.77-7.941a2.77 2.77 0 0 1-2.76-2.762v-6.974a2.77 2.77 0 0 1 2.76-2.762c1.52 0 2.76 1.243 2.76 2.762v6.974a2.77 2.77 0 0 1-2.76 2.762m-154.68-12.498a2.77 2.77 0 0 1-2.76-2.762v-6.974a2.77 2.77 0 0 1 2.76-2.762c1.52 0 2.76 1.243 2.76 2.762v6.974a2.77 2.77 0 0 1-2.76 2.762m154.68-8.424a2.77 2.77 0 0 1-2.76-2.762v-6.975a2.77 2.77 0 0 1 2.76-2.762c1.52 0 2.76 1.243 2.76 2.762v6.975a2.77 2.77 0 0 1-2.76 2.762m-154.68-12.499a2.77 2.77 0 0 1-2.76-2.762v-6.974a2.77 2.77 0 0 1 2.76-2.762c1.52 0 2.76 1.243 2.76 2.762v6.974a2.77 2.77 0 0 1-2.76 2.762m154.68-8.424a2.77 2.77 0 0 1-2.76-2.762v-6.974c0-1.52 1.24-2.763 2.76-2.763s2.76 1.243 2.76 2.763v6.974a2.77 2.77 0 0 1-2.76 2.762m-154.68-12.499a2.767 2.767 0 0 1-2.76-2.762v-6.974a2.77 2.77 0 0 1 2.76-2.762c1.52 0 2.76 1.243 2.76 2.762v6.974c0 1.52-1.24 2.762-2.76 2.762m154.68-8.424a2.77 2.77 0 0 1-2.76-2.762v-6.974a2.77 2.77 0 0 1 2.76-2.762c1.52 0 2.76 1.243 2.76 2.762v6.974a2.77 2.77 0 0 1-2.76 2.762m-154.68-12.498a2.77 2.77 0 0 1-2.76-2.762v-6.975a2.77 2.77 0 0 1 2.76-2.762c1.52 0 2.76 1.243 2.76 2.762v6.975a2.77 2.77 0 0 1-2.76 2.762m154.68-8.425a2.77 2.77 0 0 1-2.76-2.762v-6.974a2.77 2.77 0 0 1 2.76-2.762c1.52 0 2.76 1.243 2.76 2.762v6.974a2.77 2.77 0 0 1-2.76 2.762m-154.68-12.498a2.77 2.77 0 0 1-2.76-2.762v-6.974a2.77 2.77 0 0 1 2.76-2.762c1.52 0 2.76 1.243 2.76 2.762v6.974a2.77 2.77 0 0 1-2.76 2.762m154.68-8.424a2.77 2.77 0 0 1-2.76-2.762v-6.975a2.77 2.77 0 0 1 2.76-2.762c1.52 0 2.76 1.243 2.76 2.762v6.975a2.77 2.77 0 0 1-2.76 2.762m-154.68-12.499a2.77 2.77 0 0 1-2.76-2.762v-6.974a2.77 2.77 0 0 1 2.76-2.762c1.52 0 2.76 1.243 2.76 2.762v6.974a2.77 2.77 0 0 1-2.76 2.762m154.68-8.424a2.77 2.77 0 0 1-2.76-2.762v-6.974c0-1.52 1.24-2.762 2.76-2.762s2.76 1.242 2.76 2.762v6.974a2.77 2.77 0 0 1-2.76 2.762m-154.66-12.498h-.14a2.77 2.77 0 0 1-2.63-2.901 9.64 9.64 0 0 1 4.93-7.955 2.755 2.755 0 0 1 3.76 1.064 2.747 2.747 0 0 1-1.06 3.756 4.11 4.11 0 0 0-2.12 3.412 2.757 2.757 0 0 1-2.76 2.624zm149.8-6.257c-.28 0-.54-.041-.82-.124-.4-.124-.8-.179-1.23-.179h-4.9a2.77 2.77 0 0 1-2.76-2.762c0-1.52 1.24-2.763 2.76-2.763h4.9c.97 0 1.94.139 2.86.429a2.745 2.745 0 0 1 1.82 3.452c-.35 1.188-1.46 1.947-2.63 1.947m-20.9-.303h-6.97a2.77 2.77 0 0 1-2.76-2.762c0-1.52 1.24-2.763 2.76-2.763h6.97c1.52 0 2.76 1.243 2.76 2.763a2.77 2.77 0 0 1-2.76 2.762m-20.92 0h-6.98a2.774 2.774 0 0 1-2.76-2.762c0-1.52 1.25-2.763 2.76-2.763h6.98c1.52 0 2.76 1.243 2.76 2.763a2.77 2.77 0 0 1-2.76 2.762m-20.92 0h-6.98a2.77 2.77 0 0 1-2.76-2.762c0-1.52 1.24-2.763 2.76-2.763h6.98c1.52 0 2.76 1.243 2.76 2.763a2.77 2.77 0 0 1-2.76 2.762m-20.93 0h-6.97a2.77 2.77 0 0 1-2.76-2.762c0-1.52 1.24-2.763 2.76-2.763h6.97c1.52 0 2.77 1.243 2.77 2.763a2.776 2.776 0 0 1-2.77 2.762m-20.92 0h-6.97a2.776 2.776 0 0 1-2.77-2.762c0-1.52 1.25-2.763 2.77-2.763h6.97c1.52 0 2.76 1.243 2.76 2.763a2.77 2.77 0 0 1-2.76 2.762m-20.92 0h-6.98a2.77 2.77 0 0 1-2.76-2.762c0-1.52 1.24-2.763 2.76-2.763h6.98c1.52 0 2.76 1.243 2.76 2.763a2.77 2.77 0 0 1-2.76 2.762"/><path id="Vector_15" fill="#575FE1" d="M798.045 801.141a6.2 6.2 0 0 1-5.718-3.77c-1.353-3.149.111-6.809 3.26-8.162.29-.124 28.725-12.581 48.709-37.992 2.127-2.693 6.035-3.163 8.728-1.05 2.693 2.127 3.163 6.035 1.05 8.728-22 27.98-52.3 41.183-53.571 41.735a6.2 6.2 0 0 1-2.444.511z"/><path id="Vector_16" fill="#575FE1" d="M1117.89 889.432c-.84 0-1.7-.166-2.51-.539a6.205 6.205 0 0 1-3.16-8.203c14.82-33.49 28.87-76.51 37.04-102.984-17.64 15.163-34.52 22.524-35.47 22.925a6.22 6.22 0 0 1-8.16-3.259 6.223 6.223 0 0 1 3.26-8.162c.4-.18 28.77-12.637 48.71-37.993a6.21 6.21 0 0 1 7.7-1.698 6.22 6.22 0 0 1 3.17 7.222c-.21.76-21.57 76.289-44.89 128.962-1.02 2.32-3.3 3.701-5.69 3.701z"/><path id="Vector_17" fill="#2F2F45" d="M793.101 806.349c-5.635 0-10.22-4.586-10.22-10.22s4.585-10.22 10.22-10.22c5.634 0 10.219 4.585 10.219 10.22 0 5.634-4.585 10.22-10.219 10.22m0-17.664a7.46 7.46 0 0 0-7.458 7.458 7.46 7.46 0 0 0 7.458 7.457 7.46 7.46 0 0 0 7.457-7.457 7.46 7.46 0 0 0-7.457-7.458"/><g id="Group_6" fill="#2F2F45"><path id="Vector_18" d="M803.734 777.152a1.36 1.36 0 0 1-1.132-.593 1.377 1.377 0 0 1 .345-1.92l18.354-12.802a1.377 1.377 0 0 1 1.92.345 1.377 1.377 0 0 1-.345 1.92l-18.354 12.802a1.36 1.36 0 0 1-.788.248"/><path id="Vector_19" d="M821.825 769.156c-.11 0-.221 0-.331-.042a1.38 1.38 0 0 1-1.008-1.671l1.008-4.06-4.157-.456a1.38 1.38 0 0 1-1.229-1.519 1.4 1.4 0 0 1 1.519-1.229l5.731.621c.401.042.76.263.981.58.235.332.304.732.207 1.119l-1.395 5.593a1.385 1.385 0 0 1-1.339 1.05z"/></g><path id="Vector_20" fill="#2F2F45" d="M1106.78 806.349c-5.64 0-10.22-4.586-10.22-10.22s4.58-10.22 10.22-10.22c5.63 0 10.22 4.585 10.22 10.22 0 5.634-4.59 10.22-10.22 10.22m0-17.664c-4.11 0-7.46 3.342-7.46 7.458a7.46 7.46 0 0 0 7.46 7.457c4.11 0 7.45-3.342 7.45-7.457s-3.34-7.458-7.45-7.458"/><g id="Group_7" fill="#2F2F45"><path id="Vector_21" d="M1117.41 777.152c-.44 0-.87-.207-1.13-.593a1.37 1.37 0 0 1 .34-1.92l18.36-12.802a1.376 1.376 0 0 1 1.92.345c.42.622.29 1.492-.35 1.92l-18.35 12.802c-.24.166-.51.248-.79.248"/><path id="Vector_22" d="M1135.52 769.156c-.12 0-.23 0-.34-.042-.74-.179-1.18-.939-1-1.671l1-4.06-4.15-.456c-.76-.083-1.32-.759-1.23-1.519.08-.76.77-1.298 1.52-1.229l5.73.621c.4.042.76.263.98.58.22.318.3.732.21 1.119l-1.4 5.593c-.15.622-.72 1.05-1.34 1.05z"/></g><g id="Group_8" fill="#2F2F45"><path id="Vector_23" d="M1143.7 861.604a1.3 1.3 0 0 1-.45-.083c-.72-.249-1.09-1.05-.84-1.768l7.48-21.088c.25-.719 1.05-1.092 1.77-.843s1.09 1.05.84 1.768l-7.48 21.088c-.21.567-.74.926-1.3.926z"/><path id="Vector_24" d="M1143.23 862.929a1.41 1.41 0 0 1-1.27-.87l-2.12-5.359c-.28-.704.07-1.505.77-1.795a1.4 1.4 0 0 1 1.8.773l1.54 3.895 3.65-2.044c.66-.373 1.5-.138 1.88.524a1.38 1.38 0 0 1-.53 1.879l-5.02 2.817c-.21.111-.45.18-.68.18z"/></g></g></g></g></svg>