<svg width="1900" height="1600" viewBox="0 0 1900 1600" fill="none" xmlns="http://www.w3.org/2000/svg"><g id="карточка=5, генерация=6"><g id="default"><path id="Vector" d="M875.21 887.3h-7.703a2.46 2.46 0 0 1-2.453-2.453 2.46 2.46 0 0 1 2.453-2.453h7.703a2.46 2.46 0 0 1 2.453 2.453 2.46 2.46 0 0 1-2.453 2.453Zm-20.092 0h-6.194a2.46 2.46 0 0 1-2.454-2.453 2.46 2.46 0 0 1 2.454-2.453h6.194a2.46 2.46 0 0 1 2.453 2.453 2.46 2.46 0 0 1-2.453 2.453Zm-18.583 0h-6.195a2.46 2.46 0 0 1-2.453-2.453 2.46 2.46 0 0 1 2.453-2.453h6.195a2.46 2.46 0 0 1 2.453 2.453 2.46 2.46 0 0 1-2.453 2.453Zm-18.583 0h-6.195a2.46 2.46 0 0 1-2.453-2.453 2.46 2.46 0 0 1 2.453-2.453h6.195a2.46 2.46 0 0 1 2.453 2.453 2.46 2.46 0 0 1-2.453 2.453Zm-18.584 0h-6.194a2.46 2.46 0 0 1-2.453-2.453 2.46 2.46 0 0 1 2.453-2.453h6.194a2.46 2.46 0 0 1 2.454 2.453 2.46 2.46 0 0 1-2.454 2.453Zm-18.583 0h-6.194a2.46 2.46 0 0 1-2.454-2.453 2.46 2.46 0 0 1 2.454-2.453h6.194a2.46 2.46 0 0 1 2.453 2.453 2.46 2.46 0 0 1-2.453 2.453Zm-18.583 0h-6.195a2.46 2.46 0 0 1-2.453-2.453 2.46 2.46 0 0 1 2.453-2.453h6.195a2.46 2.46 0 0 1 2.453 2.453 2.46 2.46 0 0 1-2.453 2.453Zm-18.056-1.901c-.65 0-1.3-.258-1.779-.761a8.573 8.573 0 0 1-2.367-5.912v-1.533a2.46 2.46 0 0 1 2.453-2.454 2.46 2.46 0 0 1 2.453 2.454v1.533c0 .944.356 1.852 1.019 2.539a2.459 2.459 0 0 1-.086 3.471 2.437 2.437 0 0 1-1.693.675v-.012Zm135.689-7.066a2.46 2.46 0 0 1-2.454-2.453v-6.194a2.46 2.46 0 0 1 2.454-2.453 2.46 2.46 0 0 1 2.453 2.453v6.194a2.46 2.46 0 0 1-2.453 2.453Zm-137.382-11.1a2.46 2.46 0 0 1-2.453-2.454v-6.194a2.46 2.46 0 0 1 2.453-2.453 2.46 2.46 0 0 1 2.453 2.453v6.194a2.46 2.46 0 0 1-2.453 2.454Zm137.382-7.483a2.46 2.46 0 0 1-2.454-2.453v-6.194a2.46 2.46 0 0 1 2.454-2.454 2.46 2.46 0 0 1 2.453 2.454v6.194a2.46 2.46 0 0 1-2.453 2.453Zm-137.382-11.101a2.46 2.46 0 0 1-2.453-2.453v-6.194a2.46 2.46 0 0 1 2.453-2.454 2.46 2.46 0 0 1 2.453 2.454v6.194a2.46 2.46 0 0 1-2.453 2.453Zm137.382-7.482a2.46 2.46 0 0 1-2.454-2.453v-6.195a2.46 2.46 0 0 1 2.454-2.453 2.46 2.46 0 0 1 2.453 2.453v6.195a2.46 2.46 0 0 1-2.453 2.453Zm-137.382-11.101a2.46 2.46 0 0 1-2.453-2.453v-6.195a2.46 2.46 0 0 1 2.453-2.453 2.46 2.46 0 0 1 2.453 2.453v6.195a2.46 2.46 0 0 1-2.453 2.453Zm137.382-7.482a2.46 2.46 0 0 1-2.454-2.454v-6.194a2.46 2.46 0 0 1 2.454-2.453 2.46 2.46 0 0 1 2.453 2.453v6.194a2.46 2.46 0 0 1-2.453 2.454Zm-137.382-11.101A2.46 2.46 0 0 1 740 809.03v-6.195a2.46 2.46 0 0 1 2.453-2.453 2.46 2.46 0 0 1 2.453 2.453v6.195a2.46 2.46 0 0 1-2.453 2.453ZM879.835 804a2.46 2.46 0 0 1-2.454-2.453v-6.194a2.46 2.46 0 0 1 2.454-2.454 2.46 2.46 0 0 1 2.453 2.454v6.194a2.46 2.46 0 0 1-2.453 2.453Zm-137.382-11.101a2.46 2.46 0 0 1-2.453-2.453v-6.194a2.46 2.46 0 0 1 2.453-2.453 2.46 2.46 0 0 1 2.453 2.453v6.194a2.46 2.46 0 0 1-2.453 2.453Zm137.382-7.482a2.46 2.46 0 0 1-2.454-2.453v-6.195a2.46 2.46 0 0 1 2.454-2.453 2.46 2.46 0 0 1 2.453 2.453v6.195a2.46 2.46 0 0 1-2.453 2.453Zm-137.382-11.101a2.46 2.46 0 0 1-2.453-2.453v-6.194a2.46 2.46 0 0 1 2.453-2.454 2.46 2.46 0 0 1 2.453 2.454v6.194a2.46 2.46 0 0 1-2.453 2.453Zm137.382-7.482a2.46 2.46 0 0 1-2.454-2.453v-6.195a2.46 2.46 0 0 1 2.454-2.453 2.46 2.46 0 0 1 2.453 2.453v6.195a2.46 2.46 0 0 1-2.453 2.453Zm-137.369-11.101h-.123c-1.349-.061-2.392-1.214-2.331-2.576a8.537 8.537 0 0 1 4.379-7.065 2.445 2.445 0 0 1 3.337.944 2.446 2.446 0 0 1-.945 3.337 3.65 3.65 0 0 0-1.877 3.029 2.453 2.453 0 0 1-2.453 2.331h.013Zm133.051-5.557c-.246 0-.479-.036-.724-.11a3.631 3.631 0 0 0-1.092-.16h-4.354a2.46 2.46 0 0 1-2.453-2.453 2.46 2.46 0 0 1 2.453-2.453h4.354c.859 0 1.718.123 2.54.38a2.449 2.449 0 0 1 1.619 3.067 2.463 2.463 0 0 1-2.343 1.729Zm-18.559-.27h-6.194a2.46 2.46 0 0 1-2.454-2.453 2.46 2.46 0 0 1 2.454-2.453h6.194a2.46 2.46 0 0 1 2.453 2.453 2.46 2.46 0 0 1-2.453 2.453Zm-18.583 0h-6.195a2.46 2.46 0 0 1-2.453-2.453A2.46 2.46 0 0 1 832.18 745h6.195a2.46 2.46 0 0 1 2.453 2.453 2.46 2.46 0 0 1-2.453 2.453Zm-18.583 0h-6.195a2.46 2.46 0 0 1-2.453-2.453 2.46 2.46 0 0 1 2.453-2.453h6.195a2.46 2.46 0 0 1 2.453 2.453 2.46 2.46 0 0 1-2.453 2.453Zm-18.584 0h-6.194a2.46 2.46 0 0 1-2.453-2.453 2.46 2.46 0 0 1 2.453-2.453h6.194a2.46 2.46 0 0 1 2.454 2.453 2.46 2.46 0 0 1-2.454 2.453Zm-18.583 0h-6.194a2.46 2.46 0 0 1-2.454-2.453 2.46 2.46 0 0 1 2.454-2.453h6.194a2.46 2.46 0 0 1 2.453 2.453 2.46 2.46 0 0 1-2.453 2.453Zm-18.583 0h-6.195a2.46 2.46 0 0 1-2.453-2.453 2.46 2.46 0 0 1 2.453-2.453h6.195a2.46 2.46 0 0 1 2.453 2.453 2.46 2.46 0 0 1-2.453 2.453Z" fill="#EAF2FE"/><path id="Vector_2" d="M1153.92 887.3h-7.7a2.457 2.457 0 0 1-2.45-2.453c0-1.349 1.1-2.453 2.45-2.453h7.7c1.35 0 2.46 1.104 2.46 2.453a2.466 2.466 0 0 1-2.46 2.453Zm-20.09 0h-6.19a2.466 2.466 0 0 1-2.46-2.453 2.466 2.466 0 0 1 2.46-2.453h6.19c1.35 0 2.45 1.104 2.45 2.453 0 1.349-1.1 2.453-2.45 2.453Zm-18.58 0h-6.2a2.457 2.457 0 0 1-2.45-2.453c0-1.349 1.1-2.453 2.45-2.453h6.2c1.35 0 2.45 1.104 2.45 2.453 0 1.349-1.1 2.453-2.45 2.453Zm-18.59 0h-6.19a2.457 2.457 0 0 1-2.45-2.453c0-1.349 1.1-2.453 2.45-2.453h6.19c1.35 0 2.46 1.104 2.46 2.453a2.466 2.466 0 0 1-2.46 2.453Zm-18.58 0h-6.19a2.466 2.466 0 0 1-2.46-2.453 2.466 2.466 0 0 1 2.46-2.453h6.19c1.35 0 2.45 1.104 2.45 2.453 0 1.349-1.1 2.453-2.45 2.453Zm-18.58 0h-6.2a2.457 2.457 0 0 1-2.45-2.453c0-1.349 1.1-2.453 2.45-2.453h6.2c1.35 0 2.45 1.104 2.45 2.453 0 1.349-1.1 2.453-2.45 2.453Zm-18.59 0h-6.19a2.457 2.457 0 0 1-2.45-2.453c0-1.349 1.1-2.453 2.45-2.453h6.19c1.35 0 2.46 1.104 2.46 2.453a2.466 2.466 0 0 1-2.46 2.453Zm-18.05-1.901c-.65 0-1.3-.258-1.78-.761a8.58 8.58 0 0 1-2.37-5.912v-1.533c0-1.35 1.11-2.454 2.46-2.454 1.34 0 2.45 1.104 2.45 2.454v1.533c0 .944.35 1.852 1.02 2.539.93.981.89 2.539-.09 3.471-.48.454-1.08.675-1.69.675v-.012Zm135.69-7.066a2.466 2.466 0 0 1-2.46-2.453v-6.194a2.466 2.466 0 0 1 2.46-2.453c1.35 0 2.45 1.104 2.45 2.453v6.194c0 1.349-1.1 2.453-2.45 2.453Zm-137.38-11.1a2.466 2.466 0 0 1-2.46-2.454v-6.194a2.466 2.466 0 0 1 2.46-2.453c1.34 0 2.45 1.104 2.45 2.453v6.194c0 1.35-1.11 2.454-2.45 2.454Zm137.38-7.483a2.466 2.466 0 0 1-2.46-2.453v-6.194c0-1.35 1.11-2.454 2.46-2.454 1.35 0 2.45 1.104 2.45 2.454v6.194c0 1.349-1.1 2.453-2.45 2.453Zm-137.38-11.101a2.466 2.466 0 0 1-2.46-2.453v-6.194c0-1.35 1.11-2.454 2.46-2.454 1.34 0 2.45 1.104 2.45 2.454v6.194a2.464 2.464 0 0 1-2.45 2.453Zm137.38-7.482a2.466 2.466 0 0 1-2.46-2.453v-6.195a2.466 2.466 0 0 1 2.46-2.453c1.35 0 2.45 1.104 2.45 2.453v6.195c0 1.349-1.1 2.453-2.45 2.453Zm-137.38-11.101a2.466 2.466 0 0 1-2.46-2.453v-6.195a2.466 2.466 0 0 1 2.46-2.453c1.34 0 2.45 1.104 2.45 2.453v6.195a2.464 2.464 0 0 1-2.45 2.453Zm137.38-7.482a2.466 2.466 0 0 1-2.46-2.454v-6.194a2.466 2.466 0 0 1 2.46-2.453c1.35 0 2.45 1.104 2.45 2.453v6.194c0 1.35-1.1 2.454-2.45 2.454Zm-137.38-11.101a2.466 2.466 0 0 1-2.46-2.453v-6.195a2.466 2.466 0 0 1 2.46-2.453c1.34 0 2.45 1.104 2.45 2.453v6.195a2.464 2.464 0 0 1-2.45 2.453ZM1158.55 804a2.466 2.466 0 0 1-2.46-2.453v-6.194c0-1.35 1.11-2.454 2.46-2.454 1.35 0 2.45 1.104 2.45 2.454v6.194c0 1.349-1.1 2.453-2.45 2.453Zm-137.38-11.101a2.466 2.466 0 0 1-2.46-2.453v-6.194a2.466 2.466 0 0 1 2.46-2.453c1.34 0 2.45 1.104 2.45 2.453v6.194a2.464 2.464 0 0 1-2.45 2.453Zm137.38-7.482a2.466 2.466 0 0 1-2.46-2.453v-6.195a2.466 2.466 0 0 1 2.46-2.453c1.35 0 2.45 1.104 2.45 2.453v6.195c0 1.349-1.1 2.453-2.45 2.453Zm-137.38-11.101a2.466 2.466 0 0 1-2.46-2.453v-6.194c0-1.35 1.11-2.454 2.46-2.454 1.34 0 2.45 1.104 2.45 2.454v6.194a2.464 2.464 0 0 1-2.45 2.453Zm137.38-7.482a2.466 2.466 0 0 1-2.46-2.453v-6.195a2.466 2.466 0 0 1 2.46-2.453c1.35 0 2.45 1.104 2.45 2.453v6.195c0 1.349-1.1 2.453-2.45 2.453Zm-137.37-11.101h-.12a2.464 2.464 0 0 1-2.34-2.576 8.544 8.544 0 0 1 4.38-7.065 2.445 2.445 0 0 1 3.34.944 2.446 2.446 0 0 1-.94 3.337 3.64 3.64 0 0 0-1.88 3.029 2.45 2.45 0 0 1-2.45 2.331h.01Zm133.05-5.557c-.25 0-.48-.036-.72-.11-.36-.11-.72-.16-1.1-.16h-4.35a2.457 2.457 0 0 1-2.45-2.453c0-1.349 1.1-2.453 2.45-2.453h4.35c.86 0 1.72.123 2.54.38 1.3.405 2.03 1.779 1.62 3.067a2.45 2.45 0 0 1-2.34 1.729Zm-18.56-.27h-6.19a2.465 2.465 0 0 1-2.46-2.453 2.466 2.466 0 0 1 2.46-2.453h6.19c1.35 0 2.45 1.104 2.45 2.453 0 1.35-1.1 2.453-2.45 2.453Zm-18.58 0h-6.2a2.457 2.457 0 0 1-2.45-2.453c0-1.349 1.1-2.453 2.45-2.453h6.2c1.35 0 2.45 1.104 2.45 2.453 0 1.35-1.1 2.453-2.45 2.453Zm-18.59 0h-6.19a2.457 2.457 0 0 1-2.45-2.453c0-1.349 1.1-2.453 2.45-2.453h6.19c1.35 0 2.46 1.104 2.46 2.453 0 1.35-1.11 2.453-2.46 2.453Zm-18.58 0h-6.19a2.465 2.465 0 0 1-2.46-2.453 2.466 2.466 0 0 1 2.46-2.453h6.19c1.35 0 2.45 1.104 2.45 2.453 0 1.35-1.1 2.453-2.45 2.453Zm-18.58 0h-6.2a2.457 2.457 0 0 1-2.45-2.453c0-1.349 1.1-2.453 2.45-2.453h6.2c1.35 0 2.45 1.104 2.45 2.453 0 1.35-1.1 2.453-2.45 2.453Zm-18.59 0h-6.19a2.457 2.457 0 0 1-2.45-2.453c0-1.349 1.1-2.453 2.45-2.453h6.19c1.35 0 2.46 1.104 2.46 2.453 0 1.35-1.11 2.453-2.46 2.453Z" fill="#EAF2FE"/><path id="Vector_3" d="M779.473 805.914c-.356 0-.724-.037-1.092-.11-2.993-.601-4.931-3.508-4.33-6.489 4.281-21.404 15.664-37.228 31.23-43.422 12.916-5.128 27.034-2.993 39.754 6.035a5.522 5.522 0 0 1 1.313 7.691 5.522 5.522 0 0 1-7.691 1.312c-9.568-6.783-19.969-8.488-29.292-4.784-12.033 4.784-20.95 17.651-24.483 35.327a5.528 5.528 0 0 1-5.409 4.44Z" fill="#575FE1"/><path id="Vector_4" d="M1097.18 877.34c-5.77 0-11.6-1.165-17.08-3.533-15.94-6.893-26.2-22.398-28.15-42.563 0-.086-.01-.16-.02-.246-3.12-33.217 7.33-61.012 27.29-72.554 14.05-8.12 30.46-6.857 45.03 3.471a5.516 5.516 0 0 1 1.31 7.691c-1.76 2.49-5.21 3.067-7.69 1.312-11.05-7.838-22.81-8.88-33.12-2.919-8.91 5.164-17.7 16.645-20.98 35.02 6.91-8.034 16.71-13.517 29.32-13.591h.23c17.63 0 37.33 12.389 41.75 40.16 2.66 16.743-2.15 30.849-13.54 39.693-6.82 5.299-15.48 8.034-24.34 8.034l-.01.025Zm-34.19-46.599c2.27 21.539 14.4 29.88 21.48 32.934 10.26 4.428 22.13 3.214 30.26-3.103 8.07-6.268 11.41-16.645 9.41-29.243-2.44-15.381-12.92-30.861-30.82-30.861h-.19c-11.75.073-26.63 8.046-30.15 30.26l.01.013Z" fill="#575FE1"/><g id="Group" fill="#2F2F45"><path id="Vector_5" d="M800.276 786.73c-.282.54-.429.883-.466.957-.27.625.024 1.337.638 1.607.625.269 1.349 0 1.607-.638.036-.086 3.802-8.574 13.517-13.395a1.215 1.215 0 0 0 .552-1.644 1.226 1.226 0 0 0-1.644-.552c-8.684 4.306-12.904 11.15-14.216 13.665h.012Z"/><path id="Vector_6" d="M798.019 784.007a1.252 1.252 0 0 0-.086.944l1.558 4.882c.11.344.356.614.675.749.331.134.699.134 1.018-.013l4.624-2.195a1.22 1.22 0 0 0 .577-1.632 1.218 1.218 0 0 0-1.632-.576l-3.361 1.594-1.128-3.545a1.225 1.225 0 0 0-1.546-.797 1.196 1.196 0 0 0-.711.601l.012-.012Z"/></g><path id="Vector_7" d="M844.238 777.003c-5.005 0-9.077-4.073-9.077-9.077 0-5.005 4.072-9.077 9.077-9.077s9.077 4.072 9.077 9.077c0 5.004-4.072 9.077-9.077 9.077Zm0-15.689a6.628 6.628 0 0 0-6.624 6.624 6.628 6.628 0 0 0 6.624 6.624 6.628 6.628 0 0 0 6.624-6.624 6.628 6.628 0 0 0-6.624-6.624Z" fill="#2F2F45"/><path id="Vector_8" d="M1123.65 777.003c-5 0-9.08-4.073-9.08-9.077 0-5.005 4.08-9.077 9.08-9.077s9.08 4.072 9.08 9.077c0 5.004-4.08 9.077-9.08 9.077Zm0-15.689c-3.64 0-6.62 2.969-6.62 6.624a6.622 6.622 0 0 0 6.62 6.624c3.66 0 6.62-2.969 6.62-6.624a6.622 6.622 0 0 0-6.62-6.624Z" fill="#2F2F45"/><g id="Group_2" fill="#2F2F45"><path id="Vector_9" d="M1089.55 807.214c-.61-.025-.98-.025-1.06-.013-.67.025-1.2.589-1.19 1.264.03.674.58 1.214 1.27 1.19.1 0 9.37-.184 17.85 6.599.52.429 1.3.331 1.73-.196.42-.528.34-1.301-.2-1.73-7.57-6.047-15.55-6.979-18.39-7.114h-.01Z"/><path id="Vector_10" d="M1091.07 804.013c-.32-.013-.64.098-.88.319l-3.77 3.471c-.26.245-.4.576-.39.932 0 .356.17.687.44.908l3.95 3.263c.53.429 1.3.355 1.73-.16.43-.515.36-1.3-.16-1.729l-2.86-2.368 2.74-2.514c.5-.454.53-1.239.07-1.73-.23-.245-.54-.38-.85-.392h-.02Z"/></g><g id="Group_3" fill="#2F2F45"><path id="Vector_11" d="M1099.18 858.732c.61.049.98.049 1.05.049.68 0 1.23-.552 1.22-1.227a1.23 1.23 0 0 0-1.23-1.226c-.1 0-9.37-.062-17.67-7.041a1.226 1.226 0 0 0-1.73.147c-.45.515-.37 1.288.14 1.73 7.41 6.243 15.37 7.372 18.21 7.58l.01-.012Z"/><path id="Vector_12" d="M1097.57 861.897c.32.024.64-.074.9-.307l3.85-3.373c.27-.233.42-.564.42-.92 0-.356-.16-.687-.42-.92l-3.87-3.361a1.214 1.214 0 0 0-1.72.123c-.45.515-.4 1.288.12 1.729l2.79 2.441-2.79 2.454a1.203 1.203 0 0 0-.11 1.729c.22.258.53.393.83.417v-.012Z"/></g></g><g id="success"><path id="Vector_13" d="M875.21 887.3h-7.703a2.46 2.46 0 0 1-2.453-2.453 2.46 2.46 0 0 1 2.453-2.453h7.703a2.46 2.46 0 0 1 2.453 2.453 2.46 2.46 0 0 1-2.453 2.453Zm-20.092 0h-6.194a2.46 2.46 0 0 1-2.454-2.453 2.46 2.46 0 0 1 2.454-2.453h6.194a2.46 2.46 0 0 1 2.453 2.453 2.46 2.46 0 0 1-2.453 2.453Zm-18.583 0h-6.195a2.46 2.46 0 0 1-2.453-2.453 2.46 2.46 0 0 1 2.453-2.453h6.195a2.46 2.46 0 0 1 2.453 2.453 2.46 2.46 0 0 1-2.453 2.453Zm-18.583 0h-6.195a2.46 2.46 0 0 1-2.453-2.453 2.46 2.46 0 0 1 2.453-2.453h6.195a2.46 2.46 0 0 1 2.453 2.453 2.46 2.46 0 0 1-2.453 2.453Zm-18.584 0h-6.194a2.46 2.46 0 0 1-2.453-2.453 2.46 2.46 0 0 1 2.453-2.453h6.194a2.46 2.46 0 0 1 2.454 2.453 2.46 2.46 0 0 1-2.454 2.453Zm-18.583 0h-6.194a2.46 2.46 0 0 1-2.454-2.453 2.46 2.46 0 0 1 2.454-2.453h6.194a2.46 2.46 0 0 1 2.453 2.453 2.46 2.46 0 0 1-2.453 2.453Zm-18.583 0h-6.195a2.46 2.46 0 0 1-2.453-2.453 2.46 2.46 0 0 1 2.453-2.453h6.195a2.46 2.46 0 0 1 2.453 2.453 2.46 2.46 0 0 1-2.453 2.453Zm-18.056-1.901c-.65 0-1.3-.258-1.779-.761a8.573 8.573 0 0 1-2.367-5.912v-1.533a2.46 2.46 0 0 1 2.453-2.454 2.46 2.46 0 0 1 2.453 2.454v1.533c0 .944.356 1.852 1.019 2.539a2.459 2.459 0 0 1-.086 3.471 2.437 2.437 0 0 1-1.693.675v-.012Zm135.689-7.066a2.46 2.46 0 0 1-2.454-2.453v-6.194a2.46 2.46 0 0 1 2.454-2.453 2.46 2.46 0 0 1 2.453 2.453v6.194a2.46 2.46 0 0 1-2.453 2.453Zm-137.382-11.1a2.46 2.46 0 0 1-2.453-2.454v-6.194a2.46 2.46 0 0 1 2.453-2.453 2.46 2.46 0 0 1 2.453 2.453v6.194a2.46 2.46 0 0 1-2.453 2.454Zm137.382-7.483a2.46 2.46 0 0 1-2.454-2.453v-6.194a2.46 2.46 0 0 1 2.454-2.454 2.46 2.46 0 0 1 2.453 2.454v6.194a2.46 2.46 0 0 1-2.453 2.453Zm-137.382-11.101a2.46 2.46 0 0 1-2.453-2.453v-6.194a2.46 2.46 0 0 1 2.453-2.454 2.46 2.46 0 0 1 2.453 2.454v6.194a2.46 2.46 0 0 1-2.453 2.453Zm137.382-7.482a2.46 2.46 0 0 1-2.454-2.453v-6.195a2.46 2.46 0 0 1 2.454-2.453 2.46 2.46 0 0 1 2.453 2.453v6.195a2.46 2.46 0 0 1-2.453 2.453Zm-137.382-11.101a2.46 2.46 0 0 1-2.453-2.453v-6.195a2.46 2.46 0 0 1 2.453-2.453 2.46 2.46 0 0 1 2.453 2.453v6.195a2.46 2.46 0 0 1-2.453 2.453Zm137.382-7.482a2.46 2.46 0 0 1-2.454-2.454v-6.194a2.46 2.46 0 0 1 2.454-2.453 2.46 2.46 0 0 1 2.453 2.453v6.194a2.46 2.46 0 0 1-2.453 2.454Zm-137.382-11.101A2.46 2.46 0 0 1 740 809.03v-6.195a2.46 2.46 0 0 1 2.453-2.453 2.46 2.46 0 0 1 2.453 2.453v6.195a2.46 2.46 0 0 1-2.453 2.453ZM879.835 804a2.46 2.46 0 0 1-2.454-2.453v-6.194a2.46 2.46 0 0 1 2.454-2.454 2.46 2.46 0 0 1 2.453 2.454v6.194a2.46 2.46 0 0 1-2.453 2.453Zm-137.382-11.101a2.46 2.46 0 0 1-2.453-2.453v-6.194a2.46 2.46 0 0 1 2.453-2.453 2.46 2.46 0 0 1 2.453 2.453v6.194a2.46 2.46 0 0 1-2.453 2.453Zm137.382-7.482a2.46 2.46 0 0 1-2.454-2.453v-6.195a2.46 2.46 0 0 1 2.454-2.453 2.46 2.46 0 0 1 2.453 2.453v6.195a2.46 2.46 0 0 1-2.453 2.453Zm-137.382-11.101a2.46 2.46 0 0 1-2.453-2.453v-6.194a2.46 2.46 0 0 1 2.453-2.454 2.46 2.46 0 0 1 2.453 2.454v6.194a2.46 2.46 0 0 1-2.453 2.453Zm137.382-7.482a2.46 2.46 0 0 1-2.454-2.453v-6.195a2.46 2.46 0 0 1 2.454-2.453 2.46 2.46 0 0 1 2.453 2.453v6.195a2.46 2.46 0 0 1-2.453 2.453Zm-137.369-11.101h-.123c-1.349-.061-2.392-1.214-2.331-2.576a8.537 8.537 0 0 1 4.379-7.065 2.445 2.445 0 0 1 3.337.944 2.446 2.446 0 0 1-.945 3.337 3.65 3.65 0 0 0-1.877 3.029 2.453 2.453 0 0 1-2.453 2.331h.013Zm133.051-5.557c-.246 0-.479-.036-.724-.11a3.631 3.631 0 0 0-1.092-.16h-4.354a2.46 2.46 0 0 1-2.453-2.453 2.46 2.46 0 0 1 2.453-2.453h4.354c.859 0 1.718.123 2.54.38a2.449 2.449 0 0 1 1.619 3.067 2.463 2.463 0 0 1-2.343 1.729Zm-18.559-.27h-6.194a2.46 2.46 0 0 1-2.454-2.453 2.46 2.46 0 0 1 2.454-2.453h6.194a2.46 2.46 0 0 1 2.453 2.453 2.46 2.46 0 0 1-2.453 2.453Zm-18.583 0h-6.195a2.46 2.46 0 0 1-2.453-2.453A2.46 2.46 0 0 1 832.18 745h6.195a2.46 2.46 0 0 1 2.453 2.453 2.46 2.46 0 0 1-2.453 2.453Zm-18.583 0h-6.195a2.46 2.46 0 0 1-2.453-2.453 2.46 2.46 0 0 1 2.453-2.453h6.195a2.46 2.46 0 0 1 2.453 2.453 2.46 2.46 0 0 1-2.453 2.453Zm-18.584 0h-6.194a2.46 2.46 0 0 1-2.453-2.453 2.46 2.46 0 0 1 2.453-2.453h6.194a2.46 2.46 0 0 1 2.454 2.453 2.46 2.46 0 0 1-2.454 2.453Zm-18.583 0h-6.194a2.46 2.46 0 0 1-2.454-2.453 2.46 2.46 0 0 1 2.454-2.453h6.194a2.46 2.46 0 0 1 2.453 2.453 2.46 2.46 0 0 1-2.453 2.453Zm-18.583 0h-6.195a2.46 2.46 0 0 1-2.453-2.453 2.46 2.46 0 0 1 2.453-2.453h6.195a2.46 2.46 0 0 1 2.453 2.453 2.46 2.46 0 0 1-2.453 2.453Z" fill="#EAF2FE"/><path id="Vector_14" d="M1153.92 887.3h-7.7a2.457 2.457 0 0 1-2.45-2.453c0-1.349 1.1-2.453 2.45-2.453h7.7c1.35 0 2.46 1.104 2.46 2.453a2.466 2.466 0 0 1-2.46 2.453Zm-20.09 0h-6.19a2.466 2.466 0 0 1-2.46-2.453 2.466 2.466 0 0 1 2.46-2.453h6.19c1.35 0 2.45 1.104 2.45 2.453 0 1.349-1.1 2.453-2.45 2.453Zm-18.58 0h-6.2a2.457 2.457 0 0 1-2.45-2.453c0-1.349 1.1-2.453 2.45-2.453h6.2c1.35 0 2.45 1.104 2.45 2.453 0 1.349-1.1 2.453-2.45 2.453Zm-18.59 0h-6.19a2.457 2.457 0 0 1-2.45-2.453c0-1.349 1.1-2.453 2.45-2.453h6.19c1.35 0 2.46 1.104 2.46 2.453a2.466 2.466 0 0 1-2.46 2.453Zm-18.58 0h-6.19a2.466 2.466 0 0 1-2.46-2.453 2.466 2.466 0 0 1 2.46-2.453h6.19c1.35 0 2.45 1.104 2.45 2.453 0 1.349-1.1 2.453-2.45 2.453Zm-18.58 0h-6.2a2.457 2.457 0 0 1-2.45-2.453c0-1.349 1.1-2.453 2.45-2.453h6.2c1.35 0 2.45 1.104 2.45 2.453 0 1.349-1.1 2.453-2.45 2.453Zm-18.59 0h-6.19a2.457 2.457 0 0 1-2.45-2.453c0-1.349 1.1-2.453 2.45-2.453h6.19c1.35 0 2.46 1.104 2.46 2.453a2.466 2.466 0 0 1-2.46 2.453Zm-18.05-1.901c-.65 0-1.3-.258-1.78-.761a8.58 8.58 0 0 1-2.37-5.912v-1.533c0-1.35 1.11-2.454 2.46-2.454 1.34 0 2.45 1.104 2.45 2.454v1.533c0 .944.35 1.852 1.02 2.539.93.981.89 2.539-.09 3.471-.48.454-1.08.675-1.69.675v-.012Zm135.69-7.066a2.466 2.466 0 0 1-2.46-2.453v-6.194a2.466 2.466 0 0 1 2.46-2.453c1.35 0 2.45 1.104 2.45 2.453v6.194c0 1.349-1.1 2.453-2.45 2.453Zm-137.38-11.1a2.466 2.466 0 0 1-2.46-2.454v-6.194a2.466 2.466 0 0 1 2.46-2.453c1.34 0 2.45 1.104 2.45 2.453v6.194c0 1.35-1.11 2.454-2.45 2.454Zm137.38-7.483a2.466 2.466 0 0 1-2.46-2.453v-6.194c0-1.35 1.11-2.454 2.46-2.454 1.35 0 2.45 1.104 2.45 2.454v6.194c0 1.349-1.1 2.453-2.45 2.453Zm-137.38-11.101a2.466 2.466 0 0 1-2.46-2.453v-6.194c0-1.35 1.11-2.454 2.46-2.454 1.34 0 2.45 1.104 2.45 2.454v6.194a2.464 2.464 0 0 1-2.45 2.453Zm137.38-7.482a2.466 2.466 0 0 1-2.46-2.453v-6.195a2.466 2.466 0 0 1 2.46-2.453c1.35 0 2.45 1.104 2.45 2.453v6.195c0 1.349-1.1 2.453-2.45 2.453Zm-137.38-11.101a2.466 2.466 0 0 1-2.46-2.453v-6.195a2.466 2.466 0 0 1 2.46-2.453c1.34 0 2.45 1.104 2.45 2.453v6.195a2.464 2.464 0 0 1-2.45 2.453Zm137.38-7.482a2.466 2.466 0 0 1-2.46-2.454v-6.194a2.466 2.466 0 0 1 2.46-2.453c1.35 0 2.45 1.104 2.45 2.453v6.194c0 1.35-1.1 2.454-2.45 2.454Zm-137.38-11.101a2.466 2.466 0 0 1-2.46-2.453v-6.195a2.466 2.466 0 0 1 2.46-2.453c1.34 0 2.45 1.104 2.45 2.453v6.195a2.464 2.464 0 0 1-2.45 2.453ZM1158.55 804a2.466 2.466 0 0 1-2.46-2.453v-6.194c0-1.35 1.11-2.454 2.46-2.454 1.35 0 2.45 1.104 2.45 2.454v6.194c0 1.349-1.1 2.453-2.45 2.453Zm-137.38-11.101a2.466 2.466 0 0 1-2.46-2.453v-6.194a2.466 2.466 0 0 1 2.46-2.453c1.34 0 2.45 1.104 2.45 2.453v6.194a2.464 2.464 0 0 1-2.45 2.453Zm137.38-7.482a2.466 2.466 0 0 1-2.46-2.453v-6.195a2.466 2.466 0 0 1 2.46-2.453c1.35 0 2.45 1.104 2.45 2.453v6.195c0 1.349-1.1 2.453-2.45 2.453Zm-137.38-11.101a2.466 2.466 0 0 1-2.46-2.453v-6.194c0-1.35 1.11-2.454 2.46-2.454 1.34 0 2.45 1.104 2.45 2.454v6.194a2.464 2.464 0 0 1-2.45 2.453Zm137.38-7.482a2.466 2.466 0 0 1-2.46-2.453v-6.195a2.466 2.466 0 0 1 2.46-2.453c1.35 0 2.45 1.104 2.45 2.453v6.195c0 1.349-1.1 2.453-2.45 2.453Zm-137.37-11.101h-.12a2.464 2.464 0 0 1-2.34-2.576 8.544 8.544 0 0 1 4.38-7.065 2.445 2.445 0 0 1 3.34.944 2.446 2.446 0 0 1-.94 3.337 3.64 3.64 0 0 0-1.88 3.029 2.45 2.45 0 0 1-2.45 2.331h.01Zm133.05-5.557c-.25 0-.48-.036-.72-.11-.36-.11-.72-.16-1.1-.16h-4.35a2.457 2.457 0 0 1-2.45-2.453c0-1.349 1.1-2.453 2.45-2.453h4.35c.86 0 1.72.123 2.54.38 1.3.405 2.03 1.779 1.62 3.067a2.45 2.45 0 0 1-2.34 1.729Zm-18.56-.27h-6.19a2.465 2.465 0 0 1-2.46-2.453 2.466 2.466 0 0 1 2.46-2.453h6.19c1.35 0 2.45 1.104 2.45 2.453 0 1.35-1.1 2.453-2.45 2.453Zm-18.58 0h-6.2a2.457 2.457 0 0 1-2.45-2.453c0-1.349 1.1-2.453 2.45-2.453h6.2c1.35 0 2.45 1.104 2.45 2.453 0 1.35-1.1 2.453-2.45 2.453Zm-18.59 0h-6.19a2.457 2.457 0 0 1-2.45-2.453c0-1.349 1.1-2.453 2.45-2.453h6.19c1.35 0 2.46 1.104 2.46 2.453 0 1.35-1.11 2.453-2.46 2.453Zm-18.58 0h-6.19a2.465 2.465 0 0 1-2.46-2.453 2.466 2.466 0 0 1 2.46-2.453h6.19c1.35 0 2.45 1.104 2.45 2.453 0 1.35-1.1 2.453-2.45 2.453Zm-18.58 0h-6.2a2.457 2.457 0 0 1-2.45-2.453c0-1.349 1.1-2.453 2.45-2.453h6.2c1.35 0 2.45 1.104 2.45 2.453 0 1.35-1.1 2.453-2.45 2.453Zm-18.59 0h-6.19a2.457 2.457 0 0 1-2.45-2.453c0-1.349 1.1-2.453 2.45-2.453h6.19c1.35 0 2.46 1.104 2.46 2.453 0 1.35-1.11 2.453-2.46 2.453Z" fill="#EAF2FE"/><path id="Vector_15" d="M779.473 805.914c-.356 0-.724-.037-1.092-.11-2.993-.601-4.931-3.508-4.33-6.489 4.281-21.404 15.664-37.228 31.23-43.422 12.916-5.128 27.034-2.993 39.754 6.035a5.522 5.522 0 0 1 1.313 7.691 5.522 5.522 0 0 1-7.691 1.312c-9.568-6.783-19.969-8.488-29.292-4.784-12.033 4.784-20.95 17.651-24.483 35.327a5.528 5.528 0 0 1-5.409 4.44Z" fill="#575FE1"/><path id="Vector_16" d="M1097.18 877.34c-5.77 0-11.6-1.165-17.08-3.533-15.94-6.893-26.2-22.398-28.15-42.563 0-.086-.01-.16-.02-.246-3.12-33.217 7.33-61.012 27.29-72.554 14.05-8.12 30.46-6.857 45.03 3.471a5.516 5.516 0 0 1 1.31 7.691c-1.76 2.49-5.21 3.067-7.69 1.312-11.05-7.838-22.81-8.88-33.12-2.919-8.91 5.164-17.7 16.645-20.98 35.02 6.91-8.034 16.71-13.517 29.32-13.591h.23c17.63 0 37.33 12.389 41.75 40.16 2.66 16.743-2.15 30.849-13.54 39.693-6.82 5.299-15.48 8.034-24.34 8.034l-.01.025Zm-34.19-46.599c2.27 21.539 14.4 29.88 21.48 32.934 10.26 4.428 22.13 3.214 30.26-3.103 8.07-6.268 11.41-16.645 9.41-29.243-2.44-15.381-12.92-30.861-30.82-30.861h-.19c-11.75.073-26.63 8.046-30.15 30.26l.01.013Z" fill="#575FE1"/><g id="Group_4" fill="#2F2F45"><path id="Vector_17" d="M800.276 786.73c-.282.54-.429.883-.466.957-.27.625.024 1.337.638 1.607.625.269 1.349 0 1.607-.638.036-.086 3.802-8.574 13.517-13.395a1.215 1.215 0 0 0 .552-1.644 1.226 1.226 0 0 0-1.644-.552c-8.684 4.306-12.904 11.15-14.216 13.665h.012Z"/><path id="Vector_18" d="M798.019 784.007a1.252 1.252 0 0 0-.086.944l1.558 4.882c.11.344.356.614.675.749.331.134.699.134 1.018-.013l4.624-2.195a1.22 1.22 0 0 0 .577-1.632 1.218 1.218 0 0 0-1.632-.576l-3.361 1.594-1.128-3.545a1.225 1.225 0 0 0-1.546-.797 1.196 1.196 0 0 0-.711.601l.012-.012Z"/></g><path id="Vector_19" d="M844.238 777.003c-5.005 0-9.077-4.073-9.077-9.077 0-5.005 4.072-9.077 9.077-9.077s9.077 4.072 9.077 9.077c0 5.004-4.072 9.077-9.077 9.077Zm0-15.689a6.628 6.628 0 0 0-6.624 6.624 6.628 6.628 0 0 0 6.624 6.624 6.628 6.628 0 0 0 6.624-6.624 6.628 6.628 0 0 0-6.624-6.624Z" fill="#2F2F45"/><path id="Vector_20" d="M1123.65 777.003c-5 0-9.08-4.073-9.08-9.077 0-5.005 4.08-9.077 9.08-9.077s9.08 4.072 9.08 9.077c0 5.004-4.08 9.077-9.08 9.077Zm0-15.689c-3.64 0-6.62 2.969-6.62 6.624a6.622 6.622 0 0 0 6.62 6.624c3.66 0 6.62-2.969 6.62-6.624a6.622 6.622 0 0 0-6.62-6.624Z" fill="#2F2F45"/><g id="Group_5" fill="#2F2F45"><path id="Vector_21" d="M1089.55 807.214c-.61-.025-.98-.025-1.06-.013-.67.025-1.2.589-1.19 1.264.03.674.58 1.214 1.27 1.19.1 0 9.37-.184 17.85 6.599.52.429 1.3.331 1.73-.196.42-.528.34-1.301-.2-1.73-7.57-6.047-15.55-6.979-18.39-7.114h-.01Z"/><path id="Vector_22" d="M1091.07 804.013c-.32-.013-.64.098-.88.319l-3.77 3.471c-.26.245-.4.576-.39.932 0 .356.17.687.44.908l3.95 3.263c.53.429 1.3.355 1.73-.16.43-.515.36-1.3-.16-1.729l-2.86-2.368 2.74-2.514c.5-.454.53-1.239.07-1.73-.23-.245-.54-.38-.85-.392h-.02Z"/></g><g id="Group_6" fill="#2F2F45"><path id="Vector_23" d="M1099.18 858.732c.61.049.98.049 1.05.049.68 0 1.23-.552 1.22-1.227a1.23 1.23 0 0 0-1.23-1.226c-.1 0-9.37-.062-17.67-7.041a1.226 1.226 0 0 0-1.73.147c-.45.515-.37 1.288.14 1.73 7.41 6.243 15.37 7.372 18.21 7.58l.01-.012Z"/><path id="Vector_24" d="M1097.57 861.897c.32.024.64-.074.9-.307l3.85-3.373c.27-.233.42-.564.42-.92 0-.356-.16-.687-.42-.92l-3.87-3.361a1.214 1.214 0 0 0-1.72.123c-.45.515-.4 1.288.12 1.729l2.79 2.441-2.79 2.454a1.203 1.203 0 0 0-.11 1.729c.22.258.53.393.83.417v-.012Z"/></g></g></g></svg>