<svg width="1900" height="1600" viewBox="0 0 1900 1600" fill="none" xmlns="http://www.w3.org/2000/svg"><g id="карточка=5, генерация=4"><g id="default"><path id="Vector" d="M785.934 887.01h-7.687a2.455 2.455 0 0 1-2.448-2.448 2.455 2.455 0 0 1 2.448-2.449h7.687a2.456 2.456 0 0 1 2.449 2.449 2.456 2.456 0 0 1-2.449 2.448Zm-20.051 0h-6.181a2.456 2.456 0 0 1-2.449-2.448 2.456 2.456 0 0 1 2.449-2.449h6.181a2.456 2.456 0 0 1 2.449 2.449 2.456 2.456 0 0 1-2.449 2.448Zm-18.545 0h-6.182a2.456 2.456 0 0 1-2.448-2.448 2.456 2.456 0 0 1 2.448-2.449h6.182a2.455 2.455 0 0 1 2.448 2.449 2.455 2.455 0 0 1-2.448 2.448Zm-18.545 0h-6.182a2.455 2.455 0 0 1-2.448-2.448 2.455 2.455 0 0 1 2.448-2.449h6.182a2.456 2.456 0 0 1 2.448 2.449 2.456 2.456 0 0 1-2.448 2.448Zm-18.546 0h-6.182a2.456 2.456 0 0 1-2.448-2.448 2.456 2.456 0 0 1 2.448-2.449h6.182a2.455 2.455 0 0 1 2.448 2.449 2.455 2.455 0 0 1-2.448 2.448Zm-18.545 0h-6.182a2.456 2.456 0 0 1-2.448-2.448 2.456 2.456 0 0 1 2.448-2.449h6.182a2.456 2.456 0 0 1 2.448 2.449 2.456 2.456 0 0 1-2.448 2.448Zm-18.546 0h-6.181a2.456 2.456 0 0 1-2.449-2.448 2.456 2.456 0 0 1 2.449-2.449h6.181a2.456 2.456 0 0 1 2.449 2.449 2.456 2.456 0 0 1-2.449 2.448Zm-18.018-1.898a2.446 2.446 0 0 1-1.775-.759 8.553 8.553 0 0 1-2.363-5.9v-1.53a2.456 2.456 0 0 1 2.448-2.448 2.455 2.455 0 0 1 2.448 2.448v1.53c0 .943.355 1.849 1.017 2.534.93.979.893 2.534-.086 3.464a2.43 2.43 0 0 1-1.689.674v-.013Zm135.411-7.051a2.455 2.455 0 0 1-2.448-2.448v-6.182a2.456 2.456 0 0 1 2.448-2.448 2.456 2.456 0 0 1 2.449 2.448v6.182a2.455 2.455 0 0 1-2.449 2.448Zm-137.101-11.078a2.455 2.455 0 0 1-2.448-2.448v-6.182a2.456 2.456 0 0 1 2.448-2.448 2.455 2.455 0 0 1 2.448 2.448v6.182a2.454 2.454 0 0 1-2.448 2.448Zm137.101-7.467a2.456 2.456 0 0 1-2.448-2.448v-6.182a2.456 2.456 0 0 1 2.448-2.448 2.456 2.456 0 0 1 2.449 2.448v6.182a2.456 2.456 0 0 1-2.449 2.448Zm-137.101-11.078A2.456 2.456 0 0 1 651 845.99v-6.182a2.455 2.455 0 0 1 2.448-2.448 2.454 2.454 0 0 1 2.448 2.448v6.182a2.455 2.455 0 0 1-2.448 2.448Zm137.101-7.467a2.456 2.456 0 0 1-2.448-2.448v-6.182a2.455 2.455 0 0 1 2.448-2.448 2.455 2.455 0 0 1 2.449 2.448v6.182a2.456 2.456 0 0 1-2.449 2.448Zm-137.101-11.078a2.456 2.456 0 0 1-2.448-2.449v-6.182a2.456 2.456 0 0 1 2.448-2.448 2.455 2.455 0 0 1 2.448 2.448v6.182a2.455 2.455 0 0 1-2.448 2.449Zm137.101-7.468a2.455 2.455 0 0 1-2.448-2.448v-6.182a2.456 2.456 0 0 1 2.448-2.448 2.456 2.456 0 0 1 2.449 2.448v6.182a2.455 2.455 0 0 1-2.449 2.448Zm-137.101-11.078a2.456 2.456 0 0 1-2.448-2.448v-6.182a2.456 2.456 0 0 1 2.448-2.448 2.455 2.455 0 0 1 2.448 2.448v6.182a2.455 2.455 0 0 1-2.448 2.448Zm137.101-7.467a2.456 2.456 0 0 1-2.448-2.448v-6.182a2.455 2.455 0 0 1 2.448-2.448 2.455 2.455 0 0 1 2.449 2.448v6.182a2.456 2.456 0 0 1-2.449 2.448Zm-137.101-11.078a2.456 2.456 0 0 1-2.448-2.448v-6.182a2.456 2.456 0 0 1 2.448-2.449 2.455 2.455 0 0 1 2.448 2.449v6.182a2.455 2.455 0 0 1-2.448 2.448Zm137.101-7.467a2.456 2.456 0 0 1-2.448-2.449v-6.181a2.456 2.456 0 0 1 2.448-2.449 2.456 2.456 0 0 1 2.449 2.449v6.181a2.456 2.456 0 0 1-2.449 2.449Zm-137.101-11.079a2.455 2.455 0 0 1-2.448-2.448v-6.182a2.456 2.456 0 0 1 2.448-2.448 2.455 2.455 0 0 1 2.448 2.448v6.182a2.454 2.454 0 0 1-2.448 2.448Zm137.101-7.467a2.455 2.455 0 0 1-2.448-2.448v-6.182a2.456 2.456 0 0 1 2.448-2.448 2.456 2.456 0 0 1 2.449 2.448v6.182a2.455 2.455 0 0 1-2.449 2.448ZM653.46 755.711h-.122c-1.346-.061-2.387-1.212-2.326-2.571a8.521 8.521 0 0 1 4.37-7.051 2.438 2.438 0 0 1 3.33.943 2.44 2.44 0 0 1-.943 3.33 3.642 3.642 0 0 0-1.873 3.023 2.447 2.447 0 0 1-2.448 2.326h.012Zm132.78-5.545c-.244 0-.477-.037-.722-.11a3.585 3.585 0 0 0-1.089-.16h-4.346a2.455 2.455 0 0 1-2.448-2.448 2.456 2.456 0 0 1 2.448-2.448h4.346c.857 0 1.713.122 2.534.379a2.443 2.443 0 0 1 1.615 3.061 2.444 2.444 0 0 1-2.338 1.726Zm-18.521-.27h-6.181a2.455 2.455 0 0 1-2.449-2.448 2.456 2.456 0 0 1 2.449-2.448h6.181a2.456 2.456 0 0 1 2.449 2.448 2.455 2.455 0 0 1-2.449 2.448Zm-18.545 0h-6.182a2.455 2.455 0 0 1-2.448-2.448 2.456 2.456 0 0 1 2.448-2.448h6.182a2.455 2.455 0 0 1 2.448 2.448 2.454 2.454 0 0 1-2.448 2.448Zm-18.545 0h-6.182a2.454 2.454 0 0 1-2.448-2.448 2.455 2.455 0 0 1 2.448-2.448h6.182a2.456 2.456 0 0 1 2.448 2.448 2.455 2.455 0 0 1-2.448 2.448Zm-18.546 0h-6.181a2.455 2.455 0 0 1-2.449-2.448 2.456 2.456 0 0 1 2.449-2.448h6.181a2.456 2.456 0 0 1 2.449 2.448 2.455 2.455 0 0 1-2.449 2.448Zm-18.545 0h-6.182a2.455 2.455 0 0 1-2.448-2.448 2.456 2.456 0 0 1 2.448-2.448h6.182a2.455 2.455 0 0 1 2.448 2.448 2.454 2.454 0 0 1-2.448 2.448Zm-18.545 0h-6.182a2.454 2.454 0 0 1-2.448-2.448 2.455 2.455 0 0 1 2.448-2.448h6.182a2.456 2.456 0 0 1 2.448 2.448 2.455 2.455 0 0 1-2.448 2.448Z" fill="#EAF2FE"/><path id="Vector_2" d="M1013.82 887.01h-7.69a2.455 2.455 0 0 1-2.45-2.448c0-1.347 1.1-2.449 2.45-2.449h7.69c1.34 0 2.44 1.102 2.44 2.449 0 1.346-1.1 2.448-2.44 2.448Zm-20.055 0h-6.182a2.456 2.456 0 0 1-2.448-2.448 2.456 2.456 0 0 1 2.448-2.449h6.182a2.456 2.456 0 0 1 2.448 2.449 2.456 2.456 0 0 1-2.448 2.448Zm-18.546 0h-6.181a2.456 2.456 0 0 1-2.449-2.448 2.456 2.456 0 0 1 2.449-2.449h6.181a2.456 2.456 0 0 1 2.449 2.449 2.456 2.456 0 0 1-2.449 2.448Zm-18.545 0h-6.182a2.456 2.456 0 0 1-2.448-2.448 2.456 2.456 0 0 1 2.448-2.449h6.182a2.455 2.455 0 0 1 2.448 2.449 2.455 2.455 0 0 1-2.448 2.448Zm-18.545 0h-6.182a2.455 2.455 0 0 1-2.448-2.448 2.455 2.455 0 0 1 2.448-2.449h6.182a2.456 2.456 0 0 1 2.448 2.449 2.456 2.456 0 0 1-2.448 2.448Zm-18.546 0h-6.181a2.456 2.456 0 0 1-2.449-2.448 2.456 2.456 0 0 1 2.449-2.449h6.181a2.456 2.456 0 0 1 2.449 2.449 2.456 2.456 0 0 1-2.449 2.448Zm-18.545 0h-6.182a2.456 2.456 0 0 1-2.448-2.448 2.456 2.456 0 0 1 2.448-2.449h6.182a2.455 2.455 0 0 1 2.448 2.449 2.455 2.455 0 0 1-2.448 2.448Zm-18.019-1.898a2.446 2.446 0 0 1-1.775-.759 8.552 8.552 0 0 1-2.362-5.9v-1.53a2.455 2.455 0 0 1 2.448-2.448 2.456 2.456 0 0 1 2.448 2.448v1.53c0 .943.355 1.849 1.016 2.534.93.979.894 2.534-.086 3.464a2.43 2.43 0 0 1-1.689.674v-.013Zm135.411-7.051a2.454 2.454 0 0 1-2.45-2.448v-6.182c0-1.346 1.1-2.448 2.45-2.448s2.45 1.102 2.45 2.448v6.182c0 1.347-1.1 2.448-2.45 2.448Zm-137.1-11.078a2.454 2.454 0 0 1-2.448-2.448v-6.182a2.455 2.455 0 0 1 2.448-2.448 2.456 2.456 0 0 1 2.448 2.448v6.182a2.455 2.455 0 0 1-2.448 2.448Zm137.1-7.467a2.455 2.455 0 0 1-2.45-2.448v-6.182c0-1.346 1.1-2.448 2.45-2.448s2.45 1.102 2.45 2.448v6.182c0 1.346-1.1 2.448-2.45 2.448Zm-137.1-11.078a2.455 2.455 0 0 1-2.448-2.448v-6.182a2.454 2.454 0 0 1 2.448-2.448 2.455 2.455 0 0 1 2.448 2.448v6.182a2.456 2.456 0 0 1-2.448 2.448Zm137.1-7.467a2.455 2.455 0 0 1-2.45-2.448v-6.182c0-1.347 1.1-2.448 2.45-2.448s2.45 1.101 2.45 2.448v6.182c0 1.346-1.1 2.448-2.45 2.448Zm-137.1-11.078a2.455 2.455 0 0 1-2.448-2.449v-6.182a2.455 2.455 0 0 1 2.448-2.448 2.456 2.456 0 0 1 2.448 2.448v6.182a2.456 2.456 0 0 1-2.448 2.449Zm137.1-7.468a2.454 2.454 0 0 1-2.45-2.448v-6.182c0-1.346 1.1-2.448 2.45-2.448s2.45 1.102 2.45 2.448v6.182c0 1.347-1.1 2.448-2.45 2.448Zm-137.1-11.078a2.455 2.455 0 0 1-2.448-2.448v-6.182a2.455 2.455 0 0 1 2.448-2.448 2.456 2.456 0 0 1 2.448 2.448v6.182a2.456 2.456 0 0 1-2.448 2.448Zm137.1-7.467a2.455 2.455 0 0 1-2.45-2.448v-6.182c0-1.347 1.1-2.448 2.45-2.448s2.45 1.101 2.45 2.448v6.182c0 1.346-1.1 2.448-2.45 2.448Zm-137.1-11.078a2.455 2.455 0 0 1-2.448-2.448v-6.182a2.455 2.455 0 0 1 2.448-2.449 2.456 2.456 0 0 1 2.448 2.449v6.182a2.456 2.456 0 0 1-2.448 2.448Zm137.1-7.467a2.455 2.455 0 0 1-2.45-2.449v-6.181c0-1.347 1.1-2.449 2.45-2.449s2.45 1.102 2.45 2.449v6.181c0 1.347-1.1 2.449-2.45 2.449Zm-137.1-11.079a2.454 2.454 0 0 1-2.448-2.448v-6.182a2.455 2.455 0 0 1 2.448-2.448 2.456 2.456 0 0 1 2.448 2.448v6.182a2.455 2.455 0 0 1-2.448 2.448Zm137.1-7.467a2.454 2.454 0 0 1-2.45-2.448v-6.182c0-1.346 1.1-2.448 2.45-2.448s2.45 1.102 2.45 2.448v6.182c0 1.347-1.1 2.448-2.45 2.448Zm-137.088-11.078h-.122c-1.347-.061-2.387-1.212-2.326-2.571a8.521 8.521 0 0 1 4.37-7.051 2.44 2.44 0 0 1 3.329.943 2.44 2.44 0 0 1-.942 3.33 3.64 3.64 0 0 0-1.873 3.023 2.448 2.448 0 0 1-2.448 2.326h.012Zm132.778-5.545c-.24 0-.48-.037-.72-.11a3.61 3.61 0 0 0-1.09-.16h-4.35a2.452 2.452 0 0 1-2.44-2.448c0-1.346 1.1-2.448 2.44-2.448h4.35c.86 0 1.71.122 2.53.379a2.447 2.447 0 0 1-.72 4.787Zm-18.519-.27h-6.182a2.455 2.455 0 0 1-2.448-2.448 2.456 2.456 0 0 1 2.448-2.448h6.182a2.455 2.455 0 0 1 2.448 2.448 2.454 2.454 0 0 1-2.448 2.448Zm-18.545 0h-6.182a2.454 2.454 0 0 1-2.448-2.448 2.455 2.455 0 0 1 2.448-2.448h6.182a2.456 2.456 0 0 1 2.448 2.448 2.455 2.455 0 0 1-2.448 2.448Zm-18.546 0h-6.181a2.455 2.455 0 0 1-2.449-2.448 2.456 2.456 0 0 1 2.449-2.448h6.181a2.456 2.456 0 0 1 2.449 2.448 2.455 2.455 0 0 1-2.449 2.448Zm-18.545 0h-6.182a2.455 2.455 0 0 1-2.448-2.448 2.456 2.456 0 0 1 2.448-2.448h6.182a2.456 2.456 0 0 1 2.448 2.448 2.455 2.455 0 0 1-2.448 2.448Zm-18.545 0h-6.182a2.455 2.455 0 0 1-2.449-2.448 2.456 2.456 0 0 1 2.449-2.448h6.182a2.456 2.456 0 0 1 2.448 2.448 2.455 2.455 0 0 1-2.448 2.448Zm-18.546 0h-6.182a2.455 2.455 0 0 1-2.448-2.448 2.456 2.456 0 0 1 2.448-2.448h6.182a2.455 2.455 0 0 1 2.448 2.448 2.454 2.454 0 0 1-2.448 2.448Z" fill="#EAF2FE"/><path id="Vector_3" d="M1241.7 887.01h-7.69a2.455 2.455 0 0 1-2.45-2.448c0-1.347 1.1-2.449 2.45-2.449h7.69c1.34 0 2.45 1.102 2.45 2.449a2.461 2.461 0 0 1-2.45 2.448Zm-20.05 0h-6.19a2.453 2.453 0 0 1-2.44-2.448c0-1.347 1.1-2.449 2.44-2.449h6.19c1.34 0 2.44 1.102 2.44 2.449 0 1.346-1.1 2.448-2.44 2.448Zm-18.55 0h-6.18a2.455 2.455 0 0 1-2.45-2.448c0-1.347 1.1-2.449 2.45-2.449h6.18c1.35 0 2.45 1.102 2.45 2.449 0 1.346-1.1 2.448-2.45 2.448Zm-18.54 0h-6.19a2.453 2.453 0 0 1-2.44-2.448c0-1.347 1.1-2.449 2.44-2.449h6.19c1.34 0 2.44 1.102 2.44 2.449 0 1.346-1.1 2.448-2.44 2.448Zm-18.55 0h-6.18a2.455 2.455 0 0 1-2.45-2.448c0-1.347 1.1-2.449 2.45-2.449h6.18c1.35 0 2.45 1.102 2.45 2.449 0 1.346-1.1 2.448-2.45 2.448Zm-18.55 0h-6.18a2.461 2.461 0 0 1-2.45-2.448 2.462 2.462 0 0 1 2.45-2.449h6.18c1.35 0 2.45 1.102 2.45 2.449 0 1.346-1.1 2.448-2.45 2.448Zm-18.54 0h-6.18a2.455 2.455 0 0 1-2.45-2.448c0-1.347 1.1-2.449 2.45-2.449h6.18c1.35 0 2.45 1.102 2.45 2.449 0 1.346-1.1 2.448-2.45 2.448Zm-18.02-1.898c-.65 0-1.3-.257-1.77-.759a8.551 8.551 0 0 1-2.37-5.9v-1.53c0-1.346 1.1-2.448 2.45-2.448s2.45 1.102 2.45 2.448v1.53a3.6 3.6 0 0 0 1.02 2.534 2.453 2.453 0 0 1-1.78 4.138v-.013Zm135.41-7.051a2.46 2.46 0 0 1-2.45-2.448v-6.182a2.461 2.461 0 0 1 2.45-2.448c1.35 0 2.45 1.102 2.45 2.448v6.182c0 1.347-1.1 2.448-2.45 2.448Zm-137.1-11.078a2.454 2.454 0 0 1-2.45-2.448v-6.182c0-1.346 1.1-2.448 2.45-2.448s2.45 1.102 2.45 2.448v6.182c0 1.347-1.1 2.448-2.45 2.448Zm137.1-7.467a2.461 2.461 0 0 1-2.45-2.448v-6.182a2.461 2.461 0 0 1 2.45-2.448c1.35 0 2.45 1.102 2.45 2.448v6.182c0 1.346-1.1 2.448-2.45 2.448Zm-137.1-11.078a2.455 2.455 0 0 1-2.45-2.448v-6.182c0-1.347 1.1-2.448 2.45-2.448s2.45 1.101 2.45 2.448v6.182c0 1.346-1.1 2.448-2.45 2.448Zm137.1-7.467a2.461 2.461 0 0 1-2.45-2.448v-6.182a2.46 2.46 0 0 1 2.45-2.448c1.35 0 2.45 1.101 2.45 2.448v6.182c0 1.346-1.1 2.448-2.45 2.448Zm-137.1-11.078a2.455 2.455 0 0 1-2.45-2.449v-6.182c0-1.346 1.1-2.448 2.45-2.448s2.45 1.102 2.45 2.448v6.182c0 1.347-1.1 2.449-2.45 2.449Zm137.1-7.468a2.46 2.46 0 0 1-2.45-2.448v-6.182a2.461 2.461 0 0 1 2.45-2.448c1.35 0 2.45 1.102 2.45 2.448v6.182c0 1.347-1.1 2.448-2.45 2.448Zm-137.1-11.078a2.455 2.455 0 0 1-2.45-2.448v-6.182c0-1.346 1.1-2.448 2.45-2.448s2.45 1.102 2.45 2.448v6.182c0 1.346-1.1 2.448-2.45 2.448Zm137.1-7.467a2.461 2.461 0 0 1-2.45-2.448v-6.182a2.46 2.46 0 0 1 2.45-2.448c1.35 0 2.45 1.101 2.45 2.448v6.182c0 1.346-1.1 2.448-2.45 2.448Zm-137.1-11.078a2.455 2.455 0 0 1-2.45-2.448v-6.182c0-1.347 1.1-2.449 2.45-2.449s2.45 1.102 2.45 2.449v6.182c0 1.346-1.1 2.448-2.45 2.448Zm137.1-7.467a2.462 2.462 0 0 1-2.45-2.449v-6.181a2.462 2.462 0 0 1 2.45-2.449c1.35 0 2.45 1.102 2.45 2.449v6.181c0 1.347-1.1 2.449-2.45 2.449Zm-137.1-11.079a2.454 2.454 0 0 1-2.45-2.448v-6.182c0-1.346 1.1-2.448 2.45-2.448s2.45 1.102 2.45 2.448v6.182c0 1.347-1.1 2.448-2.45 2.448Zm137.1-7.467a2.46 2.46 0 0 1-2.45-2.448v-6.182a2.461 2.461 0 0 1 2.45-2.448c1.35 0 2.45 1.102 2.45 2.448v6.182c0 1.347-1.1 2.448-2.45 2.448Zm-137.09-11.078h-.12a2.439 2.439 0 0 1-2.32-2.571 8.495 8.495 0 0 1 4.37-7.051 2.428 2.428 0 0 1 3.32.943 2.43 2.43 0 0 1-.94 3.33 3.644 3.644 0 0 0-1.87 3.023 2.447 2.447 0 0 1-2.45 2.326h.01Zm132.78-5.545c-.24 0-.47-.037-.72-.11-.35-.111-.71-.16-1.09-.16h-4.34a2.454 2.454 0 0 1-2.45-2.448c0-1.346 1.1-2.448 2.45-2.448h4.34c.86 0 1.72.122 2.54.379 1.29.404 2.02 1.775 1.61 3.061a2.45 2.45 0 0 1-2.34 1.726Zm-18.52-.27h-6.18a2.454 2.454 0 0 1-2.45-2.448c0-1.346 1.1-2.448 2.45-2.448h6.18c1.35 0 2.45 1.102 2.45 2.448 0 1.347-1.1 2.448-2.45 2.448Zm-18.54 0h-6.18a2.454 2.454 0 0 1-2.45-2.448c0-1.346 1.1-2.448 2.45-2.448h6.18c1.34 0 2.45 1.102 2.45 2.448a2.46 2.46 0 0 1-2.45 2.448Zm-18.55 0h-6.18a2.454 2.454 0 0 1-2.45-2.448c0-1.346 1.1-2.448 2.45-2.448h6.18c1.35 0 2.45 1.102 2.45 2.448 0 1.347-1.1 2.448-2.45 2.448Zm-18.54 0h-6.19a2.452 2.452 0 0 1-2.44-2.448c0-1.346 1.1-2.448 2.44-2.448h6.19c1.34 0 2.44 1.102 2.44 2.448 0 1.347-1.1 2.448-2.44 2.448Zm-18.55 0h-6.18a2.454 2.454 0 0 1-2.45-2.448c0-1.346 1.1-2.448 2.45-2.448h6.18c1.35 0 2.45 1.102 2.45 2.448 0 1.347-1.1 2.448-2.45 2.448Zm-18.54 0h-6.19a2.452 2.452 0 0 1-2.44-2.448c0-1.346 1.1-2.448 2.44-2.448h6.19c1.34 0 2.44 1.102 2.44 2.448 0 1.347-1.1 2.448-2.44 2.448Z" fill="#EAF2FE"/><g id="Group" fill="#2F2F45"><path id="Vector_4" d="M1210.69 808.618c-.1 0-.2 0-.28-.037a1.228 1.228 0 0 1-.91-1.481l4.63-19.28c.16-.661.82-1.065 1.48-.905.66.159 1.07.82.91 1.481l-4.63 19.28c-.13.563-.64.942-1.19.942h-.01Z"/><path id="Vector_5" d="M1210.4 809.819c-.1 0-.2 0-.28-.037a1.2 1.2 0 0 1-.8-.624l-2.38-4.53c-.31-.6-.08-1.334.52-1.652.6-.319 1.33-.086 1.65.514l1.73 3.293 3.02-2.142a1.216 1.216 0 0 1 1.7.293c.39.551.26 1.31-.29 1.702l-4.18 2.962c-.2.147-.45.221-.71.221h.02Z"/></g><path id="Vector_6" d="M693.624 838.424a5.587 5.587 0 0 1-2.069-.404 5.518 5.518 0 0 1-3.036-7.173c.172-.428 17.358-42.734 26.808-67.657a5.51 5.51 0 0 1 7.1-3.195 5.51 5.51 0 0 1 3.195 7.1c-9.499 25.046-26.735 67.473-26.906 67.902a5.505 5.505 0 0 1-5.105 3.44l.013-.013Z" fill="#575FE1"/><path id="Vector_7" d="M721.032 772.249c-4.995 0-9.059-4.064-9.059-9.059 0-4.994 4.064-9.058 9.059-9.058 4.994 0 9.058 4.064 9.058 9.058 0 4.995-4.064 9.059-9.058 9.059Zm0-15.657a6.615 6.615 0 0 0-6.611 6.611 6.615 6.615 0 0 0 6.611 6.61 6.614 6.614 0 0 0 6.61-6.61 6.614 6.614 0 0 0-6.61-6.611Z" fill="#2F2F45"/><path id="Vector_8" d="M943.515 839.306c-13.931 0-22.242-.857-22.793-.918a5.505 5.505 0 0 1-4.517-7.541c.171-.428 17.358-42.734 26.808-67.657a5.51 5.51 0 0 1 7.1-3.195 5.51 5.51 0 0 1 3.195 7.1c-7.174 18.888-18.729 47.667-24.054 60.851 8.765.428 24.813.747 45.292-1.004 3.024-.269 5.692 1.983 5.962 5.019a5.506 5.506 0 0 1-5.019 5.962c-12.486 1.065-23.32 1.395-31.986 1.395l.012-.012Z" fill="#575FE1"/><path id="Vector_9" d="M948.717 772.249c-4.994 0-9.058-4.064-9.058-9.059 0-4.994 4.064-9.058 9.058-9.058 4.995 0 9.059 4.064 9.059 9.058 0 4.995-4.064 9.059-9.059 9.059Zm0-15.657a6.615 6.615 0 0 0-6.61 6.611 6.615 6.615 0 0 0 6.61 6.61 6.615 6.615 0 0 0 6.611-6.61 6.615 6.615 0 0 0-6.611-6.611Z" fill="#2F2F45"/><path id="Vector_10" d="M1169.69 839.306c-13.93 0-22.24-.857-22.79-.918a5.53 5.53 0 0 1-4.14-2.644 5.53 5.53 0 0 1-.38-4.897c.18-.428 17.36-42.734 26.81-67.657a5.51 5.51 0 0 1 7.1-3.195 5.518 5.518 0 0 1 3.2 7.1c-7.18 18.888-18.73 47.667-24.06 60.851 8.77.428 24.82.734 45.3-1.004 3.03-.269 5.7 1.983 5.96 5.019.25 3.036-1.99 5.705-5.02 5.962-12.49 1.065-23.32 1.395-31.99 1.395l.01-.012Z" fill="#575FE1"/><path id="Vector_11" d="M1180.42 876.532c-.44 0-.9-.049-1.35-.171a5.499 5.499 0 0 1-4-6.684c.16-.637 16.18-64.486 27.66-104.405.85-2.926 3.9-4.615 6.82-3.77a5.498 5.498 0 0 1 3.77 6.818c-11.42 39.735-27.41 103.401-27.56 104.038a5.528 5.528 0 0 1-5.34 4.174Z" fill="#575FE1"/><path id="Vector_12" d="M1174.9 772.249c-5 0-9.06-4.064-9.06-9.059 0-4.994 4.06-9.058 9.06-9.058 4.99 0 9.06 4.064 9.06 9.058 0 4.995-4.07 9.059-9.06 9.059Zm0-15.657a6.613 6.613 0 0 0-6.61 6.611c0 3.647 2.96 6.61 6.61 6.61 3.65 0 6.61-2.963 6.61-6.61a6.613 6.613 0 0 0-6.61-6.611Z" fill="#2F2F45"/><g id="Group_2" fill="#2F2F45"><path id="Vector_13" d="M717.996 808.263c-.147 0-.294-.024-.441-.085a1.233 1.233 0 0 1-.71-1.58l7.088-18.52a1.23 1.23 0 0 1 1.579-.71c.637.244.943.954.71 1.579l-7.088 18.521a1.21 1.21 0 0 1-1.138.783v.012Z"/><path id="Vector_14" d="M717.555 809.414c-.147 0-.294-.024-.44-.085a1.216 1.216 0 0 1-.71-.723l-1.763-4.798a1.215 1.215 0 0 1 .722-1.567 1.215 1.215 0 0 1 1.567.722l1.285 3.477 3.281-1.738a1.225 1.225 0 0 1 1.652.501c.319.6.086 1.335-.501 1.653l-4.517 2.399c-.184.098-.38.147-.576.147v.012Z"/></g><g id="Group_3" fill="#2F2F45"><path id="Vector_15" d="M961.607 846.698a1.227 1.227 0 0 1-1.224-1.175 1.221 1.221 0 0 1 1.175-1.273l19.819-.845a1.22 1.22 0 0 1 1.273 1.175 1.213 1.213 0 0 1-1.175 1.273l-19.819.845h-.049Z"/><path id="Vector_16" d="M978.953 849.319c-.318 0-.649-.122-.881-.379a1.22 1.22 0 0 1 .049-1.727l2.693-2.558-2.901-2.313a1.236 1.236 0 0 1-.196-1.727 1.237 1.237 0 0 1 1.726-.195l3.99 3.195c.282.22.441.55.453.905a1.24 1.24 0 0 1-.379.943l-3.697 3.525a1.237 1.237 0 0 1-.845.343l-.012-.012Z"/></g></g><g id="success"><path id="Vector_17" d="M785.934 887.01h-7.687a2.455 2.455 0 0 1-2.448-2.448 2.455 2.455 0 0 1 2.448-2.449h7.687a2.456 2.456 0 0 1 2.449 2.449 2.456 2.456 0 0 1-2.449 2.448Zm-20.051 0h-6.181a2.456 2.456 0 0 1-2.449-2.448 2.456 2.456 0 0 1 2.449-2.449h6.181a2.456 2.456 0 0 1 2.449 2.449 2.456 2.456 0 0 1-2.449 2.448Zm-18.545 0h-6.182a2.456 2.456 0 0 1-2.448-2.448 2.456 2.456 0 0 1 2.448-2.449h6.182a2.455 2.455 0 0 1 2.448 2.449 2.455 2.455 0 0 1-2.448 2.448Zm-18.545 0h-6.182a2.455 2.455 0 0 1-2.448-2.448 2.455 2.455 0 0 1 2.448-2.449h6.182a2.456 2.456 0 0 1 2.448 2.449 2.456 2.456 0 0 1-2.448 2.448Zm-18.546 0h-6.182a2.456 2.456 0 0 1-2.448-2.448 2.456 2.456 0 0 1 2.448-2.449h6.182a2.455 2.455 0 0 1 2.448 2.449 2.455 2.455 0 0 1-2.448 2.448Zm-18.545 0h-6.182a2.456 2.456 0 0 1-2.448-2.448 2.456 2.456 0 0 1 2.448-2.449h6.182a2.456 2.456 0 0 1 2.448 2.449 2.456 2.456 0 0 1-2.448 2.448Zm-18.546 0h-6.181a2.456 2.456 0 0 1-2.449-2.448 2.456 2.456 0 0 1 2.449-2.449h6.181a2.456 2.456 0 0 1 2.449 2.449 2.456 2.456 0 0 1-2.449 2.448Zm-18.018-1.898a2.446 2.446 0 0 1-1.775-.759 8.553 8.553 0 0 1-2.363-5.9v-1.53a2.456 2.456 0 0 1 2.448-2.448 2.455 2.455 0 0 1 2.448 2.448v1.53c0 .943.355 1.849 1.017 2.534.93.979.893 2.534-.086 3.464a2.43 2.43 0 0 1-1.689.674v-.013Zm135.411-7.051a2.455 2.455 0 0 1-2.448-2.448v-6.182a2.456 2.456 0 0 1 2.448-2.448 2.456 2.456 0 0 1 2.449 2.448v6.182a2.455 2.455 0 0 1-2.449 2.448Zm-137.101-11.078a2.455 2.455 0 0 1-2.448-2.448v-6.182a2.456 2.456 0 0 1 2.448-2.448 2.455 2.455 0 0 1 2.448 2.448v6.182a2.454 2.454 0 0 1-2.448 2.448Zm137.101-7.467a2.456 2.456 0 0 1-2.448-2.448v-6.182a2.456 2.456 0 0 1 2.448-2.448 2.456 2.456 0 0 1 2.449 2.448v6.182a2.456 2.456 0 0 1-2.449 2.448Zm-137.101-11.078A2.456 2.456 0 0 1 651 845.99v-6.182a2.455 2.455 0 0 1 2.448-2.448 2.454 2.454 0 0 1 2.448 2.448v6.182a2.455 2.455 0 0 1-2.448 2.448Zm137.101-7.467a2.456 2.456 0 0 1-2.448-2.448v-6.182a2.455 2.455 0 0 1 2.448-2.448 2.455 2.455 0 0 1 2.449 2.448v6.182a2.456 2.456 0 0 1-2.449 2.448Zm-137.101-11.078a2.456 2.456 0 0 1-2.448-2.449v-6.182a2.456 2.456 0 0 1 2.448-2.448 2.455 2.455 0 0 1 2.448 2.448v6.182a2.455 2.455 0 0 1-2.448 2.449Zm137.101-7.468a2.455 2.455 0 0 1-2.448-2.448v-6.182a2.456 2.456 0 0 1 2.448-2.448 2.456 2.456 0 0 1 2.449 2.448v6.182a2.455 2.455 0 0 1-2.449 2.448Zm-137.101-11.078a2.456 2.456 0 0 1-2.448-2.448v-6.182a2.456 2.456 0 0 1 2.448-2.448 2.455 2.455 0 0 1 2.448 2.448v6.182a2.455 2.455 0 0 1-2.448 2.448Zm137.101-7.467a2.456 2.456 0 0 1-2.448-2.448v-6.182a2.455 2.455 0 0 1 2.448-2.448 2.455 2.455 0 0 1 2.449 2.448v6.182a2.456 2.456 0 0 1-2.449 2.448Zm-137.101-11.078a2.456 2.456 0 0 1-2.448-2.449v-6.181a2.456 2.456 0 0 1 2.448-2.449 2.455 2.455 0 0 1 2.448 2.449v6.181a2.455 2.455 0 0 1-2.448 2.449Zm137.101-7.467a2.456 2.456 0 0 1-2.448-2.449v-6.181a2.456 2.456 0 0 1 2.448-2.449 2.456 2.456 0 0 1 2.449 2.449v6.181a2.456 2.456 0 0 1-2.449 2.449Zm-137.101-11.079a2.455 2.455 0 0 1-2.448-2.448v-6.182a2.456 2.456 0 0 1 2.448-2.448 2.455 2.455 0 0 1 2.448 2.448v6.182a2.454 2.454 0 0 1-2.448 2.448Zm137.101-7.467a2.455 2.455 0 0 1-2.448-2.448v-6.182a2.456 2.456 0 0 1 2.448-2.448 2.456 2.456 0 0 1 2.449 2.448v6.182a2.455 2.455 0 0 1-2.449 2.448ZM653.46 755.711h-.122c-1.346-.061-2.387-1.212-2.326-2.571a8.521 8.521 0 0 1 4.37-7.051 2.438 2.438 0 0 1 3.33.943 2.44 2.44 0 0 1-.943 3.33 3.642 3.642 0 0 0-1.873 3.023 2.447 2.447 0 0 1-2.448 2.326h.012Zm132.78-5.545c-.244 0-.477-.037-.722-.11a3.585 3.585 0 0 0-1.089-.16h-4.346a2.455 2.455 0 0 1-2.448-2.448 2.456 2.456 0 0 1 2.448-2.448h4.346c.857 0 1.713.122 2.534.379a2.443 2.443 0 0 1 1.615 3.061 2.444 2.444 0 0 1-2.338 1.726Zm-18.521-.27h-6.181a2.455 2.455 0 0 1-2.449-2.448 2.456 2.456 0 0 1 2.449-2.448h6.181a2.456 2.456 0 0 1 2.449 2.448 2.455 2.455 0 0 1-2.449 2.448Zm-18.545 0h-6.182a2.455 2.455 0 0 1-2.448-2.448 2.456 2.456 0 0 1 2.448-2.448h6.182a2.455 2.455 0 0 1 2.448 2.448 2.454 2.454 0 0 1-2.448 2.448Zm-18.545 0h-6.182a2.454 2.454 0 0 1-2.448-2.448 2.455 2.455 0 0 1 2.448-2.448h6.182a2.456 2.456 0 0 1 2.448 2.448 2.455 2.455 0 0 1-2.448 2.448Zm-18.546 0h-6.181a2.455 2.455 0 0 1-2.449-2.448 2.456 2.456 0 0 1 2.449-2.448h6.181a2.456 2.456 0 0 1 2.449 2.448 2.455 2.455 0 0 1-2.449 2.448Zm-18.545 0h-6.182a2.455 2.455 0 0 1-2.448-2.448 2.456 2.456 0 0 1 2.448-2.448h6.182a2.455 2.455 0 0 1 2.448 2.448 2.454 2.454 0 0 1-2.448 2.448Zm-18.545 0h-6.182a2.454 2.454 0 0 1-2.448-2.448 2.455 2.455 0 0 1 2.448-2.448h6.182a2.456 2.456 0 0 1 2.448 2.448 2.455 2.455 0 0 1-2.448 2.448Z" fill="#EAF2FE"/><path id="Vector_18" d="M1013.82 887.01h-7.69a2.455 2.455 0 0 1-2.45-2.448c0-1.347 1.1-2.449 2.45-2.449h7.69c1.34 0 2.44 1.102 2.44 2.449 0 1.346-1.1 2.448-2.44 2.448Zm-20.055 0h-6.182a2.456 2.456 0 0 1-2.448-2.448 2.456 2.456 0 0 1 2.448-2.449h6.182a2.456 2.456 0 0 1 2.448 2.449 2.456 2.456 0 0 1-2.448 2.448Zm-18.546 0h-6.181a2.456 2.456 0 0 1-2.449-2.448 2.456 2.456 0 0 1 2.449-2.449h6.181a2.456 2.456 0 0 1 2.449 2.449 2.456 2.456 0 0 1-2.449 2.448Zm-18.545 0h-6.182a2.456 2.456 0 0 1-2.448-2.448 2.456 2.456 0 0 1 2.448-2.449h6.182a2.455 2.455 0 0 1 2.448 2.449 2.455 2.455 0 0 1-2.448 2.448Zm-18.545 0h-6.182a2.455 2.455 0 0 1-2.448-2.448 2.455 2.455 0 0 1 2.448-2.449h6.182a2.456 2.456 0 0 1 2.448 2.449 2.456 2.456 0 0 1-2.448 2.448Zm-18.546 0h-6.181a2.456 2.456 0 0 1-2.449-2.448 2.456 2.456 0 0 1 2.449-2.449h6.181a2.456 2.456 0 0 1 2.449 2.449 2.456 2.456 0 0 1-2.449 2.448Zm-18.545 0h-6.182a2.456 2.456 0 0 1-2.448-2.448 2.456 2.456 0 0 1 2.448-2.449h6.182a2.455 2.455 0 0 1 2.448 2.449 2.455 2.455 0 0 1-2.448 2.448Zm-18.019-1.898a2.446 2.446 0 0 1-1.775-.759 8.552 8.552 0 0 1-2.362-5.9v-1.53a2.455 2.455 0 0 1 2.448-2.448 2.456 2.456 0 0 1 2.448 2.448v1.53c0 .943.355 1.849 1.016 2.534.93.979.894 2.534-.086 3.464a2.43 2.43 0 0 1-1.689.674v-.013Zm135.411-7.051a2.454 2.454 0 0 1-2.45-2.448v-6.182c0-1.346 1.1-2.448 2.45-2.448s2.45 1.102 2.45 2.448v6.182c0 1.347-1.1 2.448-2.45 2.448Zm-137.1-11.078a2.454 2.454 0 0 1-2.448-2.448v-6.182a2.455 2.455 0 0 1 2.448-2.448 2.456 2.456 0 0 1 2.448 2.448v6.182a2.455 2.455 0 0 1-2.448 2.448Zm137.1-7.467a2.455 2.455 0 0 1-2.45-2.448v-6.182c0-1.346 1.1-2.448 2.45-2.448s2.45 1.102 2.45 2.448v6.182c0 1.346-1.1 2.448-2.45 2.448Zm-137.1-11.078a2.455 2.455 0 0 1-2.448-2.448v-6.182a2.454 2.454 0 0 1 2.448-2.448 2.455 2.455 0 0 1 2.448 2.448v6.182a2.456 2.456 0 0 1-2.448 2.448Zm137.1-7.467a2.455 2.455 0 0 1-2.45-2.448v-6.182c0-1.347 1.1-2.448 2.45-2.448s2.45 1.101 2.45 2.448v6.182c0 1.346-1.1 2.448-2.45 2.448Zm-137.1-11.078a2.455 2.455 0 0 1-2.448-2.449v-6.182a2.455 2.455 0 0 1 2.448-2.448 2.456 2.456 0 0 1 2.448 2.448v6.182a2.456 2.456 0 0 1-2.448 2.449Zm137.1-7.468a2.454 2.454 0 0 1-2.45-2.448v-6.182c0-1.346 1.1-2.448 2.45-2.448s2.45 1.102 2.45 2.448v6.182c0 1.347-1.1 2.448-2.45 2.448Zm-137.1-11.078a2.455 2.455 0 0 1-2.448-2.448v-6.182a2.455 2.455 0 0 1 2.448-2.448 2.456 2.456 0 0 1 2.448 2.448v6.182a2.456 2.456 0 0 1-2.448 2.448Zm137.1-7.467a2.455 2.455 0 0 1-2.45-2.448v-6.182c0-1.347 1.1-2.448 2.45-2.448s2.45 1.101 2.45 2.448v6.182c0 1.346-1.1 2.448-2.45 2.448Zm-137.1-11.078a2.455 2.455 0 0 1-2.448-2.449v-6.181a2.455 2.455 0 0 1 2.448-2.449 2.456 2.456 0 0 1 2.448 2.449v6.181a2.456 2.456 0 0 1-2.448 2.449Zm137.1-7.467a2.455 2.455 0 0 1-2.45-2.449v-6.181c0-1.347 1.1-2.449 2.45-2.449s2.45 1.102 2.45 2.449v6.181c0 1.347-1.1 2.449-2.45 2.449Zm-137.1-11.079a2.454 2.454 0 0 1-2.448-2.448v-6.182a2.455 2.455 0 0 1 2.448-2.448 2.456 2.456 0 0 1 2.448 2.448v6.182a2.455 2.455 0 0 1-2.448 2.448Zm137.1-7.467a2.454 2.454 0 0 1-2.45-2.448v-6.182c0-1.346 1.1-2.448 2.45-2.448s2.45 1.102 2.45 2.448v6.182c0 1.347-1.1 2.448-2.45 2.448Zm-137.088-11.078h-.122c-1.347-.061-2.387-1.212-2.326-2.571a8.521 8.521 0 0 1 4.37-7.051 2.44 2.44 0 0 1 3.329.943 2.44 2.44 0 0 1-.942 3.33 3.64 3.64 0 0 0-1.873 3.023 2.448 2.448 0 0 1-2.448 2.326h.012Zm132.778-5.545c-.24 0-.48-.037-.72-.11a3.61 3.61 0 0 0-1.09-.16h-4.35a2.452 2.452 0 0 1-2.44-2.448c0-1.346 1.1-2.448 2.44-2.448h4.35c.86 0 1.71.122 2.53.379a2.447 2.447 0 0 1-.72 4.787Zm-18.519-.27h-6.182a2.455 2.455 0 0 1-2.448-2.448 2.456 2.456 0 0 1 2.448-2.448h6.182a2.455 2.455 0 0 1 2.448 2.448 2.454 2.454 0 0 1-2.448 2.448Zm-18.545 0h-6.182a2.454 2.454 0 0 1-2.448-2.448 2.455 2.455 0 0 1 2.448-2.448h6.182a2.456 2.456 0 0 1 2.448 2.448 2.455 2.455 0 0 1-2.448 2.448Zm-18.546 0h-6.181a2.455 2.455 0 0 1-2.449-2.448 2.456 2.456 0 0 1 2.449-2.448h6.181a2.456 2.456 0 0 1 2.449 2.448 2.455 2.455 0 0 1-2.449 2.448Zm-18.545 0h-6.182a2.455 2.455 0 0 1-2.448-2.448 2.456 2.456 0 0 1 2.448-2.448h6.182a2.456 2.456 0 0 1 2.448 2.448 2.455 2.455 0 0 1-2.448 2.448Zm-18.545 0h-6.182a2.455 2.455 0 0 1-2.449-2.448 2.456 2.456 0 0 1 2.449-2.448h6.182a2.456 2.456 0 0 1 2.448 2.448 2.455 2.455 0 0 1-2.448 2.448Zm-18.546 0h-6.182a2.455 2.455 0 0 1-2.448-2.448 2.456 2.456 0 0 1 2.448-2.448h6.182a2.455 2.455 0 0 1 2.448 2.448 2.454 2.454 0 0 1-2.448 2.448Z" fill="#EAF2FE"/><path id="Vector_19" d="M1241.7 887.01h-7.69a2.455 2.455 0 0 1-2.45-2.448c0-1.347 1.1-2.449 2.45-2.449h7.69c1.34 0 2.45 1.102 2.45 2.449a2.461 2.461 0 0 1-2.45 2.448Zm-20.05 0h-6.19a2.453 2.453 0 0 1-2.44-2.448c0-1.347 1.1-2.449 2.44-2.449h6.19c1.34 0 2.44 1.102 2.44 2.449 0 1.346-1.1 2.448-2.44 2.448Zm-18.55 0h-6.18a2.455 2.455 0 0 1-2.45-2.448c0-1.347 1.1-2.449 2.45-2.449h6.18c1.35 0 2.45 1.102 2.45 2.449 0 1.346-1.1 2.448-2.45 2.448Zm-18.54 0h-6.19a2.453 2.453 0 0 1-2.44-2.448c0-1.347 1.1-2.449 2.44-2.449h6.19c1.34 0 2.44 1.102 2.44 2.449 0 1.346-1.1 2.448-2.44 2.448Zm-18.55 0h-6.18a2.455 2.455 0 0 1-2.45-2.448c0-1.347 1.1-2.449 2.45-2.449h6.18c1.35 0 2.45 1.102 2.45 2.449 0 1.346-1.1 2.448-2.45 2.448Zm-18.55 0h-6.18a2.461 2.461 0 0 1-2.45-2.448 2.462 2.462 0 0 1 2.45-2.449h6.18c1.35 0 2.45 1.102 2.45 2.449 0 1.346-1.1 2.448-2.45 2.448Zm-18.54 0h-6.18a2.455 2.455 0 0 1-2.45-2.448c0-1.347 1.1-2.449 2.45-2.449h6.18c1.35 0 2.45 1.102 2.45 2.449 0 1.346-1.1 2.448-2.45 2.448Zm-18.02-1.898c-.65 0-1.3-.257-1.77-.759a8.551 8.551 0 0 1-2.37-5.9v-1.53c0-1.346 1.1-2.448 2.45-2.448s2.45 1.102 2.45 2.448v1.53a3.6 3.6 0 0 0 1.02 2.534 2.453 2.453 0 0 1-1.78 4.138v-.013Zm135.41-7.051a2.46 2.46 0 0 1-2.45-2.448v-6.182a2.461 2.461 0 0 1 2.45-2.448c1.35 0 2.45 1.102 2.45 2.448v6.182c0 1.347-1.1 2.448-2.45 2.448Zm-137.1-11.078a2.454 2.454 0 0 1-2.45-2.448v-6.182c0-1.346 1.1-2.448 2.45-2.448s2.45 1.102 2.45 2.448v6.182c0 1.347-1.1 2.448-2.45 2.448Zm137.1-7.467a2.461 2.461 0 0 1-2.45-2.448v-6.182a2.461 2.461 0 0 1 2.45-2.448c1.35 0 2.45 1.102 2.45 2.448v6.182c0 1.346-1.1 2.448-2.45 2.448Zm-137.1-11.078a2.455 2.455 0 0 1-2.45-2.448v-6.182c0-1.347 1.1-2.448 2.45-2.448s2.45 1.101 2.45 2.448v6.182c0 1.346-1.1 2.448-2.45 2.448Zm137.1-7.467a2.461 2.461 0 0 1-2.45-2.448v-6.182a2.46 2.46 0 0 1 2.45-2.448c1.35 0 2.45 1.101 2.45 2.448v6.182c0 1.346-1.1 2.448-2.45 2.448Zm-137.1-11.078a2.455 2.455 0 0 1-2.45-2.449v-6.182c0-1.346 1.1-2.448 2.45-2.448s2.45 1.102 2.45 2.448v6.182c0 1.347-1.1 2.449-2.45 2.449Zm137.1-7.468a2.46 2.46 0 0 1-2.45-2.448v-6.182a2.461 2.461 0 0 1 2.45-2.448c1.35 0 2.45 1.102 2.45 2.448v6.182c0 1.347-1.1 2.448-2.45 2.448Zm-137.1-11.078a2.455 2.455 0 0 1-2.45-2.448v-6.182c0-1.346 1.1-2.448 2.45-2.448s2.45 1.102 2.45 2.448v6.182c0 1.346-1.1 2.448-2.45 2.448Zm137.1-7.467a2.461 2.461 0 0 1-2.45-2.448v-6.182a2.46 2.46 0 0 1 2.45-2.448c1.35 0 2.45 1.101 2.45 2.448v6.182c0 1.346-1.1 2.448-2.45 2.448Zm-137.1-11.078a2.455 2.455 0 0 1-2.45-2.449v-6.181c0-1.347 1.1-2.449 2.45-2.449s2.45 1.102 2.45 2.449v6.181c0 1.347-1.1 2.449-2.45 2.449Zm137.1-7.467a2.462 2.462 0 0 1-2.45-2.449v-6.181a2.462 2.462 0 0 1 2.45-2.449c1.35 0 2.45 1.102 2.45 2.449v6.181c0 1.347-1.1 2.449-2.45 2.449Zm-137.1-11.079a2.454 2.454 0 0 1-2.45-2.448v-6.182c0-1.346 1.1-2.448 2.45-2.448s2.45 1.102 2.45 2.448v6.182c0 1.347-1.1 2.448-2.45 2.448Zm137.1-7.467a2.46 2.46 0 0 1-2.45-2.448v-6.182a2.461 2.461 0 0 1 2.45-2.448c1.35 0 2.45 1.102 2.45 2.448v6.182c0 1.347-1.1 2.448-2.45 2.448Zm-137.09-11.078h-.12a2.439 2.439 0 0 1-2.32-2.571 8.495 8.495 0 0 1 4.37-7.051 2.428 2.428 0 0 1 3.32.943 2.43 2.43 0 0 1-.94 3.33 3.644 3.644 0 0 0-1.87 3.023 2.447 2.447 0 0 1-2.45 2.326h.01Zm132.78-5.545c-.24 0-.47-.037-.72-.11-.35-.111-.71-.16-1.09-.16h-4.34a2.454 2.454 0 0 1-2.45-2.448c0-1.346 1.1-2.448 2.45-2.448h4.34c.86 0 1.72.122 2.54.379 1.29.404 2.02 1.775 1.61 3.061a2.45 2.45 0 0 1-2.34 1.726Zm-18.52-.27h-6.18a2.454 2.454 0 0 1-2.45-2.448c0-1.346 1.1-2.448 2.45-2.448h6.18c1.35 0 2.45 1.102 2.45 2.448 0 1.347-1.1 2.448-2.45 2.448Zm-18.54 0h-6.18a2.454 2.454 0 0 1-2.45-2.448c0-1.346 1.1-2.448 2.45-2.448h6.18c1.34 0 2.45 1.102 2.45 2.448a2.46 2.46 0 0 1-2.45 2.448Zm-18.55 0h-6.18a2.454 2.454 0 0 1-2.45-2.448c0-1.346 1.1-2.448 2.45-2.448h6.18c1.35 0 2.45 1.102 2.45 2.448 0 1.347-1.1 2.448-2.45 2.448Zm-18.54 0h-6.19a2.452 2.452 0 0 1-2.44-2.448c0-1.346 1.1-2.448 2.44-2.448h6.19c1.34 0 2.44 1.102 2.44 2.448 0 1.347-1.1 2.448-2.44 2.448Zm-18.55 0h-6.18a2.454 2.454 0 0 1-2.45-2.448c0-1.346 1.1-2.448 2.45-2.448h6.18c1.35 0 2.45 1.102 2.45 2.448 0 1.347-1.1 2.448-2.45 2.448Zm-18.54 0h-6.19a2.452 2.452 0 0 1-2.44-2.448c0-1.346 1.1-2.448 2.44-2.448h6.19c1.34 0 2.44 1.102 2.44 2.448 0 1.347-1.1 2.448-2.44 2.448Z" fill="#EAF2FE"/><g id="Group_4" fill="#2F2F45"><path id="Vector_20" d="M1210.69 808.618c-.1 0-.2 0-.28-.037a1.228 1.228 0 0 1-.91-1.481l4.63-19.28c.16-.661.82-1.065 1.48-.905.66.159 1.07.82.91 1.481l-4.63 19.28c-.13.563-.64.942-1.19.942h-.01Z"/><path id="Vector_21" d="M1210.4 809.819c-.1 0-.2 0-.28-.037a1.2 1.2 0 0 1-.8-.624l-2.38-4.53c-.31-.6-.08-1.334.52-1.652.6-.319 1.33-.086 1.65.514l1.73 3.293 3.02-2.142a1.216 1.216 0 0 1 1.7.293c.39.551.26 1.31-.29 1.702l-4.18 2.962c-.2.147-.45.221-.71.221h.02Z"/></g><path id="Vector_22" d="M693.624 838.424a5.587 5.587 0 0 1-2.069-.404 5.518 5.518 0 0 1-3.036-7.173c.172-.428 17.358-42.734 26.808-67.657a5.51 5.51 0 0 1 7.1-3.195 5.51 5.51 0 0 1 3.195 7.1c-9.499 25.046-26.735 67.473-26.906 67.902a5.505 5.505 0 0 1-5.105 3.44l.013-.013Z" fill="#575FE1"/><path id="Vector_23" d="M721.032 772.249c-4.995 0-9.059-4.064-9.059-9.059 0-4.994 4.064-9.058 9.059-9.058 4.994 0 9.058 4.064 9.058 9.058 0 4.995-4.064 9.059-9.058 9.059Zm0-15.657a6.615 6.615 0 0 0-6.611 6.611 6.615 6.615 0 0 0 6.611 6.61 6.614 6.614 0 0 0 6.61-6.61 6.614 6.614 0 0 0-6.61-6.611Z" fill="#2F2F45"/><path id="Vector_24" d="M943.515 839.306c-13.931 0-22.242-.857-22.793-.918a5.505 5.505 0 0 1-4.517-7.541c.171-.428 17.358-42.734 26.808-67.657a5.51 5.51 0 0 1 7.1-3.195 5.51 5.51 0 0 1 3.195 7.1c-7.174 18.888-18.729 47.667-24.054 60.851 8.765.428 24.813.747 45.292-1.004 3.024-.269 5.692 1.983 5.962 5.019a5.506 5.506 0 0 1-5.019 5.962c-12.486 1.065-23.32 1.395-31.986 1.395l.012-.012Z" fill="#575FE1"/><path id="Vector_25" d="M948.717 772.249c-4.994 0-9.058-4.064-9.058-9.059 0-4.994 4.064-9.058 9.058-9.058 4.995 0 9.059 4.064 9.059 9.058 0 4.995-4.064 9.059-9.059 9.059Zm0-15.657a6.615 6.615 0 0 0-6.61 6.611 6.615 6.615 0 0 0 6.61 6.61 6.615 6.615 0 0 0 6.611-6.61 6.615 6.615 0 0 0-6.611-6.611Z" fill="#2F2F45"/><path id="Vector_26" d="M1169.69 839.306c-13.93 0-22.24-.857-22.79-.918a5.53 5.53 0 0 1-4.14-2.644 5.53 5.53 0 0 1-.38-4.897c.18-.428 17.36-42.734 26.81-67.657a5.51 5.51 0 0 1 7.1-3.195 5.518 5.518 0 0 1 3.2 7.1c-7.18 18.888-18.73 47.667-24.06 60.851 8.77.428 24.82.734 45.3-1.004 3.03-.269 5.7 1.983 5.96 5.019.25 3.036-1.99 5.705-5.02 5.962-12.49 1.065-23.32 1.395-31.99 1.395l.01-.012Z" fill="#575FE1"/><path id="Vector_27" d="M1180.42 876.532c-.44 0-.9-.049-1.35-.171a5.499 5.499 0 0 1-4-6.684c.16-.637 16.18-64.486 27.66-104.405.85-2.926 3.9-4.615 6.82-3.77a5.498 5.498 0 0 1 3.77 6.818c-11.42 39.735-27.41 103.401-27.56 104.038a5.528 5.528 0 0 1-5.34 4.174Z" fill="#575FE1"/><path id="Vector_28" d="M1174.9 772.249c-5 0-9.06-4.064-9.06-9.059 0-4.994 4.06-9.058 9.06-9.058 4.99 0 9.06 4.064 9.06 9.058 0 4.995-4.07 9.059-9.06 9.059Zm0-15.657a6.613 6.613 0 0 0-6.61 6.611c0 3.647 2.96 6.61 6.61 6.61 3.65 0 6.61-2.963 6.61-6.61a6.613 6.613 0 0 0-6.61-6.611Z" fill="#2F2F45"/><g id="Group_5" fill="#2F2F45"><path id="Vector_29" d="M717.996 808.263c-.147 0-.294-.024-.441-.085a1.233 1.233 0 0 1-.71-1.58l7.088-18.52a1.23 1.23 0 0 1 1.579-.71c.637.244.943.954.71 1.579l-7.088 18.521a1.21 1.21 0 0 1-1.138.783v.012Z"/><path id="Vector_30" d="M717.555 809.414c-.147 0-.294-.024-.44-.085a1.216 1.216 0 0 1-.71-.723l-1.763-4.798a1.215 1.215 0 0 1 .722-1.567 1.215 1.215 0 0 1 1.567.722l1.285 3.477 3.281-1.738a1.225 1.225 0 0 1 1.652.501c.319.6.086 1.335-.501 1.653l-4.517 2.399c-.184.098-.38.147-.576.147v.012Z"/></g><g id="Group_6" fill="#2F2F45"><path id="Vector_31" d="M961.607 846.698a1.227 1.227 0 0 1-1.224-1.175 1.221 1.221 0 0 1 1.175-1.273l19.819-.845a1.22 1.22 0 0 1 1.273 1.175 1.213 1.213 0 0 1-1.175 1.273l-19.819.845h-.049Z"/><path id="Vector_32" d="M978.953 849.319c-.318 0-.649-.122-.881-.379a1.22 1.22 0 0 1 .049-1.727l2.693-2.558-2.901-2.313a1.236 1.236 0 0 1-.196-1.727 1.237 1.237 0 0 1 1.726-.195l3.99 3.195c.282.22.441.55.453.905a1.24 1.24 0 0 1-.379.943l-3.697 3.525a1.237 1.237 0 0 1-.845.343l-.012-.012Z"/></g></g></g></svg>