<svg width="1900" height="1600" viewBox="0 0 1900 1600" fill="none" xmlns="http://www.w3.org/2000/svg"><g id="карточка=5, генерация=8"><g id="default"><path id="Vector" d="M672.094 887.178h-7.696a2.458 2.458 0 0 1-2.451-2.451 2.458 2.458 0 0 1 2.451-2.451h7.696a2.458 2.458 0 0 1 2.451 2.451 2.458 2.458 0 0 1-2.451 2.451Zm-20.075 0h-6.189a2.458 2.458 0 0 1-2.451-2.451 2.458 2.458 0 0 1 2.451-2.451h6.189a2.458 2.458 0 0 1 2.452 2.451 2.458 2.458 0 0 1-2.452 2.451Zm-18.567 0h-6.189a2.458 2.458 0 0 1-2.451-2.451 2.458 2.458 0 0 1 2.451-2.451h6.189a2.458 2.458 0 0 1 2.451 2.451 2.458 2.458 0 0 1-2.451 2.451Zm-18.567 0h-6.189a2.458 2.458 0 0 1-2.451-2.451 2.458 2.458 0 0 1 2.451-2.451h6.189a2.458 2.458 0 0 1 2.451 2.451 2.458 2.458 0 0 1-2.451 2.451Zm-18.568 0h-6.189a2.458 2.458 0 0 1-2.451-2.451 2.458 2.458 0 0 1 2.451-2.451h6.189a2.458 2.458 0 0 1 2.452 2.451 2.458 2.458 0 0 1-2.452 2.451Zm-18.567 0h-6.189a2.458 2.458 0 0 1-2.451-2.451 2.458 2.458 0 0 1 2.451-2.451h6.189a2.458 2.458 0 0 1 2.451 2.451 2.458 2.458 0 0 1-2.451 2.451Zm-18.567 0h-6.189a2.46 2.46 0 0 1-2.452-2.451 2.46 2.46 0 0 1 2.452-2.451h6.189a2.458 2.458 0 0 1 2.451 2.451 2.458 2.458 0 0 1-2.451 2.451Zm-18.041-1.9a2.452 2.452 0 0 1-1.777-.759 8.572 8.572 0 0 1-2.365-5.908v-1.532a2.458 2.458 0 0 1 2.451-2.451 2.458 2.458 0 0 1 2.451 2.451v1.532a3.64 3.64 0 0 0 1.018 2.537 2.458 2.458 0 0 1-.086 3.469 2.436 2.436 0 0 1-1.692.674v-.013Zm135.573-7.059a2.458 2.458 0 0 1-2.452-2.451v-6.189a2.458 2.458 0 0 1 2.452-2.451 2.458 2.458 0 0 1 2.451 2.451v6.189a2.458 2.458 0 0 1-2.451 2.451Zm-137.264-11.091a2.458 2.458 0 0 1-2.451-2.451v-6.189a2.458 2.458 0 0 1 2.451-2.452 2.458 2.458 0 0 1 2.451 2.452v6.189a2.458 2.458 0 0 1-2.451 2.451Zm137.264-7.476a2.458 2.458 0 0 1-2.452-2.451v-6.189a2.459 2.459 0 0 1 2.452-2.452 2.458 2.458 0 0 1 2.451 2.452v6.189a2.458 2.458 0 0 1-2.451 2.451ZM539.451 848.56a2.458 2.458 0 0 1-2.451-2.451v-6.189a2.458 2.458 0 0 1 2.451-2.451 2.458 2.458 0 0 1 2.451 2.451v6.189a2.458 2.458 0 0 1-2.451 2.451Zm137.264-7.476a2.458 2.458 0 0 1-2.452-2.451v-6.189a2.458 2.458 0 0 1 2.452-2.451 2.458 2.458 0 0 1 2.451 2.451v6.189a2.458 2.458 0 0 1-2.451 2.451Zm-137.264-11.091a2.458 2.458 0 0 1-2.451-2.451v-6.189a2.458 2.458 0 0 1 2.451-2.451 2.458 2.458 0 0 1 2.451 2.451v6.189a2.458 2.458 0 0 1-2.451 2.451Zm137.264-7.476a2.458 2.458 0 0 1-2.452-2.451v-6.189a2.458 2.458 0 0 1 2.452-2.451 2.458 2.458 0 0 1 2.451 2.451v6.189a2.458 2.458 0 0 1-2.451 2.451Zm-137.264-11.091a2.458 2.458 0 0 1-2.451-2.451v-6.19a2.458 2.458 0 0 1 2.451-2.451 2.458 2.458 0 0 1 2.451 2.451v6.19a2.458 2.458 0 0 1-2.451 2.451Zm137.264-7.476a2.458 2.458 0 0 1-2.452-2.451v-6.19a2.458 2.458 0 0 1 2.452-2.451 2.458 2.458 0 0 1 2.451 2.451v6.19a2.458 2.458 0 0 1-2.451 2.451Zm-137.264-11.092a2.458 2.458 0 0 1-2.451-2.451v-6.189a2.458 2.458 0 0 1 2.451-2.451 2.458 2.458 0 0 1 2.451 2.451v6.189a2.458 2.458 0 0 1-2.451 2.451Zm137.264-7.476a2.458 2.458 0 0 1-2.452-2.451v-6.189a2.458 2.458 0 0 1 2.452-2.451 2.458 2.458 0 0 1 2.451 2.451v6.189a2.458 2.458 0 0 1-2.451 2.451Zm-137.264-11.091A2.458 2.458 0 0 1 537 771.84v-6.189a2.458 2.458 0 0 1 2.451-2.451 2.458 2.458 0 0 1 2.451 2.451v6.189a2.458 2.458 0 0 1-2.451 2.451Zm137.264-7.476a2.458 2.458 0 0 1-2.452-2.451v-6.189a2.458 2.458 0 0 1 2.452-2.451 2.458 2.458 0 0 1 2.451 2.451v6.189a2.458 2.458 0 0 1-2.451 2.451Zm-137.252-11.091h-.122a2.456 2.456 0 0 1-2.329-2.574 8.527 8.527 0 0 1 4.376-7.059 2.443 2.443 0 0 1 3.333.943 2.443 2.443 0 0 1-.944 3.334 3.649 3.649 0 0 0-1.875 3.027 2.45 2.45 0 0 1-2.451 2.329h.012Zm132.938-5.552c-.246 0-.478-.037-.723-.11a3.598 3.598 0 0 0-1.091-.16h-4.351a2.458 2.458 0 0 1-2.451-2.451 2.458 2.458 0 0 1 2.451-2.451h4.351c.858 0 1.716.123 2.537.38a2.445 2.445 0 0 1 1.617 3.064 2.458 2.458 0 0 1-2.34 1.728Zm-18.543-.27h-6.189a2.458 2.458 0 0 1-2.451-2.451 2.458 2.458 0 0 1 2.451-2.451h6.189a2.458 2.458 0 0 1 2.451 2.451 2.458 2.458 0 0 1-2.451 2.451Zm-18.568 0h-6.189a2.458 2.458 0 0 1-2.451-2.451 2.458 2.458 0 0 1 2.451-2.451h6.189a2.458 2.458 0 0 1 2.452 2.451 2.458 2.458 0 0 1-2.452 2.451Zm-18.567 0h-6.189a2.458 2.458 0 0 1-2.451-2.451 2.458 2.458 0 0 1 2.451-2.451h6.189a2.458 2.458 0 0 1 2.451 2.451 2.458 2.458 0 0 1-2.451 2.451Zm-18.567 0h-6.189a2.46 2.46 0 0 1-2.452-2.451 2.46 2.46 0 0 1 2.452-2.451h6.189a2.458 2.458 0 0 1 2.451 2.451 2.458 2.458 0 0 1-2.451 2.451Zm-18.568 0h-6.189a2.458 2.458 0 0 1-2.451-2.451 2.458 2.458 0 0 1 2.451-2.451h6.189a2.458 2.458 0 0 1 2.452 2.451 2.458 2.458 0 0 1-2.452 2.451Zm-18.567 0h-6.189a2.458 2.458 0 0 1-2.451-2.451 2.458 2.458 0 0 1 2.451-2.451h6.189a2.458 2.458 0 0 1 2.451 2.451 2.458 2.458 0 0 1-2.451 2.451Z" fill="#EAF2FE"/><path id="Vector_2" d="M900.246 887.178h-7.696a2.458 2.458 0 0 1-2.452-2.451 2.458 2.458 0 0 1 2.452-2.451h7.696a2.458 2.458 0 0 1 2.451 2.451 2.458 2.458 0 0 1-2.451 2.451Zm-20.075 0h-6.189a2.458 2.458 0 0 1-2.451-2.451 2.458 2.458 0 0 1 2.451-2.451h6.189a2.458 2.458 0 0 1 2.451 2.451 2.458 2.458 0 0 1-2.451 2.451Zm-18.567 0h-6.189a2.458 2.458 0 0 1-2.451-2.451 2.458 2.458 0 0 1 2.451-2.451h6.189a2.458 2.458 0 0 1 2.451 2.451 2.458 2.458 0 0 1-2.451 2.451Zm-18.567 0h-6.19a2.458 2.458 0 0 1-2.451-2.451 2.458 2.458 0 0 1 2.451-2.451h6.19a2.458 2.458 0 0 1 2.451 2.451 2.458 2.458 0 0 1-2.451 2.451Zm-18.568 0h-6.189a2.458 2.458 0 0 1-2.451-2.451 2.458 2.458 0 0 1 2.451-2.451h6.189a2.458 2.458 0 0 1 2.451 2.451 2.458 2.458 0 0 1-2.451 2.451Zm-18.567 0h-6.189a2.458 2.458 0 0 1-2.451-2.451 2.458 2.458 0 0 1 2.451-2.451h6.189a2.458 2.458 0 0 1 2.451 2.451 2.458 2.458 0 0 1-2.451 2.451Zm-18.567 0h-6.189a2.458 2.458 0 0 1-2.452-2.451 2.458 2.458 0 0 1 2.452-2.451h6.189a2.458 2.458 0 0 1 2.451 2.451 2.458 2.458 0 0 1-2.451 2.451Zm-18.041-1.9a2.452 2.452 0 0 1-1.777-.759 8.567 8.567 0 0 1-2.365-5.908v-1.532a2.458 2.458 0 0 1 2.451-2.451 2.458 2.458 0 0 1 2.451 2.451v1.532c0 .944.356 1.851 1.017 2.537a2.457 2.457 0 0 1-.085 3.469 2.436 2.436 0 0 1-1.692.674v-.013Zm135.572-7.059a2.458 2.458 0 0 1-2.451-2.451v-6.189a2.458 2.458 0 0 1 2.451-2.451 2.458 2.458 0 0 1 2.452 2.451v6.189a2.458 2.458 0 0 1-2.452 2.451Zm-137.263-11.091a2.458 2.458 0 0 1-2.451-2.451v-6.189a2.458 2.458 0 0 1 2.451-2.452 2.458 2.458 0 0 1 2.451 2.452v6.189a2.458 2.458 0 0 1-2.451 2.451Zm137.263-7.476a2.458 2.458 0 0 1-2.451-2.451v-6.189a2.458 2.458 0 0 1 2.451-2.452 2.459 2.459 0 0 1 2.452 2.452v6.189a2.458 2.458 0 0 1-2.452 2.451ZM767.603 848.56a2.458 2.458 0 0 1-2.451-2.451v-6.189a2.458 2.458 0 0 1 2.451-2.451 2.458 2.458 0 0 1 2.451 2.451v6.189a2.458 2.458 0 0 1-2.451 2.451Zm137.263-7.476a2.458 2.458 0 0 1-2.451-2.451v-6.189a2.458 2.458 0 0 1 2.451-2.451 2.458 2.458 0 0 1 2.452 2.451v6.189a2.458 2.458 0 0 1-2.452 2.451Zm-137.263-11.091a2.458 2.458 0 0 1-2.451-2.451v-6.189a2.458 2.458 0 0 1 2.451-2.451 2.458 2.458 0 0 1 2.451 2.451v6.189a2.458 2.458 0 0 1-2.451 2.451Zm137.263-7.476a2.458 2.458 0 0 1-2.451-2.451v-6.189a2.458 2.458 0 0 1 2.451-2.451 2.458 2.458 0 0 1 2.452 2.451v6.189a2.458 2.458 0 0 1-2.452 2.451Zm-137.263-11.091a2.458 2.458 0 0 1-2.451-2.451v-6.19a2.458 2.458 0 0 1 2.451-2.451 2.458 2.458 0 0 1 2.451 2.451v6.19a2.458 2.458 0 0 1-2.451 2.451Zm137.263-7.476a2.458 2.458 0 0 1-2.451-2.451v-6.19a2.458 2.458 0 0 1 2.451-2.451 2.458 2.458 0 0 1 2.452 2.451v6.19a2.458 2.458 0 0 1-2.452 2.451Zm-137.263-11.092a2.458 2.458 0 0 1-2.451-2.451v-6.189a2.458 2.458 0 0 1 2.451-2.451 2.458 2.458 0 0 1 2.451 2.451v6.189a2.458 2.458 0 0 1-2.451 2.451Zm137.263-7.476a2.458 2.458 0 0 1-2.451-2.451v-6.189a2.458 2.458 0 0 1 2.451-2.451 2.458 2.458 0 0 1 2.452 2.451v6.189a2.458 2.458 0 0 1-2.452 2.451Zm-137.263-11.091a2.458 2.458 0 0 1-2.451-2.451v-6.189a2.458 2.458 0 0 1 2.451-2.451 2.458 2.458 0 0 1 2.451 2.451v6.189a2.458 2.458 0 0 1-2.451 2.451Zm137.263-7.476a2.458 2.458 0 0 1-2.451-2.451v-6.189a2.458 2.458 0 0 1 2.451-2.451 2.458 2.458 0 0 1 2.452 2.451v6.189a2.458 2.458 0 0 1-2.452 2.451Zm-137.251-11.091h-.122a2.456 2.456 0 0 1-2.329-2.574 8.528 8.528 0 0 1 4.375-7.059 2.44 2.44 0 0 1 3.334.943 2.443 2.443 0 0 1-.944 3.334 3.646 3.646 0 0 0-1.875 3.027 2.45 2.45 0 0 1-2.451 2.329h.012Zm132.937-5.552c-.245 0-.478-.037-.723-.11a3.587 3.587 0 0 0-1.09-.16h-4.351a2.458 2.458 0 0 1-2.451-2.451 2.458 2.458 0 0 1 2.451-2.451h4.351c.857 0 1.715.123 2.537.38a2.445 2.445 0 0 1 1.617 3.064 2.448 2.448 0 0 1-2.341 1.728Zm-18.542-.27h-6.189a2.458 2.458 0 0 1-2.452-2.451 2.458 2.458 0 0 1 2.452-2.451h6.189a2.458 2.458 0 0 1 2.451 2.451 2.458 2.458 0 0 1-2.451 2.451Zm-18.568 0h-6.189a2.458 2.458 0 0 1-2.451-2.451 2.458 2.458 0 0 1 2.451-2.451h6.189a2.458 2.458 0 0 1 2.451 2.451 2.458 2.458 0 0 1-2.451 2.451Zm-18.567 0h-6.189a2.458 2.458 0 0 1-2.451-2.451 2.458 2.458 0 0 1 2.451-2.451h6.189a2.458 2.458 0 0 1 2.451 2.451 2.458 2.458 0 0 1-2.451 2.451Zm-18.567 0h-6.189a2.458 2.458 0 0 1-2.452-2.451 2.458 2.458 0 0 1 2.452-2.451h6.189a2.458 2.458 0 0 1 2.451 2.451 2.458 2.458 0 0 1-2.451 2.451Zm-18.568 0h-6.189a2.458 2.458 0 0 1-2.451-2.451 2.458 2.458 0 0 1 2.451-2.451h6.189a2.458 2.458 0 0 1 2.451 2.451 2.458 2.458 0 0 1-2.451 2.451Zm-18.567 0h-6.189a2.458 2.458 0 0 1-2.451-2.451 2.458 2.458 0 0 1 2.451-2.451h6.189a2.458 2.458 0 0 1 2.451 2.451 2.458 2.458 0 0 1-2.451 2.451Z" fill="#EAF2FE"/><path id="Vector_3" d="M1128.4 887.178h-7.7a2.456 2.456 0 0 1-2.45-2.451c0-1.348 1.1-2.451 2.45-2.451h7.7c1.35 0 2.45 1.103 2.45 2.451s-1.1 2.451-2.45 2.451Zm-20.08 0h-6.19a2.456 2.456 0 0 1-2.45-2.451c0-1.348 1.1-2.451 2.45-2.451h6.19c1.35 0 2.45 1.103 2.45 2.451s-1.1 2.451-2.45 2.451Zm-18.57 0h-6.18a2.465 2.465 0 0 1-2.46-2.451 2.465 2.465 0 0 1 2.46-2.451h6.18c1.35 0 2.46 1.103 2.46 2.451a2.465 2.465 0 0 1-2.46 2.451Zm-18.56 0H1065a2.456 2.456 0 0 1-2.45-2.451c0-1.348 1.1-2.451 2.45-2.451h6.19c1.35 0 2.45 1.103 2.45 2.451s-1.1 2.451-2.45 2.451Zm-18.57 0h-6.19a2.456 2.456 0 0 1-2.45-2.451c0-1.348 1.1-2.451 2.45-2.451h6.19c1.35 0 2.45 1.103 2.45 2.451s-1.1 2.451-2.45 2.451Zm-18.57 0h-6.19a2.463 2.463 0 0 1-2.45-2.451 2.463 2.463 0 0 1 2.45-2.451h6.19c1.35 0 2.45 1.103 2.45 2.451s-1.1 2.451-2.45 2.451Zm-18.56 0h-6.19a2.456 2.456 0 0 1-2.45-2.451c0-1.348 1.1-2.451 2.45-2.451h6.19c1.34 0 2.45 1.103 2.45 2.451a2.463 2.463 0 0 1-2.45 2.451Zm-18.045-1.9a2.452 2.452 0 0 1-1.777-.759 8.567 8.567 0 0 1-2.365-5.908v-1.532a2.458 2.458 0 0 1 2.451-2.451 2.458 2.458 0 0 1 2.451 2.451v1.532c0 .944.355 1.851 1.017 2.537a2.457 2.457 0 0 1-.086 3.469 2.434 2.434 0 0 1-1.691.674v-.013Zm135.575-7.059a2.456 2.456 0 0 1-2.45-2.451v-6.189c0-1.348 1.1-2.451 2.45-2.451s2.45 1.103 2.45 2.451v6.189c0 1.348-1.1 2.451-2.45 2.451Zm-137.266-11.091a2.458 2.458 0 0 1-2.451-2.451v-6.189a2.458 2.458 0 0 1 2.451-2.452 2.458 2.458 0 0 1 2.451 2.452v6.189a2.458 2.458 0 0 1-2.451 2.451Zm137.266-7.476a2.456 2.456 0 0 1-2.45-2.451v-6.189c0-1.349 1.1-2.452 2.45-2.452s2.45 1.103 2.45 2.452v6.189c0 1.348-1.1 2.451-2.45 2.451ZM995.754 848.56a2.458 2.458 0 0 1-2.451-2.451v-6.189a2.458 2.458 0 0 1 2.451-2.451 2.458 2.458 0 0 1 2.451 2.451v6.189a2.458 2.458 0 0 1-2.451 2.451Zm137.266-7.476a2.456 2.456 0 0 1-2.45-2.451v-6.189c0-1.348 1.1-2.451 2.45-2.451s2.45 1.103 2.45 2.451v6.189c0 1.348-1.1 2.451-2.45 2.451Zm-137.266-11.091a2.458 2.458 0 0 1-2.451-2.451v-6.189a2.458 2.458 0 0 1 2.451-2.451 2.458 2.458 0 0 1 2.451 2.451v6.189a2.458 2.458 0 0 1-2.451 2.451Zm137.266-7.476a2.456 2.456 0 0 1-2.45-2.451v-6.189c0-1.348 1.1-2.451 2.45-2.451s2.45 1.103 2.45 2.451v6.189c0 1.348-1.1 2.451-2.45 2.451Zm-137.266-11.091a2.458 2.458 0 0 1-2.451-2.451v-6.19a2.458 2.458 0 0 1 2.451-2.451 2.458 2.458 0 0 1 2.451 2.451v6.19a2.458 2.458 0 0 1-2.451 2.451Zm137.266-7.476a2.456 2.456 0 0 1-2.45-2.451v-6.19c0-1.348 1.1-2.451 2.45-2.451s2.45 1.103 2.45 2.451v6.19c0 1.348-1.1 2.451-2.45 2.451Zm-137.266-11.092a2.458 2.458 0 0 1-2.451-2.451v-6.189a2.458 2.458 0 0 1 2.451-2.451 2.458 2.458 0 0 1 2.451 2.451v6.189a2.458 2.458 0 0 1-2.451 2.451Zm137.266-7.476a2.456 2.456 0 0 1-2.45-2.451v-6.189c0-1.348 1.1-2.451 2.45-2.451s2.45 1.103 2.45 2.451v6.189c0 1.348-1.1 2.451-2.45 2.451Zm-137.266-11.091a2.458 2.458 0 0 1-2.451-2.451v-6.189a2.458 2.458 0 0 1 2.451-2.451 2.458 2.458 0 0 1 2.451 2.451v6.189a2.458 2.458 0 0 1-2.451 2.451Zm137.266-7.476a2.456 2.456 0 0 1-2.45-2.451v-6.189c0-1.348 1.1-2.451 2.45-2.451s2.45 1.103 2.45 2.451v6.189c0 1.348-1.1 2.451-2.45 2.451Zm-137.254-11.091h-.122a2.455 2.455 0 0 1-2.329-2.574 8.528 8.528 0 0 1 4.375-7.059 2.439 2.439 0 0 1 3.33.943 2.434 2.434 0 0 1-.94 3.334 3.646 3.646 0 0 0-1.875 3.027 2.45 2.45 0 0 1-2.451 2.329h.012Zm132.934-5.552c-.24 0-.47-.037-.72-.11a3.61 3.61 0 0 0-1.09-.16h-4.35a2.456 2.456 0 0 1-2.45-2.451c0-1.348 1.1-2.451 2.45-2.451h4.35c.86 0 1.72.123 2.54.38a2.436 2.436 0 0 1 1.61 3.064 2.45 2.45 0 0 1-2.34 1.728Zm-18.54-.27h-6.19a2.456 2.456 0 0 1-2.45-2.451c0-1.348 1.1-2.451 2.45-2.451h6.19c1.35 0 2.45 1.103 2.45 2.451s-1.1 2.451-2.45 2.451Zm-18.57 0h-6.19a2.463 2.463 0 0 1-2.45-2.451 2.463 2.463 0 0 1 2.45-2.451h6.19c1.35 0 2.45 1.103 2.45 2.451s-1.1 2.451-2.45 2.451Zm-18.56 0h-6.19a2.456 2.456 0 0 1-2.45-2.451c0-1.348 1.1-2.451 2.45-2.451h6.19c1.34 0 2.45 1.103 2.45 2.451a2.463 2.463 0 0 1-2.45 2.451Zm-18.57 0h-6.19a2.456 2.456 0 0 1-2.45-2.451c0-1.348 1.1-2.451 2.45-2.451h6.19c1.35 0 2.45 1.103 2.45 2.451s-1.1 2.451-2.45 2.451Zm-18.57 0h-6.19a2.456 2.456 0 0 1-2.45-2.451c0-1.348 1.1-2.451 2.45-2.451h6.19c1.35 0 2.45 1.103 2.45 2.451s-1.1 2.451-2.45 2.451Zm-18.57 0h-6.19a2.463 2.463 0 0 1-2.45-2.451 2.463 2.463 0 0 1 2.45-2.451h6.19c1.35 0 2.45 1.103 2.45 2.451s-1.1 2.451-2.45 2.451Z" fill="#EAF2FE"/><path id="Vector_4" d="M1356.55 887.178h-7.7a2.456 2.456 0 0 1-2.45-2.451c0-1.348 1.1-2.451 2.45-2.451h7.7c1.35 0 2.45 1.103 2.45 2.451s-1.1 2.451-2.45 2.451Zm-20.08 0h-6.19a2.463 2.463 0 0 1-2.45-2.451 2.463 2.463 0 0 1 2.45-2.451h6.19c1.35 0 2.46 1.103 2.46 2.451a2.465 2.465 0 0 1-2.46 2.451Zm-18.56 0h-6.19a2.456 2.456 0 0 1-2.45-2.451c0-1.348 1.1-2.451 2.45-2.451h6.19c1.34 0 2.45 1.103 2.45 2.451a2.463 2.463 0 0 1-2.45 2.451Zm-18.57 0h-6.19a2.456 2.456 0 0 1-2.45-2.451c0-1.348 1.1-2.451 2.45-2.451h6.19c1.35 0 2.45 1.103 2.45 2.451s-1.1 2.451-2.45 2.451Zm-18.57 0h-6.19a2.456 2.456 0 0 1-2.45-2.451c0-1.348 1.1-2.451 2.45-2.451h6.19c1.35 0 2.45 1.103 2.45 2.451s-1.1 2.451-2.45 2.451Zm-18.57 0h-6.18a2.465 2.465 0 0 1-2.46-2.451 2.465 2.465 0 0 1 2.46-2.451h6.18c1.35 0 2.46 1.103 2.46 2.451a2.465 2.465 0 0 1-2.46 2.451Zm-18.56 0h-6.19a2.456 2.456 0 0 1-2.45-2.451c0-1.348 1.1-2.451 2.45-2.451h6.19c1.35 0 2.45 1.103 2.45 2.451s-1.1 2.451-2.45 2.451Zm-18.04-1.9c-.65 0-1.3-.257-1.78-.759a8.572 8.572 0 0 1-2.37-5.908v-1.532a2.465 2.465 0 0 1 2.46-2.451c1.34 0 2.45 1.103 2.45 2.451v1.532c0 .944.35 1.851 1.01 2.537a2.45 2.45 0 0 1-1.77 4.143v-.013Zm135.57-7.059a2.456 2.456 0 0 1-2.45-2.451v-6.189c0-1.348 1.1-2.451 2.45-2.451s2.45 1.103 2.45 2.451v6.189c0 1.348-1.1 2.451-2.45 2.451Zm-137.26-11.091a2.465 2.465 0 0 1-2.46-2.451v-6.189a2.465 2.465 0 0 1 2.46-2.452c1.34 0 2.45 1.103 2.45 2.452v6.189a2.463 2.463 0 0 1-2.45 2.451Zm137.26-7.476a2.456 2.456 0 0 1-2.45-2.451v-6.189c0-1.349 1.1-2.452 2.45-2.452s2.45 1.103 2.45 2.452v6.189c0 1.348-1.1 2.451-2.45 2.451Zm-137.26-11.092a2.465 2.465 0 0 1-2.46-2.451v-6.189a2.465 2.465 0 0 1 2.46-2.451c1.34 0 2.45 1.103 2.45 2.451v6.189a2.463 2.463 0 0 1-2.45 2.451Zm137.26-7.476a2.456 2.456 0 0 1-2.45-2.451v-6.189c0-1.348 1.1-2.451 2.45-2.451s2.45 1.103 2.45 2.451v6.189c0 1.348-1.1 2.451-2.45 2.451Zm-137.26-11.091a2.465 2.465 0 0 1-2.46-2.451v-6.189a2.465 2.465 0 0 1 2.46-2.451c1.34 0 2.45 1.103 2.45 2.451v6.189a2.463 2.463 0 0 1-2.45 2.451Zm137.26-7.476a2.456 2.456 0 0 1-2.45-2.451v-6.189c0-1.348 1.1-2.451 2.45-2.451s2.45 1.103 2.45 2.451v6.189c0 1.348-1.1 2.451-2.45 2.451Zm-137.26-11.091a2.465 2.465 0 0 1-2.46-2.451v-6.19a2.465 2.465 0 0 1 2.46-2.451c1.34 0 2.45 1.103 2.45 2.451v6.19a2.463 2.463 0 0 1-2.45 2.451Zm137.26-7.476a2.456 2.456 0 0 1-2.45-2.451v-6.19c0-1.348 1.1-2.451 2.45-2.451s2.45 1.103 2.45 2.451v6.19c0 1.348-1.1 2.451-2.45 2.451Zm-137.26-11.092a2.465 2.465 0 0 1-2.46-2.451v-6.189a2.465 2.465 0 0 1 2.46-2.451c1.34 0 2.45 1.103 2.45 2.451v6.189a2.463 2.463 0 0 1-2.45 2.451Zm137.26-7.476a2.456 2.456 0 0 1-2.45-2.451v-6.189c0-1.348 1.1-2.451 2.45-2.451s2.45 1.103 2.45 2.451v6.189c0 1.348-1.1 2.451-2.45 2.451Zm-137.26-11.091a2.465 2.465 0 0 1-2.46-2.451v-6.189a2.465 2.465 0 0 1 2.46-2.451c1.34 0 2.45 1.103 2.45 2.451v6.189a2.463 2.463 0 0 1-2.45 2.451Zm137.26-7.476a2.456 2.456 0 0 1-2.45-2.451v-6.189c0-1.348 1.1-2.451 2.45-2.451s2.45 1.103 2.45 2.451v6.189c0 1.348-1.1 2.451-2.45 2.451Zm-137.25-11.091h-.12a2.456 2.456 0 0 1-2.33-2.574 8.504 8.504 0 0 1 4.37-7.059 2.45 2.45 0 1 1 2.39 4.277 3.65 3.65 0 0 0-1.87 3.027c-.06 1.312-1.16 2.329-2.45 2.329h.01Zm132.94-5.552c-.25 0-.48-.037-.73-.11-.35-.111-.71-.16-1.09-.16h-4.35a2.456 2.456 0 0 1-2.45-2.451c0-1.348 1.1-2.451 2.45-2.451h4.35c.86 0 1.72.123 2.54.38a2.45 2.45 0 0 1-.72 4.792Zm-18.55-.27h-6.19a2.463 2.463 0 0 1-2.45-2.451 2.463 2.463 0 0 1 2.45-2.451h6.19c1.35 0 2.45 1.103 2.45 2.451s-1.1 2.451-2.45 2.451Zm-18.56 0h-6.19a2.465 2.465 0 0 1-2.46-2.451 2.465 2.465 0 0 1 2.46-2.451h6.19c1.34 0 2.45 1.103 2.45 2.451a2.463 2.463 0 0 1-2.45 2.451Zm-18.57 0h-6.19a2.456 2.456 0 0 1-2.45-2.451c0-1.348 1.1-2.451 2.45-2.451h6.19c1.35 0 2.45 1.103 2.45 2.451s-1.1 2.451-2.45 2.451Zm-18.57 0h-6.19a2.456 2.456 0 0 1-2.45-2.451c0-1.348 1.1-2.451 2.45-2.451h6.19c1.35 0 2.45 1.103 2.45 2.451s-1.1 2.451-2.45 2.451Zm-18.57 0h-6.19a2.463 2.463 0 0 1-2.45-2.451 2.463 2.463 0 0 1 2.45-2.451h6.19c1.35 0 2.45 1.103 2.45 2.451s-1.1 2.451-2.45 2.451Zm-18.56 0h-6.19a2.456 2.456 0 0 1-2.45-2.451c0-1.348 1.1-2.451 2.45-2.451h6.19c1.34 0 2.45 1.103 2.45 2.451a2.463 2.463 0 0 1-2.45 2.451Z" fill="#EAF2FE"/><g id="Group" fill="#2F2F45"><path id="Vector_5" d="M1069.93 861.711c-3.45 0-7.65-.527-12.14-2.317a1.231 1.231 0 0 1-.68-1.593c.24-.625.96-.931 1.59-.686 10.07 3.995 18.89 1.115 18.98 1.078.64-.208 1.34.123 1.56.772.22.638-.12 1.336-.76 1.557-.23.073-3.58 1.189-8.54 1.189h-.01Z"/><path id="Vector_6" d="M1076.63 864.345c-.21 0-.43-.049-.61-.171a1.228 1.228 0 0 1-.45-1.679l1.88-3.211-3.43-1.434a1.224 1.224 0 0 1-.66-1.606c.25-.625.98-.919 1.6-.662l4.73 1.961c.33.135.58.405.69.748.11.331.07.698-.1 1.005l-2.58 4.412c-.24.392-.64.613-1.06.613l-.01.024Z"/></g><path id="Vector_7" d="M591.82 789.856c-2.537 0-4.829-1.765-5.381-4.351-3.051-14.069 4.645-25.516 20.602-30.615 11.79-3.774 25.137.307 32.453 9.927a5.525 5.525 0 0 1-1.054 7.734 5.525 5.525 0 0 1-7.733-1.054c-4.535-5.956-12.881-8.469-20.308-6.091-10.564 3.382-15.001 9.363-13.175 17.77.65 2.979-1.25 5.908-4.216 6.557a5.464 5.464 0 0 1-1.176.123h-.012Z" fill="#575FE1"/><path id="Vector_8" d="M825.78 828.89a5.536 5.536 0 0 1-4.081-1.802 5.52 5.52 0 0 1 .368-7.794c6.336-5.761 12.611-10.234 18.15-14.18 5.846-4.155 10.883-7.746 14.977-12.011 6.74-7.022 8.321-14.302 4.461-20.491-4.142-6.643-13.199-9.744-21.092-7.231-10.54 3.37-14.977 9.326-13.199 17.697a5.514 5.514 0 1 1-10.785 2.304c-2.979-14.008 4.73-25.418 20.626-30.504 12.746-4.081 26.962.919 33.813 11.9 2.476 3.959 9.351 18.126-5.87 33.973-4.804 5-10.503 9.057-16.533 13.346-5.54 3.946-11.275 8.028-17.121 13.347a5.467 5.467 0 0 1-3.714 1.433v.013Z" fill="#575FE1"/><path id="Vector_9" d="M1070.46 878.697c-3.28 0-6.75-.356-10.34-1.067-13.24-2.635-22.1-9.743-24.95-20.013-3.37-12.121 2.4-26.803 15.05-38.324 6.33-5.76 12.61-10.233 18.15-14.179 5.84-4.155 10.88-7.746 14.97-12.011 6.75-7.022 8.33-14.302 4.47-20.491-4.15-6.643-13.22-9.744-21.1-7.231-10.61 3.395-15.03 9.4-13.16 17.868a5.512 5.512 0 0 1-4.19 6.582 5.51 5.51 0 0 1-6.58-4.192c-3.14-14.13 4.56-25.639 20.58-30.749 12.74-4.081 26.96.931 33.81 11.9 6.59 10.577 4.4 23.274-5.87 33.973-4.81 5-10.5 9.057-16.53 13.346-5.54 3.947-11.28 8.028-17.13 13.347-9.41 8.566-14.05 19.253-11.83 27.207 2.15 7.758 10.14 10.896 16.47 12.146 12.98 2.573 22.76-.65 26.84-8.861a5.504 5.504 0 0 1 7.39-2.488c2.73 1.348 3.83 4.669 2.49 7.39-5.1 10.258-15.41 15.847-28.52 15.847h-.02Z" fill="#575FE1"/><path id="Vector_10" d="M1298.59 878.684c-3.28 0-6.73-.355-10.32-1.066-13.23-2.635-22.09-9.744-24.95-20.014-3.37-12.121 2.4-26.803 15.05-38.323 3.28-2.991 6.57-5.638 9.73-8.04a507.376 507.376 0 0 1-4.15-4.008c-10.47-9.988-15.5-22.636-13.11-33.016 1.45-6.275 6.21-14.719 20.67-19.34 12.74-4.081 26.96.932 33.81 11.9 6.59 10.577 4.4 23.274-5.87 33.973-4.15 4.339-9 7.954-14.13 11.643 10.56 10.001 17.59 16.778 21.2 23.347 5.38 9.768 4.67 22.269-1.8 31.105-5.66 7.745-14.9 11.851-26.13 11.851v-.012Zm-2.39-59.734c-3.42 2.549-6.89 5.294-10.4 8.493-9.42 8.567-14.06 19.254-11.84 27.208 2.15 7.757 10.15 10.895 16.47 12.145 11.63 2.304 20.64 0 25.39-6.483 3.99-5.442 4.4-13.175 1.04-19.266-2.95-5.356-9.95-11.974-20.54-21.999l-.11-.11-.01.012Zm4.32-54.44c-1.9 0-3.82.282-5.65.87-7.65 2.439-12.11 6.251-13.28 11.312-1.49 6.508 2.43 15.381 9.98 22.587l.04.037c1.92 1.863 3.77 3.652 5.55 5.344 5.56-3.971 10.39-7.452 14.32-11.545 6.74-7.023 8.33-14.302 4.47-20.492-3.18-5.086-9.23-8.101-15.43-8.101v-.012Z" fill="#575FE1"/><path id="Vector_11" d="M592.567 796.388c-5 0-9.069-4.068-9.069-9.069 0-5 4.069-9.069 9.069-9.069 5.001 0 9.069 4.069 9.069 9.069 0 5.001-4.068 9.069-9.069 9.069Zm0-15.675a6.622 6.622 0 0 0-6.618 6.618 6.622 6.622 0 0 0 6.618 6.619 6.622 6.622 0 0 0 6.618-6.619 6.622 6.622 0 0 0-6.618-6.618Z" fill="#2F2F45"/><path id="Vector_12" d="M820.744 796.388c-5.001 0-9.07-4.068-9.07-9.069 0-5 4.069-9.069 9.07-9.069 5 0 9.069 4.069 9.069 9.069 0 5.001-4.069 9.069-9.069 9.069Zm0-15.675a6.622 6.622 0 0 0-6.619 6.618 6.622 6.622 0 0 0 6.619 6.619 6.622 6.622 0 0 0 6.618-6.619 6.622 6.622 0 0 0-6.618-6.618Z" fill="#2F2F45"/><path id="Vector_13" d="M1048.83 796.388c-5 0-9.07-4.068-9.07-9.069 0-5 4.07-9.069 9.07-9.069s9.07 4.069 9.07 9.069c0 5.001-4.07 9.069-9.07 9.069Zm0-15.675c-3.65 0-6.61 2.966-6.61 6.618 0 3.653 2.96 6.619 6.61 6.619a6.619 6.619 0 1 0 0-13.237Z" fill="#2F2F45"/><path id="Vector_14" d="M1277.16 796.388c-5 0-9.07-4.068-9.07-9.069 0-5 4.07-9.069 9.07-9.069s9.07 4.069 9.07 9.069c0 5.001-4.07 9.069-9.07 9.069Zm0-15.675a6.618 6.618 0 1 0 0 13.237c3.65 0 6.62-2.966 6.62-6.619a6.625 6.625 0 0 0-6.62-6.618Z" fill="#2F2F45"/><g id="Group_2" fill="#2F2F45"><path id="Vector_15" d="M1291.84 827.494c-.33 0-.66-.135-.9-.393l-13.49-14.571a1.227 1.227 0 0 1 .06-1.729 1.223 1.223 0 0 1 1.73.062l13.49 14.572c.47.502.43 1.274-.06 1.728-.23.22-.54.331-.83.331Z"/><path id="Vector_16" d="M1277.65 817.137c-.66 0-1.2-.527-1.23-1.188l-.15-5.111c0-.355.14-.699.4-.931.25-.245.61-.356.96-.319l5.09.539c.67.074 1.17.674 1.09 1.348-.07.674-.66 1.152-1.35 1.091l-3.69-.392.11 3.713c.03.674-.51 1.238-1.18 1.263h-.04l-.01-.013Z"/></g><g id="Group_3" fill="#2F2F45"><path id="Vector_17" d="M813.304 819.28c-.356 0-.699-.147-.944-.441a1.236 1.236 0 0 1 .147-1.728l15.221-12.758a1.238 1.238 0 0 1 1.729.147 1.237 1.237 0 0 1-.148 1.728l-15.221 12.758a1.213 1.213 0 0 1-.784.282v.012Z"/><path id="Vector_18" d="M817.471 820.176h-.025l-5.11-.11c-.356 0-.687-.172-.92-.441a1.18 1.18 0 0 1-.269-.981l.796-5.061a1.22 1.22 0 0 1 1.398-1.018 1.22 1.22 0 0 1 1.017 1.398l-.576 3.664 3.713.073a1.23 1.23 0 0 1 1.201 1.251 1.233 1.233 0 0 1-1.225 1.201v.024Z"/></g><g id="Group_4" fill="#2F2F45"><path id="Vector_19" d="M633.366 785.345c-.466 0-.907-.257-1.116-.71-.036-.086-4.044-8.457-13.885-12.979a1.23 1.23 0 0 1-.601-1.63 1.233 1.233 0 0 1 1.63-.601c10.699 4.927 14.915 13.8 15.087 14.18a1.237 1.237 0 0 1-.601 1.63c-.171.074-.343.11-.514.11Z"/><path id="Vector_20" d="M633.684 786.62a1.35 1.35 0 0 1-.49-.098l-4.682-2.059a1.223 1.223 0 0 1-.625-1.618c.27-.625.993-.907 1.618-.625l3.395 1.495 1.029-3.566a1.23 1.23 0 1 1 2.366.674l-1.41 4.914a1.222 1.222 0 0 1-1.176.883h-.025Z"/></g></g><g id="success"><path id="Vector_21" d="M672.094 887.178h-7.696a2.458 2.458 0 0 1-2.451-2.451 2.458 2.458 0 0 1 2.451-2.451h7.696a2.458 2.458 0 0 1 2.451 2.451 2.458 2.458 0 0 1-2.451 2.451Zm-20.075 0h-6.189a2.458 2.458 0 0 1-2.451-2.451 2.458 2.458 0 0 1 2.451-2.451h6.189a2.458 2.458 0 0 1 2.452 2.451 2.458 2.458 0 0 1-2.452 2.451Zm-18.567 0h-6.189a2.458 2.458 0 0 1-2.451-2.451 2.458 2.458 0 0 1 2.451-2.451h6.189a2.458 2.458 0 0 1 2.451 2.451 2.458 2.458 0 0 1-2.451 2.451Zm-18.567 0h-6.189a2.458 2.458 0 0 1-2.451-2.451 2.458 2.458 0 0 1 2.451-2.451h6.189a2.458 2.458 0 0 1 2.451 2.451 2.458 2.458 0 0 1-2.451 2.451Zm-18.568 0h-6.189a2.458 2.458 0 0 1-2.451-2.451 2.458 2.458 0 0 1 2.451-2.451h6.189a2.458 2.458 0 0 1 2.452 2.451 2.458 2.458 0 0 1-2.452 2.451Zm-18.567 0h-6.189a2.458 2.458 0 0 1-2.451-2.451 2.458 2.458 0 0 1 2.451-2.451h6.189a2.458 2.458 0 0 1 2.451 2.451 2.458 2.458 0 0 1-2.451 2.451Zm-18.567 0h-6.189a2.46 2.46 0 0 1-2.452-2.451 2.46 2.46 0 0 1 2.452-2.451h6.189a2.458 2.458 0 0 1 2.451 2.451 2.458 2.458 0 0 1-2.451 2.451Zm-18.041-1.9a2.452 2.452 0 0 1-1.777-.759 8.572 8.572 0 0 1-2.365-5.908v-1.532a2.458 2.458 0 0 1 2.451-2.451 2.458 2.458 0 0 1 2.451 2.451v1.532a3.64 3.64 0 0 0 1.018 2.537 2.458 2.458 0 0 1-.086 3.469 2.436 2.436 0 0 1-1.692.674v-.013Zm135.573-7.059a2.458 2.458 0 0 1-2.452-2.451v-6.189a2.458 2.458 0 0 1 2.452-2.451 2.458 2.458 0 0 1 2.451 2.451v6.189a2.458 2.458 0 0 1-2.451 2.451Zm-137.264-11.091a2.458 2.458 0 0 1-2.451-2.451v-6.189a2.458 2.458 0 0 1 2.451-2.452 2.458 2.458 0 0 1 2.451 2.452v6.189a2.458 2.458 0 0 1-2.451 2.451Zm137.264-7.476a2.458 2.458 0 0 1-2.452-2.451v-6.189a2.459 2.459 0 0 1 2.452-2.452 2.458 2.458 0 0 1 2.451 2.452v6.189a2.458 2.458 0 0 1-2.451 2.451ZM539.451 848.56a2.458 2.458 0 0 1-2.451-2.451v-6.189a2.458 2.458 0 0 1 2.451-2.451 2.458 2.458 0 0 1 2.451 2.451v6.189a2.458 2.458 0 0 1-2.451 2.451Zm137.264-7.476a2.458 2.458 0 0 1-2.452-2.451v-6.189a2.458 2.458 0 0 1 2.452-2.451 2.458 2.458 0 0 1 2.451 2.451v6.189a2.458 2.458 0 0 1-2.451 2.451Zm-137.264-11.091a2.458 2.458 0 0 1-2.451-2.451v-6.189a2.458 2.458 0 0 1 2.451-2.451 2.458 2.458 0 0 1 2.451 2.451v6.189a2.458 2.458 0 0 1-2.451 2.451Zm137.264-7.476a2.458 2.458 0 0 1-2.452-2.451v-6.189a2.458 2.458 0 0 1 2.452-2.451 2.458 2.458 0 0 1 2.451 2.451v6.189a2.458 2.458 0 0 1-2.451 2.451Zm-137.264-11.091a2.458 2.458 0 0 1-2.451-2.451v-6.19a2.458 2.458 0 0 1 2.451-2.451 2.458 2.458 0 0 1 2.451 2.451v6.19a2.458 2.458 0 0 1-2.451 2.451Zm137.264-7.476a2.458 2.458 0 0 1-2.452-2.451v-6.19a2.458 2.458 0 0 1 2.452-2.451 2.458 2.458 0 0 1 2.451 2.451v6.19a2.458 2.458 0 0 1-2.451 2.451Zm-137.264-11.092a2.458 2.458 0 0 1-2.451-2.451v-6.189a2.458 2.458 0 0 1 2.451-2.451 2.458 2.458 0 0 1 2.451 2.451v6.189a2.458 2.458 0 0 1-2.451 2.451Zm137.264-7.476a2.458 2.458 0 0 1-2.452-2.451v-6.189a2.458 2.458 0 0 1 2.452-2.451 2.458 2.458 0 0 1 2.451 2.451v6.189a2.458 2.458 0 0 1-2.451 2.451Zm-137.264-11.091A2.458 2.458 0 0 1 537 771.84v-6.189a2.458 2.458 0 0 1 2.451-2.451 2.458 2.458 0 0 1 2.451 2.451v6.189a2.458 2.458 0 0 1-2.451 2.451Zm137.264-7.476a2.458 2.458 0 0 1-2.452-2.451v-6.189a2.458 2.458 0 0 1 2.452-2.451 2.458 2.458 0 0 1 2.451 2.451v6.189a2.458 2.458 0 0 1-2.451 2.451Zm-137.252-11.091h-.122a2.456 2.456 0 0 1-2.329-2.574 8.527 8.527 0 0 1 4.376-7.059 2.443 2.443 0 0 1 3.333.943 2.443 2.443 0 0 1-.944 3.334 3.649 3.649 0 0 0-1.875 3.027 2.45 2.45 0 0 1-2.451 2.329h.012Zm132.938-5.552c-.246 0-.478-.037-.723-.11a3.598 3.598 0 0 0-1.091-.16h-4.351a2.458 2.458 0 0 1-2.451-2.451 2.458 2.458 0 0 1 2.451-2.451h4.351c.858 0 1.716.123 2.537.38a2.445 2.445 0 0 1 1.617 3.064 2.458 2.458 0 0 1-2.34 1.728Zm-18.543-.27h-6.189a2.458 2.458 0 0 1-2.451-2.451 2.458 2.458 0 0 1 2.451-2.451h6.189a2.458 2.458 0 0 1 2.451 2.451 2.458 2.458 0 0 1-2.451 2.451Zm-18.568 0h-6.189a2.458 2.458 0 0 1-2.451-2.451 2.458 2.458 0 0 1 2.451-2.451h6.189a2.458 2.458 0 0 1 2.452 2.451 2.458 2.458 0 0 1-2.452 2.451Zm-18.567 0h-6.189a2.458 2.458 0 0 1-2.451-2.451 2.458 2.458 0 0 1 2.451-2.451h6.189a2.458 2.458 0 0 1 2.451 2.451 2.458 2.458 0 0 1-2.451 2.451Zm-18.567 0h-6.189a2.46 2.46 0 0 1-2.452-2.451 2.46 2.46 0 0 1 2.452-2.451h6.189a2.458 2.458 0 0 1 2.451 2.451 2.458 2.458 0 0 1-2.451 2.451Zm-18.568 0h-6.189a2.458 2.458 0 0 1-2.451-2.451 2.458 2.458 0 0 1 2.451-2.451h6.189a2.458 2.458 0 0 1 2.452 2.451 2.458 2.458 0 0 1-2.452 2.451Zm-18.567 0h-6.189a2.458 2.458 0 0 1-2.451-2.451 2.458 2.458 0 0 1 2.451-2.451h6.189a2.458 2.458 0 0 1 2.451 2.451 2.458 2.458 0 0 1-2.451 2.451Z" fill="#EAF2FE"/><path id="Vector_22" d="M900.246 887.178h-7.696a2.458 2.458 0 0 1-2.452-2.451 2.458 2.458 0 0 1 2.452-2.451h7.696a2.458 2.458 0 0 1 2.451 2.451 2.458 2.458 0 0 1-2.451 2.451Zm-20.075 0h-6.189a2.458 2.458 0 0 1-2.451-2.451 2.458 2.458 0 0 1 2.451-2.451h6.189a2.458 2.458 0 0 1 2.451 2.451 2.458 2.458 0 0 1-2.451 2.451Zm-18.567 0h-6.189a2.458 2.458 0 0 1-2.451-2.451 2.458 2.458 0 0 1 2.451-2.451h6.189a2.458 2.458 0 0 1 2.451 2.451 2.458 2.458 0 0 1-2.451 2.451Zm-18.567 0h-6.19a2.458 2.458 0 0 1-2.451-2.451 2.458 2.458 0 0 1 2.451-2.451h6.19a2.458 2.458 0 0 1 2.451 2.451 2.458 2.458 0 0 1-2.451 2.451Zm-18.568 0h-6.189a2.458 2.458 0 0 1-2.451-2.451 2.458 2.458 0 0 1 2.451-2.451h6.189a2.458 2.458 0 0 1 2.451 2.451 2.458 2.458 0 0 1-2.451 2.451Zm-18.567 0h-6.189a2.458 2.458 0 0 1-2.451-2.451 2.458 2.458 0 0 1 2.451-2.451h6.189a2.458 2.458 0 0 1 2.451 2.451 2.458 2.458 0 0 1-2.451 2.451Zm-18.567 0h-6.189a2.458 2.458 0 0 1-2.452-2.451 2.458 2.458 0 0 1 2.452-2.451h6.189a2.458 2.458 0 0 1 2.451 2.451 2.458 2.458 0 0 1-2.451 2.451Zm-18.041-1.9a2.452 2.452 0 0 1-1.777-.759 8.567 8.567 0 0 1-2.365-5.908v-1.532a2.458 2.458 0 0 1 2.451-2.451 2.458 2.458 0 0 1 2.451 2.451v1.532c0 .944.356 1.851 1.017 2.537a2.457 2.457 0 0 1-.085 3.469 2.436 2.436 0 0 1-1.692.674v-.013Zm135.572-7.059a2.458 2.458 0 0 1-2.451-2.451v-6.189a2.458 2.458 0 0 1 2.451-2.451 2.458 2.458 0 0 1 2.452 2.451v6.189a2.458 2.458 0 0 1-2.452 2.451Zm-137.263-11.091a2.458 2.458 0 0 1-2.451-2.451v-6.189a2.458 2.458 0 0 1 2.451-2.452 2.458 2.458 0 0 1 2.451 2.452v6.189a2.458 2.458 0 0 1-2.451 2.451Zm137.263-7.476a2.458 2.458 0 0 1-2.451-2.451v-6.189a2.458 2.458 0 0 1 2.451-2.452 2.459 2.459 0 0 1 2.452 2.452v6.189a2.458 2.458 0 0 1-2.452 2.451ZM767.603 848.56a2.458 2.458 0 0 1-2.451-2.451v-6.189a2.458 2.458 0 0 1 2.451-2.451 2.458 2.458 0 0 1 2.451 2.451v6.189a2.458 2.458 0 0 1-2.451 2.451Zm137.263-7.476a2.458 2.458 0 0 1-2.451-2.451v-6.189a2.458 2.458 0 0 1 2.451-2.451 2.458 2.458 0 0 1 2.452 2.451v6.189a2.458 2.458 0 0 1-2.452 2.451Zm-137.263-11.091a2.458 2.458 0 0 1-2.451-2.451v-6.189a2.458 2.458 0 0 1 2.451-2.451 2.458 2.458 0 0 1 2.451 2.451v6.189a2.458 2.458 0 0 1-2.451 2.451Zm137.263-7.476a2.458 2.458 0 0 1-2.451-2.451v-6.189a2.458 2.458 0 0 1 2.451-2.451 2.458 2.458 0 0 1 2.452 2.451v6.189a2.458 2.458 0 0 1-2.452 2.451Zm-137.263-11.091a2.458 2.458 0 0 1-2.451-2.451v-6.19a2.458 2.458 0 0 1 2.451-2.451 2.458 2.458 0 0 1 2.451 2.451v6.19a2.458 2.458 0 0 1-2.451 2.451Zm137.263-7.476a2.458 2.458 0 0 1-2.451-2.451v-6.19a2.458 2.458 0 0 1 2.451-2.451 2.458 2.458 0 0 1 2.452 2.451v6.19a2.458 2.458 0 0 1-2.452 2.451Zm-137.263-11.092a2.458 2.458 0 0 1-2.451-2.451v-6.189a2.458 2.458 0 0 1 2.451-2.451 2.458 2.458 0 0 1 2.451 2.451v6.189a2.458 2.458 0 0 1-2.451 2.451Zm137.263-7.476a2.458 2.458 0 0 1-2.451-2.451v-6.189a2.458 2.458 0 0 1 2.451-2.451 2.458 2.458 0 0 1 2.452 2.451v6.189a2.458 2.458 0 0 1-2.452 2.451Zm-137.263-11.091a2.458 2.458 0 0 1-2.451-2.451v-6.189a2.458 2.458 0 0 1 2.451-2.451 2.458 2.458 0 0 1 2.451 2.451v6.189a2.458 2.458 0 0 1-2.451 2.451Zm137.263-7.476a2.458 2.458 0 0 1-2.451-2.451v-6.189a2.458 2.458 0 0 1 2.451-2.451 2.458 2.458 0 0 1 2.452 2.451v6.189a2.458 2.458 0 0 1-2.452 2.451Zm-137.251-11.091h-.122a2.456 2.456 0 0 1-2.329-2.574 8.528 8.528 0 0 1 4.375-7.059 2.44 2.44 0 0 1 3.334.943 2.443 2.443 0 0 1-.944 3.334 3.646 3.646 0 0 0-1.875 3.027 2.45 2.45 0 0 1-2.451 2.329h.012Zm132.937-5.552c-.245 0-.478-.037-.723-.11a3.587 3.587 0 0 0-1.09-.16h-4.351a2.458 2.458 0 0 1-2.451-2.451 2.458 2.458 0 0 1 2.451-2.451h4.351c.858 0 1.715.123 2.537.38a2.445 2.445 0 0 1 1.617 3.064 2.448 2.448 0 0 1-2.341 1.728Zm-18.542-.27h-6.189a2.458 2.458 0 0 1-2.452-2.451 2.458 2.458 0 0 1 2.452-2.451h6.189a2.458 2.458 0 0 1 2.451 2.451 2.458 2.458 0 0 1-2.451 2.451Zm-18.568 0h-6.189a2.458 2.458 0 0 1-2.451-2.451 2.458 2.458 0 0 1 2.451-2.451h6.189a2.458 2.458 0 0 1 2.451 2.451 2.458 2.458 0 0 1-2.451 2.451Zm-18.567 0h-6.189a2.458 2.458 0 0 1-2.451-2.451 2.458 2.458 0 0 1 2.451-2.451h6.189a2.458 2.458 0 0 1 2.451 2.451 2.458 2.458 0 0 1-2.451 2.451Zm-18.567 0h-6.189a2.458 2.458 0 0 1-2.452-2.451 2.458 2.458 0 0 1 2.452-2.451h6.189a2.458 2.458 0 0 1 2.451 2.451 2.458 2.458 0 0 1-2.451 2.451Zm-18.568 0h-6.189a2.458 2.458 0 0 1-2.451-2.451 2.458 2.458 0 0 1 2.451-2.451h6.189a2.458 2.458 0 0 1 2.451 2.451 2.458 2.458 0 0 1-2.451 2.451Zm-18.567 0h-6.189a2.458 2.458 0 0 1-2.451-2.451 2.458 2.458 0 0 1 2.451-2.451h6.189a2.458 2.458 0 0 1 2.451 2.451 2.458 2.458 0 0 1-2.451 2.451Z" fill="#EAF2FE"/><path id="Vector_23" d="M1128.4 887.178h-7.7a2.456 2.456 0 0 1-2.45-2.451c0-1.348 1.1-2.451 2.45-2.451h7.7c1.35 0 2.45 1.103 2.45 2.451s-1.1 2.451-2.45 2.451Zm-20.08 0h-6.19a2.456 2.456 0 0 1-2.45-2.451c0-1.348 1.1-2.451 2.45-2.451h6.19c1.35 0 2.45 1.103 2.45 2.451s-1.1 2.451-2.45 2.451Zm-18.57 0h-6.18a2.465 2.465 0 0 1-2.46-2.451 2.465 2.465 0 0 1 2.46-2.451h6.18c1.35 0 2.46 1.103 2.46 2.451a2.465 2.465 0 0 1-2.46 2.451Zm-18.56 0H1065a2.456 2.456 0 0 1-2.45-2.451c0-1.348 1.1-2.451 2.45-2.451h6.19c1.35 0 2.45 1.103 2.45 2.451s-1.1 2.451-2.45 2.451Zm-18.57 0h-6.19a2.456 2.456 0 0 1-2.45-2.451c0-1.348 1.1-2.451 2.45-2.451h6.19c1.35 0 2.45 1.103 2.45 2.451s-1.1 2.451-2.45 2.451Zm-18.57 0h-6.19a2.463 2.463 0 0 1-2.45-2.451 2.463 2.463 0 0 1 2.45-2.451h6.19c1.35 0 2.45 1.103 2.45 2.451s-1.1 2.451-2.45 2.451Zm-18.56 0h-6.19a2.456 2.456 0 0 1-2.45-2.451c0-1.348 1.1-2.451 2.45-2.451h6.19c1.34 0 2.45 1.103 2.45 2.451a2.463 2.463 0 0 1-2.45 2.451Zm-18.045-1.9a2.452 2.452 0 0 1-1.777-.759 8.567 8.567 0 0 1-2.365-5.908v-1.532a2.458 2.458 0 0 1 2.451-2.451 2.458 2.458 0 0 1 2.451 2.451v1.532c0 .944.355 1.851 1.017 2.537a2.457 2.457 0 0 1-.086 3.469 2.434 2.434 0 0 1-1.691.674v-.013Zm135.575-7.059a2.456 2.456 0 0 1-2.45-2.451v-6.189c0-1.348 1.1-2.451 2.45-2.451s2.45 1.103 2.45 2.451v6.189c0 1.348-1.1 2.451-2.45 2.451Zm-137.266-11.091a2.458 2.458 0 0 1-2.451-2.451v-6.189a2.458 2.458 0 0 1 2.451-2.452 2.458 2.458 0 0 1 2.451 2.452v6.189a2.458 2.458 0 0 1-2.451 2.451Zm137.266-7.476a2.456 2.456 0 0 1-2.45-2.451v-6.189c0-1.349 1.1-2.452 2.45-2.452s2.45 1.103 2.45 2.452v6.189c0 1.348-1.1 2.451-2.45 2.451ZM995.754 848.56a2.458 2.458 0 0 1-2.451-2.451v-6.189a2.458 2.458 0 0 1 2.451-2.451 2.458 2.458 0 0 1 2.451 2.451v6.189a2.458 2.458 0 0 1-2.451 2.451Zm137.266-7.476a2.456 2.456 0 0 1-2.45-2.451v-6.189c0-1.348 1.1-2.451 2.45-2.451s2.45 1.103 2.45 2.451v6.189c0 1.348-1.1 2.451-2.45 2.451Zm-137.266-11.091a2.458 2.458 0 0 1-2.451-2.451v-6.189a2.458 2.458 0 0 1 2.451-2.451 2.458 2.458 0 0 1 2.451 2.451v6.189a2.458 2.458 0 0 1-2.451 2.451Zm137.266-7.476a2.456 2.456 0 0 1-2.45-2.451v-6.189c0-1.348 1.1-2.451 2.45-2.451s2.45 1.103 2.45 2.451v6.189c0 1.348-1.1 2.451-2.45 2.451Zm-137.266-11.091a2.458 2.458 0 0 1-2.451-2.451v-6.19a2.458 2.458 0 0 1 2.451-2.451 2.458 2.458 0 0 1 2.451 2.451v6.19a2.458 2.458 0 0 1-2.451 2.451Zm137.266-7.476a2.456 2.456 0 0 1-2.45-2.451v-6.19c0-1.348 1.1-2.451 2.45-2.451s2.45 1.103 2.45 2.451v6.19c0 1.348-1.1 2.451-2.45 2.451Zm-137.266-11.092a2.458 2.458 0 0 1-2.451-2.451v-6.189a2.458 2.458 0 0 1 2.451-2.451 2.458 2.458 0 0 1 2.451 2.451v6.189a2.458 2.458 0 0 1-2.451 2.451Zm137.266-7.476a2.456 2.456 0 0 1-2.45-2.451v-6.189c0-1.348 1.1-2.451 2.45-2.451s2.45 1.103 2.45 2.451v6.189c0 1.348-1.1 2.451-2.45 2.451Zm-137.266-11.091a2.458 2.458 0 0 1-2.451-2.451v-6.189a2.458 2.458 0 0 1 2.451-2.451 2.458 2.458 0 0 1 2.451 2.451v6.189a2.458 2.458 0 0 1-2.451 2.451Zm137.266-7.476a2.456 2.456 0 0 1-2.45-2.451v-6.189c0-1.348 1.1-2.451 2.45-2.451s2.45 1.103 2.45 2.451v6.189c0 1.348-1.1 2.451-2.45 2.451Zm-137.254-11.091h-.122a2.455 2.455 0 0 1-2.329-2.574 8.528 8.528 0 0 1 4.375-7.059 2.439 2.439 0 0 1 3.33.943 2.434 2.434 0 0 1-.94 3.334 3.646 3.646 0 0 0-1.875 3.027 2.45 2.45 0 0 1-2.451 2.329h.012Zm132.934-5.552c-.24 0-.47-.037-.72-.11a3.61 3.61 0 0 0-1.09-.16h-4.35a2.456 2.456 0 0 1-2.45-2.451c0-1.348 1.1-2.451 2.45-2.451h4.35c.86 0 1.72.123 2.54.38a2.436 2.436 0 0 1 1.61 3.064 2.45 2.45 0 0 1-2.34 1.728Zm-18.54-.27h-6.19a2.456 2.456 0 0 1-2.45-2.451c0-1.348 1.1-2.451 2.45-2.451h6.19c1.35 0 2.45 1.103 2.45 2.451s-1.1 2.451-2.45 2.451Zm-18.57 0h-6.19a2.463 2.463 0 0 1-2.45-2.451 2.463 2.463 0 0 1 2.45-2.451h6.19c1.35 0 2.45 1.103 2.45 2.451s-1.1 2.451-2.45 2.451Zm-18.56 0h-6.19a2.456 2.456 0 0 1-2.45-2.451c0-1.348 1.1-2.451 2.45-2.451h6.19c1.34 0 2.45 1.103 2.45 2.451a2.463 2.463 0 0 1-2.45 2.451Zm-18.57 0h-6.19a2.456 2.456 0 0 1-2.45-2.451c0-1.348 1.1-2.451 2.45-2.451h6.19c1.35 0 2.45 1.103 2.45 2.451s-1.1 2.451-2.45 2.451Zm-18.57 0h-6.19a2.456 2.456 0 0 1-2.45-2.451c0-1.348 1.1-2.451 2.45-2.451h6.19c1.35 0 2.45 1.103 2.45 2.451s-1.1 2.451-2.45 2.451Zm-18.57 0h-6.19a2.463 2.463 0 0 1-2.45-2.451 2.463 2.463 0 0 1 2.45-2.451h6.19c1.35 0 2.45 1.103 2.45 2.451s-1.1 2.451-2.45 2.451Z" fill="#EAF2FE"/><path id="Vector_24" d="M1356.55 887.178h-7.7a2.456 2.456 0 0 1-2.45-2.451c0-1.348 1.1-2.451 2.45-2.451h7.7c1.35 0 2.45 1.103 2.45 2.451s-1.1 2.451-2.45 2.451Zm-20.08 0h-6.19a2.463 2.463 0 0 1-2.45-2.451 2.463 2.463 0 0 1 2.45-2.451h6.19c1.35 0 2.46 1.103 2.46 2.451a2.465 2.465 0 0 1-2.46 2.451Zm-18.56 0h-6.19a2.456 2.456 0 0 1-2.45-2.451c0-1.348 1.1-2.451 2.45-2.451h6.19c1.34 0 2.45 1.103 2.45 2.451a2.463 2.463 0 0 1-2.45 2.451Zm-18.57 0h-6.19a2.456 2.456 0 0 1-2.45-2.451c0-1.348 1.1-2.451 2.45-2.451h6.19c1.35 0 2.45 1.103 2.45 2.451s-1.1 2.451-2.45 2.451Zm-18.57 0h-6.19a2.456 2.456 0 0 1-2.45-2.451c0-1.348 1.1-2.451 2.45-2.451h6.19c1.35 0 2.45 1.103 2.45 2.451s-1.1 2.451-2.45 2.451Zm-18.57 0h-6.18a2.465 2.465 0 0 1-2.46-2.451 2.465 2.465 0 0 1 2.46-2.451h6.18c1.35 0 2.46 1.103 2.46 2.451a2.465 2.465 0 0 1-2.46 2.451Zm-18.56 0h-6.19a2.456 2.456 0 0 1-2.45-2.451c0-1.348 1.1-2.451 2.45-2.451h6.19c1.35 0 2.45 1.103 2.45 2.451s-1.1 2.451-2.45 2.451Zm-18.04-1.9c-.65 0-1.3-.257-1.78-.759a8.572 8.572 0 0 1-2.37-5.908v-1.532a2.465 2.465 0 0 1 2.46-2.451c1.34 0 2.45 1.103 2.45 2.451v1.532c0 .944.35 1.851 1.01 2.537a2.45 2.45 0 0 1-1.77 4.143v-.013Zm135.57-7.059a2.456 2.456 0 0 1-2.45-2.451v-6.189c0-1.348 1.1-2.451 2.45-2.451s2.45 1.103 2.45 2.451v6.189c0 1.348-1.1 2.451-2.45 2.451Zm-137.26-11.091a2.465 2.465 0 0 1-2.46-2.451v-6.189a2.465 2.465 0 0 1 2.46-2.452c1.34 0 2.45 1.103 2.45 2.452v6.189a2.463 2.463 0 0 1-2.45 2.451Zm137.26-7.476a2.456 2.456 0 0 1-2.45-2.451v-6.189c0-1.349 1.1-2.452 2.45-2.452s2.45 1.103 2.45 2.452v6.189c0 1.348-1.1 2.451-2.45 2.451Zm-137.26-11.092a2.465 2.465 0 0 1-2.46-2.451v-6.189a2.465 2.465 0 0 1 2.46-2.451c1.34 0 2.45 1.103 2.45 2.451v6.189a2.463 2.463 0 0 1-2.45 2.451Zm137.26-7.476a2.456 2.456 0 0 1-2.45-2.451v-6.189c0-1.348 1.1-2.451 2.45-2.451s2.45 1.103 2.45 2.451v6.189c0 1.348-1.1 2.451-2.45 2.451Zm-137.26-11.091a2.465 2.465 0 0 1-2.46-2.451v-6.189a2.465 2.465 0 0 1 2.46-2.451c1.34 0 2.45 1.103 2.45 2.451v6.189a2.463 2.463 0 0 1-2.45 2.451Zm137.26-7.476a2.456 2.456 0 0 1-2.45-2.451v-6.189c0-1.348 1.1-2.451 2.45-2.451s2.45 1.103 2.45 2.451v6.189c0 1.348-1.1 2.451-2.45 2.451Zm-137.26-11.091a2.465 2.465 0 0 1-2.46-2.451v-6.19a2.465 2.465 0 0 1 2.46-2.451c1.34 0 2.45 1.103 2.45 2.451v6.19a2.463 2.463 0 0 1-2.45 2.451Zm137.26-7.476a2.456 2.456 0 0 1-2.45-2.451v-6.19c0-1.348 1.1-2.451 2.45-2.451s2.45 1.103 2.45 2.451v6.19c0 1.348-1.1 2.451-2.45 2.451Zm-137.26-11.092a2.465 2.465 0 0 1-2.46-2.451v-6.189a2.465 2.465 0 0 1 2.46-2.451c1.34 0 2.45 1.103 2.45 2.451v6.189a2.463 2.463 0 0 1-2.45 2.451Zm137.26-7.476a2.456 2.456 0 0 1-2.45-2.451v-6.189c0-1.348 1.1-2.451 2.45-2.451s2.45 1.103 2.45 2.451v6.189c0 1.348-1.1 2.451-2.45 2.451Zm-137.26-11.091a2.465 2.465 0 0 1-2.46-2.451v-6.189a2.465 2.465 0 0 1 2.46-2.451c1.34 0 2.45 1.103 2.45 2.451v6.189a2.463 2.463 0 0 1-2.45 2.451Zm137.26-7.476a2.456 2.456 0 0 1-2.45-2.451v-6.189c0-1.348 1.1-2.451 2.45-2.451s2.45 1.103 2.45 2.451v6.189c0 1.348-1.1 2.451-2.45 2.451Zm-137.25-11.091h-.12a2.456 2.456 0 0 1-2.33-2.574 8.504 8.504 0 0 1 4.37-7.059 2.45 2.45 0 1 1 2.39 4.277 3.65 3.65 0 0 0-1.87 3.027c-.06 1.312-1.16 2.329-2.45 2.329h.01Zm132.94-5.552c-.25 0-.48-.037-.73-.11-.35-.111-.71-.16-1.09-.16h-4.35a2.456 2.456 0 0 1-2.45-2.451c0-1.348 1.1-2.451 2.45-2.451h4.35c.86 0 1.72.123 2.54.38a2.45 2.45 0 0 1-.72 4.792Zm-18.55-.27h-6.19a2.463 2.463 0 0 1-2.45-2.451 2.463 2.463 0 0 1 2.45-2.451h6.19c1.35 0 2.45 1.103 2.45 2.451s-1.1 2.451-2.45 2.451Zm-18.56 0h-6.19a2.465 2.465 0 0 1-2.46-2.451 2.465 2.465 0 0 1 2.46-2.451h6.19c1.34 0 2.45 1.103 2.45 2.451a2.463 2.463 0 0 1-2.45 2.451Zm-18.57 0h-6.19a2.456 2.456 0 0 1-2.45-2.451c0-1.348 1.1-2.451 2.45-2.451h6.19c1.35 0 2.45 1.103 2.45 2.451s-1.1 2.451-2.45 2.451Zm-18.57 0h-6.19a2.456 2.456 0 0 1-2.45-2.451c0-1.348 1.1-2.451 2.45-2.451h6.19c1.35 0 2.45 1.103 2.45 2.451s-1.1 2.451-2.45 2.451Zm-18.57 0h-6.19a2.463 2.463 0 0 1-2.45-2.451 2.463 2.463 0 0 1 2.45-2.451h6.19c1.35 0 2.45 1.103 2.45 2.451s-1.1 2.451-2.45 2.451Zm-18.56 0h-6.19a2.456 2.456 0 0 1-2.45-2.451c0-1.348 1.1-2.451 2.45-2.451h6.19c1.34 0 2.45 1.103 2.45 2.451a2.463 2.463 0 0 1-2.45 2.451Z" fill="#EAF2FE"/><g id="Group_5" fill="#2F2F45"><path id="Vector_25" d="M1069.93 861.711c-3.45 0-7.65-.527-12.14-2.317a1.231 1.231 0 0 1-.68-1.593c.24-.625.96-.931 1.59-.686 10.07 3.995 18.89 1.115 18.98 1.078.64-.208 1.34.123 1.56.772.22.638-.12 1.336-.76 1.557-.23.073-3.58 1.189-8.54 1.189h-.01Z"/><path id="Vector_26" d="M1076.63 864.345c-.21 0-.43-.049-.61-.171a1.228 1.228 0 0 1-.45-1.679l1.88-3.211-3.43-1.434a1.224 1.224 0 0 1-.66-1.606c.25-.625.98-.919 1.6-.662l4.73 1.961c.33.135.58.405.69.748.11.331.07.698-.1 1.005l-2.58 4.412c-.24.392-.64.613-1.06.613l-.01.024Z"/></g><path id="Vector_27" d="M591.82 789.856c-2.537 0-4.829-1.765-5.381-4.351-3.051-14.069 4.645-25.516 20.602-30.615 11.79-3.774 25.137.307 32.453 9.927a5.525 5.525 0 0 1-1.054 7.734 5.525 5.525 0 0 1-7.733-1.054c-4.535-5.956-12.881-8.469-20.308-6.091-10.564 3.382-15.001 9.363-13.175 17.77.65 2.979-1.25 5.908-4.216 6.557a5.464 5.464 0 0 1-1.176.123h-.012Z" fill="#575FE1"/><path id="Vector_28" d="M825.78 828.89a5.536 5.536 0 0 1-4.081-1.802 5.52 5.52 0 0 1 .368-7.794c6.336-5.761 12.611-10.234 18.15-14.18 5.846-4.155 10.883-7.746 14.977-12.011 6.74-7.022 8.321-14.302 4.461-20.491-4.142-6.643-13.199-9.744-21.092-7.231-10.54 3.37-14.977 9.326-13.199 17.697a5.514 5.514 0 1 1-10.785 2.304c-2.979-14.008 4.73-25.418 20.626-30.504 12.746-4.081 26.962.919 33.813 11.9 2.476 3.959 9.351 18.126-5.87 33.973-4.804 5-10.503 9.057-16.533 13.346-5.54 3.946-11.275 8.028-17.121 13.347a5.467 5.467 0 0 1-3.714 1.433v.013Z" fill="#575FE1"/><path id="Vector_29" d="M1070.46 878.697c-3.28 0-6.75-.356-10.34-1.067-13.24-2.635-22.1-9.743-24.95-20.013-3.37-12.121 2.4-26.803 15.05-38.324 6.33-5.76 12.61-10.233 18.15-14.179 5.84-4.155 10.88-7.746 14.97-12.011 6.75-7.022 8.33-14.302 4.47-20.491-4.15-6.643-13.22-9.744-21.1-7.231-10.61 3.395-15.03 9.4-13.16 17.868a5.512 5.512 0 0 1-4.19 6.582 5.51 5.51 0 0 1-6.58-4.192c-3.14-14.13 4.56-25.639 20.58-30.749 12.74-4.081 26.96.931 33.81 11.9 6.59 10.577 4.4 23.274-5.87 33.973-4.81 5-10.5 9.057-16.53 13.346-5.54 3.947-11.28 8.028-17.13 13.347-9.41 8.566-14.05 19.253-11.83 27.207 2.15 7.758 10.14 10.896 16.47 12.146 12.98 2.573 22.76-.65 26.84-8.861a5.504 5.504 0 0 1 7.39-2.488c2.73 1.348 3.83 4.669 2.49 7.39-5.1 10.258-15.41 15.847-28.52 15.847h-.02Z" fill="#575FE1"/><path id="Vector_30" d="M1298.59 878.684c-3.28 0-6.73-.355-10.32-1.066-13.23-2.635-22.09-9.744-24.95-20.014-3.37-12.121 2.4-26.803 15.05-38.323 3.28-2.991 6.57-5.638 9.73-8.04a507.376 507.376 0 0 1-4.15-4.008c-10.47-9.988-15.5-22.636-13.11-33.016 1.45-6.275 6.21-14.719 20.67-19.34 12.74-4.081 26.96.932 33.81 11.9 6.59 10.577 4.4 23.274-5.87 33.973-4.15 4.339-9 7.954-14.13 11.643 10.56 10.001 17.59 16.778 21.2 23.347 5.38 9.768 4.67 22.269-1.8 31.105-5.66 7.745-14.9 11.851-26.13 11.851v-.012Zm-2.39-59.734c-3.42 2.549-6.89 5.294-10.4 8.493-9.42 8.567-14.06 19.254-11.84 27.208 2.15 7.757 10.15 10.895 16.47 12.145 11.63 2.304 20.64 0 25.39-6.483 3.99-5.442 4.4-13.175 1.04-19.266-2.95-5.356-9.95-11.974-20.54-21.999l-.11-.11-.01.012Zm4.32-54.44c-1.9 0-3.82.282-5.65.87-7.65 2.439-12.11 6.251-13.28 11.312-1.49 6.508 2.43 15.381 9.98 22.587l.04.037c1.92 1.863 3.77 3.652 5.55 5.344 5.56-3.971 10.39-7.452 14.32-11.545 6.74-7.023 8.33-14.302 4.47-20.492-3.18-5.086-9.23-8.101-15.43-8.101v-.012Z" fill="#575FE1"/><path id="Vector_31" d="M592.567 796.388c-5 0-9.069-4.068-9.069-9.069 0-5 4.069-9.069 9.069-9.069 5.001 0 9.069 4.069 9.069 9.069 0 5.001-4.068 9.069-9.069 9.069Zm0-15.675a6.622 6.622 0 0 0-6.618 6.618 6.622 6.622 0 0 0 6.618 6.619 6.622 6.622 0 0 0 6.618-6.619 6.622 6.622 0 0 0-6.618-6.618Z" fill="#2F2F45"/><path id="Vector_32" d="M820.744 796.388c-5.001 0-9.07-4.068-9.07-9.069 0-5 4.069-9.069 9.07-9.069 5 0 9.069 4.069 9.069 9.069 0 5.001-4.069 9.069-9.069 9.069Zm0-15.675a6.622 6.622 0 0 0-6.619 6.618 6.622 6.622 0 0 0 6.619 6.619 6.622 6.622 0 0 0 6.618-6.619 6.622 6.622 0 0 0-6.618-6.618Z" fill="#2F2F45"/><path id="Vector_33" d="M1048.83 796.388c-5 0-9.07-4.068-9.07-9.069 0-5 4.07-9.069 9.07-9.069s9.07 4.069 9.07 9.069c0 5.001-4.07 9.069-9.07 9.069Zm0-15.675c-3.65 0-6.61 2.966-6.61 6.618 0 3.653 2.96 6.619 6.61 6.619a6.619 6.619 0 1 0 0-13.237Z" fill="#2F2F45"/><path id="Vector_34" d="M1277.16 796.388c-5 0-9.07-4.068-9.07-9.069 0-5 4.07-9.069 9.07-9.069s9.07 4.069 9.07 9.069c0 5.001-4.07 9.069-9.07 9.069Zm0-15.675a6.618 6.618 0 1 0 0 13.237c3.65 0 6.62-2.966 6.62-6.619a6.625 6.625 0 0 0-6.62-6.618Z" fill="#2F2F45"/><g id="Group_6" fill="#2F2F45"><path id="Vector_35" d="M1291.84 827.494c-.33 0-.66-.135-.9-.393l-13.49-14.571a1.227 1.227 0 0 1 .06-1.729 1.223 1.223 0 0 1 1.73.062l13.49 14.572c.47.502.43 1.274-.06 1.728-.23.22-.54.331-.83.331Z"/><path id="Vector_36" d="M1277.65 817.137c-.66 0-1.2-.527-1.23-1.188l-.15-5.111c0-.355.14-.699.4-.931.25-.245.61-.356.96-.319l5.09.539c.67.074 1.17.674 1.09 1.348-.07.674-.66 1.152-1.35 1.091l-3.69-.392.11 3.713c.03.674-.51 1.238-1.18 1.263h-.04l-.01-.013Z"/></g><g id="Group_7" fill="#2F2F45"><path id="Vector_37" d="M813.304 819.28c-.356 0-.699-.147-.944-.441a1.236 1.236 0 0 1 .147-1.728l15.221-12.758a1.238 1.238 0 0 1 1.729.147 1.237 1.237 0 0 1-.148 1.728l-15.221 12.758a1.213 1.213 0 0 1-.784.282v.012Z"/><path id="Vector_38" d="M817.471 820.176h-.025l-5.11-.11c-.356 0-.687-.172-.92-.441a1.18 1.18 0 0 1-.269-.981l.796-5.061a1.22 1.22 0 0 1 1.398-1.018 1.22 1.22 0 0 1 1.017 1.398l-.576 3.664 3.713.073a1.23 1.23 0 0 1 1.201 1.251 1.233 1.233 0 0 1-1.225 1.201v.024Z"/></g><g id="Group_8" fill="#2F2F45"><path id="Vector_39" d="M633.366 785.345c-.466 0-.907-.257-1.116-.71-.036-.086-4.044-8.457-13.885-12.979a1.23 1.23 0 0 1-.601-1.63 1.233 1.233 0 0 1 1.63-.601c10.699 4.927 14.915 13.8 15.087 14.18a1.237 1.237 0 0 1-.601 1.63c-.171.074-.343.11-.514.11Z"/><path id="Vector_40" d="M633.684 786.62a1.35 1.35 0 0 1-.49-.098l-4.682-2.059a1.223 1.223 0 0 1-.625-1.618c.27-.625.993-.907 1.618-.625l3.395 1.495 1.029-3.566a1.23 1.23 0 1 1 2.366.674l-1.41 4.914a1.222 1.222 0 0 1-1.176.883h-.025Z"/></g></g></g></svg>