<svg width="1900" height="1600" viewBox="0 0 1900 1600" fill="none" xmlns="http://www.w3.org/2000/svg"><g id="карточка=5, генерация=3"><g id="default"><path id="Vector" d="M699.753 793.472a5.517 5.517 0 0 1-5.226-7.27c8.078-24.004 27.21-34.053 42.633-33.331 7.111.331 13.525 3.244 18.544 8.434a5.497 5.497 0 0 1-.135 7.785 5.498 5.498 0 0 1-7.785-.135c-2.105-2.179-5.753-4.835-11.114-5.08-11.249-.514-25.435 7.271-31.69 25.84a5.514 5.514 0 0 1-5.214 3.757h-.013Z" fill="#575FE1"/><path id="Vector_2" d="M955.601 818.663a37.47 37.47 0 0 1-7.638-.783 5.52 5.52 0 0 1-4.272-6.512 5.518 5.518 0 0 1 6.512-4.272c12.363 2.57 25.79-3.807 30.564-14.542 2.852-6.414 2.277-14.186-1.481-20.294-1.848-2.987-6.071-8.042-13.685-8.385-11.249-.514-25.435 7.271-31.69 25.84a5.513 5.513 0 0 1-6.977 3.464 5.517 5.517 0 0 1-3.464-6.977c8.078-24.004 27.222-34.053 42.633-33.331 9.254.429 17.467 5.386 22.547 13.599 5.655 9.156 6.487 20.858 2.178 30.552-5.801 13.048-20.367 21.629-35.239 21.629l.012.012Z" fill="#575FE1"/><path id="Vector_3" d="M785.925 887h-7.687a2.455 2.455 0 0 1-2.448-2.448 2.456 2.456 0 0 1 2.448-2.448h7.687a2.455 2.455 0 0 1 2.448 2.448 2.454 2.454 0 0 1-2.448 2.448Zm-20.049 0h-6.182a2.455 2.455 0 0 1-2.448-2.448 2.456 2.456 0 0 1 2.448-2.448h6.182a2.456 2.456 0 0 1 2.448 2.448 2.455 2.455 0 0 1-2.448 2.448Zm-18.544 0h-6.182a2.455 2.455 0 0 1-2.448-2.448 2.456 2.456 0 0 1 2.448-2.448h6.182a2.456 2.456 0 0 1 2.448 2.448 2.455 2.455 0 0 1-2.448 2.448Zm-18.545 0h-6.181a2.455 2.455 0 0 1-2.448-2.448 2.456 2.456 0 0 1 2.448-2.448h6.181a2.455 2.455 0 0 1 2.448 2.448 2.454 2.454 0 0 1-2.448 2.448Zm-18.544 0h-6.181a2.454 2.454 0 0 1-2.448-2.448 2.455 2.455 0 0 1 2.448-2.448h6.181a2.455 2.455 0 0 1 2.448 2.448 2.454 2.454 0 0 1-2.448 2.448Zm-18.544 0h-6.181a2.454 2.454 0 0 1-2.448-2.448 2.455 2.455 0 0 1 2.448-2.448h6.181a2.455 2.455 0 0 1 2.448 2.448 2.454 2.454 0 0 1-2.448 2.448Zm-18.544 0h-6.181a2.454 2.454 0 0 1-2.448-2.448 2.455 2.455 0 0 1 2.448-2.448h6.181a2.456 2.456 0 0 1 2.448 2.448 2.455 2.455 0 0 1-2.448 2.448Zm-18.018-1.897a2.45 2.45 0 0 1-1.775-.759 8.557 8.557 0 0 1-2.362-5.9v-1.53a2.456 2.456 0 0 1 2.448-2.448 2.455 2.455 0 0 1 2.448 2.448v1.53c0 .943.355 1.849 1.016 2.534.93.979.894 2.534-.086 3.464a2.428 2.428 0 0 1-1.689.673v-.012Zm135.403-7.05a2.455 2.455 0 0 1-2.448-2.449v-6.181a2.455 2.455 0 0 1 2.448-2.448 2.456 2.456 0 0 1 2.448 2.448v6.181a2.456 2.456 0 0 1-2.448 2.449Zm-137.092-11.078a2.456 2.456 0 0 1-2.448-2.448v-6.181a2.455 2.455 0 0 1 2.448-2.448 2.454 2.454 0 0 1 2.448 2.448v6.181a2.455 2.455 0 0 1-2.448 2.448Zm137.092-7.467a2.454 2.454 0 0 1-2.448-2.448v-6.181a2.455 2.455 0 0 1 2.448-2.448 2.456 2.456 0 0 1 2.448 2.448v6.181a2.455 2.455 0 0 1-2.448 2.448Zm-137.092-11.077a2.456 2.456 0 0 1-2.448-2.448v-6.182a2.456 2.456 0 0 1 2.448-2.448 2.455 2.455 0 0 1 2.448 2.448v6.182a2.455 2.455 0 0 1-2.448 2.448Zm137.092-7.467a2.454 2.454 0 0 1-2.448-2.448v-6.181a2.454 2.454 0 0 1 2.448-2.448 2.455 2.455 0 0 1 2.448 2.448v6.181a2.455 2.455 0 0 1-2.448 2.448Zm-137.092-11.077a2.456 2.456 0 0 1-2.448-2.448v-6.182a2.456 2.456 0 0 1 2.448-2.448 2.455 2.455 0 0 1 2.448 2.448v6.182a2.455 2.455 0 0 1-2.448 2.448Zm137.092-7.467a2.454 2.454 0 0 1-2.448-2.448v-6.181a2.454 2.454 0 0 1 2.448-2.448 2.455 2.455 0 0 1 2.448 2.448v6.181a2.455 2.455 0 0 1-2.448 2.448Zm-137.092-11.077a2.456 2.456 0 0 1-2.448-2.448v-6.182a2.456 2.456 0 0 1 2.448-2.448 2.455 2.455 0 0 1 2.448 2.448v6.182a2.455 2.455 0 0 1-2.448 2.448Zm137.092-7.467a2.455 2.455 0 0 1-2.448-2.448v-6.181a2.454 2.454 0 0 1 2.448-2.448 2.455 2.455 0 0 1 2.448 2.448v6.181a2.456 2.456 0 0 1-2.448 2.448Zm-137.092-11.077A2.456 2.456 0 0 1 651 790.35v-6.181a2.456 2.456 0 0 1 2.448-2.448 2.455 2.455 0 0 1 2.448 2.448v6.181a2.455 2.455 0 0 1-2.448 2.449Zm137.092-7.467a2.455 2.455 0 0 1-2.448-2.448v-6.181a2.455 2.455 0 0 1 2.448-2.449 2.456 2.456 0 0 1 2.448 2.449v6.181a2.456 2.456 0 0 1-2.448 2.448Zm-137.092-11.078a2.455 2.455 0 0 1-2.448-2.448v-6.181a2.456 2.456 0 0 1 2.448-2.448 2.455 2.455 0 0 1 2.448 2.448v6.181a2.454 2.454 0 0 1-2.448 2.448Zm137.092-7.466a2.455 2.455 0 0 1-2.448-2.448v-6.182a2.455 2.455 0 0 1 2.448-2.448 2.456 2.456 0 0 1 2.448 2.448v6.182a2.456 2.456 0 0 1-2.448 2.448ZM653.46 755.71h-.122c-1.346-.061-2.387-1.211-2.326-2.57a8.521 8.521 0 0 1 4.37-7.051 2.437 2.437 0 0 1 3.329.943 2.44 2.44 0 0 1-.942 3.329 3.643 3.643 0 0 0-1.873 3.024 2.447 2.447 0 0 1-2.448 2.325h.012Zm132.771-5.545c-.245 0-.477-.036-.722-.11a3.616 3.616 0 0 0-1.089-.159h-4.346a2.455 2.455 0 0 1-2.448-2.448 2.456 2.456 0 0 1 2.448-2.448h4.346c.857 0 1.713.122 2.534.379a2.443 2.443 0 0 1 1.615 3.061 2.445 2.445 0 0 1-2.338 1.725Zm-18.519-.269h-6.182a2.455 2.455 0 0 1-2.448-2.448A2.456 2.456 0 0 1 761.53 745h6.182a2.456 2.456 0 0 1 2.448 2.448 2.455 2.455 0 0 1-2.448 2.448Zm-18.544 0h-6.182a2.455 2.455 0 0 1-2.448-2.448 2.456 2.456 0 0 1 2.448-2.448h6.182a2.456 2.456 0 0 1 2.448 2.448 2.455 2.455 0 0 1-2.448 2.448Zm-18.545 0h-6.181a2.455 2.455 0 0 1-2.448-2.448 2.456 2.456 0 0 1 2.448-2.448h6.181a2.455 2.455 0 0 1 2.448 2.448 2.454 2.454 0 0 1-2.448 2.448Zm-18.544 0h-6.181a2.454 2.454 0 0 1-2.448-2.448 2.455 2.455 0 0 1 2.448-2.448h6.181a2.455 2.455 0 0 1 2.448 2.448 2.454 2.454 0 0 1-2.448 2.448Zm-18.544 0h-6.181a2.454 2.454 0 0 1-2.448-2.448 2.455 2.455 0 0 1 2.448-2.448h6.181a2.455 2.455 0 0 1 2.448 2.448 2.454 2.454 0 0 1-2.448 2.448Zm-18.544 0h-6.181a2.454 2.454 0 0 1-2.448-2.448A2.455 2.455 0 0 1 668.81 745h6.181a2.456 2.456 0 0 1 2.448 2.448 2.455 2.455 0 0 1-2.448 2.448Z" fill="#EAF2FE"/><path id="Vector_4" d="M1013.79 887h-7.69a2.452 2.452 0 0 1-2.44-2.448c0-1.346 1.1-2.448 2.44-2.448h7.69c1.35 0 2.45 1.102 2.45 2.448 0 1.347-1.1 2.448-2.45 2.448Zm-20.048 0h-6.181a2.454 2.454 0 0 1-2.448-2.448 2.455 2.455 0 0 1 2.448-2.448h6.181a2.456 2.456 0 0 1 2.448 2.448 2.455 2.455 0 0 1-2.448 2.448Zm-18.544 0h-6.181a2.455 2.455 0 0 1-2.449-2.448 2.456 2.456 0 0 1 2.449-2.448h6.181a2.456 2.456 0 0 1 2.448 2.448 2.455 2.455 0 0 1-2.448 2.448Zm-18.544 0h-6.182a2.455 2.455 0 0 1-2.448-2.448 2.456 2.456 0 0 1 2.448-2.448h6.182a2.456 2.456 0 0 1 2.448 2.448 2.455 2.455 0 0 1-2.448 2.448Zm-18.544 0h-6.182a2.455 2.455 0 0 1-2.448-2.448 2.456 2.456 0 0 1 2.448-2.448h6.182a2.456 2.456 0 0 1 2.448 2.448A2.455 2.455 0 0 1 938.11 887Zm-18.544 0h-6.182a2.455 2.455 0 0 1-2.448-2.448 2.456 2.456 0 0 1 2.448-2.448h6.182a2.456 2.456 0 0 1 2.448 2.448 2.455 2.455 0 0 1-2.448 2.448Zm-18.545 0h-6.181a2.455 2.455 0 0 1-2.448-2.448 2.456 2.456 0 0 1 2.448-2.448h6.181a2.456 2.456 0 0 1 2.449 2.448 2.455 2.455 0 0 1-2.449 2.448Zm-18.017-1.897a2.446 2.446 0 0 1-1.775-.759 8.553 8.553 0 0 1-2.363-5.9v-1.53a2.456 2.456 0 0 1 2.449-2.448 2.456 2.456 0 0 1 2.448 2.448v1.53c0 .943.355 1.849 1.015 2.534a2.453 2.453 0 0 1-.085 3.464 2.43 2.43 0 0 1-1.689.673v-.012Zm135.406-7.05a2.455 2.455 0 0 1-2.45-2.449v-6.181c0-1.346 1.1-2.448 2.45-2.448 1.34 0 2.44 1.102 2.44 2.448v6.181c0 1.347-1.1 2.449-2.44 2.449Zm-137.095-11.078a2.456 2.456 0 0 1-2.449-2.448v-6.181a2.455 2.455 0 0 1 2.449-2.448 2.455 2.455 0 0 1 2.448 2.448v6.181a2.456 2.456 0 0 1-2.448 2.448Zm137.095-7.467a2.454 2.454 0 0 1-2.45-2.448v-6.181c0-1.346 1.1-2.448 2.45-2.448 1.34 0 2.44 1.102 2.44 2.448v6.181c0 1.347-1.1 2.448-2.44 2.448Zm-137.095-11.077a2.456 2.456 0 0 1-2.449-2.448v-6.182a2.456 2.456 0 0 1 2.449-2.448 2.456 2.456 0 0 1 2.448 2.448v6.182a2.456 2.456 0 0 1-2.448 2.448Zm137.095-7.467a2.454 2.454 0 0 1-2.45-2.448v-6.181c0-1.347 1.1-2.448 2.45-2.448 1.34 0 2.44 1.101 2.44 2.448v6.181c0 1.347-1.1 2.448-2.44 2.448Zm-137.095-11.077a2.456 2.456 0 0 1-2.449-2.448v-6.182a2.456 2.456 0 0 1 2.449-2.448 2.456 2.456 0 0 1 2.448 2.448v6.182a2.456 2.456 0 0 1-2.448 2.448Zm137.095-7.467a2.454 2.454 0 0 1-2.45-2.448v-6.181c0-1.347 1.1-2.448 2.45-2.448 1.34 0 2.44 1.101 2.44 2.448v6.181c0 1.347-1.1 2.448-2.44 2.448Zm-137.095-11.077a2.456 2.456 0 0 1-2.449-2.448v-6.182a2.456 2.456 0 0 1 2.449-2.448 2.456 2.456 0 0 1 2.448 2.448v6.182a2.456 2.456 0 0 1-2.448 2.448Zm137.095-7.467a2.455 2.455 0 0 1-2.45-2.448v-6.181c0-1.347 1.1-2.448 2.45-2.448 1.34 0 2.44 1.101 2.44 2.448v6.181c0 1.346-1.1 2.448-2.44 2.448Zm-137.095-11.077a2.456 2.456 0 0 1-2.449-2.449v-6.181a2.456 2.456 0 0 1 2.449-2.448 2.456 2.456 0 0 1 2.448 2.448v6.181a2.456 2.456 0 0 1-2.448 2.449Zm137.095-7.467a2.455 2.455 0 0 1-2.45-2.448v-6.181c0-1.347 1.1-2.449 2.45-2.449 1.34 0 2.44 1.102 2.44 2.449v6.181c0 1.346-1.1 2.448-2.44 2.448Zm-137.095-11.078a2.455 2.455 0 0 1-2.449-2.448v-6.181a2.456 2.456 0 0 1 2.449-2.448 2.456 2.456 0 0 1 2.448 2.448v6.181a2.455 2.455 0 0 1-2.448 2.448Zm137.095-7.466a2.455 2.455 0 0 1-2.45-2.448v-6.182c0-1.346 1.1-2.448 2.45-2.448 1.34 0 2.44 1.102 2.44 2.448v6.182c0 1.346-1.1 2.448-2.44 2.448ZM881.327 755.71h-.123a2.45 2.45 0 0 1-2.325-2.57 8.52 8.52 0 0 1 4.369-7.051 2.441 2.441 0 0 1 3.33.943 2.44 2.44 0 0 1-.943 3.329 3.642 3.642 0 0 0-1.872 3.024 2.449 2.449 0 0 1-2.448 2.325h.012Zm132.773-5.545c-.25 0-.48-.036-.72-.11a3.64 3.64 0 0 0-1.09-.159h-4.35a2.454 2.454 0 0 1-2.45-2.448c0-1.346 1.1-2.448 2.45-2.448h4.35c.85 0 1.71.122 2.53.379a2.447 2.447 0 0 1 1.62 3.061 2.459 2.459 0 0 1-2.34 1.725Zm-18.522-.269h-6.181a2.454 2.454 0 0 1-2.448-2.448 2.455 2.455 0 0 1 2.448-2.448h6.181a2.455 2.455 0 0 1 2.448 2.448 2.454 2.454 0 0 1-2.448 2.448Zm-18.544 0h-6.181a2.454 2.454 0 0 1-2.448-2.448 2.455 2.455 0 0 1 2.448-2.448h6.181a2.456 2.456 0 0 1 2.448 2.448 2.455 2.455 0 0 1-2.448 2.448Zm-18.544 0h-6.181a2.455 2.455 0 0 1-2.449-2.448 2.456 2.456 0 0 1 2.449-2.448h6.181a2.456 2.456 0 0 1 2.448 2.448 2.455 2.455 0 0 1-2.448 2.448Zm-18.544 0h-6.182a2.455 2.455 0 0 1-2.448-2.448 2.456 2.456 0 0 1 2.448-2.448h6.182a2.456 2.456 0 0 1 2.448 2.448 2.455 2.455 0 0 1-2.448 2.448Zm-18.544 0h-6.182a2.455 2.455 0 0 1-2.448-2.448A2.456 2.456 0 0 1 915.22 745h6.182a2.456 2.456 0 0 1 2.448 2.448 2.455 2.455 0 0 1-2.448 2.448Zm-18.544 0h-6.182a2.455 2.455 0 0 1-2.448-2.448 2.456 2.456 0 0 1 2.448-2.448h6.182a2.456 2.456 0 0 1 2.448 2.448 2.455 2.455 0 0 1-2.448 2.448Z" fill="#EAF2FE"/><path id="Vector_5" d="M1241.66 887h-7.69a2.454 2.454 0 0 1-2.45-2.448c0-1.346 1.1-2.448 2.45-2.448h7.69c1.34 0 2.45 1.102 2.45 2.448a2.46 2.46 0 0 1-2.45 2.448Zm-20.05 0h-6.18a2.454 2.454 0 0 1-2.45-2.448c0-1.346 1.1-2.448 2.45-2.448h6.18c1.34 0 2.45 1.102 2.45 2.448a2.46 2.46 0 0 1-2.45 2.448Zm-18.55 0h-6.18a2.46 2.46 0 0 1-2.45-2.448 2.461 2.461 0 0 1 2.45-2.448h6.18c1.35 0 2.45 1.102 2.45 2.448 0 1.347-1.1 2.448-2.45 2.448Zm-18.54 0h-6.18a2.454 2.454 0 0 1-2.45-2.448c0-1.346 1.1-2.448 2.45-2.448h6.18c1.35 0 2.45 1.102 2.45 2.448 0 1.347-1.1 2.448-2.45 2.448Zm-18.54 0h-6.19a2.452 2.452 0 0 1-2.44-2.448c0-1.346 1.1-2.448 2.44-2.448h6.19c1.34 0 2.44 1.102 2.44 2.448 0 1.347-1.1 2.448-2.44 2.448Zm-18.55 0h-6.18a2.454 2.454 0 0 1-2.45-2.448c0-1.346 1.1-2.448 2.45-2.448h6.18c1.35 0 2.45 1.102 2.45 2.448 0 1.347-1.1 2.448-2.45 2.448Zm-18.54 0h-6.18a2.454 2.454 0 0 1-2.45-2.448c0-1.346 1.1-2.448 2.45-2.448h6.18c1.34 0 2.45 1.102 2.45 2.448a2.46 2.46 0 0 1-2.45 2.448Zm-18.02-1.897c-.65 0-1.3-.257-1.78-.759a8.587 8.587 0 0 1-2.36-5.9v-1.53c0-1.346 1.1-2.448 2.45-2.448s2.45 1.102 2.45 2.448v1.53c0 .943.35 1.849 1.01 2.534.93.979.9 2.534-.08 3.464a2.44 2.44 0 0 1-1.69.673v-.012Zm135.4-7.05a2.462 2.462 0 0 1-2.45-2.449v-6.181a2.461 2.461 0 0 1 2.45-2.448c1.35 0 2.45 1.102 2.45 2.448v6.181c0 1.347-1.1 2.449-2.45 2.449Zm-137.09-11.078a2.455 2.455 0 0 1-2.45-2.448v-6.181c0-1.347 1.1-2.448 2.45-2.448s2.45 1.101 2.45 2.448v6.181c0 1.346-1.1 2.448-2.45 2.448Zm137.09-7.467a2.46 2.46 0 0 1-2.45-2.448v-6.181a2.461 2.461 0 0 1 2.45-2.448c1.35 0 2.45 1.102 2.45 2.448v6.181c0 1.347-1.1 2.448-2.45 2.448Zm-137.09-11.077a2.455 2.455 0 0 1-2.45-2.448v-6.182c0-1.346 1.1-2.448 2.45-2.448s2.45 1.102 2.45 2.448v6.182c0 1.346-1.1 2.448-2.45 2.448Zm137.09-7.467a2.46 2.46 0 0 1-2.45-2.448v-6.181a2.46 2.46 0 0 1 2.45-2.448c1.35 0 2.45 1.101 2.45 2.448v6.181c0 1.347-1.1 2.448-2.45 2.448Zm-137.09-11.077a2.455 2.455 0 0 1-2.45-2.448v-6.182c0-1.346 1.1-2.448 2.45-2.448s2.45 1.102 2.45 2.448v6.182c0 1.346-1.1 2.448-2.45 2.448Zm137.09-7.467a2.46 2.46 0 0 1-2.45-2.448v-6.181a2.46 2.46 0 0 1 2.45-2.448c1.35 0 2.45 1.101 2.45 2.448v6.181c0 1.347-1.1 2.448-2.45 2.448Zm-137.09-11.077a2.455 2.455 0 0 1-2.45-2.448v-6.182c0-1.346 1.1-2.448 2.45-2.448s2.45 1.102 2.45 2.448v6.182c0 1.346-1.1 2.448-2.45 2.448Zm137.09-7.467a2.461 2.461 0 0 1-2.45-2.448v-6.181a2.46 2.46 0 0 1 2.45-2.448c1.35 0 2.45 1.101 2.45 2.448v6.181c0 1.346-1.1 2.448-2.45 2.448Zm-137.09-11.077a2.455 2.455 0 0 1-2.45-2.449v-6.181c0-1.346 1.1-2.448 2.45-2.448s2.45 1.102 2.45 2.448v6.181c0 1.347-1.1 2.449-2.45 2.449Zm137.09-7.467a2.461 2.461 0 0 1-2.45-2.448v-6.181a2.462 2.462 0 0 1 2.45-2.449c1.35 0 2.45 1.102 2.45 2.449v6.181c0 1.346-1.1 2.448-2.45 2.448Zm-137.09-11.078a2.454 2.454 0 0 1-2.45-2.448v-6.181c0-1.346 1.1-2.448 2.45-2.448s2.45 1.102 2.45 2.448v6.181c0 1.347-1.1 2.448-2.45 2.448Zm137.09-7.466a2.461 2.461 0 0 1-2.45-2.448v-6.182a2.461 2.461 0 0 1 2.45-2.448c1.35 0 2.45 1.102 2.45 2.448v6.182c0 1.346-1.1 2.448-2.45 2.448Zm-137.08-11.078h-.12a2.452 2.452 0 0 1-2.33-2.57 8.539 8.539 0 0 1 4.37-7.051 2.437 2.437 0 0 1 3.33.943 2.437 2.437 0 0 1-.94 3.329 3.647 3.647 0 0 0-1.87 3.024 2.447 2.447 0 0 1-2.45 2.325h.01Zm132.77-5.545c-.24 0-.47-.036-.72-.11-.35-.11-.71-.159-1.09-.159h-4.34a2.454 2.454 0 0 1-2.45-2.448c0-1.346 1.1-2.448 2.45-2.448h4.34c.86 0 1.72.122 2.54.379 1.29.404 2.02 1.775 1.61 3.061a2.45 2.45 0 0 1-2.34 1.725Zm-18.52-.269h-6.18a2.46 2.46 0 0 1-2.45-2.448 2.461 2.461 0 0 1 2.45-2.448h6.18c1.35 0 2.45 1.102 2.45 2.448 0 1.347-1.1 2.448-2.45 2.448Zm-18.54 0h-6.18a2.454 2.454 0 0 1-2.45-2.448c0-1.346 1.1-2.448 2.45-2.448h6.18c1.35 0 2.45 1.102 2.45 2.448 0 1.347-1.1 2.448-2.45 2.448Zm-18.54 0h-6.19a2.452 2.452 0 0 1-2.44-2.448c0-1.346 1.1-2.448 2.44-2.448h6.19c1.34 0 2.44 1.102 2.44 2.448 0 1.347-1.1 2.448-2.44 2.448Zm-18.55 0h-6.18a2.454 2.454 0 0 1-2.45-2.448c0-1.346 1.1-2.448 2.45-2.448h6.18c1.35 0 2.45 1.102 2.45 2.448 0 1.347-1.1 2.448-2.45 2.448Zm-18.54 0h-6.18a2.454 2.454 0 0 1-2.45-2.448c0-1.346 1.1-2.448 2.45-2.448h6.18c1.34 0 2.45 1.102 2.45 2.448a2.46 2.46 0 0 1-2.45 2.448Zm-18.55 0h-6.18a2.46 2.46 0 0 1-2.45-2.448 2.461 2.461 0 0 1 2.45-2.448h6.18c1.35 0 2.45 1.102 2.45 2.448 0 1.347-1.1 2.448-2.45 2.448Z" fill="#EAF2FE"/><path id="Vector_6" d="M1186.09 878.591c-19.78 0-42.2-12.558-52.05-29.511a5.498 5.498 0 0 1 2-7.528 5.495 5.495 0 0 1 7.52 1.995c8.11 13.954 28.51 24.934 44.57 23.967 10.98-.661 18.89-6.402 23.48-17.075 1.64-3.807 1.38-8.152-.74-12.241-2.71-5.251-11.12-14.884-36.79-20.331-2.98-.624-4.87-3.55-4.25-6.524.63-2.974 3.55-4.884 6.51-4.26 12.38 2.571 25.79-3.806 30.57-14.541 2.85-6.414 2.27-14.187-1.48-20.295-1.85-2.986-6.07-8.042-13.69-8.384-11.27-.502-25.43 7.271-31.69 25.839a5.51 5.51 0 0 1-6.98 3.464 5.51 5.51 0 0 1-3.46-6.977c8.08-24.003 27.22-34.065 42.63-33.33 9.26.428 17.47 5.385 22.55 13.599 5.66 9.155 6.49 20.857 2.18 30.552-3.4 7.662-9.84 13.782-17.58 17.54 12.27 5.839 18.3 12.865 21.26 18.581 3.66 7.063 4.04 14.762 1.07 21.653-6.2 14.382-17.88 22.804-32.94 23.71-.89.049-1.8.085-2.71.085l.02.012Z" fill="#575FE1"/><path id="Vector_7" d="M698.75 799.934c-4.995 0-9.058-4.064-9.058-9.058s4.063-9.058 9.058-9.058c4.994 0 9.057 4.064 9.057 9.058s-4.063 9.058-9.057 9.058Zm0-15.655a6.613 6.613 0 0 0-6.61 6.609 6.613 6.613 0 0 0 6.61 6.61 6.613 6.613 0 0 0 6.609-6.61 6.613 6.613 0 0 0-6.609-6.609Z" fill="#2F2F45"/><path id="Vector_8" d="M927.742 799.934c-4.994 0-9.058-4.064-9.058-9.058s4.064-9.058 9.058-9.058 9.058 4.064 9.058 9.058-4.064 9.058-9.058 9.058Zm0-15.655a6.613 6.613 0 0 0-6.61 6.609 6.613 6.613 0 0 0 6.61 6.61 6.613 6.613 0 0 0 6.609-6.61 6.613 6.613 0 0 0-6.609-6.609Z" fill="#2F2F45"/><path id="Vector_9" d="M1154.31 799.934c-4.99 0-9.06-4.064-9.06-9.058s4.07-9.058 9.06-9.058 9.06 4.064 9.06 9.058-4.07 9.058-9.06 9.058Zm0-15.655a6.612 6.612 0 0 0-6.61 6.609c0 3.648 2.96 6.61 6.61 6.61 3.65 0 6.61-2.962 6.61-6.61a6.612 6.612 0 0 0-6.61-6.609Z" fill="#2F2F45"/><g id="Group" fill="#2F2F45"><path id="Vector_10" d="M713.389 792.111a1.22 1.22 0 0 1-1.15-1.64c4.002-11.053 12.485-15.998 12.84-16.194a1.22 1.22 0 0 1 1.664.453 1.219 1.219 0 0 1-.453 1.665c-.085.049-8.078 4.725-11.763 14.909a1.22 1.22 0 0 1-1.15.807h.012Z"/><path id="Vector_11" d="M725.275 780.961c-.135 0-.27-.025-.392-.061a1.226 1.226 0 0 1-.759-1.555l1.2-3.513-3.636-.722a1.232 1.232 0 0 1-.967-1.432c.135-.661.784-1.102 1.432-.967l5.019.991c.343.074.649.282.82.588.171.306.208.673.098 1.003l-1.652 4.835a1.221 1.221 0 0 1-1.163.833Z"/></g><g id="Group_2" fill="#2F2F45"><path id="Vector_12" d="M952.002 801.403c-.612 0-.979-.024-1.053-.037a1.22 1.22 0 0 1-1.126-1.309 1.212 1.212 0 0 1 1.31-1.126c.098 0 9.339.612 18.091-5.741a1.231 1.231 0 0 1 1.714.269 1.23 1.23 0 0 1-.269 1.714c-7.822 5.679-15.827 6.23-18.667 6.23Z"/><path id="Vector_13" d="M953.361 804.659c-.318 0-.637-.123-.869-.367l-3.599-3.636a1.26 1.26 0 0 1-.355-.954c.025-.355.208-.674.49-.894l4.088-3.072a1.228 1.228 0 0 1 1.714.245 1.227 1.227 0 0 1-.245 1.713l-2.962 2.228 2.607 2.644a1.23 1.23 0 0 1 0 1.726 1.229 1.229 0 0 1-.857.355l-.012.012Z"/></g><g id="Group_3" fill="#2F2F45"><path id="Vector_14" d="M1157.95 847.977c-.22 0-.44-.061-.64-.184-10.04-6.132-13.18-15.422-13.32-15.814-.21-.637.14-1.334.79-1.542.63-.208 1.33.134 1.54.783.02.086 3.02 8.862 12.26 14.493.58.355.76 1.101.41 1.677-.24.379-.64.587-1.04.587Z"/><path id="Vector_15" d="M1143.02 836.24c-.15 0-.31-.025-.47-.098-.63-.257-.92-.98-.66-1.604l1.97-4.712c.13-.331.4-.576.74-.686.33-.11.7-.073 1.01.11l4.4 2.595c.59.343.78 1.09.44 1.677-.34.575-1.08.784-1.67.441l-3.2-1.885-1.43 3.427a1.22 1.22 0 0 1-1.13.747v-.012Z"/></g></g><g id="success"><path id="Vector_16" d="M699.753 793.472a5.517 5.517 0 0 1-5.226-7.27c8.078-24.004 27.21-34.053 42.633-33.331 7.111.331 13.525 3.244 18.544 8.434a5.497 5.497 0 0 1-.135 7.785 5.498 5.498 0 0 1-7.785-.135c-2.105-2.179-5.753-4.835-11.114-5.08-11.249-.514-25.435 7.271-31.69 25.84a5.514 5.514 0 0 1-5.214 3.757h-.013Z" fill="#575FE1"/><path id="Vector_17" d="M955.601 818.663a37.47 37.47 0 0 1-7.638-.783 5.52 5.52 0 0 1-4.272-6.512 5.518 5.518 0 0 1 6.512-4.272c12.363 2.57 25.79-3.807 30.564-14.542 2.852-6.414 2.277-14.186-1.481-20.294-1.848-2.987-6.071-8.042-13.685-8.385-11.249-.514-25.435 7.271-31.69 25.84a5.513 5.513 0 0 1-6.977 3.464 5.517 5.517 0 0 1-3.464-6.977c8.078-24.004 27.222-34.053 42.633-33.331 9.254.429 17.467 5.386 22.547 13.599 5.655 9.156 6.487 20.858 2.178 30.552-5.801 13.048-20.367 21.629-35.239 21.629l.012.012Z" fill="#575FE1"/><path id="Vector_18" d="M785.925 887h-7.687a2.455 2.455 0 0 1-2.448-2.448 2.456 2.456 0 0 1 2.448-2.448h7.687a2.455 2.455 0 0 1 2.448 2.448 2.454 2.454 0 0 1-2.448 2.448Zm-20.049 0h-6.182a2.455 2.455 0 0 1-2.448-2.448 2.456 2.456 0 0 1 2.448-2.448h6.182a2.456 2.456 0 0 1 2.448 2.448 2.455 2.455 0 0 1-2.448 2.448Zm-18.544 0h-6.182a2.455 2.455 0 0 1-2.448-2.448 2.456 2.456 0 0 1 2.448-2.448h6.182a2.456 2.456 0 0 1 2.448 2.448 2.455 2.455 0 0 1-2.448 2.448Zm-18.545 0h-6.181a2.455 2.455 0 0 1-2.448-2.448 2.456 2.456 0 0 1 2.448-2.448h6.181a2.455 2.455 0 0 1 2.448 2.448 2.454 2.454 0 0 1-2.448 2.448Zm-18.544 0h-6.181a2.454 2.454 0 0 1-2.448-2.448 2.455 2.455 0 0 1 2.448-2.448h6.181a2.455 2.455 0 0 1 2.448 2.448 2.454 2.454 0 0 1-2.448 2.448Zm-18.544 0h-6.181a2.454 2.454 0 0 1-2.448-2.448 2.455 2.455 0 0 1 2.448-2.448h6.181a2.455 2.455 0 0 1 2.448 2.448 2.454 2.454 0 0 1-2.448 2.448Zm-18.544 0h-6.181a2.454 2.454 0 0 1-2.448-2.448 2.455 2.455 0 0 1 2.448-2.448h6.181a2.456 2.456 0 0 1 2.448 2.448 2.455 2.455 0 0 1-2.448 2.448Zm-18.018-1.897a2.45 2.45 0 0 1-1.775-.759 8.557 8.557 0 0 1-2.362-5.9v-1.53a2.456 2.456 0 0 1 2.448-2.448 2.455 2.455 0 0 1 2.448 2.448v1.53c0 .943.355 1.849 1.016 2.534.93.979.894 2.534-.086 3.464a2.428 2.428 0 0 1-1.689.673v-.012Zm135.403-7.05a2.455 2.455 0 0 1-2.448-2.449v-6.181a2.455 2.455 0 0 1 2.448-2.448 2.456 2.456 0 0 1 2.448 2.448v6.181a2.456 2.456 0 0 1-2.448 2.449Zm-137.092-11.078a2.456 2.456 0 0 1-2.448-2.448v-6.181a2.455 2.455 0 0 1 2.448-2.448 2.454 2.454 0 0 1 2.448 2.448v6.181a2.455 2.455 0 0 1-2.448 2.448Zm137.092-7.467a2.454 2.454 0 0 1-2.448-2.448v-6.181a2.455 2.455 0 0 1 2.448-2.448 2.456 2.456 0 0 1 2.448 2.448v6.181a2.455 2.455 0 0 1-2.448 2.448Zm-137.092-11.077a2.456 2.456 0 0 1-2.448-2.448v-6.182a2.456 2.456 0 0 1 2.448-2.448 2.455 2.455 0 0 1 2.448 2.448v6.182a2.455 2.455 0 0 1-2.448 2.448Zm137.092-7.467a2.454 2.454 0 0 1-2.448-2.448v-6.181a2.454 2.454 0 0 1 2.448-2.448 2.455 2.455 0 0 1 2.448 2.448v6.181a2.455 2.455 0 0 1-2.448 2.448Zm-137.092-11.077a2.456 2.456 0 0 1-2.448-2.448v-6.182a2.456 2.456 0 0 1 2.448-2.448 2.455 2.455 0 0 1 2.448 2.448v6.182a2.455 2.455 0 0 1-2.448 2.448Zm137.092-7.467a2.454 2.454 0 0 1-2.448-2.448v-6.181a2.454 2.454 0 0 1 2.448-2.448 2.455 2.455 0 0 1 2.448 2.448v6.181a2.455 2.455 0 0 1-2.448 2.448Zm-137.092-11.077a2.456 2.456 0 0 1-2.448-2.448v-6.182a2.456 2.456 0 0 1 2.448-2.448 2.455 2.455 0 0 1 2.448 2.448v6.182a2.455 2.455 0 0 1-2.448 2.448Zm137.092-7.467a2.455 2.455 0 0 1-2.448-2.448v-6.181a2.454 2.454 0 0 1 2.448-2.448 2.455 2.455 0 0 1 2.448 2.448v6.181a2.456 2.456 0 0 1-2.448 2.448Zm-137.092-11.077A2.456 2.456 0 0 1 651 790.35v-6.181a2.456 2.456 0 0 1 2.448-2.448 2.455 2.455 0 0 1 2.448 2.448v6.181a2.455 2.455 0 0 1-2.448 2.449Zm137.092-7.467a2.455 2.455 0 0 1-2.448-2.448v-6.181a2.455 2.455 0 0 1 2.448-2.449 2.456 2.456 0 0 1 2.448 2.449v6.181a2.456 2.456 0 0 1-2.448 2.448Zm-137.092-11.078a2.455 2.455 0 0 1-2.448-2.448v-6.181a2.456 2.456 0 0 1 2.448-2.448 2.455 2.455 0 0 1 2.448 2.448v6.181a2.454 2.454 0 0 1-2.448 2.448Zm137.092-7.466a2.455 2.455 0 0 1-2.448-2.448v-6.182a2.455 2.455 0 0 1 2.448-2.448 2.456 2.456 0 0 1 2.448 2.448v6.182a2.456 2.456 0 0 1-2.448 2.448ZM653.46 755.71h-.122c-1.346-.061-2.387-1.211-2.326-2.57a8.521 8.521 0 0 1 4.37-7.051 2.437 2.437 0 0 1 3.329.943 2.44 2.44 0 0 1-.942 3.329 3.643 3.643 0 0 0-1.873 3.024 2.447 2.447 0 0 1-2.448 2.325h.012Zm132.771-5.545c-.245 0-.477-.036-.722-.11a3.616 3.616 0 0 0-1.089-.159h-4.346a2.455 2.455 0 0 1-2.448-2.448 2.456 2.456 0 0 1 2.448-2.448h4.346c.857 0 1.713.122 2.534.379a2.443 2.443 0 0 1 1.615 3.061 2.445 2.445 0 0 1-2.338 1.725Zm-18.519-.269h-6.182a2.455 2.455 0 0 1-2.448-2.448A2.456 2.456 0 0 1 761.53 745h6.182a2.456 2.456 0 0 1 2.448 2.448 2.455 2.455 0 0 1-2.448 2.448Zm-18.544 0h-6.182a2.455 2.455 0 0 1-2.448-2.448 2.456 2.456 0 0 1 2.448-2.448h6.182a2.456 2.456 0 0 1 2.448 2.448 2.455 2.455 0 0 1-2.448 2.448Zm-18.545 0h-6.181a2.455 2.455 0 0 1-2.448-2.448 2.456 2.456 0 0 1 2.448-2.448h6.181a2.455 2.455 0 0 1 2.448 2.448 2.454 2.454 0 0 1-2.448 2.448Zm-18.544 0h-6.181a2.454 2.454 0 0 1-2.448-2.448 2.455 2.455 0 0 1 2.448-2.448h6.181a2.455 2.455 0 0 1 2.448 2.448 2.454 2.454 0 0 1-2.448 2.448Zm-18.544 0h-6.181a2.454 2.454 0 0 1-2.448-2.448 2.455 2.455 0 0 1 2.448-2.448h6.181a2.455 2.455 0 0 1 2.448 2.448 2.454 2.454 0 0 1-2.448 2.448Zm-18.544 0h-6.181a2.454 2.454 0 0 1-2.448-2.448A2.455 2.455 0 0 1 668.81 745h6.181a2.456 2.456 0 0 1 2.448 2.448 2.455 2.455 0 0 1-2.448 2.448Z" fill="#EAF2FE"/><path id="Vector_19" d="M1013.79 887h-7.69a2.452 2.452 0 0 1-2.44-2.448c0-1.346 1.1-2.448 2.44-2.448h7.69c1.35 0 2.45 1.102 2.45 2.448 0 1.347-1.1 2.448-2.45 2.448Zm-20.048 0h-6.181a2.454 2.454 0 0 1-2.448-2.448 2.455 2.455 0 0 1 2.448-2.448h6.181a2.456 2.456 0 0 1 2.448 2.448 2.455 2.455 0 0 1-2.448 2.448Zm-18.544 0h-6.181a2.455 2.455 0 0 1-2.449-2.448 2.456 2.456 0 0 1 2.449-2.448h6.181a2.456 2.456 0 0 1 2.448 2.448 2.455 2.455 0 0 1-2.448 2.448Zm-18.544 0h-6.182a2.455 2.455 0 0 1-2.448-2.448 2.456 2.456 0 0 1 2.448-2.448h6.182a2.456 2.456 0 0 1 2.448 2.448 2.455 2.455 0 0 1-2.448 2.448Zm-18.544 0h-6.182a2.455 2.455 0 0 1-2.448-2.448 2.456 2.456 0 0 1 2.448-2.448h6.182a2.456 2.456 0 0 1 2.448 2.448A2.455 2.455 0 0 1 938.11 887Zm-18.544 0h-6.182a2.455 2.455 0 0 1-2.448-2.448 2.456 2.456 0 0 1 2.448-2.448h6.182a2.456 2.456 0 0 1 2.448 2.448 2.455 2.455 0 0 1-2.448 2.448Zm-18.545 0h-6.181a2.455 2.455 0 0 1-2.448-2.448 2.456 2.456 0 0 1 2.448-2.448h6.181a2.456 2.456 0 0 1 2.449 2.448 2.455 2.455 0 0 1-2.449 2.448Zm-18.017-1.897a2.446 2.446 0 0 1-1.775-.759 8.553 8.553 0 0 1-2.363-5.9v-1.53a2.456 2.456 0 0 1 2.449-2.448 2.456 2.456 0 0 1 2.448 2.448v1.53c0 .943.355 1.849 1.015 2.534a2.453 2.453 0 0 1-.085 3.464 2.43 2.43 0 0 1-1.689.673v-.012Zm135.406-7.05a2.455 2.455 0 0 1-2.45-2.449v-6.181c0-1.346 1.1-2.448 2.45-2.448 1.34 0 2.44 1.102 2.44 2.448v6.181c0 1.347-1.1 2.449-2.44 2.449Zm-137.095-11.078a2.456 2.456 0 0 1-2.449-2.448v-6.181a2.455 2.455 0 0 1 2.449-2.448 2.455 2.455 0 0 1 2.448 2.448v6.181a2.456 2.456 0 0 1-2.448 2.448Zm137.095-7.467a2.454 2.454 0 0 1-2.45-2.448v-6.181c0-1.346 1.1-2.448 2.45-2.448 1.34 0 2.44 1.102 2.44 2.448v6.181c0 1.347-1.1 2.448-2.44 2.448Zm-137.095-11.077a2.456 2.456 0 0 1-2.449-2.448v-6.182a2.456 2.456 0 0 1 2.449-2.448 2.456 2.456 0 0 1 2.448 2.448v6.182a2.456 2.456 0 0 1-2.448 2.448Zm137.095-7.467a2.454 2.454 0 0 1-2.45-2.448v-6.181c0-1.347 1.1-2.448 2.45-2.448 1.34 0 2.44 1.101 2.44 2.448v6.181c0 1.347-1.1 2.448-2.44 2.448Zm-137.095-11.077a2.456 2.456 0 0 1-2.449-2.448v-6.182a2.456 2.456 0 0 1 2.449-2.448 2.456 2.456 0 0 1 2.448 2.448v6.182a2.456 2.456 0 0 1-2.448 2.448Zm137.095-7.467a2.454 2.454 0 0 1-2.45-2.448v-6.181c0-1.347 1.1-2.448 2.45-2.448 1.34 0 2.44 1.101 2.44 2.448v6.181c0 1.347-1.1 2.448-2.44 2.448Zm-137.095-11.077a2.456 2.456 0 0 1-2.449-2.448v-6.182a2.456 2.456 0 0 1 2.449-2.448 2.456 2.456 0 0 1 2.448 2.448v6.182a2.456 2.456 0 0 1-2.448 2.448Zm137.095-7.467a2.455 2.455 0 0 1-2.45-2.448v-6.181c0-1.347 1.1-2.448 2.45-2.448 1.34 0 2.44 1.101 2.44 2.448v6.181c0 1.346-1.1 2.448-2.44 2.448Zm-137.095-11.077a2.456 2.456 0 0 1-2.449-2.449v-6.181a2.456 2.456 0 0 1 2.449-2.448 2.456 2.456 0 0 1 2.448 2.448v6.181a2.456 2.456 0 0 1-2.448 2.449Zm137.095-7.467a2.455 2.455 0 0 1-2.45-2.448v-6.181c0-1.347 1.1-2.449 2.45-2.449 1.34 0 2.44 1.102 2.44 2.449v6.181c0 1.346-1.1 2.448-2.44 2.448Zm-137.095-11.078a2.455 2.455 0 0 1-2.449-2.448v-6.181a2.456 2.456 0 0 1 2.449-2.448 2.456 2.456 0 0 1 2.448 2.448v6.181a2.455 2.455 0 0 1-2.448 2.448Zm137.095-7.466a2.455 2.455 0 0 1-2.45-2.448v-6.182c0-1.346 1.1-2.448 2.45-2.448 1.34 0 2.44 1.102 2.44 2.448v6.182c0 1.346-1.1 2.448-2.44 2.448ZM881.327 755.71h-.123a2.45 2.45 0 0 1-2.325-2.57 8.52 8.52 0 0 1 4.369-7.051 2.441 2.441 0 0 1 3.33.943 2.44 2.44 0 0 1-.943 3.329 3.642 3.642 0 0 0-1.872 3.024 2.449 2.449 0 0 1-2.448 2.325h.012Zm132.773-5.545c-.25 0-.48-.036-.72-.11a3.64 3.64 0 0 0-1.09-.159h-4.35a2.454 2.454 0 0 1-2.45-2.448c0-1.346 1.1-2.448 2.45-2.448h4.35c.85 0 1.71.122 2.53.379a2.447 2.447 0 0 1 1.62 3.061 2.459 2.459 0 0 1-2.34 1.725Zm-18.522-.269h-6.181a2.454 2.454 0 0 1-2.448-2.448 2.455 2.455 0 0 1 2.448-2.448h6.181a2.455 2.455 0 0 1 2.448 2.448 2.454 2.454 0 0 1-2.448 2.448Zm-18.544 0h-6.181a2.454 2.454 0 0 1-2.448-2.448 2.455 2.455 0 0 1 2.448-2.448h6.181a2.456 2.456 0 0 1 2.448 2.448 2.455 2.455 0 0 1-2.448 2.448Zm-18.544 0h-6.181a2.455 2.455 0 0 1-2.449-2.448 2.456 2.456 0 0 1 2.449-2.448h6.181a2.456 2.456 0 0 1 2.448 2.448 2.455 2.455 0 0 1-2.448 2.448Zm-18.544 0h-6.182a2.455 2.455 0 0 1-2.448-2.448 2.456 2.456 0 0 1 2.448-2.448h6.182a2.456 2.456 0 0 1 2.448 2.448 2.455 2.455 0 0 1-2.448 2.448Zm-18.544 0h-6.182a2.455 2.455 0 0 1-2.448-2.448A2.456 2.456 0 0 1 915.22 745h6.182a2.456 2.456 0 0 1 2.448 2.448 2.455 2.455 0 0 1-2.448 2.448Zm-18.545 0h-6.181a2.455 2.455 0 0 1-2.448-2.448 2.456 2.456 0 0 1 2.448-2.448h6.181a2.456 2.456 0 0 1 2.449 2.448 2.455 2.455 0 0 1-2.449 2.448Z" fill="#EAF2FE"/><path id="Vector_20" d="M1241.66 887h-7.69a2.454 2.454 0 0 1-2.45-2.448c0-1.346 1.1-2.448 2.45-2.448h7.69c1.34 0 2.45 1.102 2.45 2.448a2.46 2.46 0 0 1-2.45 2.448Zm-20.05 0h-6.18a2.454 2.454 0 0 1-2.45-2.448c0-1.346 1.1-2.448 2.45-2.448h6.18c1.34 0 2.45 1.102 2.45 2.448a2.46 2.46 0 0 1-2.45 2.448Zm-18.55 0h-6.18a2.46 2.46 0 0 1-2.45-2.448 2.461 2.461 0 0 1 2.45-2.448h6.18c1.35 0 2.45 1.102 2.45 2.448 0 1.347-1.1 2.448-2.45 2.448Zm-18.54 0h-6.18a2.454 2.454 0 0 1-2.45-2.448c0-1.346 1.1-2.448 2.45-2.448h6.18c1.35 0 2.45 1.102 2.45 2.448 0 1.347-1.1 2.448-2.45 2.448Zm-18.54 0h-6.19a2.452 2.452 0 0 1-2.44-2.448c0-1.346 1.1-2.448 2.44-2.448h6.19c1.34 0 2.44 1.102 2.44 2.448 0 1.347-1.1 2.448-2.44 2.448Zm-18.55 0h-6.18a2.454 2.454 0 0 1-2.45-2.448c0-1.346 1.1-2.448 2.45-2.448h6.18c1.35 0 2.45 1.102 2.45 2.448 0 1.347-1.1 2.448-2.45 2.448Zm-18.54 0h-6.18a2.454 2.454 0 0 1-2.45-2.448c0-1.346 1.1-2.448 2.45-2.448h6.18c1.34 0 2.45 1.102 2.45 2.448a2.46 2.46 0 0 1-2.45 2.448Zm-18.02-1.897c-.65 0-1.3-.257-1.78-.759a8.587 8.587 0 0 1-2.36-5.9v-1.53c0-1.346 1.1-2.448 2.45-2.448s2.45 1.102 2.45 2.448v1.53c0 .943.35 1.849 1.01 2.534.93.979.9 2.534-.08 3.464a2.44 2.44 0 0 1-1.69.673v-.012Zm135.4-7.05a2.462 2.462 0 0 1-2.45-2.449v-6.181a2.461 2.461 0 0 1 2.45-2.448c1.35 0 2.45 1.102 2.45 2.448v6.181c0 1.347-1.1 2.449-2.45 2.449Zm-137.09-11.078a2.455 2.455 0 0 1-2.45-2.448v-6.181c0-1.347 1.1-2.448 2.45-2.448s2.45 1.101 2.45 2.448v6.181c0 1.346-1.1 2.448-2.45 2.448Zm137.09-7.467a2.46 2.46 0 0 1-2.45-2.448v-6.181a2.461 2.461 0 0 1 2.45-2.448c1.35 0 2.45 1.102 2.45 2.448v6.181c0 1.347-1.1 2.448-2.45 2.448Zm-137.09-11.077a2.455 2.455 0 0 1-2.45-2.448v-6.182c0-1.346 1.1-2.448 2.45-2.448s2.45 1.102 2.45 2.448v6.182c0 1.346-1.1 2.448-2.45 2.448Zm137.09-7.467a2.46 2.46 0 0 1-2.45-2.448v-6.181a2.46 2.46 0 0 1 2.45-2.448c1.35 0 2.45 1.101 2.45 2.448v6.181c0 1.347-1.1 2.448-2.45 2.448Zm-137.09-11.077a2.455 2.455 0 0 1-2.45-2.448v-6.182c0-1.346 1.1-2.448 2.45-2.448s2.45 1.102 2.45 2.448v6.182c0 1.346-1.1 2.448-2.45 2.448Zm137.09-7.467a2.46 2.46 0 0 1-2.45-2.448v-6.181a2.46 2.46 0 0 1 2.45-2.448c1.35 0 2.45 1.101 2.45 2.448v6.181c0 1.347-1.1 2.448-2.45 2.448Zm-137.09-11.077a2.455 2.455 0 0 1-2.45-2.448v-6.182c0-1.346 1.1-2.448 2.45-2.448s2.45 1.102 2.45 2.448v6.182c0 1.346-1.1 2.448-2.45 2.448Zm137.09-7.467a2.461 2.461 0 0 1-2.45-2.448v-6.181a2.46 2.46 0 0 1 2.45-2.448c1.35 0 2.45 1.101 2.45 2.448v6.181c0 1.346-1.1 2.448-2.45 2.448Zm-137.09-11.077a2.455 2.455 0 0 1-2.45-2.449v-6.181c0-1.346 1.1-2.448 2.45-2.448s2.45 1.102 2.45 2.448v6.181c0 1.347-1.1 2.449-2.45 2.449Zm137.09-7.467a2.461 2.461 0 0 1-2.45-2.448v-6.181a2.462 2.462 0 0 1 2.45-2.449c1.35 0 2.45 1.102 2.45 2.449v6.181c0 1.346-1.1 2.448-2.45 2.448Zm-137.09-11.078a2.454 2.454 0 0 1-2.45-2.448v-6.181c0-1.346 1.1-2.448 2.45-2.448s2.45 1.102 2.45 2.448v6.181c0 1.347-1.1 2.448-2.45 2.448Zm137.09-7.466a2.461 2.461 0 0 1-2.45-2.448v-6.182a2.461 2.461 0 0 1 2.45-2.448c1.35 0 2.45 1.102 2.45 2.448v6.182c0 1.346-1.1 2.448-2.45 2.448Zm-137.08-11.078h-.12a2.452 2.452 0 0 1-2.33-2.57 8.539 8.539 0 0 1 4.37-7.051 2.437 2.437 0 0 1 3.33.943 2.437 2.437 0 0 1-.94 3.329 3.647 3.647 0 0 0-1.87 3.024 2.447 2.447 0 0 1-2.45 2.325h.01Zm132.77-5.545c-.24 0-.47-.036-.72-.11-.35-.11-.71-.159-1.09-.159h-4.34a2.454 2.454 0 0 1-2.45-2.448c0-1.346 1.1-2.448 2.45-2.448h4.34c.86 0 1.72.122 2.54.379 1.29.404 2.02 1.775 1.61 3.061a2.45 2.45 0 0 1-2.34 1.725Zm-18.52-.269h-6.18a2.46 2.46 0 0 1-2.45-2.448 2.461 2.461 0 0 1 2.45-2.448h6.18c1.35 0 2.45 1.102 2.45 2.448 0 1.347-1.1 2.448-2.45 2.448Zm-18.54 0h-6.18a2.454 2.454 0 0 1-2.45-2.448c0-1.346 1.1-2.448 2.45-2.448h6.18c1.35 0 2.45 1.102 2.45 2.448 0 1.347-1.1 2.448-2.45 2.448Zm-18.54 0h-6.19a2.452 2.452 0 0 1-2.44-2.448c0-1.346 1.1-2.448 2.44-2.448h6.19c1.34 0 2.44 1.102 2.44 2.448 0 1.347-1.1 2.448-2.44 2.448Zm-18.55 0h-6.18a2.454 2.454 0 0 1-2.45-2.448c0-1.346 1.1-2.448 2.45-2.448h6.18c1.35 0 2.45 1.102 2.45 2.448 0 1.347-1.1 2.448-2.45 2.448Zm-18.54 0h-6.18a2.454 2.454 0 0 1-2.45-2.448c0-1.346 1.1-2.448 2.45-2.448h6.18c1.34 0 2.45 1.102 2.45 2.448a2.46 2.46 0 0 1-2.45 2.448Zm-18.55 0h-6.18a2.46 2.46 0 0 1-2.45-2.448 2.461 2.461 0 0 1 2.45-2.448h6.18c1.35 0 2.45 1.102 2.45 2.448 0 1.347-1.1 2.448-2.45 2.448Z" fill="#EAF2FE"/><path id="Vector_21" d="M1186.09 878.591c-19.78 0-42.2-12.558-52.05-29.511a5.498 5.498 0 0 1 2-7.528 5.495 5.495 0 0 1 7.52 1.995c8.11 13.954 28.51 24.934 44.57 23.967 10.98-.661 18.89-6.402 23.48-17.075 1.64-3.807 1.38-8.152-.74-12.241-2.71-5.251-11.12-14.884-36.79-20.331-2.98-.624-4.87-3.55-4.25-6.524.63-2.974 3.55-4.884 6.51-4.26 12.38 2.571 25.79-3.806 30.57-14.541 2.85-6.414 2.27-14.187-1.48-20.295-1.85-2.986-6.07-8.042-13.69-8.384-11.27-.502-25.43 7.271-31.69 25.839a5.51 5.51 0 0 1-6.98 3.464 5.51 5.51 0 0 1-3.46-6.977c8.08-24.003 27.22-34.065 42.63-33.33 9.26.428 17.47 5.385 22.55 13.599 5.66 9.155 6.49 20.857 2.18 30.552-3.4 7.662-9.84 13.782-17.58 17.54 12.27 5.839 18.3 12.865 21.26 18.581 3.66 7.063 4.04 14.762 1.07 21.653-6.2 14.382-17.88 22.804-32.94 23.71-.89.049-1.8.085-2.71.085l.02.012Z" fill="#575FE1"/><path id="Vector_22" d="M698.75 799.934c-4.995 0-9.058-4.064-9.058-9.058s4.063-9.058 9.058-9.058c4.994 0 9.057 4.064 9.057 9.058s-4.063 9.058-9.057 9.058Zm0-15.655a6.613 6.613 0 0 0-6.61 6.609 6.613 6.613 0 0 0 6.61 6.61 6.613 6.613 0 0 0 6.609-6.61 6.613 6.613 0 0 0-6.609-6.609Z" fill="#2F2F45"/><path id="Vector_23" d="M927.742 799.934c-4.994 0-9.058-4.064-9.058-9.058s4.064-9.058 9.058-9.058 9.058 4.064 9.058 9.058-4.064 9.058-9.058 9.058Zm0-15.655a6.613 6.613 0 0 0-6.61 6.609 6.613 6.613 0 0 0 6.61 6.61 6.613 6.613 0 0 0 6.609-6.61 6.613 6.613 0 0 0-6.609-6.609Z" fill="#2F2F45"/><path id="Vector_24" d="M1154.31 799.934c-4.99 0-9.06-4.064-9.06-9.058s4.07-9.058 9.06-9.058 9.06 4.064 9.06 9.058-4.07 9.058-9.06 9.058Zm0-15.655a6.612 6.612 0 0 0-6.61 6.609c0 3.648 2.96 6.61 6.61 6.61 3.65 0 6.61-2.962 6.61-6.61a6.612 6.612 0 0 0-6.61-6.609Z" fill="#2F2F45"/><g id="Group_4" fill="#2F2F45"><path id="Vector_25" d="M713.389 792.111a1.22 1.22 0 0 1-1.15-1.64c4.002-11.053 12.485-15.998 12.84-16.194a1.22 1.22 0 0 1 1.664.453 1.219 1.219 0 0 1-.453 1.665c-.085.049-8.078 4.725-11.763 14.909a1.22 1.22 0 0 1-1.15.807h.012Z"/><path id="Vector_26" d="M725.275 780.961c-.135 0-.27-.025-.392-.061a1.226 1.226 0 0 1-.759-1.555l1.2-3.513-3.636-.722a1.232 1.232 0 0 1-.967-1.432c.135-.661.784-1.102 1.432-.967l5.019.991c.343.074.649.282.82.588.171.306.208.673.098 1.003l-1.652 4.835a1.22 1.22 0 0 1-1.163.833Z"/></g><g id="Group_5" fill="#2F2F45"><path id="Vector_27" d="M952.002 801.403c-.612 0-.979-.024-1.053-.037a1.22 1.22 0 0 1-1.126-1.309 1.212 1.212 0 0 1 1.31-1.126c.098 0 9.339.612 18.091-5.741a1.231 1.231 0 0 1 1.714.269 1.23 1.23 0 0 1-.269 1.714c-7.822 5.679-15.827 6.23-18.667 6.23Z"/><path id="Vector_28" d="M953.361 804.659c-.318 0-.637-.123-.869-.367l-3.599-3.636a1.26 1.26 0 0 1-.355-.954c.025-.355.208-.674.49-.894l4.088-3.072a1.228 1.228 0 0 1 1.714.245 1.227 1.227 0 0 1-.245 1.713l-2.962 2.228 2.607 2.644a1.23 1.23 0 0 1 0 1.726 1.229 1.229 0 0 1-.857.355l-.012.012Z"/></g><g id="Group_6" fill="#2F2F45"><path id="Vector_29" d="M1157.95 847.977c-.22 0-.44-.061-.64-.184-10.04-6.132-13.18-15.422-13.32-15.814-.21-.637.14-1.334.79-1.542.63-.208 1.33.134 1.54.783.02.086 3.02 8.862 12.26 14.493.58.355.76 1.101.41 1.677-.24.379-.64.587-1.04.587Z"/><path id="Vector_30" d="M1143.02 836.24c-.15 0-.31-.025-.47-.098-.63-.257-.92-.98-.66-1.604l1.97-4.712c.13-.331.4-.576.74-.686.33-.11.7-.073 1.01.11l4.4 2.595c.59.343.78 1.09.44 1.677-.34.575-1.08.784-1.67.441l-3.2-1.885-1.43 3.427a1.22 1.22 0 0 1-1.13.747v-.012Z"/></g></g></g></svg>